<svg xmlns="http://www.w3.org/2000/svg" width="226.75" height="56.347" viewBox="0 0 226.75 56.347">
  <g id="Grupo_3311" data-name="Grupo 3311" transform="translate(-9886.875 -4310.02)">
    <g id="Grupo_3310" data-name="Grupo 3310">
      <g id="Grupo_3309" data-name="Grupo 3309">
        <g id="Grupo_3308" data-name="Grupo 3308">
          <g id="Grupo_3307" data-name="Grupo 3307">
            <g id="Grupo_3306" data-name="Grupo 3306">
              <path id="Caminho_8612" data-name="Caminho 8612" d="M18.3,48.615,5.107,23.506H187.681l13.193,25.109-13.193,25.11H5.107ZM0,20.442,14.725,48.615,0,76.789H189.554l14.725-28.173L189.554,20.442Z" transform="translate(9886.875 4289.578)" fill="#fcc103"/>
              <path id="Caminho_8613" data-name="Caminho 8613" d="M31.918,51.461,21.959,70.442H54.984l9.959-18.981L54.9,32.48H21.959Z" transform="translate(9881.684 4286.732)" fill="#fcc103"/>
              <path id="Caminho_8614" data-name="Caminho 8614" d="M231.654,32.48l9.959,18.981-9.959,18.98H62.869l9.959-18.98L62.869,32.48Z" transform="translate(9872.012 4286.731)" fill="#fff"/>
              <path id="Caminho_8615" data-name="Caminho 8615" d="M95.461,56.356a4.19,4.19,0,0,1-1.2,3.218,4.878,4.878,0,0,1-3.454,1.117H88.4V52.184h2.671a4.5,4.5,0,0,1,3.235,1.1,4.043,4.043,0,0,1,1.152,3.072m-1.874.047q0-2.741-2.421-2.741h-.96V59.2h.774q2.607,0,2.607-2.8" transform="translate(9865.976 4282.073)" fill="#294667"/>
              <path id="Caminho_8616" data-name="Caminho 8616" d="M99.673,52.335q0-.866.966-.867t.966.867a.844.844,0,0,1-.242.643,1.012,1.012,0,0,1-.724.23q-.967,0-.966-.873m1.85,8.187H99.749v-6.5h1.775Z" transform="translate(9863.311 4282.242)" fill="#294667"/>
              <path id="Caminho_8617" data-name="Caminho 8617" d="M110.359,61.273h-1.775v-3.8a1.914,1.914,0,0,0-.236-1.056.828.828,0,0,0-.741-.352,1.073,1.073,0,0,0-.989.5,3.277,3.277,0,0,0-.308,1.647v3.06h-1.775v-6.5h1.355l.238.832h.1a1.8,1.8,0,0,1,.757-.7,2.451,2.451,0,0,1,1.134-.253,2.044,2.044,0,0,1,1.978.954h.157a1.757,1.757,0,0,1,.771-.7,2.573,2.573,0,0,1,1.148-.25,2.265,2.265,0,0,1,1.673.567,2.492,2.492,0,0,1,.567,1.818v4.242h-1.781v-3.8a1.921,1.921,0,0,0-.235-1.056.83.83,0,0,0-.742-.352,1.105,1.105,0,0,0-.974.466,2.639,2.639,0,0,0-.323,1.478Z" transform="translate(9862.161 4281.491)" fill="#294667"/>
              <path id="Caminho_8618" data-name="Caminho 8618" d="M122.68,61.389a3.358,3.358,0,0,1-2.456-.867,3.281,3.281,0,0,1-.884-2.455,3.613,3.613,0,0,1,.817-2.528,2.912,2.912,0,0,1,2.261-.893,2.866,2.866,0,0,1,2.147.786,2.973,2.973,0,0,1,.768,2.17v.861h-4.2a1.7,1.7,0,0,0,.448,1.181,1.574,1.574,0,0,0,1.175.425,4.862,4.862,0,0,0,1.111-.122,5.549,5.549,0,0,0,1.093-.39v1.374a4.175,4.175,0,0,1-.994.346,6.283,6.283,0,0,1-1.292.114m-.25-5.481a1.125,1.125,0,0,0-.884.357,1.657,1.657,0,0,0-.367,1.016h2.49a1.482,1.482,0,0,0-.343-1.016,1.164,1.164,0,0,0-.9-.357" transform="translate(9858.661 4281.491)" fill="#294667"/>
              <path id="Caminho_8619" data-name="Caminho 8619" d="M135.083,61.273h-1.775v-3.8a1.83,1.83,0,0,0-.25-1.056.91.91,0,0,0-.8-.352,1.2,1.2,0,0,0-1.076.5,3.08,3.08,0,0,0-.332,1.649v3.06h-1.775v-6.5h1.356l.238.832h.1a1.879,1.879,0,0,1,.817-.712,2.784,2.784,0,0,1,1.184-.241,2.274,2.274,0,0,1,1.722.614,2.463,2.463,0,0,1,.588,1.772Z" transform="translate(9856.359 4281.491)" fill="#294667"/>
              <path id="Caminho_8620" data-name="Caminho 8620" d="M143.751,59.341a1.791,1.791,0,0,1-.7,1.525,3.436,3.436,0,0,1-2.08.523,6.6,6.6,0,0,1-1.21-.1,4.572,4.572,0,0,1-.936-.283V59.545a6.17,6.17,0,0,0,1.114.389,4.479,4.479,0,0,0,1.09.157q.967,0,.967-.559a.467.467,0,0,0-.128-.34,1.852,1.852,0,0,0-.442-.3c-.209-.111-.489-.239-.838-.387a5.26,5.26,0,0,1-1.1-.582,1.639,1.639,0,0,1-.512-.614,2.021,2.021,0,0,1-.16-.852,1.545,1.545,0,0,1,.671-1.341,3.275,3.275,0,0,1,1.906-.474,5.412,5.412,0,0,1,2.287.512l-.535,1.281q-.489-.21-.914-.344a2.86,2.86,0,0,0-.867-.134q-.786,0-.786.425a.5.5,0,0,0,.254.413,6.949,6.949,0,0,0,1.108.518,5.135,5.135,0,0,1,1.117.577,1.694,1.694,0,0,1,.524.616,1.9,1.9,0,0,1,.169.832" transform="translate(9854.057 4281.491)" fill="#294667"/>
              <path id="Caminho_8621" data-name="Caminho 8621" d="M151.09,60.532l-.344-.884H150.7a2.613,2.613,0,0,1-.922.783,2.986,2.986,0,0,1-1.236.218,2,2,0,0,1-1.475-.536,2.054,2.054,0,0,1-.538-1.524,1.715,1.715,0,0,1,.725-1.527,4.2,4.2,0,0,1,2.185-.544l1.129-.034V56.2a.885.885,0,0,0-1.012-.99,4.619,4.619,0,0,0-1.833.471l-.588-1.2a5.292,5.292,0,0,1,2.491-.587,3.1,3.1,0,0,1,2.007.57,2.108,2.108,0,0,1,.7,1.734v4.334ZM148.745,52.7a.5.5,0,0,0-.346.154.912.912,0,0,0-.241.468h-.867A2.214,2.214,0,0,1,147.77,52a1.391,1.391,0,0,1,1.1-.477,1.2,1.2,0,0,1,.468.1q.23.1.454.21t.439.206a1.067,1.067,0,0,0,.425.093.513.513,0,0,0,.347-.151.9.9,0,0,0,.241-.466h.867a2.188,2.188,0,0,1-.486,1.321,1.4,1.4,0,0,1-1.1.477,1.2,1.2,0,0,1-.469-.1q-.23-.1-.454-.209t-.44-.21a1.045,1.045,0,0,0-.425-.1m1.821,4.817-.686.024a2.2,2.2,0,0,0-1.152.279.878.878,0,0,0-.378.78q0,.751.861.751A1.362,1.362,0,0,0,150.2,59a1.247,1.247,0,0,0,.37-.943Z" transform="translate(9852.233 4282.232)" fill="#294667"/>
              <path id="Caminho_8622" data-name="Caminho 8622" d="M162.307,58.009a3.5,3.5,0,0,1-.838,2.485,3.038,3.038,0,0,1-2.334.9,3.265,3.265,0,0,1-1.652-.41,2.729,2.729,0,0,1-1.1-1.178A3.963,3.963,0,0,1,156,58.009a3.474,3.474,0,0,1,.832-2.479,3.055,3.055,0,0,1,2.339-.884,3.279,3.279,0,0,1,1.652.407,2.717,2.717,0,0,1,1.1,1.17,3.914,3.914,0,0,1,.384,1.786m-4.5,0a2.724,2.724,0,0,0,.318,1.461,1.132,1.132,0,0,0,1.032.495,1.116,1.116,0,0,0,1.021-.492,2.77,2.77,0,0,0,.312-1.464,2.7,2.7,0,0,0-.314-1.449,1.335,1.335,0,0,0-2.054,0,2.679,2.679,0,0,0-.315,1.452" transform="translate(9849.994 4281.491)" fill="#294667"/>
              <path id="Caminho_8623" data-name="Caminho 8623" d="M170.135,52.335q0-.866.966-.867t.966.867a.844.844,0,0,1-.242.643,1.012,1.012,0,0,1-.724.23q-.967,0-.966-.873m1.85,8.187h-1.775v-6.5h1.775Z" transform="translate(9846.652 4282.242)" fill="#294667"/>
              <path id="Caminho_8624" data-name="Caminho 8624" d="M181,61.273h-1.775v-3.8a1.83,1.83,0,0,0-.25-1.056.91.91,0,0,0-.8-.352,1.2,1.2,0,0,0-1.076.5,3.08,3.08,0,0,0-.332,1.649v3.06H175v-6.5h1.356l.238.832h.1a1.879,1.879,0,0,1,.817-.712,2.784,2.784,0,0,1,1.184-.241,2.274,2.274,0,0,1,1.722.614A2.463,2.463,0,0,1,181,57.031Z" transform="translate(9845.504 4281.491)" fill="#294667"/>
              <path id="Caminho_8625" data-name="Caminho 8625" d="M187.191,60.638a2.115,2.115,0,0,1-1.8-.89,4.987,4.987,0,0,1,.012-4.96,2.163,2.163,0,0,1,1.836-.893,2.123,2.123,0,0,1,1.873.954h.058a7.319,7.319,0,0,1-.134-1.3V51.468h1.781v9.053h-1.361l-.344-.844h-.076a2.029,2.029,0,0,1-1.844.961m.622-1.414a1.2,1.2,0,0,0,1-.4,2.3,2.3,0,0,0,.346-1.344v-.192a2.66,2.66,0,0,0-.323-1.5,1.2,1.2,0,0,0-1.05-.454,1.041,1.041,0,0,0-.922.5,2.684,2.684,0,0,0-.328,1.463,2.541,2.541,0,0,0,.331,1.44,1.081,1.081,0,0,0,.948.48" transform="translate(9843.201 4282.242)" fill="#294667"/>
              <path id="Caminho_8626" data-name="Caminho 8626" d="M195.029,52.335q0-.866.966-.867t.966.867a.843.843,0,0,1-.241.643,1.014,1.014,0,0,1-.725.23q-.966,0-.966-.873m1.851,8.187h-1.775v-6.5h1.775Z" transform="translate(9840.768 4282.242)" fill="#294667"/>
              <path id="Caminho_8627" data-name="Caminho 8627" d="M201.151,61.311l-2.479-6.5h1.856l1.257,3.706a6.565,6.565,0,0,1,.261,1.332h.035a5.82,5.82,0,0,1,.262-1.332l1.251-3.706h1.856l-2.479,6.5Z" transform="translate(9839.906 4281.453)" fill="#294667"/>
              <path id="Caminho_8628" data-name="Caminho 8628" d="M208.669,52.335q0-.866.967-.867t.965.867a.843.843,0,0,1-.241.643,1.013,1.013,0,0,1-.724.23q-.967,0-.967-.873m1.851,8.187h-1.775v-6.5h1.775Z" transform="translate(9837.543 4282.242)" fill="#294667"/>
              <path id="Caminho_8629" data-name="Caminho 8629" d="M215.469,60.638a2.115,2.115,0,0,1-1.8-.89,4.987,4.987,0,0,1,.012-4.96,2.163,2.163,0,0,1,1.836-.893,2.123,2.123,0,0,1,1.873.954h.058a7.318,7.318,0,0,1-.134-1.3V51.468h1.781v9.053h-1.361l-.344-.844h-.076a2.029,2.029,0,0,1-1.844.961m.622-1.414a1.2,1.2,0,0,0,1-.4,2.3,2.3,0,0,0,.346-1.344v-.192a2.66,2.66,0,0,0-.323-1.5,1.2,1.2,0,0,0-1.05-.454,1.041,1.041,0,0,0-.922.5,2.684,2.684,0,0,0-.328,1.463,2.541,2.541,0,0,0,.331,1.44,1.081,1.081,0,0,0,.948.48" transform="translate(9836.516 4282.242)" fill="#294667"/>
              <path id="Caminho_8630" data-name="Caminho 8630" d="M228,61.311l-.238-.832h-.094a1.871,1.871,0,0,1-.809.7,2.771,2.771,0,0,1-1.193.247,2.273,2.273,0,0,1-1.728-.613,2.47,2.47,0,0,1-.582-1.766V54.806h1.775v3.8a1.83,1.83,0,0,0,.25,1.056.91.91,0,0,0,.8.352,1.2,1.2,0,0,0,1.076-.5,3.08,3.08,0,0,0,.332-1.649v-3.06h1.775v6.5Z" transform="translate(9834.069 4281.453)" fill="#294667"/>
              <path id="Caminho_8631" data-name="Caminho 8631" d="M237.661,61.269l-.344-.884h-.047a2.613,2.613,0,0,1-.922.783,2.986,2.986,0,0,1-1.236.218,2,2,0,0,1-1.475-.536,2.054,2.054,0,0,1-.538-1.524,1.715,1.715,0,0,1,.725-1.527,4.2,4.2,0,0,1,2.185-.544l1.129-.034v-.285a.885.885,0,0,0-1.013-.99,4.619,4.619,0,0,0-1.833.471l-.588-1.2a5.292,5.292,0,0,1,2.491-.587,3.1,3.1,0,0,1,2.007.57,2.108,2.108,0,0,1,.7,1.734v4.334Zm-.524-3.014-.686.024a2.2,2.2,0,0,0-1.152.279.878.878,0,0,0-.378.78q0,.751.861.751a1.362,1.362,0,0,0,.986-.354,1.247,1.247,0,0,0,.37-.943Z" transform="translate(9831.768 4281.495)" fill="#294667"/>
              <rect id="Retângulo_1916" data-name="Retângulo 1916" width="1.775" height="9.053" transform="translate(10072.494 4333.711)" fill="#294667"/>
            </g>
          </g>
        </g>
      </g>
    </g>
  </g>
</svg>
