<svg xmlns="http://www.w3.org/2000/svg" width="226.75" height="56.347" viewBox="0 0 226.75 56.347">
  <g id="Grupo_3319" data-name="Grupo 3319" transform="translate(-9886.875 -4599.62)">
    <g id="Grupo_3318" data-name="Grupo 3318">
      <g id="Grupo_3317" data-name="Grupo 3317">
        <g id="Grupo_3316" data-name="Grupo 3316">
          <g id="Grupo_3315" data-name="Grupo 3315">
            <path id="Caminho_9368" data-name="Caminho 9368" d="M200.874,312.615l-13.192-25.109H5.107L18.3,312.615,5.107,337.725H187.682Zm-11.32-28.173,14.725,28.173-14.725,28.174H0l14.725-28.174L0,284.442Z" transform="translate(9886.875 4315.178)" fill="#1b8790"/>
            <path id="Caminho_9369" data-name="Caminho 9369" d="M31.918,315.461l-9.959,18.981H54.984l9.959-18.981L54.9,296.48H21.959Z" transform="translate(9881.684 4312.332)" fill="#1b8790"/>
            <path id="Caminho_9370" data-name="Caminho 9370" d="M231.654,296.48l9.959,18.981-9.959,18.98H62.869l9.959-18.98L62.869,296.48Z" transform="translate(9872.012 4312.332)" fill="#fff"/>
            <path id="Caminho_9371" data-name="Caminho 9371" d="M95.461,320.355a4.189,4.189,0,0,1-1.2,3.218,4.875,4.875,0,0,1-3.454,1.117H88.4v-8.506h2.671a4.5,4.5,0,0,1,3.235,1.1,4.045,4.045,0,0,1,1.152,3.072m-1.874.047q0-2.742-2.421-2.741h-.96v5.54h.774q2.607,0,2.607-2.8" transform="translate(9865.976 4307.673)" fill="#294667"/>
            <path id="Caminho_9372" data-name="Caminho 9372" d="M99.673,316.335q0-.866.966-.867t.966.867a.845.845,0,0,1-.242.643,1.016,1.016,0,0,1-.724.23q-.967,0-.966-.873m1.85,8.186H99.749v-6.5h1.775Z" transform="translate(9863.311 4307.843)" fill="#294667"/>
            <path id="Caminho_9373" data-name="Caminho 9373" d="M110.359,325.272h-1.775v-3.8a1.909,1.909,0,0,0-.236-1.055.826.826,0,0,0-.741-.352,1.071,1.071,0,0,0-.989.5,3.272,3.272,0,0,0-.308,1.646v3.06h-1.775v-6.505h1.355l.238.832h.1a1.806,1.806,0,0,1,.757-.7,2.46,2.46,0,0,1,1.134-.253,2.044,2.044,0,0,1,1.978.954h.157a1.762,1.762,0,0,1,.771-.7,2.584,2.584,0,0,1,1.148-.25,2.265,2.265,0,0,1,1.673.567,2.494,2.494,0,0,1,.567,1.818v4.242h-1.781v-3.8a1.917,1.917,0,0,0-.235-1.055.828.828,0,0,0-.742-.352,1.107,1.107,0,0,0-.974.465,2.641,2.641,0,0,0-.323,1.478Z" transform="translate(9862.161 4307.092)" fill="#294667"/>
            <path id="Caminho_9374" data-name="Caminho 9374" d="M122.68,325.389a3.357,3.357,0,0,1-2.456-.867,3.284,3.284,0,0,1-.884-2.456,3.609,3.609,0,0,1,.817-2.527,2.909,2.909,0,0,1,2.261-.893,2.865,2.865,0,0,1,2.147.785,2.975,2.975,0,0,1,.768,2.171v.861h-4.2a1.7,1.7,0,0,0,.448,1.181,1.574,1.574,0,0,0,1.175.425,4.863,4.863,0,0,0,1.111-.122,5.454,5.454,0,0,0,1.093-.39v1.374a4.141,4.141,0,0,1-.994.346,6.23,6.23,0,0,1-1.292.114m-.25-5.481a1.123,1.123,0,0,0-.884.358,1.655,1.655,0,0,0-.367,1.016h2.49a1.481,1.481,0,0,0-.343-1.016,1.162,1.162,0,0,0-.9-.358" transform="translate(9858.661 4307.091)" fill="#294667"/>
            <path id="Caminho_9375" data-name="Caminho 9375" d="M135.083,325.272h-1.775v-3.8a1.825,1.825,0,0,0-.25-1.055.908.908,0,0,0-.8-.352,1.2,1.2,0,0,0-1.076.5,3.081,3.081,0,0,0-.332,1.649v3.06h-1.775v-6.505h1.356l.238.832h.1a1.877,1.877,0,0,1,.817-.712,2.784,2.784,0,0,1,1.184-.242,2.274,2.274,0,0,1,1.722.614,2.464,2.464,0,0,1,.588,1.772Z" transform="translate(9856.359 4307.092)" fill="#294667"/>
            <path id="Caminho_9376" data-name="Caminho 9376" d="M143.751,323.341a1.789,1.789,0,0,1-.7,1.524,3.436,3.436,0,0,1-2.08.524,6.6,6.6,0,0,1-1.21-.1,4.57,4.57,0,0,1-.936-.283v-1.466a6.167,6.167,0,0,0,1.114.389,4.511,4.511,0,0,0,1.09.157q.967,0,.967-.558a.467.467,0,0,0-.128-.34,1.852,1.852,0,0,0-.442-.3c-.209-.111-.489-.239-.838-.387a5.26,5.26,0,0,1-1.1-.582,1.645,1.645,0,0,1-.512-.614,2.021,2.021,0,0,1-.16-.852,1.545,1.545,0,0,1,.671-1.341,3.275,3.275,0,0,1,1.906-.474,5.412,5.412,0,0,1,2.287.512l-.535,1.28c-.326-.139-.631-.254-.914-.343a2.861,2.861,0,0,0-.867-.134q-.786,0-.786.425a.5.5,0,0,0,.254.413,6.952,6.952,0,0,0,1.108.518,5.1,5.1,0,0,1,1.117.577,1.694,1.694,0,0,1,.524.616,1.9,1.9,0,0,1,.169.832" transform="translate(9854.057 4307.091)" fill="#294667"/>
            <path id="Caminho_9377" data-name="Caminho 9377" d="M151.09,324.532l-.344-.884H150.7a2.613,2.613,0,0,1-.922.783,2.975,2.975,0,0,1-1.236.218,2,2,0,0,1-1.475-.536,2.051,2.051,0,0,1-.538-1.524,1.715,1.715,0,0,1,.725-1.527,4.2,4.2,0,0,1,2.185-.544l1.129-.034V320.2a.884.884,0,0,0-1.012-.989,4.606,4.606,0,0,0-1.833.471l-.588-1.2a5.3,5.3,0,0,1,2.491-.587,3.1,3.1,0,0,1,2.007.57,2.109,2.109,0,0,1,.7,1.734v4.334Zm-2.345-7.831a.508.508,0,0,0-.346.154.912.912,0,0,0-.241.469h-.867a2.214,2.214,0,0,1,.48-1.322,1.391,1.391,0,0,1,1.1-.477,1.2,1.2,0,0,1,.468.1q.23.1.454.21t.439.206a1.067,1.067,0,0,0,.425.093.513.513,0,0,0,.347-.151.9.9,0,0,0,.241-.465h.867a2.187,2.187,0,0,1-.486,1.32,1.4,1.4,0,0,1-1.1.477,1.2,1.2,0,0,1-.469-.1q-.23-.1-.454-.209t-.44-.21a1.045,1.045,0,0,0-.425-.1m1.821,4.817-.686.024a2.2,2.2,0,0,0-1.152.279.879.879,0,0,0-.378.78q0,.75.861.75A1.362,1.362,0,0,0,150.2,323a1.246,1.246,0,0,0,.37-.943Z" transform="translate(9852.233 4307.832)" fill="#294667"/>
            <path id="Caminho_9378" data-name="Caminho 9378" d="M162.307,322.009a3.5,3.5,0,0,1-.838,2.485,3.038,3.038,0,0,1-2.334.9,3.265,3.265,0,0,1-1.652-.41,2.733,2.733,0,0,1-1.1-1.178,3.963,3.963,0,0,1-.384-1.792,3.474,3.474,0,0,1,.832-2.479,3.052,3.052,0,0,1,2.339-.884,3.279,3.279,0,0,1,1.652.407,2.715,2.715,0,0,1,1.1,1.169,3.917,3.917,0,0,1,.384,1.787m-4.5,0a2.721,2.721,0,0,0,.318,1.46,1.131,1.131,0,0,0,1.032.5,1.115,1.115,0,0,0,1.021-.492,2.765,2.765,0,0,0,.312-1.463,2.693,2.693,0,0,0-.314-1.449,1.335,1.335,0,0,0-2.054,0,2.678,2.678,0,0,0-.315,1.452" transform="translate(9849.994 4307.091)" fill="#294667"/>
            <path id="Caminho_9379" data-name="Caminho 9379" d="M173.807,325.389a2.158,2.158,0,0,1-1.8-.832h-.094q.094.814.094.942v2.635h-1.775v-9.367h1.443l.25.843h.082a2.053,2.053,0,0,1,1.844-.965,2.109,2.109,0,0,1,1.8.89,4.115,4.115,0,0,1,.651,2.472,4.9,4.9,0,0,1-.3,1.81,2.538,2.538,0,0,1-.871,1.169,2.224,2.224,0,0,1-1.326.4m-.524-5.324a1.122,1.122,0,0,0-.96.4,2.32,2.32,0,0,0-.314,1.336V322a2.737,2.737,0,0,0,.311,1.5,1.11,1.11,0,0,0,.987.454q1.192,0,1.193-1.966a2.816,2.816,0,0,0-.294-1.441,1,1,0,0,0-.922-.48" transform="translate(9846.629 4307.091)" fill="#294667"/>
            <path id="Caminho_9380" data-name="Caminho 9380" d="M183.74,318.645a2.85,2.85,0,0,1,.6.052l-.134,1.665a2.023,2.023,0,0,0-.523-.058,1.882,1.882,0,0,0-1.324.436,1.577,1.577,0,0,0-.474,1.222v3.311h-1.775v-6.505h1.344l.262,1.094h.087a2.455,2.455,0,0,1,.818-.883,2.021,2.021,0,0,1,1.12-.334" transform="translate(9844.295 4307.092)" fill="#294667"/>
            <path id="Caminho_9381" data-name="Caminho 9381" d="M192.984,322.009a3.5,3.5,0,0,1-.838,2.485,3.038,3.038,0,0,1-2.334.9,3.265,3.265,0,0,1-1.652-.41,2.734,2.734,0,0,1-1.1-1.178,3.963,3.963,0,0,1-.384-1.792,3.474,3.474,0,0,1,.832-2.479,3.052,3.052,0,0,1,2.339-.884,3.279,3.279,0,0,1,1.652.407,2.715,2.715,0,0,1,1.1,1.169,3.917,3.917,0,0,1,.384,1.787m-4.5,0a2.721,2.721,0,0,0,.318,1.46,1.131,1.131,0,0,0,1.032.5,1.115,1.115,0,0,0,1.021-.492,2.765,2.765,0,0,0,.312-1.463,2.693,2.693,0,0,0-.314-1.449,1.335,1.335,0,0,0-2.054,0,2.678,2.678,0,0,0-.315,1.452" transform="translate(9842.742 4307.091)" fill="#294667"/>
            <path id="Caminho_9382" data-name="Caminho 9382" d="M202.242,318.768v.9l-1.019.261a1.769,1.769,0,0,1,.279.978,1.974,1.974,0,0,1-.73,1.632,3.162,3.162,0,0,1-2.028.585l-.32-.017-.261-.03a.591.591,0,0,0-.274.466q0,.384.978.384h1.1a2.525,2.525,0,0,1,1.633.459,1.645,1.645,0,0,1,.561,1.35,2,2,0,0,1-.951,1.769,4.957,4.957,0,0,1-2.731.628,3.785,3.785,0,0,1-2.081-.475,1.505,1.505,0,0,1-.718-1.329,1.388,1.388,0,0,1,.367-.983,2.071,2.071,0,0,1,1.076-.564,1.2,1.2,0,0,1-.477-.381.939.939,0,0,1,.011-1.181,2.5,2.5,0,0,1,.623-.486,1.745,1.745,0,0,1-.812-.709,2.159,2.159,0,0,1-.3-1.152,2.031,2.031,0,0,1,.692-1.647,3,3,0,0,1,1.978-.581,5.08,5.08,0,0,1,.649.049q.376.049.48.073Zm-5.021,7.424a.643.643,0,0,0,.352.576,1.936,1.936,0,0,0,.987.209,3.487,3.487,0,0,0,1.5-.262A.8.8,0,0,0,200.6,326a.506.506,0,0,0-.32-.506,2.606,2.606,0,0,0-.99-.141h-.919a1.394,1.394,0,0,0-.818.231.708.708,0,0,0-.328.608m.646-5.295a1.325,1.325,0,0,0,.241.838.878.878,0,0,0,.736.309.859.859,0,0,0,.733-.309,1.362,1.362,0,0,0,.233-.838q0-1.175-.966-1.176t-.977,1.176" transform="translate(9840.612 4307.091)" fill="#294667"/>
            <path id="Caminho_9383" data-name="Caminho 9383" d="M209.3,318.645a2.85,2.85,0,0,1,.6.052l-.134,1.665a2.023,2.023,0,0,0-.523-.058,1.882,1.882,0,0,0-1.324.436,1.577,1.577,0,0,0-.474,1.222v3.311h-1.775v-6.505h1.344l.262,1.094h.087a2.455,2.455,0,0,1,.818-.883,2.021,2.021,0,0,1,1.12-.334" transform="translate(9838.251 4307.092)" fill="#294667"/>
            <path id="Caminho_9384" data-name="Caminho 9384" d="M216.759,325.269l-.344-.884h-.047a2.613,2.613,0,0,1-.922.783,2.974,2.974,0,0,1-1.236.218,2,2,0,0,1-1.475-.536,2.051,2.051,0,0,1-.538-1.524,1.716,1.716,0,0,1,.725-1.527,4.2,4.2,0,0,1,2.185-.544l1.129-.034v-.285a.884.884,0,0,0-1.013-.989,4.606,4.606,0,0,0-1.833.471l-.588-1.2a5.3,5.3,0,0,1,2.491-.587,3.1,3.1,0,0,1,2.007.57,2.109,2.109,0,0,1,.7,1.734v4.334Zm-.524-3.014-.686.024a2.2,2.2,0,0,0-1.152.279.879.879,0,0,0-.378.78q0,.75.861.75a1.362,1.362,0,0,0,.986-.354,1.246,1.246,0,0,0,.37-.943Z" transform="translate(9836.709 4307.095)" fill="#294667"/>
            <path id="Caminho_9385" data-name="Caminho 9385" d="M228.011,325.272h-1.775v-3.8a1.909,1.909,0,0,0-.236-1.055.826.826,0,0,0-.741-.352,1.071,1.071,0,0,0-.989.5,3.272,3.272,0,0,0-.308,1.646v3.06h-1.775v-6.505h1.355l.238.832h.1a1.806,1.806,0,0,1,.757-.7,2.46,2.46,0,0,1,1.134-.253,2.044,2.044,0,0,1,1.978.954h.157a1.762,1.762,0,0,1,.771-.7,2.584,2.584,0,0,1,1.148-.25,2.265,2.265,0,0,1,1.673.567,2.494,2.494,0,0,1,.567,1.818v4.242h-1.781v-3.8a1.917,1.917,0,0,0-.235-1.055.828.828,0,0,0-.742-.352,1.107,1.107,0,0,0-.974.465,2.641,2.641,0,0,0-.323,1.478Z" transform="translate(9834.347 4307.092)" fill="#294667"/>
            <path id="Caminho_9386" data-name="Caminho 9386" d="M241.508,324.5l-.344-.884h-.047a2.613,2.613,0,0,1-.922.783,2.976,2.976,0,0,1-1.236.218,2,2,0,0,1-1.475-.535,2.054,2.054,0,0,1-.538-1.524,1.715,1.715,0,0,1,.725-1.527,4.192,4.192,0,0,1,2.185-.544l1.129-.035v-.285a.885.885,0,0,0-1.012-.989,4.6,4.6,0,0,0-1.833.472l-.588-1.2a5.3,5.3,0,0,1,2.491-.587,3.1,3.1,0,0,1,2.007.57,2.108,2.108,0,0,1,.7,1.733V324.5Zm-.524-3.014-.686.024a2.2,2.2,0,0,0-1.152.279.879.879,0,0,0-.378.78q0,.75.861.75a1.359,1.359,0,0,0,.986-.355,1.243,1.243,0,0,0,.37-.942Zm-1.972-4.207v-.157a16.377,16.377,0,0,0,1.368-1.751h1.99v.121q-.3.3-1.033.9t-1.143.887Z" transform="translate(9830.857 4307.866)" fill="#294667"/>
            <path id="Caminho_9387" data-name="Caminho 9387" d="M249.473,323.584a3.845,3.845,0,0,0,1.117-.2V324.7a3.97,3.97,0,0,1-1.629.3,1.994,1.994,0,0,1-1.551-.538,2.343,2.343,0,0,1-.486-1.615V319.71h-.85v-.751l.977-.593.512-1.373H248.7v1.385h1.821v1.332H248.7v3.135a.693.693,0,0,0,.212.559.834.834,0,0,0,.561.18" transform="translate(9828.699 4307.482)" fill="#294667"/>
            <path id="Caminho_9388" data-name="Caminho 9388" d="M253.611,316.335q0-.866.966-.867t.966.867a.845.845,0,0,1-.242.643,1.016,1.016,0,0,1-.724.23q-.967,0-.966-.873m1.85,8.186h-1.775v-6.5h1.775Z" transform="translate(9826.918 4307.843)" fill="#294667"/>
            <path id="Caminho_9389" data-name="Caminho 9389" d="M260.992,325.388q-3.038,0-3.038-3.334a3.56,3.56,0,0,1,.826-2.534,3.1,3.1,0,0,1,2.369-.875,4.514,4.514,0,0,1,2.024.442l-.523,1.373q-.419-.17-.78-.276a2.482,2.482,0,0,0-.721-.108q-1.385,0-1.385,1.967,0,1.908,1.385,1.908a3.142,3.142,0,0,0,.948-.137,3.441,3.441,0,0,0,.873-.428v1.519a2.888,2.888,0,0,1-.87.378,4.918,4.918,0,0,1-1.109.1" transform="translate(9825.892 4307.092)" fill="#294667"/>
            <path id="Caminho_9390" data-name="Caminho 9390" d="M270.495,325.269l-.344-.884H270.1a2.613,2.613,0,0,1-.922.783,2.974,2.974,0,0,1-1.236.218,2,2,0,0,1-1.475-.536,2.051,2.051,0,0,1-.538-1.524,1.715,1.715,0,0,1,.725-1.527,4.2,4.2,0,0,1,2.185-.544l1.129-.034v-.285a.884.884,0,0,0-1.013-.989,4.606,4.606,0,0,0-1.833.471l-.588-1.2a5.3,5.3,0,0,1,2.491-.587,3.1,3.1,0,0,1,2.007.57,2.109,2.109,0,0,1,.7,1.734v4.334Zm-.524-3.014-.686.024a2.2,2.2,0,0,0-1.152.279.879.879,0,0,0-.378.78q0,.75.861.75a1.362,1.362,0,0,0,.986-.354,1.246,1.246,0,0,0,.37-.943Z" transform="translate(9824.005 4307.095)" fill="#294667"/>
          </g>
        </g>
      </g>
    </g>
  </g>
</svg>
