<svg id="Grupo_2580" data-name="Grupo 2580" xmlns="http://www.w3.org/2000/svg" xmlns:xlink="http://www.w3.org/1999/xlink" width="457.625" height="182" viewBox="0 0 457.625 182">
  <defs>
    <clipPath id="clip-path">
      <rect id="Retângulo_1669" data-name="Retângulo 1669" width="457.625" height="182" fill="none"/>
    </clipPath>
    <clipPath id="clip-path-3">
      <rect id="Retângulo_1664" data-name="Retângulo 1664" width="457.625" height="162" transform="translate(0 20)" fill="none"/>
    </clipPath>
    <clipPath id="clip-path-4">
      <rect id="Retângulo_1665" data-name="Retângulo 1665" width="457.625" height="162" fill="none"/>
    </clipPath>
  </defs>
  <g id="Grupo_2579" data-name="Grupo 2579" clip-path="url(#clip-path)">
    <g id="Grupo_2576" data-name="Grupo 2576">
      <g id="Grupo_2575" data-name="Grupo 2575" clip-path="url(#clip-path)">
        <g id="Grupo_2571" data-name="Grupo 2571" opacity="0.3" style="isolation: isolate">
          <g id="Grupo_2570" data-name="Grupo 2570">
            <g id="Grupo_2569" data-name="Grupo 2569" clip-path="url(#clip-path-3)">
              <path id="Caminho_6011" data-name="Caminho 6011" d="M362.25,20H0l95.375,81L0,182H362.25l95.375-81Z" fill="#284666"/>
            </g>
          </g>
        </g>
        <g id="Grupo_2574" data-name="Grupo 2574" style="isolation: isolate">
          <g id="Grupo_2573" data-name="Grupo 2573">
            <g id="Grupo_2572" data-name="Grupo 2572" clip-path="url(#clip-path-4)">
              <path id="Caminho_6012" data-name="Caminho 6012" d="M362.25,0H0L95.375,81,0,162H362.25l95.375-81Z" fill="#f7a613"/>
            </g>
          </g>
        </g>
      </g>
    </g>
    <path id="Caminho_6013" data-name="Caminho 6013" d="M180.734,72.468h13.033v3.288H189.3V89.318h-4.1V75.756h-4.465Z" fill="#2f5579"/>
    <path id="Caminho_6014" data-name="Caminho 6014" d="M206.151,75.756h-6.217v3.408h5.5v3.169h-5.5v3.7h6.217v3.288H195.83V72.468h10.321Zm-2.472-9.864v3.192L197.9,71.508V68.676Z" fill="#2f5579"/>
    <g id="Grupo_2578" data-name="Grupo 2578">
      <g id="Grupo_2577" data-name="Grupo 2577" clip-path="url(#clip-path)">
        <path id="Caminho_6015" data-name="Caminho 6015" d="M216.59,72.275a7.823,7.823,0,0,1,7.992,5.9H220.07a3.713,3.713,0,0,0-3.528-2.161c-2.52,0-4.249,1.873-4.249,4.85s1.729,4.847,4.249,4.847a3.71,3.71,0,0,0,3.528-2.16h4.512a7.8,7.8,0,0,1-7.992,5.881,8.166,8.166,0,0,1-8.473-8.568,8.186,8.186,0,0,1,8.473-8.594" fill="#2f5579"/>
        <path id="Caminho_6016" data-name="Caminho 6016" d="M242.175,72.468v16.85h-4.1L231.2,78.924V89.318h-4.1V72.468h4.1l6.866,10.44V72.468Z" fill="#2f5579"/>
        <rect id="Retângulo_1667" data-name="Retângulo 1667" width="4.104" height="16.85" transform="translate(245.149 72.468)" fill="#2f5579"/>
        <path id="Caminho_6017" data-name="Caminho 6017" d="M260.006,72.275A7.823,7.823,0,0,1,268,78.18h-4.512a3.713,3.713,0,0,0-3.528-2.161c-2.52,0-4.249,1.873-4.249,4.85s1.729,4.847,4.249,4.847a3.71,3.71,0,0,0,3.528-2.16H268a7.8,7.8,0,0,1-7.992,5.881,8.166,8.166,0,0,1-8.473-8.568,8.186,8.186,0,0,1,8.473-8.594" fill="#2f5579"/>
        <path id="Caminho_6018" data-name="Caminho 6018" d="M281.006,86.342h-6.289l-1.008,2.975h-4.3l6.1-16.849h4.752l6.1,16.849h-4.345ZM277.862,77,275.8,83.173h4.152Z" fill="#2f5579"/>
      </g>
    </g>
  </g>
</svg>
