<svg xmlns="http://www.w3.org/2000/svg" xmlns:xlink="http://www.w3.org/1999/xlink" width="126.482" height="126.482" viewBox="0 0 126.482 126.482">
  <defs>
    <clipPath id="clip-path">
      <rect id="Retângulo_1641" data-name="Retângulo 1641" width="126.482" height="71.184" fill="none"/>
    </clipPath>
  </defs>
  <g id="Grupo_2522" data-name="Grupo 2522" transform="translate(0)">
    <path id="Caminho_5984" data-name="Caminho 5984" d="M313.8,694.491a63.241,63.241,0,1,1-63.241-63.241A63.241,63.241,0,0,1,313.8,694.491" transform="translate(-187.32 -631.25)" fill="#459e28"/>
    <g id="Grupo_2512" data-name="Grupo 2512" transform="translate(0 55.297)" opacity="0.5">
      <g id="Grupo_2499" data-name="Grupo 2499" transform="translate(0 0)">
        <g id="Grupo_2498" data-name="Grupo 2498" clip-path="url(#clip-path)">
          <path id="Caminho_5973" data-name="Caminho 5973" d="M250.561,788.233a63.251,63.251,0,0,1-62.746-55.3,63.241,63.241,0,1,0,125.491,0,63.251,63.251,0,0,1-62.746,55.3" transform="translate(-187.32 -732.935)" fill="#3b32b2"/>
        </g>
      </g>
    </g>
    <path id="Caminho_5985" data-name="Caminho 5985" d="M303.64,707.762a9.135,9.135,0,0,1-2.2,6.187,11.424,11.424,0,0,1-6.187,3.5v.159a12.366,12.366,0,0,1,7.116,2.854,8,8,0,0,1,2.417,6.121,10.37,10.37,0,0,1-4.063,8.723q-4.063,3.12-11.6,3.12a28.168,28.168,0,0,1-11.205-2.1V729.35a25.273,25.273,0,0,0,4.965,1.859,20.9,20.9,0,0,0,5.364.717q4.062,0,6-1.381a5.068,5.068,0,0,0,1.938-4.435,4.006,4.006,0,0,0-2.23-3.877q-2.231-1.141-7.116-1.141h-2.947V714.8h3q4.514,0,6.6-1.181a4.268,4.268,0,0,0,2.084-4.05q0-4.407-5.523-4.408a12.624,12.624,0,0,0-3.89.637,19.017,19.017,0,0,0-4.395,2.2l-3.8-5.656a21.1,21.1,0,0,1,12.666-3.824q6.027,0,9.519,2.443a7.836,7.836,0,0,1,3.492,6.8" transform="translate(-228.646 -661.939)" fill="#fff"/>
  </g>
</svg>
