<svg xmlns="http://www.w3.org/2000/svg" xmlns:xlink="http://www.w3.org/1999/xlink" width="225" height="98.235" viewBox="0 0 225 98.235">
  <defs>
    <clipPath id="clip-path">
      <rect id="Retângulo_1940" data-name="Retângulo 1940" width="182.306" height="75.282" fill="none"/>
    </clipPath>
    <clipPath id="clip-path-2">
      <rect id="Retângulo_1941" data-name="Retângulo 1941" width="76.879" height="53.881" transform="translate(148.121 3.522)" fill="none"/>
    </clipPath>
  </defs>
  <g id="Grupo_3124" data-name="Grupo 3124" transform="translate(-2144.486 1839.368)">
    <g id="Grupo_3123" data-name="Grupo 3123">
      <g id="Grupo_3122" data-name="Grupo 3122">
        <path id="Caminho_9512" data-name="Caminho 9512" d="M206.5,98.234H18.5A18.5,18.5,0,0,1,0,79.738V18.5A18.5,18.5,0,0,1,18.5,0H206.5A18.5,18.5,0,0,1,225,18.5V79.738a18.5,18.5,0,0,1-18.5,18.5" transform="translate(2144.486 -1839.367)" fill="#b59600"/>
        <path id="Caminho_9513" data-name="Caminho 9513" d="M206.037,95.159H18.964A15.906,15.906,0,0,1,3.076,79.271V18.963A15.906,15.906,0,0,1,18.964,3.075H206.037a15.906,15.906,0,0,1,15.888,15.888V79.271a15.906,15.906,0,0,1-15.888,15.888M18.964,3.758a15.222,15.222,0,0,0-15.205,15.2V79.271a15.222,15.222,0,0,0,15.205,15.2H206.037a15.222,15.222,0,0,0,15.205-15.2V18.963a15.222,15.222,0,0,0-15.205-15.2Z" transform="translate(2144.486 -1839.367)" fill="#fff"/>
        <g id="Grupo_3106" data-name="Grupo 3106" transform="translate(2144.486 -1839.367)" opacity="0.1">
          <g id="Grupo_3105" data-name="Grupo 3105">
            <g id="Grupo_3104" data-name="Grupo 3104" clip-path="url(#clip-path)">
              <path id="Caminho_9514" data-name="Caminho 9514" d="M18.964,0A18.964,18.964,0,0,0,0,18.964V75.282C37.573,66.971,125.744,43.86,182.307,0Z" fill="#fff"/>
            </g>
          </g>
        </g>
        <g id="Grupo_3109" data-name="Grupo 3109" transform="translate(2144.486 -1839.367)" opacity="0.05">
          <g id="Grupo_3108" data-name="Grupo 3108">
            <g id="Grupo_3107" data-name="Grupo 3107" clip-path="url(#clip-path-2)">
              <path id="Caminho_9515" data-name="Caminho 9515" d="M225,18.963a18.933,18.933,0,0,0-7.962-15.441C188.939,40.3,148.121,57.4,148.121,57.4,188.876,46.112,212.166,33.936,225,25.084Z" fill="#fff"/>
            </g>
          </g>
        </g>
        <path id="Caminho_9516" data-name="Caminho 9516" d="M39.613,52.6H34.4V43.815h5.213v1.9H36.772V47.1H39.4V49H36.772v1.658h2.841Z" transform="translate(2144.486 -1839.367)" fill="#fff"/>
        <path id="Caminho_9517" data-name="Caminho 9517" d="M46.268,50.505a1.935,1.935,0,0,1-.745,1.652,3.516,3.516,0,0,1-2.138.558,9.136,9.136,0,0,1-1.315-.081,5.616,5.616,0,0,1-1.142-.3v-1.88a7.071,7.071,0,0,0,1.2.4,5.067,5.067,0,0,0,1.163.156c.508,0,.763-.116.763-.349a.393.393,0,0,0-.214-.321,9.621,9.621,0,0,0-1.24-.549,3.108,3.108,0,0,1-1.309-.874,1.988,1.988,0,0,1-.373-1.241,1.719,1.719,0,0,1,.733-1.477,3.5,3.5,0,0,1,2.072-.529,5.186,5.186,0,0,1,1.265.148,7.551,7.551,0,0,1,1.228.429l-.636,1.513a7.173,7.173,0,0,0-.992-.357,3.294,3.294,0,0,0-.852-.147q-.578,0-.577.282a.353.353,0,0,0,.2.3,10.879,10.879,0,0,0,1.162.5,4.412,4.412,0,0,1,1.066.577,1.718,1.718,0,0,1,.517.663,2.337,2.337,0,0,1,.165.928" transform="translate(2144.486 -1839.367)" fill="#fff"/>
        <path id="Caminho_9518" data-name="Caminho 9518" d="M50.671,52.716a3.339,3.339,0,0,1-2.531-.9,3.6,3.6,0,0,1-.863-2.589,3.242,3.242,0,0,1,3.581-3.555,4.968,4.968,0,0,1,2.228.516L52.4,47.923a7.534,7.534,0,0,0-.787-.3,2.536,2.536,0,0,0-.75-.111,1.016,1.016,0,0,0-.883.444,2.159,2.159,0,0,0-.313,1.256q0,1.632,1.207,1.633a3.651,3.651,0,0,0,1.983-.6v1.868a3.857,3.857,0,0,1-2.181.6" transform="translate(2144.486 -1839.367)" fill="#fff"/>
        <path id="Caminho_9519" data-name="Caminho 9519" d="M58.641,52.6l-.451-.9h-.048a2.674,2.674,0,0,1-.967.8,3.2,3.2,0,0,1-1.273.217,2,2,0,0,1-1.514-.577,2.25,2.25,0,0,1-.552-1.622,1.845,1.845,0,0,1,.756-1.618,4.135,4.135,0,0,1,2.193-.6l1.135-.036v-.1a.738.738,0,0,0-.829-.841,4.937,4.937,0,0,0-1.891.505l-.679-1.55a6.528,6.528,0,0,1,3-.613,2.916,2.916,0,0,1,2.026.649,2.318,2.318,0,0,1,.718,1.814V52.6ZM56.9,51.058a1.054,1.054,0,0,0,.729-.271.894.894,0,0,0,.3-.7v-.528l-.541.023q-1.158.043-1.159.853,0,.625.667.625" transform="translate(2144.486 -1839.367)" fill="#fff"/>
        <rect id="Retângulo_1942" data-name="Retângulo 1942" width="2.348" height="9.346" transform="translate(2206.353 -1796.118)" fill="#fff"/>
        <path id="Caminho_9520" data-name="Caminho 9520" d="M70.281,52.6l-.45-.9h-.048a2.668,2.668,0,0,1-.968.8,3.189,3.189,0,0,1-1.272.217,2,2,0,0,1-1.514-.577,2.246,2.246,0,0,1-.552-1.622,1.842,1.842,0,0,1,.756-1.618,4.133,4.133,0,0,1,2.193-.6l1.135-.036v-.1a.739.739,0,0,0-.83-.841,4.942,4.942,0,0,0-1.891.505l-.679-1.55a6.534,6.534,0,0,1,3-.613,2.919,2.919,0,0,1,2.027.649,2.318,2.318,0,0,1,.718,1.814V52.6ZM68.54,51.058a1.054,1.054,0,0,0,.729-.271.893.893,0,0,0,.3-.7v-.528l-.54.023q-1.158.043-1.159.853,0,.625.667.625" transform="translate(2144.486 -1839.367)" fill="#fff"/>
        <path id="Caminho_9521" data-name="Caminho 9521" d="M78.816,52.716a2.032,2.032,0,0,1-1.27-.415,2.618,2.618,0,0,1-.841-1.219,5.4,5.4,0,0,1-.3-1.88,4.411,4.411,0,0,1,.666-2.594,2.127,2.127,0,0,1,1.832-.937,2.1,2.1,0,0,1,1,.228,2.2,2.2,0,0,1,.784.769h.048a11.3,11.3,0,0,1-.114-1.6V43.25H82.99V52.6H81.218l-.5-.859h-.09a1.99,1.99,0,0,1-1.808.979m.961-1.856a.878.878,0,0,0,.8-.354,2.137,2.137,0,0,0,.249-1.093v-.187a2.38,2.38,0,0,0-.258-1.282.911.911,0,0,0-.811-.381.8.8,0,0,0-.718.435,2.477,2.477,0,0,0-.255,1.24,2.289,2.289,0,0,0,.259,1.207.82.82,0,0,0,.738.415" transform="translate(2144.486 -1839.367)" fill="#fff"/>
        <path id="Caminho_9522" data-name="Caminho 9522" d="M87.9,52.716a3.657,3.657,0,0,1-2.64-.9,3.4,3.4,0,0,1-.939-2.574,3.712,3.712,0,0,1,.87-2.646,3.26,3.26,0,0,1,2.487-.922,3.3,3.3,0,0,1,2.375.8,3.048,3.048,0,0,1,.838,2.31v1.045h-4.2a1.162,1.162,0,0,0,.418.9,1.632,1.632,0,0,0,1.071.324,5.19,5.19,0,0,0,1.139-.117,5.683,5.683,0,0,0,1.126-.4v1.687a4.122,4.122,0,0,1-1.142.391,7.893,7.893,0,0,1-1.4.108m-.138-5.448a.978.978,0,0,0-.694.261,1.23,1.23,0,0,0-.327.82h2.018a1.174,1.174,0,0,0-.279-.787.925.925,0,0,0-.718-.294" transform="translate(2144.486 -1839.367)" fill="#fff"/>
        <path id="Caminho_9523" data-name="Caminho 9523" d="M99.46,45.634a1.514,1.514,0,0,0-1.321.694,3.343,3.343,0,0,0-.475,1.913q0,2.535,1.928,2.535a3.952,3.952,0,0,0,1.129-.163,10.953,10.953,0,0,0,1.1-.39v2.006a6.083,6.083,0,0,1-2.486.487,3.935,3.935,0,0,1-3.049-1.153,4.762,4.762,0,0,1-1.059-3.334,5.322,5.322,0,0,1,.513-2.4,3.677,3.677,0,0,1,1.478-1.59,4.471,4.471,0,0,1,2.266-.554,6.254,6.254,0,0,1,2.722.618l-.727,1.869a8.091,8.091,0,0,0-.973-.386,3.4,3.4,0,0,0-1.045-.156" transform="translate(2144.486 -1839.367)" fill="#fff"/>
        <path id="Caminho_9524" data-name="Caminho 9524" d="M109.892,49.178a3.606,3.606,0,0,1-.9,2.6,3.327,3.327,0,0,1-2.514.934,3.261,3.261,0,0,1-2.466-.955A4.134,4.134,0,0,1,104,46.592a3.355,3.355,0,0,1,2.519-.922,3.589,3.589,0,0,1,1.772.427,2.907,2.907,0,0,1,1.186,1.222,3.939,3.939,0,0,1,.417,1.859m-4.408,0a3.024,3.024,0,0,0,.234,1.336.814.814,0,0,0,.787.46.791.791,0,0,0,.772-.46,3.146,3.146,0,0,0,.225-1.336,2.984,2.984,0,0,0-.228-1.315.9.9,0,0,0-1.556,0,2.9,2.9,0,0,0-.234,1.318" transform="translate(2144.486 -1839.367)" fill="#fff"/>
        <path id="Caminho_9525" data-name="Caminho 9525" d="M114.518,52.716a3.654,3.654,0,0,1-2.64-.9,3.4,3.4,0,0,1-.94-2.574,3.708,3.708,0,0,1,.871-2.646,3.257,3.257,0,0,1,2.486-.922,3.3,3.3,0,0,1,2.376.8,3.048,3.048,0,0,1,.838,2.31v1.045h-4.2a1.161,1.161,0,0,0,.417.9,1.635,1.635,0,0,0,1.072.324,5.181,5.181,0,0,0,1.138-.117,5.691,5.691,0,0,0,1.127-.4v1.687a4.133,4.133,0,0,1-1.142.391,7.909,7.909,0,0,1-1.4.108m-.139-5.448a.976.976,0,0,0-.693.261,1.231,1.231,0,0,0-.328.82h2.018a1.174,1.174,0,0,0-.279-.787.922.922,0,0,0-.718-.294" transform="translate(2144.486 -1839.367)" fill="#fff"/>
        <rect id="Retângulo_1943" data-name="Retângulo 1943" width="2.349" height="9.346" transform="translate(2263.321 -1796.118)" fill="#fff"/>
        <path id="Caminho_9526" data-name="Caminho 9526" d="M127.1,52.6V48.884q0-1.371-.812-1.37a.911.911,0,0,0-.849.483,3.466,3.466,0,0,0-.274,1.607V52.6h-2.347V43.25h2.347v1.328q0,.9-.1,2.054h.108a1.927,1.927,0,0,1,.8-.745,2.5,2.5,0,0,1,1.075-.216,2.348,2.348,0,0,1,1.775.657,2.547,2.547,0,0,1,.633,1.841V52.6Z" transform="translate(2144.486 -1839.367)" fill="#fff"/>
        <path id="Caminho_9527" data-name="Caminho 9527" d="M137.55,49.178a3.606,3.606,0,0,1-.9,2.6,3.327,3.327,0,0,1-2.514.934,3.261,3.261,0,0,1-2.466-.955,4.134,4.134,0,0,1-.017-5.169,3.355,3.355,0,0,1,2.519-.922,3.589,3.589,0,0,1,1.772.427,2.907,2.907,0,0,1,1.186,1.222,3.939,3.939,0,0,1,.417,1.859m-4.408,0a3.024,3.024,0,0,0,.234,1.336.814.814,0,0,0,.787.46.791.791,0,0,0,.772-.46,3.146,3.146,0,0,0,.225-1.336,2.984,2.984,0,0,0-.228-1.315.9.9,0,0,0-1.556,0,2.9,2.9,0,0,0-.234,1.318" transform="translate(2144.486 -1839.367)" fill="#fff"/>
        <path id="Caminho_9528" data-name="Caminho 9528" d="M145.371,52.716a3.654,3.654,0,0,1-2.64-.9,3.4,3.4,0,0,1-.94-2.574,3.708,3.708,0,0,1,.871-2.646,3.257,3.257,0,0,1,2.486-.922,3.3,3.3,0,0,1,2.376.8,3.048,3.048,0,0,1,.838,2.31v1.045h-4.2a1.161,1.161,0,0,0,.417.9,1.635,1.635,0,0,0,1.072.324,5.181,5.181,0,0,0,1.138-.117,5.691,5.691,0,0,0,1.127-.4v1.687a4.133,4.133,0,0,1-1.142.391,7.909,7.909,0,0,1-1.4.108m-.139-5.448a.976.976,0,0,0-.693.261,1.231,1.231,0,0,0-.328.82h2.018a1.174,1.174,0,0,0-.279-.787.922.922,0,0,0-.718-.294" transform="translate(2144.486 -1839.367)" fill="#fff"/>
        <path id="Caminho_9529" data-name="Caminho 9529" d="M158.764,49.928a2.6,2.6,0,0,1-.414,1.452,2.716,2.716,0,0,1-1.2.985,4.436,4.436,0,0,1-1.832.351,7.41,7.41,0,0,1-1.472-.124,5.4,5.4,0,0,1-1.237-.429V50.049a6.934,6.934,0,0,0,1.412.543,5.214,5.214,0,0,0,1.344.2,1.311,1.311,0,0,0,.776-.183.564.564,0,0,0,.246-.471.514.514,0,0,0-.1-.316,1.138,1.138,0,0,0-.318-.273q-.219-.138-1.168-.565a5.606,5.606,0,0,1-1.288-.757,2.324,2.324,0,0,1-.637-.84,2.8,2.8,0,0,1-.207-1.123,2.251,2.251,0,0,1,.883-1.893,3.9,3.9,0,0,1,2.427-.678,6.781,6.781,0,0,1,2.78.631l-.727,1.831a5.269,5.269,0,0,0-2.126-.564,1.1,1.1,0,0,0-.672.162.488.488,0,0,0-.21.4.582.582,0,0,0,.266.463,10.441,10.441,0,0,0,1.451.745,4.01,4.01,0,0,1,1.577,1.095,2.379,2.379,0,0,1,.441,1.474" transform="translate(2144.486 -1839.367)" fill="#fff"/>
        <path id="Caminho_9530" data-name="Caminho 9530" d="M164.422,52.6l-.451-.9h-.048a2.674,2.674,0,0,1-.967.8,3.2,3.2,0,0,1-1.273.217,2,2,0,0,1-1.514-.577,2.25,2.25,0,0,1-.552-1.622,1.845,1.845,0,0,1,.756-1.618,4.135,4.135,0,0,1,2.193-.6l1.135-.036v-.1a.738.738,0,0,0-.829-.841,4.937,4.937,0,0,0-1.891.505l-.679-1.55a6.528,6.528,0,0,1,3-.613,2.916,2.916,0,0,1,2.026.649,2.318,2.318,0,0,1,.718,1.814V52.6Zm-1.742-1.538a1.054,1.054,0,0,0,.729-.271.894.894,0,0,0,.3-.7v-.528l-.541.023q-1.158.043-1.159.853,0,.625.667.625" transform="translate(2144.486 -1839.367)" fill="#fff"/>
        <path id="Caminho_9531" data-name="Caminho 9531" d="M169.432,52.6l-2.6-6.805h2.45l1.153,4.025c0,.02.012.053.024.1a1.551,1.551,0,0,1,.036.17c.012.068.024.137.035.211a1.715,1.715,0,0,1,.013.207h.042a2.386,2.386,0,0,1,.109-.678l1.207-4.037h2.444l-2.6,6.805Z" transform="translate(2144.486 -1839.367)" fill="#fff"/>
        <path id="Caminho_9532" data-name="Caminho 9532" d="M179.6,52.6l-.451-.9H179.1a2.674,2.674,0,0,1-.967.8,3.2,3.2,0,0,1-1.273.217,2,2,0,0,1-1.514-.577,2.25,2.25,0,0,1-.552-1.622,1.845,1.845,0,0,1,.756-1.618,4.135,4.135,0,0,1,2.193-.6l1.135-.036v-.1a.738.738,0,0,0-.829-.841,4.937,4.937,0,0,0-1.891.505l-.679-1.55a6.528,6.528,0,0,1,3-.613,2.916,2.916,0,0,1,2.026.649,2.318,2.318,0,0,1,.718,1.814V52.6Zm-1.742-1.538a1.054,1.054,0,0,0,.729-.271.894.894,0,0,0,.3-.7v-.528l-.541.023q-1.158.043-1.159.853,0,.625.667.625" transform="translate(2144.486 -1839.367)" fill="#fff"/>
        <path id="Caminho_9533" data-name="Caminho 9533" d="M188.081,50.505a1.935,1.935,0,0,1-.745,1.652,3.516,3.516,0,0,1-2.138.558,9.136,9.136,0,0,1-1.315-.081,5.616,5.616,0,0,1-1.142-.3v-1.88a7.071,7.071,0,0,0,1.2.4,5.067,5.067,0,0,0,1.163.156c.508,0,.763-.116.763-.349a.393.393,0,0,0-.214-.321,9.622,9.622,0,0,0-1.24-.549,3.108,3.108,0,0,1-1.309-.874,1.988,1.988,0,0,1-.373-1.241,1.719,1.719,0,0,1,.733-1.477,3.5,3.5,0,0,1,2.072-.529,5.185,5.185,0,0,1,1.265.148,7.509,7.509,0,0,1,1.227.429l-.635,1.513a7.174,7.174,0,0,0-.992-.357,3.294,3.294,0,0,0-.852-.147q-.577,0-.577.282a.353.353,0,0,0,.2.3,10.878,10.878,0,0,0,1.162.5,4.413,4.413,0,0,1,1.066.577,1.718,1.718,0,0,1,.517.663,2.355,2.355,0,0,1,.165.928" transform="translate(2144.486 -1839.367)" fill="#fff"/>
        <path id="Caminho_9534" data-name="Caminho 9534" d="M189.336,44.1a.992.992,0,0,1,.294-.787,1.867,1.867,0,0,1,1.9.006.985.985,0,0,1,.3.781q0,1.032-1.256,1.033T189.336,44.1m2.408,8.5H189.4V45.79h2.348Z" transform="translate(2144.486 -1839.367)" fill="#fff"/>
      </g>
    </g>
  </g>
</svg>
