<svg xmlns="http://www.w3.org/2000/svg" xmlns:xlink="http://www.w3.org/1999/xlink" width="225" height="98.235" viewBox="0 0 225 98.235">
  <defs>
    <clipPath id="clip-path">
      <rect id="Retângulo_1947" data-name="Retângulo 1947" width="182.306" height="75.282" transform="translate(0 260.5)" fill="none"/>
    </clipPath>
    <clipPath id="clip-path-2">
      <rect id="Retângulo_1948" data-name="Retângulo 1948" width="76.879" height="53.881" transform="translate(148.121 264.022)" fill="none"/>
    </clipPath>
  </defs>
  <g id="Grupo_3130" data-name="Grupo 3130" transform="translate(-2144.486 1578.868)">
    <g id="Grupo_3129" data-name="Grupo 3129">
      <g id="Grupo_3128" data-name="Grupo 3128">
        <path id="Caminho_9556" data-name="Caminho 9556" d="M206.5,358.734H18.5A18.5,18.5,0,0,1,0,340.238V279a18.5,18.5,0,0,1,18.5-18.5H206.5A18.5,18.5,0,0,1,225,279v61.242a18.5,18.5,0,0,1-18.5,18.5" transform="translate(2144.486 -1839.367)" fill="#b2003b"/>
        <path id="Caminho_9557" data-name="Caminho 9557" d="M206.037,355.659H18.964A15.906,15.906,0,0,1,3.076,339.771V279.463a15.906,15.906,0,0,1,15.888-15.888H206.037a15.906,15.906,0,0,1,15.888,15.888v60.308a15.906,15.906,0,0,1-15.888,15.888m-187.073-91.4A15.222,15.222,0,0,0,3.759,279.463v60.308a15.222,15.222,0,0,0,15.205,15.205H206.037a15.222,15.222,0,0,0,15.205-15.205V279.463a15.222,15.222,0,0,0-15.205-15.205Z" transform="translate(2144.486 -1839.367)" fill="#fff"/>
        <g id="Grupo_3115" data-name="Grupo 3115" transform="translate(2144.486 -1839.367)" opacity="0.1">
          <g id="Grupo_3114" data-name="Grupo 3114">
            <g id="Grupo_3113" data-name="Grupo 3113" clip-path="url(#clip-path)">
              <path id="Caminho_9558" data-name="Caminho 9558" d="M18.964,260.5A18.964,18.964,0,0,0,0,279.464v56.318c37.573-8.311,125.744-31.422,182.307-75.282Z" fill="#fff"/>
            </g>
          </g>
        </g>
        <g id="Grupo_3118" data-name="Grupo 3118" transform="translate(2144.486 -1839.367)" opacity="0.05">
          <g id="Grupo_3117" data-name="Grupo 3117">
            <g id="Grupo_3116" data-name="Grupo 3116" clip-path="url(#clip-path-2)">
              <path id="Caminho_9559" data-name="Caminho 9559" d="M225,279.463a18.933,18.933,0,0,0-7.962-15.441c-28.1,36.782-68.917,53.881-68.917,53.881,40.755-11.291,64.045-23.467,76.879-32.319Z" fill="#fff"/>
            </g>
          </g>
        </g>
        <path id="Caminho_9560" data-name="Caminho 9560" d="M45,276.613a1.511,1.511,0,0,0-1.321.693,3.346,3.346,0,0,0-.475,1.913q0,2.537,1.929,2.535a3.956,3.956,0,0,0,1.129-.162,11.294,11.294,0,0,0,1.1-.391v2.007a6.083,6.083,0,0,1-2.486.486,3.933,3.933,0,0,1-3.048-1.153,4.756,4.756,0,0,1-1.06-3.334,5.345,5.345,0,0,1,.513-2.4,3.688,3.688,0,0,1,1.478-1.588,4.453,4.453,0,0,1,2.267-.555,6.249,6.249,0,0,1,2.721.618l-.726,1.869a8.251,8.251,0,0,0-.973-.385A3.41,3.41,0,0,0,45,276.613" transform="translate(2144.486 -1839.367)" fill="#fff"/>
        <rect id="Retângulo_1949" data-name="Retângulo 1949" width="2.349" height="9.346" transform="translate(2193.418 -1565.139)" fill="#fff"/>
        <path id="Caminho_9561" data-name="Caminho 9561" d="M57.347,283.574l-.451-.9h-.048a2.674,2.674,0,0,1-.967.8,3.2,3.2,0,0,1-1.273.216,2,2,0,0,1-1.514-.577,2.248,2.248,0,0,1-.552-1.621,1.846,1.846,0,0,1,.756-1.619,4.154,4.154,0,0,1,2.193-.6l1.135-.035v-.1a.738.738,0,0,0-.829-.84,4.933,4.933,0,0,0-1.891.5l-.679-1.549a6.515,6.515,0,0,1,3-.614,2.912,2.912,0,0,1,2.026.65,2.317,2.317,0,0,1,.718,1.813v4.463ZM55.6,282.037a1.054,1.054,0,0,0,.729-.271.9.9,0,0,0,.3-.7v-.528l-.541.023c-.772.03-1.159.313-1.159.854q0,.624.667.625" transform="translate(2144.486 -1839.367)" fill="#fff"/>
        <path id="Caminho_9562" data-name="Caminho 9562" d="M65.828,281.484a1.932,1.932,0,0,1-.745,1.651,3.516,3.516,0,0,1-2.138.559,9.137,9.137,0,0,1-1.315-.081,5.683,5.683,0,0,1-1.142-.3v-1.881a7.071,7.071,0,0,0,1.2.4,5.067,5.067,0,0,0,1.163.156c.508,0,.763-.115.763-.348a.394.394,0,0,0-.214-.322,9.619,9.619,0,0,0-1.24-.549,3.1,3.1,0,0,1-1.309-.874,1.983,1.983,0,0,1-.373-1.24,1.719,1.719,0,0,1,.733-1.478,3.5,3.5,0,0,1,2.072-.529,5.185,5.185,0,0,1,1.265.149,7.449,7.449,0,0,1,1.228.428l-.636,1.514a7.306,7.306,0,0,0-.992-.358,3.293,3.293,0,0,0-.852-.147q-.577,0-.577.283a.353.353,0,0,0,.2.3,11.02,11.02,0,0,0,1.162.5,4.415,4.415,0,0,1,1.066.576,1.714,1.714,0,0,1,.517.664,2.331,2.331,0,0,1,.165.928" transform="translate(2144.486 -1839.367)" fill="#fff"/>
        <path id="Caminho_9563" data-name="Caminho 9563" d="M72.387,281.484a1.932,1.932,0,0,1-.745,1.651,3.516,3.516,0,0,1-2.138.559,9.137,9.137,0,0,1-1.315-.081,5.683,5.683,0,0,1-1.142-.3v-1.881a7.071,7.071,0,0,0,1.2.4,5.067,5.067,0,0,0,1.163.156c.508,0,.763-.115.763-.348a.394.394,0,0,0-.214-.322,9.619,9.619,0,0,0-1.24-.549,3.1,3.1,0,0,1-1.309-.874,1.983,1.983,0,0,1-.373-1.24,1.719,1.719,0,0,1,.733-1.478,3.5,3.5,0,0,1,2.072-.529,5.185,5.185,0,0,1,1.265.149,7.45,7.45,0,0,1,1.228.428l-.636,1.514a7.306,7.306,0,0,0-.992-.358,3.293,3.293,0,0,0-.852-.147q-.577,0-.577.283a.353.353,0,0,0,.2.3,11.021,11.021,0,0,0,1.162.5,4.415,4.415,0,0,1,1.066.576,1.714,1.714,0,0,1,.517.664,2.331,2.331,0,0,1,.165.928" transform="translate(2144.486 -1839.367)" fill="#fff"/>
        <path id="Caminho_9564" data-name="Caminho 9564" d="M73.641,275.076a.991.991,0,0,1,.295-.787,1.861,1.861,0,0,1,1.9.006.982.982,0,0,1,.3.781q0,1.031-1.255,1.032t-1.244-1.032m2.41,8.5H73.7v-6.8h2.349Z" transform="translate(2144.486 -1839.367)" fill="#fff"/>
        <path id="Caminho_9565" data-name="Caminho 9565" d="M81.847,278.529H80.4v5.045H78.051v-5.045h-.9v-1.153l.949-.577v-.114a2.783,2.783,0,0,1,.55-1.934,2.314,2.314,0,0,1,1.763-.589,5.229,5.229,0,0,1,.886.072,7.371,7.371,0,0,1,.969.252l-.5,1.52a3.165,3.165,0,0,0-.847-.12.46.46,0,0,0-.394.165.918.918,0,0,0-.123.538v.18h1.449Zm.876-3.453a.991.991,0,0,1,.294-.787,1.862,1.862,0,0,1,1.9.006.982.982,0,0,1,.3.781q0,1.031-1.255,1.032t-1.244-1.032m2.409,8.5H82.783v-6.8h2.349Z" transform="translate(2144.486 -1839.367)" fill="#fff"/>
        <path id="Caminho_9566" data-name="Caminho 9566" d="M89.864,283.694a3.339,3.339,0,0,1-2.531-.9,3.6,3.6,0,0,1-.863-2.588,3.243,3.243,0,0,1,3.581-3.557,4.957,4.957,0,0,1,2.228.518l-.691,1.735a7.559,7.559,0,0,0-.787-.3,2.568,2.568,0,0,0-.75-.11,1.013,1.013,0,0,0-.883.444,2.159,2.159,0,0,0-.313,1.256q0,1.632,1.207,1.633a3.643,3.643,0,0,0,1.983-.6v1.868a3.857,3.857,0,0,1-2.181.6" transform="translate(2144.486 -1839.367)" fill="#fff"/>
        <path id="Caminho_9567" data-name="Caminho 9567" d="M97.835,283.574l-.451-.9h-.048a2.674,2.674,0,0,1-.967.8,3.2,3.2,0,0,1-1.273.216,2,2,0,0,1-1.514-.577,2.248,2.248,0,0,1-.552-1.621,1.846,1.846,0,0,1,.756-1.619,4.154,4.154,0,0,1,2.193-.6l1.135-.035v-.1a.738.738,0,0,0-.829-.84,4.933,4.933,0,0,0-1.891.5l-.679-1.549a6.515,6.515,0,0,1,3-.614,2.912,2.912,0,0,1,2.026.65,2.317,2.317,0,0,1,.718,1.813v4.463Zm-1.742-1.537a1.054,1.054,0,0,0,.729-.271.9.9,0,0,0,.3-.7v-.528l-.541.023c-.772.03-1.159.313-1.159.854q0,.624.667.625" transform="translate(2144.486 -1839.367)" fill="#fff"/>
        <path id="Caminho_9568" data-name="Caminho 9568" d="M104.159,283.694a3.336,3.336,0,0,1-2.531-.9,3.6,3.6,0,0,1-.862-2.588,3.242,3.242,0,0,1,3.58-3.556,4.957,4.957,0,0,1,2.228.517l-.691,1.735a7.526,7.526,0,0,0-.786-.3,2.537,2.537,0,0,0-.751-.111,1.014,1.014,0,0,0-.883.445,2.153,2.153,0,0,0-.312,1.255q0,1.632,1.207,1.633a3.649,3.649,0,0,0,1.982-.6v1.868a3.862,3.862,0,0,1-2.181.6m1.184,1.394a1.322,1.322,0,0,1-.451,1.048,1.746,1.746,0,0,1-1.195.393,3.78,3.78,0,0,1-1.279-.173v-1.232a2.868,2.868,0,0,0,.883.162q.312,0,.312-.282a.427.427,0,0,0-.247-.352,2.117,2.117,0,0,0-.642-.243l.432-.835h1.22l-.054.174a1.73,1.73,0,0,1,.8.557,1.332,1.332,0,0,1,.223.783" transform="translate(2144.486 -1839.367)" fill="#fff"/>
        <path id="Caminho_9569" data-name="Caminho 9569" d="M112.129,283.574l-.451-.9h-.048a2.674,2.674,0,0,1-.967.8,3.2,3.2,0,0,1-1.273.216,2,2,0,0,1-1.514-.577,2.248,2.248,0,0,1-.552-1.621,1.846,1.846,0,0,1,.756-1.619,4.154,4.154,0,0,1,2.193-.6l1.135-.035v-.1a.738.738,0,0,0-.829-.84,4.933,4.933,0,0,0-1.891.5l-.679-1.549a6.515,6.515,0,0,1,3-.614,2.912,2.912,0,0,1,2.026.65,2.317,2.317,0,0,1,.718,1.813v4.463Zm-.2-7.441a1.757,1.757,0,0,1-.544-.09q-.273-.092-.538-.2c-.176-.073-.347-.138-.513-.2a1.394,1.394,0,0,0-.471-.089c-.217,0-.361.2-.433.587h-1.081a2.961,2.961,0,0,1,.433-1.552,1.254,1.254,0,0,1,1.081-.5,1.481,1.481,0,0,1,.486.091c.172.059.347.126.522.2s.351.138.523.2a1.478,1.478,0,0,0,.486.09.32.32,0,0,0,.277-.15,1.181,1.181,0,0,0,.156-.439H113.4a2.942,2.942,0,0,1-.446,1.529,1.205,1.205,0,0,1-1.032.526m-1.538,5.9a1.054,1.054,0,0,0,.729-.271.9.9,0,0,0,.3-.7v-.528l-.541.023c-.772.03-1.159.313-1.159.854q0,.624.667.625" transform="translate(2144.486 -1839.367)" fill="#fff"/>
        <path id="Caminho_9570" data-name="Caminho 9570" d="M121.853,280.156a3.606,3.606,0,0,1-.9,2.6,3.323,3.323,0,0,1-2.514.934,3.257,3.257,0,0,1-2.466-.955,4.134,4.134,0,0,1-.017-5.169,3.359,3.359,0,0,1,2.519-.922,3.589,3.589,0,0,1,1.772.428,2.9,2.9,0,0,1,1.186,1.222,3.932,3.932,0,0,1,.417,1.858m-4.408,0a3.029,3.029,0,0,0,.234,1.337.816.816,0,0,0,.787.46.792.792,0,0,0,.772-.46,3.151,3.151,0,0,0,.225-1.337,2.979,2.979,0,0,0-.228-1.314.9.9,0,0,0-1.556,0,2.905,2.905,0,0,0-.234,1.318" transform="translate(2144.486 -1839.367)" fill="#fff"/>
        <path id="Caminho_9571" data-name="Caminho 9571" d="M128.5,283.694a2.023,2.023,0,0,1-1.269-.415,2.61,2.61,0,0,1-.841-1.218,5.4,5.4,0,0,1-.3-1.88,4.417,4.417,0,0,1,.667-2.6,2.126,2.126,0,0,1,1.832-.937,2.1,2.1,0,0,1,1,.228,2.2,2.2,0,0,1,.783.77h.049a11.32,11.32,0,0,1-.114-1.6v-1.82h2.366v9.345H130.9l-.5-.859h-.09a1.992,1.992,0,0,1-1.809.979m.962-1.856a.873.873,0,0,0,.795-.354,2.147,2.147,0,0,0,.25-1.093V280.2a2.382,2.382,0,0,0-.259-1.283.909.909,0,0,0-.81-.381.793.793,0,0,0-.718.436,2.475,2.475,0,0,0-.255,1.24,2.3,2.3,0,0,0,.258,1.207.821.821,0,0,0,.739.414" transform="translate(2144.486 -1839.367)" fill="#fff"/>
        <path id="Caminho_9572" data-name="Caminho 9572" d="M137.584,283.694a3.658,3.658,0,0,1-2.64-.9,3.406,3.406,0,0,1-.94-2.574,3.708,3.708,0,0,1,.871-2.647,3.26,3.26,0,0,1,2.486-.922,3.3,3.3,0,0,1,2.376.8,3.045,3.045,0,0,1,.838,2.309V280.8h-4.2a1.159,1.159,0,0,0,.417.9,1.635,1.635,0,0,0,1.072.324,5.245,5.245,0,0,0,1.138-.116,5.7,5.7,0,0,0,1.127-.4V283.2a4.1,4.1,0,0,1-1.142.391,7.909,7.909,0,0,1-1.4.108m-.139-5.448a.976.976,0,0,0-.693.262,1.226,1.226,0,0,0-.328.82h2.018a1.172,1.172,0,0,0-.279-.787.922.922,0,0,0-.718-.295" transform="translate(2144.486 -1839.367)" fill="#fff"/>
        <path id="Caminho_9573" data-name="Caminho 9573" d="M149.206,276.648a3.394,3.394,0,0,1,.582.049l.133.023-.21,2.217a3.411,3.411,0,0,0-.8-.072,1.52,1.52,0,0,0-1.117.351,1.377,1.377,0,0,0-.349,1.012v3.346H145.1v-6.8h1.748l.366,1.087h.114a2.368,2.368,0,0,1,.819-.874,1.962,1.962,0,0,1,1.061-.334" transform="translate(2144.486 -1839.367)" fill="#fff"/>
        <path id="Caminho_9574" data-name="Caminho 9574" d="M150.821,275.076a.991.991,0,0,1,.295-.787,1.859,1.859,0,0,1,1.9.006.979.979,0,0,1,.3.781q0,1.031-1.256,1.032t-1.243-1.032m2.409,8.5h-2.349v-6.8h2.349Z" transform="translate(2144.486 -1839.367)" fill="#fff"/>
        <path id="Caminho_9575" data-name="Caminho 9575" d="M160.125,281.484a1.932,1.932,0,0,1-.745,1.651,3.516,3.516,0,0,1-2.138.559,9.137,9.137,0,0,1-1.315-.081,5.682,5.682,0,0,1-1.142-.3v-1.881a7.07,7.07,0,0,0,1.2.4,5.067,5.067,0,0,0,1.163.156c.508,0,.763-.115.763-.348a.394.394,0,0,0-.214-.322,9.62,9.62,0,0,0-1.24-.549,3.1,3.1,0,0,1-1.309-.874,1.983,1.983,0,0,1-.373-1.24,1.719,1.719,0,0,1,.733-1.478,3.5,3.5,0,0,1,2.072-.529,5.185,5.185,0,0,1,1.265.149,7.45,7.45,0,0,1,1.228.428l-.636,1.514a7.306,7.306,0,0,0-.992-.358,3.293,3.293,0,0,0-.852-.147q-.578,0-.577.283a.353.353,0,0,0,.2.3,11.021,11.021,0,0,0,1.162.5,4.415,4.415,0,0,1,1.066.576,1.714,1.714,0,0,1,.517.664,2.331,2.331,0,0,1,.165.928" transform="translate(2144.486 -1839.367)" fill="#fff"/>
        <path id="Caminho_9576" data-name="Caminho 9576" d="M164.527,283.694a3.339,3.339,0,0,1-2.531-.9,3.6,3.6,0,0,1-.863-2.588,3.243,3.243,0,0,1,3.581-3.557,4.958,4.958,0,0,1,2.228.518l-.691,1.735a7.56,7.56,0,0,0-.787-.3,2.568,2.568,0,0,0-.75-.11,1.013,1.013,0,0,0-.883.444,2.159,2.159,0,0,0-.313,1.256q0,1.632,1.207,1.633a3.643,3.643,0,0,0,1.983-.6v1.868a3.857,3.857,0,0,1-2.181.6" transform="translate(2144.486 -1839.367)" fill="#fff"/>
        <path id="Caminho_9577" data-name="Caminho 9577" d="M174.557,280.156a3.606,3.606,0,0,1-.9,2.6,3.323,3.323,0,0,1-2.514.934,3.257,3.257,0,0,1-2.466-.955,4.134,4.134,0,0,1-.017-5.169,3.359,3.359,0,0,1,2.519-.922,3.589,3.589,0,0,1,1.772.428,2.9,2.9,0,0,1,1.186,1.222,3.932,3.932,0,0,1,.417,1.858m-4.408,0a3.029,3.029,0,0,0,.234,1.337.816.816,0,0,0,.787.46.792.792,0,0,0,.772-.46,3.151,3.151,0,0,0,.225-1.337,2.978,2.978,0,0,0-.228-1.314.9.9,0,0,0-1.556,0,2.905,2.905,0,0,0-.234,1.318" transform="translate(2144.486 -1839.367)" fill="#fff"/>
        <path id="Caminho_9578" data-name="Caminho 9578" d="M182.378,283.694a3.658,3.658,0,0,1-2.64-.9,3.406,3.406,0,0,1-.94-2.574,3.708,3.708,0,0,1,.871-2.647,3.26,3.26,0,0,1,2.486-.922,3.3,3.3,0,0,1,2.376.8,3.046,3.046,0,0,1,.838,2.309V280.8h-4.2a1.159,1.159,0,0,0,.417.9,1.635,1.635,0,0,0,1.072.324,5.245,5.245,0,0,0,1.138-.116,5.7,5.7,0,0,0,1.127-.4V283.2a4.1,4.1,0,0,1-1.142.391,7.91,7.91,0,0,1-1.4.108m-.139-5.448a.976.976,0,0,0-.693.262,1.226,1.226,0,0,0-.328.82h2.018a1.172,1.172,0,0,0-.279-.787.922.922,0,0,0-.718-.295" transform="translate(2144.486 -1839.367)" fill="#fff"/>
        <path id="Caminho_9579" data-name="Caminho 9579" d="M17.328,298.335l-2.595-6.806h2.45l1.154,4.026c0,.019.012.052.024.1s.024.106.035.171.024.136.034.21a1.754,1.754,0,0,1,.015.207h.042a2.418,2.418,0,0,1,.108-.678l1.208-4.037h2.444l-2.595,6.806Z" transform="translate(2144.486 -1839.367)" fill="#fff"/>
        <path id="Caminho_9580" data-name="Caminho 9580" d="M27.9,298.335l-.294-.847h-.138a1.908,1.908,0,0,1-.82.718,2.858,2.858,0,0,1-1.234.249,2.306,2.306,0,0,1-1.748-.652,2.552,2.552,0,0,1-.624-1.84v-4.434h2.348v3.719a2.138,2.138,0,0,0,.189,1.009.658.658,0,0,0,.622.343.905.905,0,0,0,.864-.479,3.615,3.615,0,0,0,.259-1.612v-2.98h2.348v6.806Z" transform="translate(2144.486 -1839.367)" fill="#fff"/>
        <rect id="Retângulo_1950" data-name="Retângulo 1950" width="2.348" height="9.346" transform="translate(2175.784 -1550.378)" fill="#fff"/>
        <path id="Caminho_9581" data-name="Caminho 9581" d="M39.569,298.335v-3.712a2.127,2.127,0,0,0-.195-1.023.668.668,0,0,0-.628-.346.909.909,0,0,0-.86.475,3.61,3.61,0,0,0-.263,1.627v2.979H35.274v-6.806h1.772l.294.842h.138a1.869,1.869,0,0,1,.832-.721,2.946,2.946,0,0,1,1.223-.24,2.323,2.323,0,0,1,1.757.654,2.559,2.559,0,0,1,.627,1.844v4.427Z" transform="translate(2144.486 -1839.367)" fill="#fff"/>
        <path id="Caminho_9582" data-name="Caminho 9582" d="M46.8,298.455a3.65,3.65,0,0,1-2.64-.9,3.4,3.4,0,0,1-.94-2.573,3.7,3.7,0,0,1,.871-2.646,3.253,3.253,0,0,1,2.486-.922,3.308,3.308,0,0,1,2.376.8,3.049,3.049,0,0,1,.838,2.311v1.045h-4.2a1.159,1.159,0,0,0,.417.894,1.629,1.629,0,0,0,1.072.324,5.181,5.181,0,0,0,1.138-.117,5.747,5.747,0,0,0,1.127-.4v1.687a4.166,4.166,0,0,1-1.142.391,8.012,8.012,0,0,1-1.405.107m-.139-5.447a.975.975,0,0,0-.693.261,1.23,1.23,0,0,0-.328.819h2.018a1.169,1.169,0,0,0-.279-.786.922.922,0,0,0-.718-.294" transform="translate(2144.486 -1839.367)" fill="#fff"/>
        <path id="Caminho_9583" data-name="Caminho 9583" d="M55.227,291.41a3.393,3.393,0,0,1,.582.048l.133.024-.21,2.216a3.467,3.467,0,0,0-.8-.072,1.52,1.52,0,0,0-1.117.351,1.377,1.377,0,0,0-.349,1.013v3.345H51.119v-6.806h1.748l.366,1.088h.114a2.36,2.36,0,0,1,.819-.874,1.969,1.969,0,0,1,1.061-.333" transform="translate(2144.486 -1839.367)" fill="#fff"/>
        <path id="Caminho_9584" data-name="Caminho 9584" d="M61.33,298.335l-.451-.9h-.048a2.664,2.664,0,0,1-.967.8,3.177,3.177,0,0,1-1.273.217,2,2,0,0,1-1.514-.576,2.254,2.254,0,0,1-.552-1.622,1.842,1.842,0,0,1,.756-1.618,4.117,4.117,0,0,1,2.193-.6L60.609,294v-.1a.738.738,0,0,0-.829-.84,4.951,4.951,0,0,0-1.891.5l-.679-1.549a6.515,6.515,0,0,1,3-.613,2.912,2.912,0,0,1,2.026.649,2.316,2.316,0,0,1,.718,1.814v4.462ZM59.588,296.8a1.058,1.058,0,0,0,.729-.27.9.9,0,0,0,.3-.7V295.3l-.541.024q-1.158.042-1.159.853c0,.417.223.624.667.624" transform="translate(2144.486 -1839.367)" fill="#fff"/>
        <path id="Caminho_9585" data-name="Caminho 9585" d="M68.711,291.41a2.045,2.045,0,0,1,1.763.931,5.446,5.446,0,0,1-.006,5.175,2.109,2.109,0,0,1-1.829.939,2.543,2.543,0,0,1-.673-.081,2.013,2.013,0,0,1-.525-.225,2.728,2.728,0,0,1-.538-.481h-.144l-.373.667H64.555v-9.346H66.9V291.1q0,.378-.084,1.3H66.9a2.008,2.008,0,0,1,1.808-1m-.859,1.844a.8.8,0,0,0-.721.342,1.982,1.982,0,0,0-.228,1.076V295a2.347,2.347,0,0,0,.228,1.2.813.813,0,0,0,.745.364.693.693,0,0,0,.637-.423,2.759,2.759,0,0,0,.222-1.246q0-1.64-.883-1.64" transform="translate(2144.486 -1839.367)" fill="#fff"/>
        <path id="Caminho_9586" data-name="Caminho 9586" d="M72.417,289.836a.99.99,0,0,1,.295-.787,1.868,1.868,0,0,1,1.9,0,.99.99,0,0,1,.3.782q0,1.033-1.256,1.033t-1.243-1.033m2.409,8.5H72.477v-6.806h2.349Z" transform="translate(2144.486 -1839.367)" fill="#fff"/>
        <rect id="Retângulo_1951" data-name="Retângulo 1951" width="2.348" height="9.346" transform="translate(2220.951 -1550.378)" fill="#fff"/>
        <path id="Caminho_9587" data-name="Caminho 9587" d="M80.393,289.836a.993.993,0,0,1,.294-.787,1.872,1.872,0,0,1,1.905,0,.989.989,0,0,1,.3.782q0,1.033-1.254,1.033t-1.244-1.033m2.409,8.5H80.453v-6.806H82.8Z" transform="translate(2144.486 -1839.367)" fill="#fff"/>
        <path id="Caminho_9588" data-name="Caminho 9588" d="M86.555,298.454a2.037,2.037,0,0,1-1.27-.414,2.628,2.628,0,0,1-.841-1.219,5.4,5.4,0,0,1-.3-1.88,4.413,4.413,0,0,1,.666-2.6,2.129,2.129,0,0,1,1.832-.936,2.1,2.1,0,0,1,1,.228,2.2,2.2,0,0,1,.784.768h.048a11.29,11.29,0,0,1-.114-1.6v-1.819h2.366v9.345H88.957l-.5-.858h-.09a1.991,1.991,0,0,1-1.808.978m.961-1.855a.879.879,0,0,0,.8-.355,2.133,2.133,0,0,0,.249-1.092v-.188a2.378,2.378,0,0,0-.258-1.281.909.909,0,0,0-.811-.382.8.8,0,0,0-.718.436,2.477,2.477,0,0,0-.255,1.24,2.294,2.294,0,0,0,.259,1.207.822.822,0,0,0,.738.415" transform="translate(2144.486 -1839.367)" fill="#fff"/>
        <path id="Caminho_9589" data-name="Caminho 9589" d="M96.79,298.335l-.45-.9h-.048a2.658,2.658,0,0,1-.968.8,3.172,3.172,0,0,1-1.272.217,2,2,0,0,1-1.514-.576,2.249,2.249,0,0,1-.552-1.622,1.84,1.84,0,0,1,.756-1.618,4.115,4.115,0,0,1,2.193-.6L96.07,294v-.1a.738.738,0,0,0-.83-.84,4.956,4.956,0,0,0-1.891.5l-.679-1.549a6.521,6.521,0,0,1,3-.613,2.914,2.914,0,0,1,2.027.649,2.316,2.316,0,0,1,.718,1.814v4.462ZM95.049,296.8a1.058,1.058,0,0,0,.729-.27.894.894,0,0,0,.3-.7V295.3l-.54.024q-1.158.042-1.159.853c0,.417.222.624.667.624" transform="translate(2144.486 -1839.367)" fill="#fff"/>
        <path id="Caminho_9590" data-name="Caminho 9590" d="M102.13,298.454a2.037,2.037,0,0,1-1.27-.414,2.628,2.628,0,0,1-.841-1.219,5.4,5.4,0,0,1-.3-1.88,4.413,4.413,0,0,1,.666-2.6,2.129,2.129,0,0,1,1.832-.936,2.1,2.1,0,0,1,1,.228,2.2,2.2,0,0,1,.784.768h.048a11.289,11.289,0,0,1-.114-1.6v-1.819H106.3v9.345h-1.772l-.5-.858h-.09a1.991,1.991,0,0,1-1.808.978m.961-1.855a.879.879,0,0,0,.8-.355,2.133,2.133,0,0,0,.249-1.092v-.188a2.378,2.378,0,0,0-.258-1.281.909.909,0,0,0-.811-.382.8.8,0,0,0-.718.436,2.477,2.477,0,0,0-.255,1.24,2.294,2.294,0,0,0,.259,1.207.822.822,0,0,0,.738.415" transform="translate(2144.486 -1839.367)" fill="#fff"/>
        <path id="Caminho_9591" data-name="Caminho 9591" d="M111.211,298.455a3.653,3.653,0,0,1-2.64-.9,3.4,3.4,0,0,1-.939-2.573,3.708,3.708,0,0,1,.87-2.646,3.257,3.257,0,0,1,2.487-.922,3.307,3.307,0,0,1,2.375.8,3.049,3.049,0,0,1,.838,2.311v1.045H110a1.159,1.159,0,0,0,.418.894,1.626,1.626,0,0,0,1.071.324,5.19,5.19,0,0,0,1.139-.117,5.74,5.74,0,0,0,1.126-.4v1.687a4.155,4.155,0,0,1-1.142.391,8,8,0,0,1-1.4.107m-.138-5.447a.978.978,0,0,0-.694.261,1.23,1.23,0,0,0-.327.819h2.018a1.169,1.169,0,0,0-.279-.786.925.925,0,0,0-.718-.294" transform="translate(2144.486 -1839.367)" fill="#fff"/>
        <path id="Caminho_9592" data-name="Caminho 9592" d="M120.785,296.244a1.935,1.935,0,0,1-.745,1.652,3.509,3.509,0,0,1-2.138.559,9.28,9.28,0,0,1-1.315-.081,5.554,5.554,0,0,1-1.142-.3V296.2a7.159,7.159,0,0,0,1.2.4,5.124,5.124,0,0,0,1.163.156c.508,0,.763-.117.763-.35a.393.393,0,0,0-.214-.32,9.719,9.719,0,0,0-1.24-.55,3.108,3.108,0,0,1-1.309-.874,1.986,1.986,0,0,1-.373-1.24,1.72,1.72,0,0,1,.733-1.478,3.5,3.5,0,0,1,2.072-.528,5.236,5.236,0,0,1,1.265.147,7.649,7.649,0,0,1,1.228.429L120.1,293.5a7.048,7.048,0,0,0-.992-.358,3.33,3.33,0,0,0-.852-.146q-.578,0-.577.281a.352.352,0,0,0,.2.3,10.877,10.877,0,0,0,1.162.5,4.483,4.483,0,0,1,1.066.577,1.726,1.726,0,0,1,.517.663,2.341,2.341,0,0,1,.165.928" transform="translate(2144.486 -1839.367)" fill="#fff"/>
        <path id="Caminho_9593" data-name="Caminho 9593" d="M127.4,298.454a2.034,2.034,0,0,1-1.269-.414,2.628,2.628,0,0,1-.841-1.219,5.4,5.4,0,0,1-.3-1.88,4.413,4.413,0,0,1,.667-2.6,2.127,2.127,0,0,1,1.832-.936,2.1,2.1,0,0,1,1,.228,2.2,2.2,0,0,1,.783.768h.049a11.289,11.289,0,0,1-.114-1.6v-1.819h2.366v9.345H129.8l-.5-.858h-.09a1.993,1.993,0,0,1-1.809.978m.962-1.855a.876.876,0,0,0,.8-.355,2.142,2.142,0,0,0,.25-1.092v-.188a2.377,2.377,0,0,0-.259-1.281.907.907,0,0,0-.81-.382.794.794,0,0,0-.718.436,2.477,2.477,0,0,0-.255,1.24,2.3,2.3,0,0,0,.258,1.207.822.822,0,0,0,.739.415" transform="translate(2144.486 -1839.367)" fill="#fff"/>
        <path id="Caminho_9594" data-name="Caminho 9594" d="M137.632,298.335l-.451-.9h-.048a2.664,2.664,0,0,1-.967.8,3.174,3.174,0,0,1-1.273.217,2,2,0,0,1-1.513-.576,2.25,2.25,0,0,1-.553-1.622,1.842,1.842,0,0,1,.756-1.618,4.12,4.12,0,0,1,2.193-.6l1.135-.037v-.1a.738.738,0,0,0-.829-.84,4.952,4.952,0,0,0-1.891.5l-.679-1.549a6.517,6.517,0,0,1,3-.613,2.911,2.911,0,0,1,2.025.649,2.316,2.316,0,0,1,.718,1.814v4.462Zm-1.741-1.538a1.057,1.057,0,0,0,.728-.27.9.9,0,0,0,.3-.7V295.3l-.541.024q-1.158.042-1.159.853c0,.417.224.624.668.624" transform="translate(2144.486 -1839.367)" fill="#fff"/>
        <path id="Caminho_9595" data-name="Caminho 9595" d="M146.113,296.244a1.935,1.935,0,0,1-.745,1.652,3.509,3.509,0,0,1-2.138.559,9.28,9.28,0,0,1-1.315-.081,5.554,5.554,0,0,1-1.142-.3V296.2a7.159,7.159,0,0,0,1.2.4,5.124,5.124,0,0,0,1.163.156c.508,0,.763-.117.763-.35a.393.393,0,0,0-.214-.32,9.718,9.718,0,0,0-1.24-.55,3.108,3.108,0,0,1-1.309-.874,1.985,1.985,0,0,1-.373-1.24,1.72,1.72,0,0,1,.733-1.478,3.5,3.5,0,0,1,2.072-.528,5.236,5.236,0,0,1,1.265.147,7.649,7.649,0,0,1,1.228.429l-.636,1.514a7.048,7.048,0,0,0-.992-.358,3.33,3.33,0,0,0-.852-.146q-.577,0-.577.281a.352.352,0,0,0,.2.3,10.876,10.876,0,0,0,1.162.5,4.483,4.483,0,0,1,1.066.577,1.726,1.726,0,0,1,.517.663,2.341,2.341,0,0,1,.165.928" transform="translate(2144.486 -1839.367)" fill="#fff"/>
        <path id="Caminho_9596" data-name="Caminho 9596" d="M154.7,298.455a2.125,2.125,0,0,1-1.736-.787h-.108a8.673,8.673,0,0,1,.108.889v2.733h-2.348v-9.761h1.909l.331.866h.108a2.148,2.148,0,0,1,3.58-.048,4.482,4.482,0,0,1,.642,2.571,4.422,4.422,0,0,1-.669,2.592,2.114,2.114,0,0,1-1.817.945m-.787-5.2a.759.759,0,0,0-.724.369,2.433,2.433,0,0,0-.225,1.1v.186a2.579,2.579,0,0,0,.234,1.268.8.8,0,0,0,.739.39.689.689,0,0,0,.655-.387,2.952,2.952,0,0,0,.2-1.282,2.858,2.858,0,0,0-.2-1.259.71.71,0,0,0-.679-.381" transform="translate(2144.486 -1839.367)" fill="#fff"/>
        <path id="Caminho_9597" data-name="Caminho 9597" d="M161.808,298.455a3.65,3.65,0,0,1-2.64-.9,3.4,3.4,0,0,1-.94-2.573,3.7,3.7,0,0,1,.871-2.646,3.253,3.253,0,0,1,2.486-.922,3.308,3.308,0,0,1,2.376.8,3.049,3.049,0,0,1,.838,2.311v1.045h-4.2a1.159,1.159,0,0,0,.417.894,1.629,1.629,0,0,0,1.072.324,5.181,5.181,0,0,0,1.138-.117,5.746,5.746,0,0,0,1.127-.4v1.687a4.166,4.166,0,0,1-1.142.391,8.011,8.011,0,0,1-1.4.107m-.139-5.447a.976.976,0,0,0-.693.261,1.23,1.23,0,0,0-.328.819h2.018a1.169,1.169,0,0,0-.279-.786.922.922,0,0,0-.718-.294" transform="translate(2144.486 -1839.367)" fill="#fff"/>
        <path id="Caminho_9598" data-name="Caminho 9598" d="M171.382,296.244a1.937,1.937,0,0,1-.745,1.652,3.512,3.512,0,0,1-2.139.559,9.275,9.275,0,0,1-1.314-.081,5.537,5.537,0,0,1-1.142-.3V296.2a7.158,7.158,0,0,0,1.2.4,5.116,5.116,0,0,0,1.163.156q.762,0,.762-.35a.394.394,0,0,0-.213-.32,9.792,9.792,0,0,0-1.24-.55,3.1,3.1,0,0,1-1.309-.874,1.986,1.986,0,0,1-.373-1.24,1.72,1.72,0,0,1,.733-1.478,3.5,3.5,0,0,1,2.072-.528,5.228,5.228,0,0,1,1.264.147,7.615,7.615,0,0,1,1.228.429l-.636,1.514a7.047,7.047,0,0,0-.992-.358,3.316,3.316,0,0,0-.852-.146q-.576,0-.576.281a.35.35,0,0,0,.2.3,10.776,10.776,0,0,0,1.162.5,4.483,4.483,0,0,1,1.066.577,1.723,1.723,0,0,1,.516.663,2.34,2.34,0,0,1,.166.928" transform="translate(2144.486 -1839.367)" fill="#fff"/>
        <path id="Caminho_9599" data-name="Caminho 9599" d="M177.94,296.244a1.937,1.937,0,0,1-.745,1.652,3.512,3.512,0,0,1-2.139.559,9.275,9.275,0,0,1-1.314-.081,5.537,5.537,0,0,1-1.142-.3V296.2a7.158,7.158,0,0,0,1.2.4,5.116,5.116,0,0,0,1.163.156q.762,0,.762-.35a.394.394,0,0,0-.213-.32,9.792,9.792,0,0,0-1.24-.55,3.1,3.1,0,0,1-1.309-.874,1.986,1.986,0,0,1-.373-1.24,1.72,1.72,0,0,1,.733-1.478,3.5,3.5,0,0,1,2.072-.528,5.228,5.228,0,0,1,1.264.147,7.615,7.615,0,0,1,1.228.429l-.636,1.514a7.047,7.047,0,0,0-.992-.358A3.316,3.316,0,0,0,175.4,293q-.576,0-.576.281a.35.35,0,0,0,.2.3,10.776,10.776,0,0,0,1.162.5,4.483,4.483,0,0,1,1.066.577,1.723,1.723,0,0,1,.516.663,2.34,2.34,0,0,1,.166.928" transform="translate(2144.486 -1839.367)" fill="#fff"/>
        <path id="Caminho_9600" data-name="Caminho 9600" d="M185.742,294.918a3.608,3.608,0,0,1-.9,2.6,3.326,3.326,0,0,1-2.514.933,3.255,3.255,0,0,1-2.465-.955,4.134,4.134,0,0,1-.018-5.168,3.352,3.352,0,0,1,2.519-.922,3.6,3.6,0,0,1,1.773.426,2.913,2.913,0,0,1,1.185,1.223,3.939,3.939,0,0,1,.418,1.859m-4.409,0a3.027,3.027,0,0,0,.234,1.336.814.814,0,0,0,.787.459.789.789,0,0,0,.772-.459,3.131,3.131,0,0,0,.226-1.336,2.972,2.972,0,0,0-.229-1.316.9.9,0,0,0-1.556,0,2.9,2.9,0,0,0-.234,1.318" transform="translate(2144.486 -1839.367)" fill="#fff"/>
        <path id="Caminho_9601" data-name="Caminho 9601" d="M191.519,298.335l-.451-.9h-.047a2.664,2.664,0,0,1-.967.8,3.187,3.187,0,0,1-1.273.217,2,2,0,0,1-1.514-.576,2.25,2.25,0,0,1-.553-1.622,1.842,1.842,0,0,1,.756-1.618,4.124,4.124,0,0,1,2.194-.6L190.8,294v-.1a.738.738,0,0,0-.828-.84,4.947,4.947,0,0,0-1.892.5l-.68-1.549a6.526,6.526,0,0,1,3-.613,2.914,2.914,0,0,1,2.027.649,2.316,2.316,0,0,1,.717,1.814v4.462Zm-1.742-1.538a1.061,1.061,0,0,0,.73-.27.9.9,0,0,0,.3-.7V295.3l-.541.024q-1.156.042-1.158.853c0,.417.223.624.666.624" transform="translate(2144.486 -1839.367)" fill="#fff"/>
        <path id="Caminho_9602" data-name="Caminho 9602" d="M200,296.244a1.935,1.935,0,0,1-.745,1.652,3.509,3.509,0,0,1-2.138.559,9.28,9.28,0,0,1-1.315-.081,5.537,5.537,0,0,1-1.142-.3V296.2a7.158,7.158,0,0,0,1.2.4,5.123,5.123,0,0,0,1.163.156q.762,0,.762-.35a.391.391,0,0,0-.213-.32,9.793,9.793,0,0,0-1.24-.55,3.1,3.1,0,0,1-1.309-.874,1.986,1.986,0,0,1-.373-1.24,1.72,1.72,0,0,1,.733-1.478,3.5,3.5,0,0,1,2.072-.528,5.242,5.242,0,0,1,1.265.147,7.606,7.606,0,0,1,1.227.429l-.635,1.514a7.094,7.094,0,0,0-.992-.358,3.329,3.329,0,0,0-.853-.146q-.576,0-.576.281a.351.351,0,0,0,.2.3,10.776,10.776,0,0,0,1.162.5,4.483,4.483,0,0,1,1.066.577,1.726,1.726,0,0,1,.517.663,2.359,2.359,0,0,1,.165.928" transform="translate(2144.486 -1839.367)" fill="#fff"/>
        <path id="Caminho_9603" data-name="Caminho 9603" d="M207.784,298.455a3.654,3.654,0,0,1-2.641-.9,3.4,3.4,0,0,1-.939-2.573,3.7,3.7,0,0,1,.871-2.646,3.253,3.253,0,0,1,2.486-.922,3.305,3.305,0,0,1,2.375.8,3.049,3.049,0,0,1,.838,2.311v1.045h-4.2a1.163,1.163,0,0,0,.418.894,1.627,1.627,0,0,0,1.072.324,5.187,5.187,0,0,0,1.138-.117,5.717,5.717,0,0,0,1.126-.4v1.687a4.148,4.148,0,0,1-1.141.391,8.011,8.011,0,0,1-1.4.107m-.139-5.447a.974.974,0,0,0-.693.261,1.225,1.225,0,0,0-.328.819h2.018a1.169,1.169,0,0,0-.279-.786.922.922,0,0,0-.718-.294" transform="translate(2144.486 -1839.367)" fill="#fff"/>
        <path id="Caminho_9604" data-name="Caminho 9604" d="M92.357,308.051H90.909V313.1H88.561v-5.045h-.9V306.9l.949-.577v-.114a2.783,2.783,0,0,1,.55-1.934,2.313,2.313,0,0,1,1.762-.589,5.211,5.211,0,0,1,.886.072,7.342,7.342,0,0,1,.97.252l-.5,1.52a3.114,3.114,0,0,0-.847-.12.461.461,0,0,0-.393.164.924.924,0,0,0-.123.539v.18h1.448Z" transform="translate(2144.486 -1839.367)" fill="#fff"/>
        <path id="Caminho_9605" data-name="Caminho 9605" d="M97.72,313.1l-.451-.9h-.048a2.674,2.674,0,0,1-.967.8,3.2,3.2,0,0,1-1.273.216,2,2,0,0,1-1.514-.577,2.248,2.248,0,0,1-.552-1.621,1.846,1.846,0,0,1,.756-1.619,4.154,4.154,0,0,1,2.193-.6L97,308.765v-.1a.738.738,0,0,0-.829-.84,4.933,4.933,0,0,0-1.891.5l-.679-1.549a6.515,6.515,0,0,1,3-.614,2.912,2.912,0,0,1,2.026.65,2.317,2.317,0,0,1,.718,1.813V313.1Zm-1.742-1.537a1.054,1.054,0,0,0,.729-.271.9.9,0,0,0,.3-.7v-.528l-.541.023c-.772.03-1.159.313-1.159.854q0,.624.667.625" transform="translate(2144.486 -1839.367)" fill="#fff"/>
        <path id="Caminho_9606" data-name="Caminho 9606" d="M109.3,313.1v-3.7a2.227,2.227,0,0,0-.189-1.037.633.633,0,0,0-.6-.345.839.839,0,0,0-.793.463,3.153,3.153,0,0,0-.252,1.446V313.1h-2.355v-3.7a2.324,2.324,0,0,0-.18-1.037.609.609,0,0,0-.582-.345.844.844,0,0,0-.805.493,3.744,3.744,0,0,0-.253,1.61V313.1h-2.347v-6.8h1.771l.294.84h.139a1.752,1.752,0,0,1,.783-.713,2.648,2.648,0,0,1,1.169-.248,2.293,2.293,0,0,1,2.065.9h.187a1.923,1.923,0,0,1,.8-.657,2.658,2.658,0,0,1,1.132-.239,2.329,2.329,0,0,1,1.784.619,2.674,2.674,0,0,1,.577,1.881V313.1Z" transform="translate(2144.486 -1839.367)" fill="#fff"/>
        <path id="Caminho_9607" data-name="Caminho 9607" d="M113.078,305.642v-.174c.617-.662,1.009-1.087,1.175-1.28s.3-.364.411-.516h2.57v.127q-.48.382-1.321.978c-.561.4-.984.685-1.274.865Zm2.529,7.453h-2.349v-6.8h2.349Z" transform="translate(2144.486 -1839.367)" fill="#fff"/>
        <rect id="Retângulo_1952" data-name="Retângulo 1952" width="2.348" height="9.346" transform="translate(2261.733 -1535.618)" fill="#fff"/>
        <path id="Caminho_9608" data-name="Caminho 9608" d="M121.175,304.6a.989.989,0,0,1,.294-.787,1.867,1.867,0,0,1,1.9.006.985.985,0,0,1,.3.781q0,1.032-1.255,1.033t-1.243-1.033m2.408,8.5h-2.349v-6.8h2.349Z" transform="translate(2144.486 -1839.367)" fill="#fff"/>
        <path id="Caminho_9609" data-name="Caminho 9609" d="M129.661,313.1l-.45-.9h-.048a2.668,2.668,0,0,1-.968.8,3.191,3.191,0,0,1-1.272.216,2,2,0,0,1-1.514-.577,2.243,2.243,0,0,1-.552-1.621,1.844,1.844,0,0,1,.756-1.619,4.151,4.151,0,0,1,2.193-.6l1.135-.035v-.1a.738.738,0,0,0-.83-.84,4.937,4.937,0,0,0-1.891.5l-.679-1.549a6.521,6.521,0,0,1,3-.614,2.914,2.914,0,0,1,2.027.65,2.317,2.317,0,0,1,.718,1.813V313.1Zm-1.741-1.537a1.054,1.054,0,0,0,.729-.271.9.9,0,0,0,.3-.7v-.528l-.54.023c-.772.03-1.159.313-1.159.854q0,.624.667.625" transform="translate(2144.486 -1839.367)" fill="#fff"/>
        <path id="Caminho_9610" data-name="Caminho 9610" d="M138.142,311.006a1.934,1.934,0,0,1-.745,1.651,3.519,3.519,0,0,1-2.139.559,9.132,9.132,0,0,1-1.314-.081,5.667,5.667,0,0,1-1.142-.3v-1.881a7.07,7.07,0,0,0,1.2.4,5.06,5.06,0,0,0,1.163.156c.508,0,.762-.115.762-.348a.4.4,0,0,0-.213-.322,9.694,9.694,0,0,0-1.24-.549,3.085,3.085,0,0,1-1.309-.874,1.983,1.983,0,0,1-.373-1.24,1.719,1.719,0,0,1,.733-1.478,3.5,3.5,0,0,1,2.072-.529,5.177,5.177,0,0,1,1.264.149,7.415,7.415,0,0,1,1.228.428l-.636,1.514a7.31,7.31,0,0,0-.992-.358,3.28,3.28,0,0,0-.852-.147q-.576,0-.576.283a.351.351,0,0,0,.2.3,10.918,10.918,0,0,0,1.162.5,4.415,4.415,0,0,1,1.066.576,1.711,1.711,0,0,1,.516.664,2.33,2.33,0,0,1,.166.928" transform="translate(2144.486 -1839.367)" fill="#fff"/>
        <path id="Caminho_9611" data-name="Caminho 9611" d="M40.921,321.867a2.941,2.941,0,0,1-.868,2.274,3.506,3.506,0,0,1-2.466.8H36.92v2.913H34.548v-8.782h3.039a3.714,3.714,0,0,1,2.5.729,2.589,2.589,0,0,1,.835,2.064m-4,1.142h.433a1.181,1.181,0,0,0,.849-.3,1.086,1.086,0,0,0,.316-.828q0-.891-.985-.89H36.92Z" transform="translate(2144.486 -1839.367)" fill="#fff"/>
        <rect id="Retângulo_1953" data-name="Retângulo 1953" width="2.349" height="9.346" transform="translate(2186.667 -1520.857)" fill="#fff"/>
        <path id="Caminho_9612" data-name="Caminho 9612" d="M50.6,327.856l-.451-.9H50.1a2.664,2.664,0,0,1-.967.8,3.177,3.177,0,0,1-1.273.217,2,2,0,0,1-1.514-.576,2.254,2.254,0,0,1-.552-1.622,1.842,1.842,0,0,1,.756-1.618,4.117,4.117,0,0,1,2.193-.6l1.135-.037v-.1a.738.738,0,0,0-.829-.84,4.951,4.951,0,0,0-1.891.5l-.679-1.549a6.515,6.515,0,0,1,3-.613,2.912,2.912,0,0,1,2.026.649,2.316,2.316,0,0,1,.718,1.814v4.462Zm-1.742-1.538a1.058,1.058,0,0,0,.729-.27.894.894,0,0,0,.3-.7v-.528l-.541.024q-1.158.042-1.159.853c0,.417.223.624.667.624" transform="translate(2144.486 -1839.367)" fill="#fff"/>
        <path id="Caminho_9613" data-name="Caminho 9613" d="M58.116,327.856v-3.712a2.127,2.127,0,0,0-.195-1.023.666.666,0,0,0-.628-.346.908.908,0,0,0-.859.475,3.593,3.593,0,0,0-.264,1.627v2.979H53.822V321.05h1.772l.293.842h.139a1.869,1.869,0,0,1,.832-.721,2.941,2.941,0,0,1,1.222-.24,2.32,2.32,0,0,1,1.757.654,2.556,2.556,0,0,1,.628,1.844v4.427Z" transform="translate(2144.486 -1839.367)" fill="#fff"/>
        <path id="Caminho_9614" data-name="Caminho 9614" d="M68.56,324.439a3.608,3.608,0,0,1-.9,2.6,3.326,3.326,0,0,1-2.514.933,3.257,3.257,0,0,1-2.466-.955,4.133,4.133,0,0,1-.017-5.168,3.352,3.352,0,0,1,2.519-.922,3.6,3.6,0,0,1,1.772.426,2.91,2.91,0,0,1,1.186,1.223,3.939,3.939,0,0,1,.417,1.859m-4.408,0a3.027,3.027,0,0,0,.234,1.336.813.813,0,0,0,.787.459.79.79,0,0,0,.772-.459,3.149,3.149,0,0,0,.225-1.336,2.989,2.989,0,0,0-.228-1.316.9.9,0,0,0-1.556,0,2.9,2.9,0,0,0-.234,1.318" transform="translate(2144.486 -1839.367)" fill="#fff"/>
        <path id="Caminho_9615" data-name="Caminho 9615" d="M80.687,323.279a4.535,4.535,0,0,1-1.211,3.388,4.646,4.646,0,0,1-3.4,1.189H73.233v-8.781h3.039a4.582,4.582,0,0,1,3.264,1.081,4.08,4.08,0,0,1,1.151,3.123m-2.463.084a2.785,2.785,0,0,0-.478-1.789,1.762,1.762,0,0,0-1.45-.583h-.691v4.919h.529a1.912,1.912,0,0,0,1.585-.627,3.032,3.032,0,0,0,.5-1.92" transform="translate(2144.486 -1839.367)" fill="#fff"/>
        <path id="Caminho_9616" data-name="Caminho 9616" d="M82.074,319.357a1,1,0,0,1,.3-.787,1.865,1.865,0,0,1,1.9.006.988.988,0,0,1,.3.781c0,.69-.419,1.033-1.256,1.033s-1.243-.343-1.243-1.033m2.409,8.5H82.134V321.05h2.349Z" transform="translate(2144.486 -1839.367)" fill="#fff"/>
        <path id="Caminho_9617" data-name="Caminho 9617" d="M90.23,320.931a3.413,3.413,0,0,1,.583.048l.132.024-.21,2.216a3.467,3.467,0,0,0-.8-.072,1.522,1.522,0,0,0-1.117.351,1.377,1.377,0,0,0-.349,1.013v3.345H86.123V321.05H87.87l.366,1.088h.114a2.355,2.355,0,0,1,.82-.874,1.966,1.966,0,0,1,1.06-.333" transform="translate(2144.486 -1839.367)" fill="#fff"/>
        <path id="Caminho_9618" data-name="Caminho 9618" d="M95.18,327.976a3.653,3.653,0,0,1-2.64-.9A3.4,3.4,0,0,1,91.6,324.5a3.708,3.708,0,0,1,.87-2.646,3.257,3.257,0,0,1,2.487-.922,3.307,3.307,0,0,1,2.375.8,3.049,3.049,0,0,1,.838,2.311v1.045h-4.2a1.159,1.159,0,0,0,.418.894,1.626,1.626,0,0,0,1.071.324,5.19,5.19,0,0,0,1.139-.117,5.739,5.739,0,0,0,1.126-.4v1.687a4.154,4.154,0,0,1-1.142.391,8,8,0,0,1-1.4.107m-.138-5.447a.978.978,0,0,0-.694.261,1.23,1.23,0,0,0-.327.819h2.018a1.169,1.169,0,0,0-.279-.786.925.925,0,0,0-.718-.294" transform="translate(2144.486 -1839.367)" fill="#fff"/>
        <path id="Caminho_9619" data-name="Caminho 9619" d="M102.832,326.121a3.5,3.5,0,0,0,1.135-.234V327.6a4.632,4.632,0,0,1-.9.292,5.2,5.2,0,0,1-1.005.086,2.2,2.2,0,0,1-1.706-.58,2.587,2.587,0,0,1-.523-1.78V322.81h-.823v-.954l1.045-.739.607-1.43h1.537v1.364h1.67v1.759h-1.67v2.65q0,.66.637.661" transform="translate(2144.486 -1839.367)" fill="#fff"/>
        <path id="Caminho_9620" data-name="Caminho 9620" d="M111.655,324.439a3.608,3.608,0,0,1-.9,2.6,3.326,3.326,0,0,1-2.514.933,3.255,3.255,0,0,1-2.465-.955,4.134,4.134,0,0,1-.018-5.168,3.352,3.352,0,0,1,2.519-.922,3.6,3.6,0,0,1,1.773.426,2.913,2.913,0,0,1,1.185,1.223,3.939,3.939,0,0,1,.418,1.859m-4.409,0a3.027,3.027,0,0,0,.234,1.336.814.814,0,0,0,.787.459.789.789,0,0,0,.772-.459,3.131,3.131,0,0,0,.226-1.336,2.972,2.972,0,0,0-.229-1.316.9.9,0,0,0-1.556,0,2.9,2.9,0,0,0-.234,1.318" transform="translate(2144.486 -1839.367)" fill="#fff"/>
        <path id="Caminho_9621" data-name="Caminho 9621" d="M117.1,320.931a3.393,3.393,0,0,1,.582.048l.133.024-.21,2.216a3.467,3.467,0,0,0-.8-.072,1.52,1.52,0,0,0-1.117.351,1.377,1.377,0,0,0-.349,1.013v3.345h-2.348V321.05h1.748l.366,1.088h.114a2.36,2.36,0,0,1,.819-.874,1.969,1.969,0,0,1,1.061-.333" transform="translate(2144.486 -1839.367)" fill="#fff"/>
        <path id="Caminho_9622" data-name="Caminho 9622" d="M124.075,327.976a2.034,2.034,0,0,1-1.269-.414,2.628,2.628,0,0,1-.841-1.219,5.4,5.4,0,0,1-.3-1.88,4.413,4.413,0,0,1,.667-2.6,2.127,2.127,0,0,1,1.832-.936,2.1,2.1,0,0,1,1,.228,2.2,2.2,0,0,1,.783.768H126a11.289,11.289,0,0,1-.114-1.6v-1.819h2.366v9.345h-1.772l-.5-.858h-.09a1.993,1.993,0,0,1-1.809.978m.962-1.855a.876.876,0,0,0,.795-.355,2.142,2.142,0,0,0,.25-1.092v-.188a2.377,2.377,0,0,0-.259-1.281.907.907,0,0,0-.81-.382.794.794,0,0,0-.718.436,2.477,2.477,0,0,0-.255,1.24,2.3,2.3,0,0,0,.258,1.207.822.822,0,0,0,.739.415" transform="translate(2144.486 -1839.367)" fill="#fff"/>
        <path id="Caminho_9623" data-name="Caminho 9623" d="M133.157,327.976a3.65,3.65,0,0,1-2.64-.9,3.4,3.4,0,0,1-.94-2.573,3.7,3.7,0,0,1,.871-2.646,3.253,3.253,0,0,1,2.486-.922,3.308,3.308,0,0,1,2.376.8,3.049,3.049,0,0,1,.838,2.311v1.045h-4.2a1.159,1.159,0,0,0,.417.894,1.629,1.629,0,0,0,1.072.324,5.181,5.181,0,0,0,1.138-.117,5.746,5.746,0,0,0,1.127-.4v1.687a4.166,4.166,0,0,1-1.142.391,8.011,8.011,0,0,1-1.4.107m-.139-5.447a.976.976,0,0,0-.693.261,1.23,1.23,0,0,0-.328.819h2.018a1.169,1.169,0,0,0-.279-.786.922.922,0,0,0-.718-.294" transform="translate(2144.486 -1839.367)" fill="#fff"/>
        <path id="Caminho_9624" data-name="Caminho 9624" d="M146.2,327.856l-.432-1.646h-2.853l-.445,1.646H139.86l2.864-8.818h3.166l2.9,8.818Zm-.925-3.592-.378-1.441c-.089-.321-.2-.736-.321-1.244s-.21-.873-.25-1.093c-.035.205-.107.541-.213,1.009s-.341,1.391-.706,2.769Z" transform="translate(2144.486 -1839.367)" fill="#fff"/>
        <path id="Caminho_9625" data-name="Caminho 9625" d="M152.935,326.121a3.5,3.5,0,0,0,1.135-.234V327.6a4.632,4.632,0,0,1-.9.292,5.2,5.2,0,0,1-1.005.086,2.2,2.2,0,0,1-1.706-.58,2.587,2.587,0,0,1-.523-1.78V322.81h-.823v-.954l1.045-.739.607-1.43H152.3v1.364h1.67v1.759H152.3v2.65q0,.66.637.661" transform="translate(2144.486 -1839.367)" fill="#fff"/>
        <path id="Caminho_9626" data-name="Caminho 9626" d="M158.545,327.976a3.653,3.653,0,0,1-2.64-.9,3.4,3.4,0,0,1-.939-2.573,3.708,3.708,0,0,1,.87-2.646,3.257,3.257,0,0,1,2.487-.922,3.307,3.307,0,0,1,2.375.8,3.049,3.049,0,0,1,.838,2.311v1.045h-4.2a1.159,1.159,0,0,0,.418.894,1.626,1.626,0,0,0,1.071.324,5.19,5.19,0,0,0,1.139-.117,5.739,5.739,0,0,0,1.126-.4v1.687a4.154,4.154,0,0,1-1.142.391,8,8,0,0,1-1.4.107m-.138-5.447a.978.978,0,0,0-.694.261,1.23,1.23,0,0,0-.327.819H159.4a1.169,1.169,0,0,0-.279-.786.925.925,0,0,0-.718-.294" transform="translate(2144.486 -1839.367)" fill="#fff"/>
        <path id="Caminho_9627" data-name="Caminho 9627" d="M167.158,327.856v-3.712a2.127,2.127,0,0,0-.2-1.023.666.666,0,0,0-.628-.346.908.908,0,0,0-.859.475,3.593,3.593,0,0,0-.264,1.627v2.979h-2.348V321.05h1.772l.293.842h.139a1.87,1.87,0,0,1,.832-.721,2.941,2.941,0,0,1,1.222-.24,2.32,2.32,0,0,1,1.757.654,2.555,2.555,0,0,1,.628,1.844v4.427Z" transform="translate(2144.486 -1839.367)" fill="#fff"/>
        <path id="Caminho_9628" data-name="Caminho 9628" d="M174.2,327.976a3.343,3.343,0,0,1-2.531-.9,3.6,3.6,0,0,1-.862-2.59,3.545,3.545,0,0,1,.931-2.624,3.585,3.585,0,0,1,2.649-.93,4.968,4.968,0,0,1,2.228.515l-.691,1.736a7.5,7.5,0,0,0-.786-.3,2.507,2.507,0,0,0-.751-.112,1.016,1.016,0,0,0-.883.445,2.152,2.152,0,0,0-.312,1.254q0,1.635,1.207,1.635a3.659,3.659,0,0,0,1.982-.6v1.868a3.862,3.862,0,0,1-2.181.6m1.184,1.394a1.319,1.319,0,0,1-.451,1.048,1.751,1.751,0,0,1-1.2.393,3.727,3.727,0,0,1-1.279-.174v-1.231a2.9,2.9,0,0,0,.883.162q.312,0,.312-.282a.429.429,0,0,0-.247-.352,2.118,2.118,0,0,0-.642-.243l.432-.835h1.22l-.054.175a1.736,1.736,0,0,1,.8.555,1.339,1.339,0,0,1,.223.784" transform="translate(2144.486 -1839.367)" fill="#fff"/>
        <path id="Caminho_9629" data-name="Caminho 9629" d="M182.173,327.856l-.451-.9h-.048a2.664,2.664,0,0,1-.967.8,3.174,3.174,0,0,1-1.273.217,2,2,0,0,1-1.513-.576,2.25,2.25,0,0,1-.553-1.622,1.842,1.842,0,0,1,.756-1.618,4.12,4.12,0,0,1,2.193-.6l1.135-.037v-.1a.738.738,0,0,0-.829-.84,4.952,4.952,0,0,0-1.891.5l-.679-1.549a6.517,6.517,0,0,1,3-.613,2.911,2.911,0,0,1,2.025.649,2.316,2.316,0,0,1,.718,1.814v4.462Zm-.2-7.442a1.727,1.727,0,0,1-.544-.09c-.182-.06-.361-.125-.538-.2s-.347-.139-.513-.2a1.419,1.419,0,0,0-.471-.089q-.325,0-.433.588h-1.081a2.976,2.976,0,0,1,.433-1.552,1.253,1.253,0,0,1,1.081-.5,1.453,1.453,0,0,1,.486.09c.172.06.347.126.522.2s.351.137.523.2a1.454,1.454,0,0,0,.487.09.319.319,0,0,0,.276-.151,1.168,1.168,0,0,0,.157-.437h1.093a2.925,2.925,0,0,1-.446,1.527,1.2,1.2,0,0,1-1.032.526m-1.537,5.9a1.057,1.057,0,0,0,.728-.27.894.894,0,0,0,.3-.7v-.528l-.541.024q-1.158.042-1.159.853c0,.417.224.624.668.624" transform="translate(2144.486 -1839.367)" fill="#fff"/>
        <path id="Caminho_9630" data-name="Caminho 9630" d="M191.9,324.439a3.608,3.608,0,0,1-.9,2.6,3.326,3.326,0,0,1-2.513.933,3.257,3.257,0,0,1-2.466-.955,4.133,4.133,0,0,1-.017-5.168,3.348,3.348,0,0,1,2.518-.922,3.6,3.6,0,0,1,1.773.426,2.916,2.916,0,0,1,1.186,1.223,3.951,3.951,0,0,1,.417,1.859m-4.408,0a3.043,3.043,0,0,0,.233,1.336.815.815,0,0,0,.788.459.788.788,0,0,0,.771-.459,3.131,3.131,0,0,0,.226-1.336,2.972,2.972,0,0,0-.229-1.316.9.9,0,0,0-1.556,0,2.915,2.915,0,0,0-.233,1.318" transform="translate(2144.486 -1839.367)" fill="#fff"/>
        <path id="Caminho_9631" data-name="Caminho 9631" d="M41.287,336.628a2.945,2.945,0,0,1-.868,2.274,3.5,3.5,0,0,1-2.466.8h-.667v2.913H34.914v-8.782h3.039a3.72,3.72,0,0,1,2.5.727,2.594,2.594,0,0,1,.835,2.066m-4,1.141h.433a1.18,1.18,0,0,0,.849-.3,1.085,1.085,0,0,0,.316-.829q0-.888-.985-.889h-.613Z" transform="translate(2144.486 -1839.367)" fill="#fff"/>
        <path id="Caminho_9632" data-name="Caminho 9632" d="M46.656,335.691a3.394,3.394,0,0,1,.582.049l.133.023-.21,2.217a3.411,3.411,0,0,0-.8-.072,1.52,1.52,0,0,0-1.117.351,1.377,1.377,0,0,0-.349,1.012v3.346H42.548v-6.8H44.3l.366,1.087h.114a2.368,2.368,0,0,1,.819-.874,1.962,1.962,0,0,1,1.061-.334" transform="translate(2144.486 -1839.367)" fill="#fff"/>
        <path id="Caminho_9633" data-name="Caminho 9633" d="M48.271,334.119a.991.991,0,0,1,.3-.787,1.861,1.861,0,0,1,1.9.006.982.982,0,0,1,.3.781q0,1.031-1.256,1.032t-1.243-1.032m2.409,8.5H48.331v-6.8H50.68Z" transform="translate(2144.486 -1839.367)" fill="#fff"/>
        <path id="Caminho_9634" data-name="Caminho 9634" d="M60.675,342.617v-3.7a2.224,2.224,0,0,0-.189-1.037.633.633,0,0,0-.6-.345A.84.84,0,0,0,59.1,338a3.155,3.155,0,0,0-.252,1.447v3.172H56.488v-3.7a2.321,2.321,0,0,0-.18-1.037.609.609,0,0,0-.582-.345.844.844,0,0,0-.805.492,3.75,3.75,0,0,0-.253,1.61v2.979H52.321v-6.8h1.771l.294.84h.139a1.754,1.754,0,0,1,.783-.714,2.662,2.662,0,0,1,1.169-.247,2.293,2.293,0,0,1,2.065.9h.187a1.915,1.915,0,0,1,.8-.657,2.658,2.658,0,0,1,1.132-.239,2.329,2.329,0,0,1,1.784.619,2.671,2.671,0,0,1,.577,1.88v4.427Z" transform="translate(2144.486 -1839.367)" fill="#fff"/>
        <path id="Caminho_9635" data-name="Caminho 9635" d="M69.059,342.617l-.451-.9H68.56a2.674,2.674,0,0,1-.967.8,3.2,3.2,0,0,1-1.273.216,2,2,0,0,1-1.514-.577,2.248,2.248,0,0,1-.552-1.621,1.846,1.846,0,0,1,.756-1.619,4.154,4.154,0,0,1,2.193-.6l1.135-.035v-.1a.738.738,0,0,0-.829-.84,4.933,4.933,0,0,0-1.891.5l-.679-1.549a6.515,6.515,0,0,1,3-.614,2.912,2.912,0,0,1,2.026.65,2.317,2.317,0,0,1,.718,1.813v4.463Zm-2.643-7.453v-.175q.925-.992,1.174-1.279t.412-.517h2.571v.127q-.481.384-1.322.979t-1.273.865Zm.9,5.916a1.054,1.054,0,0,0,.729-.271.9.9,0,0,0,.3-.7v-.528l-.541.023c-.772.03-1.159.313-1.159.854q0,.624.667.625" transform="translate(2144.486 -1839.367)" fill="#fff"/>
        <path id="Caminho_9636" data-name="Caminho 9636" d="M76.392,335.691a3.415,3.415,0,0,1,.583.049l.132.023-.21,2.217a3.411,3.411,0,0,0-.8-.072,1.522,1.522,0,0,0-1.117.351,1.377,1.377,0,0,0-.349,1.012v3.346H72.285v-6.8h1.747L74.4,336.9h.114a2.362,2.362,0,0,1,.82-.874,1.959,1.959,0,0,1,1.06-.334" transform="translate(2144.486 -1839.367)" fill="#fff"/>
        <path id="Caminho_9637" data-name="Caminho 9637" d="M78.009,334.119a.987.987,0,0,1,.294-.787,1.861,1.861,0,0,1,1.9.006.982.982,0,0,1,.3.781q0,1.031-1.255,1.032t-1.243-1.032m2.408,8.5H78.068v-6.8h2.349Z" transform="translate(2144.486 -1839.367)" fill="#fff"/>
        <path id="Caminho_9638" data-name="Caminho 9638" d="M86.5,342.617l-.45-.9H86a2.668,2.668,0,0,1-.968.8,3.191,3.191,0,0,1-1.272.216,2,2,0,0,1-1.514-.577,2.243,2.243,0,0,1-.552-1.621,1.844,1.844,0,0,1,.756-1.619,4.151,4.151,0,0,1,2.193-.6l1.135-.035v-.1a.738.738,0,0,0-.83-.84,4.937,4.937,0,0,0-1.891.5l-.679-1.549a6.521,6.521,0,0,1,3-.614,2.914,2.914,0,0,1,2.027.65,2.317,2.317,0,0,1,.718,1.813v4.463Zm-1.741-1.537a1.054,1.054,0,0,0,.729-.271.9.9,0,0,0,.3-.7v-.528l-.54.023c-.772.03-1.159.313-1.159.854q0,.624.667.625" transform="translate(2144.486 -1839.367)" fill="#fff"/>
        <path id="Caminho_9639" data-name="Caminho 9639" d="M97.354,342.617l-.45-.9h-.048a2.668,2.668,0,0,1-.968.8,3.191,3.191,0,0,1-1.272.216,2,2,0,0,1-1.514-.577,2.243,2.243,0,0,1-.552-1.621,1.844,1.844,0,0,1,.756-1.619,4.151,4.151,0,0,1,2.193-.6l1.135-.035v-.1a.738.738,0,0,0-.83-.84,4.937,4.937,0,0,0-1.891.5l-.679-1.549a6.521,6.521,0,0,1,3-.614,2.914,2.914,0,0,1,2.027.65,2.317,2.317,0,0,1,.718,1.813v4.463Zm-1.429-7.453q-.416-.266-1.222-.832T93.33,333.32v-.127h2.583q.312.422,1.22,1.4l.353.4v.175Zm-.312,5.916a1.054,1.054,0,0,0,.729-.271.9.9,0,0,0,.3-.7v-.528l-.54.023c-.772.03-1.159.313-1.159.854q0,.624.667.625" transform="translate(2144.486 -1839.367)" fill="#fff"/>
        <path id="Caminho_9640" data-name="Caminho 9640" d="M109.655,339.95a2.589,2.589,0,0,1-.414,1.45,2.711,2.711,0,0,1-1.195.986,4.435,4.435,0,0,1-1.832.351,7.418,7.418,0,0,1-1.472-.123,5.453,5.453,0,0,1-1.237-.43V340.07a7,7,0,0,0,1.412.544,5.251,5.251,0,0,0,1.344.194,1.311,1.311,0,0,0,.776-.182.564.564,0,0,0,.246-.472.51.51,0,0,0-.1-.314,1.123,1.123,0,0,0-.318-.274A12.821,12.821,0,0,0,105.7,339a5.641,5.641,0,0,1-1.288-.758,2.315,2.315,0,0,1-.637-.84,2.793,2.793,0,0,1-.207-1.123,2.252,2.252,0,0,1,.883-1.893,3.889,3.889,0,0,1,2.427-.678,6.8,6.8,0,0,1,2.78.631l-.727,1.831a5.289,5.289,0,0,0-2.126-.565,1.112,1.112,0,0,0-.672.162.492.492,0,0,0-.21.4.582.582,0,0,0,.266.463,10.326,10.326,0,0,0,1.451.745,4.021,4.021,0,0,1,1.577,1.1,2.373,2.373,0,0,1,.441,1.474" transform="translate(2144.486 -1839.367)" fill="#fff"/>
        <path id="Caminho_9641" data-name="Caminho 9641" d="M115.313,342.617l-.451-.9h-.048a2.674,2.674,0,0,1-.967.8,3.2,3.2,0,0,1-1.273.216,2,2,0,0,1-1.514-.577,2.248,2.248,0,0,1-.552-1.621,1.846,1.846,0,0,1,.756-1.619,4.154,4.154,0,0,1,2.193-.6l1.135-.035v-.1a.738.738,0,0,0-.829-.84,4.933,4.933,0,0,0-1.891.5l-.679-1.549a6.515,6.515,0,0,1,3-.614,2.912,2.912,0,0,1,2.026.65,2.317,2.317,0,0,1,.718,1.813v4.463Zm-1.742-1.537a1.054,1.054,0,0,0,.729-.271.9.9,0,0,0,.3-.7v-.528l-.541.023c-.772.03-1.159.313-1.159.854q0,.624.667.625" transform="translate(2144.486 -1839.367)" fill="#fff"/>
        <path id="Caminho_9642" data-name="Caminho 9642" d="M123.385,342.617l-.294-.847h-.139a1.905,1.905,0,0,1-.819.718,2.855,2.855,0,0,1-1.234.249,2.311,2.311,0,0,1-1.748-.651,2.555,2.555,0,0,1-.625-1.842v-4.432h2.348v3.717a2.138,2.138,0,0,0,.19,1.01.653.653,0,0,0,.622.342.9.9,0,0,0,.864-.477,3.635,3.635,0,0,0,.259-1.613v-2.979h2.349v6.8Zm-2.828-7.453v-.175q.924-.992,1.173-1.279t.413-.517h2.57v.127q-.48.384-1.321.979c-.562.4-.985.684-1.274.865Z" transform="translate(2144.486 -1839.367)" fill="#fff"/>
        <path id="Caminho_9643" data-name="Caminho 9643" d="M128.892,342.737a2.023,2.023,0,0,1-1.269-.415,2.61,2.61,0,0,1-.841-1.218,5.4,5.4,0,0,1-.3-1.88,4.417,4.417,0,0,1,.667-2.6,2.126,2.126,0,0,1,1.832-.937,2.1,2.1,0,0,1,1,.228,2.2,2.2,0,0,1,.783.77h.049a11.32,11.32,0,0,1-.114-1.6v-1.82h2.366v9.345h-1.772l-.5-.859h-.09a1.992,1.992,0,0,1-1.809.979m.962-1.856a.873.873,0,0,0,.795-.354,2.147,2.147,0,0,0,.25-1.093v-.186a2.382,2.382,0,0,0-.259-1.283.909.909,0,0,0-.81-.381.793.793,0,0,0-.718.436,2.475,2.475,0,0,0-.255,1.24,2.3,2.3,0,0,0,.258,1.207.821.821,0,0,0,.739.414" transform="translate(2144.486 -1839.367)" fill="#fff"/>
        <path id="Caminho_9644" data-name="Caminho 9644" d="M137.975,342.737a3.658,3.658,0,0,1-2.64-.9,3.406,3.406,0,0,1-.94-2.574,3.708,3.708,0,0,1,.871-2.647,3.26,3.26,0,0,1,2.486-.922,3.3,3.3,0,0,1,2.376.8,3.046,3.046,0,0,1,.838,2.309v1.045h-4.2a1.159,1.159,0,0,0,.417.9,1.635,1.635,0,0,0,1.072.324,5.243,5.243,0,0,0,1.138-.116,5.7,5.7,0,0,0,1.127-.4v1.687a4.1,4.1,0,0,1-1.142.391,7.91,7.91,0,0,1-1.4.108m-.139-5.448a.976.976,0,0,0-.693.262,1.226,1.226,0,0,0-.328.82h2.018a1.172,1.172,0,0,0-.279-.787.922.922,0,0,0-.718-.3" transform="translate(2144.486 -1839.367)" fill="#fff"/>
        <path id="Caminho_9645" data-name="Caminho 9645" d="M151.368,339.95a2.589,2.589,0,0,1-.414,1.45,2.711,2.711,0,0,1-1.195.986,4.435,4.435,0,0,1-1.832.351,7.418,7.418,0,0,1-1.472-.123,5.452,5.452,0,0,1-1.237-.43V340.07a7,7,0,0,0,1.412.544,5.251,5.251,0,0,0,1.344.194,1.311,1.311,0,0,0,.776-.182.564.564,0,0,0,.246-.472.51.51,0,0,0-.1-.314,1.123,1.123,0,0,0-.318-.274A12.822,12.822,0,0,0,147.41,339a5.641,5.641,0,0,1-1.288-.758,2.315,2.315,0,0,1-.637-.84,2.793,2.793,0,0,1-.207-1.123,2.252,2.252,0,0,1,.883-1.893,3.889,3.889,0,0,1,2.427-.678,6.8,6.8,0,0,1,2.78.631l-.727,1.831a5.289,5.289,0,0,0-2.126-.565,1.112,1.112,0,0,0-.672.162.492.492,0,0,0-.21.4.582.582,0,0,0,.266.463,10.326,10.326,0,0,0,1.451.745,4.021,4.021,0,0,1,1.577,1.1,2.373,2.373,0,0,1,.441,1.474" transform="translate(2144.486 -1839.367)" fill="#fff"/>
        <path id="Caminho_9646" data-name="Caminho 9646" d="M157.938,342.617h-5.213v-8.781h5.213v1.9H155.1v1.381h2.631v1.9H155.1v1.658h2.841Z" transform="translate(2144.486 -1839.367)" fill="#fff"/>
        <path id="Caminho_9647" data-name="Caminho 9647" d="M165.219,339.95a2.589,2.589,0,0,1-.415,1.45,2.711,2.711,0,0,1-1.2.986,4.434,4.434,0,0,1-1.831.351,7.418,7.418,0,0,1-1.472-.123,5.436,5.436,0,0,1-1.237-.43V340.07a6.988,6.988,0,0,0,1.411.544,5.258,5.258,0,0,0,1.345.194,1.308,1.308,0,0,0,.775-.182.564.564,0,0,0,.246-.472.509.509,0,0,0-.1-.314,1.137,1.137,0,0,0-.318-.274c-.147-.092-.536-.281-1.168-.564a5.651,5.651,0,0,1-1.289-.758,2.326,2.326,0,0,1-.637-.84,2.81,2.81,0,0,1-.207-1.123,2.255,2.255,0,0,1,.883-1.893,3.889,3.889,0,0,1,2.427-.678,6.8,6.8,0,0,1,2.781.631l-.727,1.831a5.293,5.293,0,0,0-2.127-.565,1.116,1.116,0,0,0-.672.162.5.5,0,0,0-.21.4.581.581,0,0,0,.267.463,10.227,10.227,0,0,0,1.45.745,4.033,4.033,0,0,1,1.578,1.1,2.379,2.379,0,0,1,.441,1.474" transform="translate(2144.486 -1839.367)" fill="#fff"/>
        <path id="Caminho_9648" data-name="Caminho 9648" d="M171.038,333.71l-3.273,9.027h-2.079l3.274-9.027Z" transform="translate(2144.486 -1839.367)" fill="#fff"/>
        <path id="Caminho_9649" data-name="Caminho 9649" d="M175.837,342.617l-1.8-6.324h-.054q.126,1.614.126,2.51v3.814h-2.1v-8.781h3.159L177,340.07h.049l1.8-6.234h3.165v8.781h-2.181v-3.85c0-.2,0-.422.009-.667s.033-.842.082-1.8h-.055l-1.771,6.312Z" transform="translate(2144.486 -1839.367)" fill="#fff"/>
        <path id="Caminho_9650" data-name="Caminho 9650" d="M187.428,337.476h3.79v4.732a10.428,10.428,0,0,1-3.394.529,4.1,4.1,0,0,1-3.137-1.177,4.712,4.712,0,0,1-1.109-3.357,4.416,4.416,0,0,1,1.213-3.311,4.67,4.67,0,0,1,3.4-1.183,7.458,7.458,0,0,1,1.564.157,6.612,6.612,0,0,1,1.282.4l-.75,1.862a4.648,4.648,0,0,0-2.085-.468,1.98,1.98,0,0,0-1.606.675,2.926,2.926,0,0,0-.567,1.931,2.964,2.964,0,0,0,.513,1.877,1.779,1.779,0,0,0,1.481.646,4.342,4.342,0,0,0,.972-.1v-1.376h-1.567Z" transform="translate(2144.486 -1839.367)" fill="#fff"/>
      </g>
    </g>
  </g>
</svg>
