<svg xmlns="http://www.w3.org/2000/svg" xmlns:xlink="http://www.w3.org/1999/xlink" width="225" height="108.235" viewBox="0 0 225 108.235">
  <defs>
    <clipPath id="clip-path">
      <rect id="Retângulo_1944" data-name="Retângulo 1944" width="225" height="98.235" transform="translate(0 125.967)" fill="none"/>
    </clipPath>
  </defs>
  <g id="Grupo_3127" data-name="Grupo 3127" transform="translate(-2144.486 1723.4)">
    <g id="Grupo_3126" data-name="Grupo 3126">
      <g id="Grupo_3125" data-name="Grupo 3125">
        <g id="Grupo_3112" data-name="Grupo 3112" transform="translate(2144.486 -1839.367)" opacity="0.3">
          <g id="Grupo_3111" data-name="Grupo 3111">
            <g id="Grupo_3110" data-name="Grupo 3110" clip-path="url(#clip-path)">
              <path id="Caminho_9535" data-name="Caminho 9535" d="M206.5,224.2H18.5A18.5,18.5,0,0,1,0,205.706V144.464a18.5,18.5,0,0,1,18.5-18.5H206.5a18.5,18.5,0,0,1,18.5,18.5v61.242a18.5,18.5,0,0,1-18.5,18.5" fill="#373538"/>
            </g>
          </g>
        </g>
        <path id="Caminho_9536" data-name="Caminho 9536" d="M206.5,214.2H18.5A18.5,18.5,0,0,1,0,195.706V134.464a18.5,18.5,0,0,1,18.5-18.5H206.5a18.5,18.5,0,0,1,18.5,18.5v61.242a18.5,18.5,0,0,1-18.5,18.5" transform="translate(2144.486 -1839.367)" fill="#ffbc00"/>
        <path id="Caminho_9537" data-name="Caminho 9537" d="M39.613,168.563H34.4v-8.781h5.213v1.9H36.772v1.381H39.4v1.9H36.772v1.658h2.841Z" transform="translate(2144.486 -1839.367)" fill="#fff"/>
        <path id="Caminho_9538" data-name="Caminho 9538" d="M46.268,166.473a1.935,1.935,0,0,1-.745,1.652,3.516,3.516,0,0,1-2.138.558,9.137,9.137,0,0,1-1.315-.081,5.615,5.615,0,0,1-1.142-.3v-1.88a7.071,7.071,0,0,0,1.2.4,5.068,5.068,0,0,0,1.163.156c.508,0,.763-.116.763-.349a.393.393,0,0,0-.214-.321,9.623,9.623,0,0,0-1.24-.549,3.108,3.108,0,0,1-1.309-.874,1.988,1.988,0,0,1-.373-1.241,1.719,1.719,0,0,1,.733-1.477,3.5,3.5,0,0,1,2.072-.529,5.186,5.186,0,0,1,1.265.148,7.552,7.552,0,0,1,1.228.429l-.636,1.513a7.172,7.172,0,0,0-.992-.357,3.294,3.294,0,0,0-.852-.147q-.578,0-.577.282a.353.353,0,0,0,.2.3,10.879,10.879,0,0,0,1.162.5,4.413,4.413,0,0,1,1.066.577,1.718,1.718,0,0,1,.517.663,2.337,2.337,0,0,1,.165.928" transform="translate(2144.486 -1839.367)" fill="#fff"/>
        <path id="Caminho_9539" data-name="Caminho 9539" d="M50.671,168.683a3.339,3.339,0,0,1-2.531-.9,3.6,3.6,0,0,1-.863-2.589,3.242,3.242,0,0,1,3.581-3.555,4.968,4.968,0,0,1,2.228.516L52.4,163.89a7.537,7.537,0,0,0-.787-.3,2.536,2.536,0,0,0-.75-.111,1.016,1.016,0,0,0-.883.444,2.159,2.159,0,0,0-.313,1.256q0,1.632,1.207,1.633a3.651,3.651,0,0,0,1.983-.6v1.868a3.857,3.857,0,0,1-2.181.6" transform="translate(2144.486 -1839.367)" fill="#fff"/>
        <path id="Caminho_9540" data-name="Caminho 9540" d="M58.641,168.564l-.451-.9h-.048a2.674,2.674,0,0,1-.967.8,3.2,3.2,0,0,1-1.273.217,2,2,0,0,1-1.514-.577,2.25,2.25,0,0,1-.552-1.622,1.845,1.845,0,0,1,.756-1.618,4.135,4.135,0,0,1,2.193-.6l1.135-.036v-.1a.738.738,0,0,0-.829-.841,4.938,4.938,0,0,0-1.891.5l-.679-1.55a6.528,6.528,0,0,1,3-.613,2.916,2.916,0,0,1,2.026.649,2.318,2.318,0,0,1,.718,1.814v4.463ZM56.9,167.026a1.054,1.054,0,0,0,.729-.271.894.894,0,0,0,.3-.7v-.528l-.541.023q-1.158.043-1.159.853,0,.625.667.625" transform="translate(2144.486 -1839.367)" fill="#fff"/>
        <rect id="Retângulo_1945" data-name="Retângulo 1945" width="2.348" height="9.346" transform="translate(2206.353 -1680.15)" fill="#fff"/>
        <path id="Caminho_9541" data-name="Caminho 9541" d="M70.281,168.564l-.45-.9h-.048a2.668,2.668,0,0,1-.968.8,3.189,3.189,0,0,1-1.272.217,2,2,0,0,1-1.514-.577,2.246,2.246,0,0,1-.552-1.622,1.842,1.842,0,0,1,.756-1.618,4.133,4.133,0,0,1,2.193-.6l1.135-.036v-.1a.739.739,0,0,0-.83-.841,4.942,4.942,0,0,0-1.891.5l-.679-1.55a6.534,6.534,0,0,1,3-.613,2.919,2.919,0,0,1,2.027.649,2.318,2.318,0,0,1,.718,1.814v4.463Zm-1.741-1.538a1.054,1.054,0,0,0,.729-.271.893.893,0,0,0,.3-.7v-.528l-.54.023q-1.158.043-1.159.853,0,.625.667.625" transform="translate(2144.486 -1839.367)" fill="#fff"/>
        <path id="Caminho_9542" data-name="Caminho 9542" d="M78.816,168.683a2.032,2.032,0,0,1-1.27-.415,2.618,2.618,0,0,1-.841-1.219,5.4,5.4,0,0,1-.3-1.88,4.412,4.412,0,0,1,.666-2.594,2.127,2.127,0,0,1,1.832-.937,2.1,2.1,0,0,1,1,.228,2.2,2.2,0,0,1,.784.769h.048a11.3,11.3,0,0,1-.114-1.6v-1.82H82.99v9.346H81.218l-.5-.859h-.09a1.99,1.99,0,0,1-1.808.979m.961-1.856a.878.878,0,0,0,.8-.354,2.137,2.137,0,0,0,.249-1.093v-.187a2.38,2.38,0,0,0-.258-1.282.911.911,0,0,0-.811-.381.8.8,0,0,0-.718.435,2.477,2.477,0,0,0-.255,1.24,2.289,2.289,0,0,0,.259,1.207.82.82,0,0,0,.738.415" transform="translate(2144.486 -1839.367)" fill="#fff"/>
        <path id="Caminho_9543" data-name="Caminho 9543" d="M87.9,168.684a3.657,3.657,0,0,1-2.64-.9,3.4,3.4,0,0,1-.939-2.574,3.712,3.712,0,0,1,.87-2.646,3.26,3.26,0,0,1,2.487-.922,3.3,3.3,0,0,1,2.375.8,3.048,3.048,0,0,1,.838,2.31v1.045h-4.2a1.162,1.162,0,0,0,.418.9,1.632,1.632,0,0,0,1.071.324,5.19,5.19,0,0,0,1.139-.117,5.683,5.683,0,0,0,1.126-.4v1.687a4.122,4.122,0,0,1-1.142.391,7.894,7.894,0,0,1-1.4.108m-.138-5.448a.978.978,0,0,0-.694.261,1.23,1.23,0,0,0-.327.82h2.018a1.174,1.174,0,0,0-.279-.787.925.925,0,0,0-.718-.294" transform="translate(2144.486 -1839.367)" fill="#fff"/>
        <path id="Caminho_9544" data-name="Caminho 9544" d="M99.46,161.6a1.513,1.513,0,0,0-1.321.693,3.346,3.346,0,0,0-.475,1.913q0,2.535,1.928,2.535a3.951,3.951,0,0,0,1.129-.162,10.961,10.961,0,0,0,1.1-.391V168.2a6.083,6.083,0,0,1-2.486.486,3.935,3.935,0,0,1-3.049-1.153,4.761,4.761,0,0,1-1.059-3.334,5.324,5.324,0,0,1,.513-2.4,3.674,3.674,0,0,1,1.478-1.589,4.461,4.461,0,0,1,2.266-.555,6.254,6.254,0,0,1,2.722.618l-.727,1.869a8.083,8.083,0,0,0-.973-.385,3.4,3.4,0,0,0-1.045-.156" transform="translate(2144.486 -1839.367)" fill="#fff"/>
        <path id="Caminho_9545" data-name="Caminho 9545" d="M109.892,165.146a3.606,3.606,0,0,1-.9,2.6,3.327,3.327,0,0,1-2.514.934,3.261,3.261,0,0,1-2.466-.955A4.134,4.134,0,0,1,104,162.56a3.355,3.355,0,0,1,2.519-.922,3.589,3.589,0,0,1,1.772.427,2.907,2.907,0,0,1,1.186,1.222,3.939,3.939,0,0,1,.417,1.859m-4.408,0a3.024,3.024,0,0,0,.234,1.336.814.814,0,0,0,.787.46.791.791,0,0,0,.772-.46,3.146,3.146,0,0,0,.225-1.336,2.984,2.984,0,0,0-.228-1.315.9.9,0,0,0-1.556,0,2.9,2.9,0,0,0-.234,1.318" transform="translate(2144.486 -1839.367)" fill="#fff"/>
        <path id="Caminho_9546" data-name="Caminho 9546" d="M114.518,168.684a3.654,3.654,0,0,1-2.64-.9,3.4,3.4,0,0,1-.94-2.574,3.708,3.708,0,0,1,.871-2.646,3.257,3.257,0,0,1,2.486-.922,3.3,3.3,0,0,1,2.376.8,3.048,3.048,0,0,1,.838,2.31v1.045h-4.2a1.161,1.161,0,0,0,.417.9,1.635,1.635,0,0,0,1.072.324,5.181,5.181,0,0,0,1.138-.117,5.691,5.691,0,0,0,1.127-.4v1.687a4.133,4.133,0,0,1-1.142.391,7.909,7.909,0,0,1-1.4.108m-.139-5.448a.976.976,0,0,0-.693.261,1.231,1.231,0,0,0-.328.82h2.018a1.174,1.174,0,0,0-.279-.787.922.922,0,0,0-.718-.294" transform="translate(2144.486 -1839.367)" fill="#fff"/>
        <rect id="Retângulo_1946" data-name="Retângulo 1946" width="2.349" height="9.346" transform="translate(2263.321 -1680.15)" fill="#fff"/>
        <path id="Caminho_9547" data-name="Caminho 9547" d="M127.1,168.563v-3.712q0-1.369-.812-1.369a.91.91,0,0,0-.849.483,3.466,3.466,0,0,0-.274,1.607v2.991h-2.347v-9.346h2.347v1.328q0,.9-.1,2.054h.108a1.927,1.927,0,0,1,.8-.745,2.513,2.513,0,0,1,1.075-.216,2.351,2.351,0,0,1,1.775.657,2.548,2.548,0,0,1,.633,1.841v4.427Z" transform="translate(2144.486 -1839.367)" fill="#fff"/>
        <path id="Caminho_9548" data-name="Caminho 9548" d="M137.55,165.146a3.606,3.606,0,0,1-.9,2.6,3.327,3.327,0,0,1-2.514.934,3.261,3.261,0,0,1-2.466-.955,4.134,4.134,0,0,1-.017-5.169,3.355,3.355,0,0,1,2.519-.922,3.589,3.589,0,0,1,1.772.427,2.907,2.907,0,0,1,1.186,1.222,3.939,3.939,0,0,1,.417,1.859m-4.408,0a3.024,3.024,0,0,0,.234,1.336.814.814,0,0,0,.787.46.791.791,0,0,0,.772-.46,3.146,3.146,0,0,0,.225-1.336,2.984,2.984,0,0,0-.228-1.315.9.9,0,0,0-1.556,0,2.9,2.9,0,0,0-.234,1.318" transform="translate(2144.486 -1839.367)" fill="#fff"/>
        <path id="Caminho_9549" data-name="Caminho 9549" d="M145.371,168.684a3.654,3.654,0,0,1-2.64-.9,3.4,3.4,0,0,1-.94-2.574,3.708,3.708,0,0,1,.871-2.646,3.257,3.257,0,0,1,2.486-.922,3.3,3.3,0,0,1,2.376.8,3.048,3.048,0,0,1,.838,2.31v1.045h-4.2a1.161,1.161,0,0,0,.417.9,1.635,1.635,0,0,0,1.072.324,5.181,5.181,0,0,0,1.138-.117,5.691,5.691,0,0,0,1.127-.4v1.687a4.133,4.133,0,0,1-1.142.391,7.91,7.91,0,0,1-1.4.108m-.139-5.448a.976.976,0,0,0-.693.261,1.231,1.231,0,0,0-.328.82h2.018a1.174,1.174,0,0,0-.279-.787.922.922,0,0,0-.718-.294" transform="translate(2144.486 -1839.367)" fill="#fff"/>
        <path id="Caminho_9550" data-name="Caminho 9550" d="M158.764,165.9a2.594,2.594,0,0,1-.414,1.451,2.716,2.716,0,0,1-1.2.985,4.436,4.436,0,0,1-1.832.351,7.418,7.418,0,0,1-1.472-.123,5.4,5.4,0,0,1-1.237-.43v-2.113a7.053,7.053,0,0,0,1.412.543,5.254,5.254,0,0,0,1.344.2,1.311,1.311,0,0,0,.776-.183.564.564,0,0,0,.246-.471.514.514,0,0,0-.1-.316,1.138,1.138,0,0,0-.318-.273q-.219-.138-1.168-.565a5.571,5.571,0,0,1-1.288-.757,2.324,2.324,0,0,1-.637-.84,2.8,2.8,0,0,1-.207-1.123,2.251,2.251,0,0,1,.883-1.893,3.9,3.9,0,0,1,2.427-.678,6.8,6.8,0,0,1,2.78.631l-.727,1.831a5.269,5.269,0,0,0-2.126-.564,1.1,1.1,0,0,0-.672.162.488.488,0,0,0-.21.4.582.582,0,0,0,.266.463,10.325,10.325,0,0,0,1.451.745,4,4,0,0,1,1.577,1.1,2.375,2.375,0,0,1,.441,1.474" transform="translate(2144.486 -1839.367)" fill="#fff"/>
        <path id="Caminho_9551" data-name="Caminho 9551" d="M164.422,168.564l-.451-.9h-.048a2.674,2.674,0,0,1-.967.8,3.2,3.2,0,0,1-1.273.217,2,2,0,0,1-1.514-.577,2.25,2.25,0,0,1-.552-1.622,1.845,1.845,0,0,1,.756-1.618,4.135,4.135,0,0,1,2.193-.6l1.135-.036v-.1a.738.738,0,0,0-.829-.841,4.938,4.938,0,0,0-1.891.5l-.679-1.55a6.528,6.528,0,0,1,3-.613,2.916,2.916,0,0,1,2.026.649,2.318,2.318,0,0,1,.718,1.814v4.463Zm-1.742-1.538a1.054,1.054,0,0,0,.729-.271.894.894,0,0,0,.3-.7v-.528l-.541.023q-1.158.043-1.159.853,0,.625.667.625" transform="translate(2144.486 -1839.367)" fill="#fff"/>
        <path id="Caminho_9552" data-name="Caminho 9552" d="M169.432,168.563l-2.6-6.805h2.45l1.153,4.024q.006.03.024.1a1.524,1.524,0,0,1,.036.171c.012.067.024.136.035.211a1.714,1.714,0,0,1,.013.207h.042a2.387,2.387,0,0,1,.109-.679l1.207-4.036h2.444l-2.6,6.805Z" transform="translate(2144.486 -1839.367)" fill="#fff"/>
        <path id="Caminho_9553" data-name="Caminho 9553" d="M179.6,168.564l-.451-.9H179.1a2.674,2.674,0,0,1-.967.8,3.2,3.2,0,0,1-1.273.217,2,2,0,0,1-1.514-.577,2.25,2.25,0,0,1-.552-1.622,1.845,1.845,0,0,1,.756-1.618,4.135,4.135,0,0,1,2.193-.6l1.135-.036v-.1a.738.738,0,0,0-.829-.841,4.938,4.938,0,0,0-1.891.5l-.679-1.55a6.528,6.528,0,0,1,3-.613,2.916,2.916,0,0,1,2.026.649,2.318,2.318,0,0,1,.718,1.814v4.463Zm-1.742-1.538a1.054,1.054,0,0,0,.729-.271.894.894,0,0,0,.3-.7v-.528l-.541.023q-1.158.043-1.159.853,0,.625.667.625" transform="translate(2144.486 -1839.367)" fill="#fff"/>
        <path id="Caminho_9554" data-name="Caminho 9554" d="M188.081,166.473a1.935,1.935,0,0,1-.745,1.652,3.516,3.516,0,0,1-2.138.558,9.137,9.137,0,0,1-1.315-.081,5.615,5.615,0,0,1-1.142-.3v-1.88a7.071,7.071,0,0,0,1.2.4,5.068,5.068,0,0,0,1.163.156c.508,0,.763-.116.763-.349a.393.393,0,0,0-.214-.321,9.624,9.624,0,0,0-1.24-.549,3.108,3.108,0,0,1-1.309-.874,1.988,1.988,0,0,1-.373-1.241,1.719,1.719,0,0,1,.733-1.477,3.5,3.5,0,0,1,2.072-.529,5.186,5.186,0,0,1,1.265.148,7.51,7.51,0,0,1,1.227.429l-.635,1.513a7.173,7.173,0,0,0-.992-.357,3.294,3.294,0,0,0-.852-.147q-.577,0-.577.282a.353.353,0,0,0,.2.3,10.879,10.879,0,0,0,1.162.5,4.413,4.413,0,0,1,1.066.577,1.718,1.718,0,0,1,.517.663,2.355,2.355,0,0,1,.165.928" transform="translate(2144.486 -1839.367)" fill="#fff"/>
        <path id="Caminho_9555" data-name="Caminho 9555" d="M189.336,160.065a.992.992,0,0,1,.294-.787,1.864,1.864,0,0,1,1.9.005.989.989,0,0,1,.3.782q0,1.032-1.256,1.032t-1.243-1.032m2.408,8.5H189.4v-6.805h2.348Z" transform="translate(2144.486 -1839.367)" fill="#fff"/>
      </g>
    </g>
  </g>
</svg>
