<svg xmlns="http://www.w3.org/2000/svg" xmlns:xlink="http://www.w3.org/1999/xlink" width="225" height="108.235" viewBox="0 0 225 108.235">
  <defs>
    <clipPath id="clip-path">
      <rect id="Retângulo_1954" data-name="Retângulo 1954" width="225" height="98.235" transform="translate(0 386.467)" fill="none"/>
    </clipPath>
  </defs>
  <g id="Grupo_3134" data-name="Grupo 3134" transform="translate(-2144.486 1462.9)">
    <g id="Grupo_3133" data-name="Grupo 3133">
      <g id="Grupo_3132" data-name="Grupo 3132">
        <g id="Grupo_3131" data-name="Grupo 3131">
          <g id="Grupo_3121" data-name="Grupo 3121" transform="translate(2144.486 -1839.367)" opacity="0.3">
            <g id="Grupo_3120" data-name="Grupo 3120">
              <g id="Grupo_3119" data-name="Grupo 3119" clip-path="url(#clip-path)">
                <path id="Caminho_9651" data-name="Caminho 9651" d="M206.5,484.7H18.5A18.5,18.5,0,0,1,0,466.206V404.964a18.5,18.5,0,0,1,18.5-18.5H206.5a18.5,18.5,0,0,1,18.5,18.5v61.242a18.5,18.5,0,0,1-18.5,18.5" fill="#373538"/>
              </g>
            </g>
          </g>
          <path id="Caminho_9652" data-name="Caminho 9652" d="M206.5,474.7H18.5A18.5,18.5,0,0,1,0,456.206V394.964a18.5,18.5,0,0,1,18.5-18.5H206.5a18.5,18.5,0,0,1,18.5,18.5v61.242a18.5,18.5,0,0,1-18.5,18.5" transform="translate(2144.486 -1839.367)" fill="#ed0033"/>
          <path id="Caminho_9653" data-name="Caminho 9653" d="M45,392.581a1.511,1.511,0,0,0-1.321.693,3.343,3.343,0,0,0-.475,1.913q0,2.535,1.929,2.535a3.956,3.956,0,0,0,1.129-.162,11.567,11.567,0,0,0,1.1-.391v2.007a6.083,6.083,0,0,1-2.486.486,3.937,3.937,0,0,1-3.048-1.153,4.756,4.756,0,0,1-1.06-3.334,5.345,5.345,0,0,1,.513-2.4,3.677,3.677,0,0,1,1.478-1.588,4.452,4.452,0,0,1,2.267-.555,6.249,6.249,0,0,1,2.721.618l-.726,1.868a8.429,8.429,0,0,0-.973-.385A3.441,3.441,0,0,0,45,392.581" transform="translate(2144.486 -1839.367)" fill="#fff"/>
          <rect id="Retângulo_1955" data-name="Retângulo 1955" width="2.349" height="9.346" transform="translate(2193.418 -1449.171)" fill="#fff"/>
          <path id="Caminho_9654" data-name="Caminho 9654" d="M57.347,399.542l-.451-.9h-.048a2.664,2.664,0,0,1-.967.8,3.177,3.177,0,0,1-1.273.217,2,2,0,0,1-1.514-.577,2.249,2.249,0,0,1-.552-1.621,1.845,1.845,0,0,1,.756-1.619,4.135,4.135,0,0,1,2.193-.6l1.135-.036v-.1a.738.738,0,0,0-.829-.84,4.933,4.933,0,0,0-1.891.5l-.679-1.549a6.515,6.515,0,0,1,3-.614,2.912,2.912,0,0,1,2.026.65,2.316,2.316,0,0,1,.718,1.813v4.463ZM55.6,398a1.054,1.054,0,0,0,.729-.271.892.892,0,0,0,.3-.7V396.5l-.541.023q-1.158.043-1.159.854,0,.624.667.624" transform="translate(2144.486 -1839.367)" fill="#fff"/>
          <path id="Caminho_9655" data-name="Caminho 9655" d="M65.828,397.451a1.935,1.935,0,0,1-.745,1.652,3.516,3.516,0,0,1-2.138.559,9.28,9.28,0,0,1-1.315-.081,5.619,5.619,0,0,1-1.142-.3V397.4a7.071,7.071,0,0,0,1.2.4,5.067,5.067,0,0,0,1.163.156c.508,0,.763-.116.763-.349a.394.394,0,0,0-.214-.321,9.617,9.617,0,0,0-1.24-.549,3.108,3.108,0,0,1-1.309-.874,1.986,1.986,0,0,1-.373-1.24,1.719,1.719,0,0,1,.733-1.478,3.5,3.5,0,0,1,2.072-.529,5.234,5.234,0,0,1,1.265.148,7.552,7.552,0,0,1,1.228.429l-.636,1.514a7.048,7.048,0,0,0-.992-.358,3.294,3.294,0,0,0-.852-.147q-.577,0-.577.282a.353.353,0,0,0,.2.3,10.877,10.877,0,0,0,1.162.5,4.449,4.449,0,0,1,1.066.577,1.719,1.719,0,0,1,.517.663,2.337,2.337,0,0,1,.165.928" transform="translate(2144.486 -1839.367)" fill="#fff"/>
          <path id="Caminho_9656" data-name="Caminho 9656" d="M72.387,397.451a1.935,1.935,0,0,1-.745,1.652,3.516,3.516,0,0,1-2.138.559,9.28,9.28,0,0,1-1.315-.081,5.619,5.619,0,0,1-1.142-.3V397.4a7.071,7.071,0,0,0,1.2.4,5.067,5.067,0,0,0,1.163.156c.508,0,.763-.116.763-.349a.394.394,0,0,0-.214-.321,9.617,9.617,0,0,0-1.24-.549,3.108,3.108,0,0,1-1.309-.874,1.986,1.986,0,0,1-.373-1.24,1.719,1.719,0,0,1,.733-1.478,3.5,3.5,0,0,1,2.072-.529,5.234,5.234,0,0,1,1.265.148,7.552,7.552,0,0,1,1.228.429l-.636,1.514a7.048,7.048,0,0,0-.992-.358,3.294,3.294,0,0,0-.852-.147q-.577,0-.577.282a.353.353,0,0,0,.2.3,10.877,10.877,0,0,0,1.162.5,4.449,4.449,0,0,1,1.066.577,1.719,1.719,0,0,1,.517.663,2.337,2.337,0,0,1,.165.928" transform="translate(2144.486 -1839.367)" fill="#fff"/>
          <path id="Caminho_9657" data-name="Caminho 9657" d="M73.641,391.043a.992.992,0,0,1,.295-.787,1.87,1.87,0,0,1,1.9,0,.988.988,0,0,1,.3.782q0,1.032-1.255,1.033t-1.244-1.033m2.41,8.5H73.7v-6.806h2.349Z" transform="translate(2144.486 -1839.367)" fill="#fff"/>
          <path id="Caminho_9658" data-name="Caminho 9658" d="M81.847,394.5H80.4v5.046H78.051V394.5h-.9v-1.152l.949-.578v-.114a2.782,2.782,0,0,1,.55-1.933,2.31,2.31,0,0,1,1.763-.589,5.229,5.229,0,0,1,.886.072,7.071,7.071,0,0,1,.969.252l-.5,1.519a3.166,3.166,0,0,0-.847-.12.463.463,0,0,0-.394.165.918.918,0,0,0-.123.538v.18h1.449Zm.876-3.453a.992.992,0,0,1,.294-.787,1.872,1.872,0,0,1,1.9,0,.988.988,0,0,1,.3.782q0,1.032-1.255,1.033t-1.244-1.033m2.409,8.5H82.783v-6.806h2.349Z" transform="translate(2144.486 -1839.367)" fill="#fff"/>
          <path id="Caminho_9659" data-name="Caminho 9659" d="M89.864,399.662a3.343,3.343,0,0,1-2.531-.9,3.6,3.6,0,0,1-.863-2.589,3.243,3.243,0,0,1,3.581-3.556,4.969,4.969,0,0,1,2.228.517l-.691,1.736a7.551,7.551,0,0,0-.787-.3,2.567,2.567,0,0,0-.75-.11,1.013,1.013,0,0,0-.883.444,2.155,2.155,0,0,0-.313,1.255q0,1.633,1.207,1.634a3.651,3.651,0,0,0,1.983-.6v1.868a3.857,3.857,0,0,1-2.181.6" transform="translate(2144.486 -1839.367)" fill="#fff"/>
          <path id="Caminho_9660" data-name="Caminho 9660" d="M97.835,399.542l-.451-.9h-.048a2.664,2.664,0,0,1-.967.8,3.177,3.177,0,0,1-1.273.217,2,2,0,0,1-1.514-.577,2.249,2.249,0,0,1-.552-1.621,1.845,1.845,0,0,1,.756-1.619,4.135,4.135,0,0,1,2.193-.6l1.135-.036v-.1a.738.738,0,0,0-.829-.84,4.933,4.933,0,0,0-1.891.5l-.679-1.549a6.515,6.515,0,0,1,3-.614,2.912,2.912,0,0,1,2.026.65,2.316,2.316,0,0,1,.718,1.813v4.463ZM96.093,398a1.054,1.054,0,0,0,.729-.271.892.892,0,0,0,.3-.7V396.5l-.541.023q-1.158.043-1.159.854,0,.624.667.624" transform="translate(2144.486 -1839.367)" fill="#fff"/>
          <path id="Caminho_9661" data-name="Caminho 9661" d="M104.159,399.661a3.34,3.34,0,0,1-2.531-.9,3.6,3.6,0,0,1-.862-2.589,3.545,3.545,0,0,1,.931-2.624,3.582,3.582,0,0,1,2.649-.931,4.969,4.969,0,0,1,2.228.516l-.691,1.736a7.513,7.513,0,0,0-.786-.3,2.537,2.537,0,0,0-.751-.111,1.014,1.014,0,0,0-.883.445,2.152,2.152,0,0,0-.312,1.254q0,1.633,1.207,1.634a3.658,3.658,0,0,0,1.982-.6v1.868a3.862,3.862,0,0,1-2.181.6m1.184,1.394a1.322,1.322,0,0,1-.451,1.048,1.751,1.751,0,0,1-1.195.393,3.752,3.752,0,0,1-1.279-.174v-1.231a2.9,2.9,0,0,0,.883.162q.312,0,.312-.282a.427.427,0,0,0-.247-.352,2.092,2.092,0,0,0-.642-.243l.432-.835h1.22l-.054.174a1.737,1.737,0,0,1,.8.556,1.337,1.337,0,0,1,.223.784" transform="translate(2144.486 -1839.367)" fill="#fff"/>
          <path id="Caminho_9662" data-name="Caminho 9662" d="M112.129,399.542l-.451-.9h-.048a2.664,2.664,0,0,1-.967.8,3.177,3.177,0,0,1-1.273.217,2,2,0,0,1-1.514-.577,2.249,2.249,0,0,1-.552-1.621,1.845,1.845,0,0,1,.756-1.619,4.135,4.135,0,0,1,2.193-.6l1.135-.036v-.1a.738.738,0,0,0-.829-.84,4.933,4.933,0,0,0-1.891.5l-.679-1.549a6.515,6.515,0,0,1,3-.614,2.912,2.912,0,0,1,2.026.65,2.316,2.316,0,0,1,.718,1.813v4.463Zm-.2-7.442a1.728,1.728,0,0,1-.544-.09q-.273-.09-.538-.2c-.176-.073-.347-.138-.513-.2a1.418,1.418,0,0,0-.471-.089q-.326,0-.433.588h-1.081a2.961,2.961,0,0,1,.433-1.552,1.254,1.254,0,0,1,1.081-.5,1.456,1.456,0,0,1,.486.091c.172.059.347.126.522.2s.351.137.523.2a1.478,1.478,0,0,0,.486.09.319.319,0,0,0,.277-.151,1.168,1.168,0,0,0,.156-.438H113.4a2.935,2.935,0,0,1-.446,1.528,1.2,1.2,0,0,1-1.032.526m-1.538,5.9a1.054,1.054,0,0,0,.729-.271.892.892,0,0,0,.3-.7V396.5l-.541.023q-1.158.043-1.159.854,0,.624.667.624" transform="translate(2144.486 -1839.367)" fill="#fff"/>
          <path id="Caminho_9663" data-name="Caminho 9663" d="M121.853,396.124a3.606,3.606,0,0,1-.9,2.6,3.323,3.323,0,0,1-2.514.934,3.257,3.257,0,0,1-2.466-.955,4.134,4.134,0,0,1-.017-5.169,3.356,3.356,0,0,1,2.519-.922,3.6,3.6,0,0,1,1.772.427,2.9,2.9,0,0,1,1.186,1.223,3.932,3.932,0,0,1,.417,1.858m-4.408,0a3.029,3.029,0,0,0,.234,1.337.815.815,0,0,0,.787.459.792.792,0,0,0,.772-.459,3.151,3.151,0,0,0,.225-1.337,2.987,2.987,0,0,0-.228-1.315.9.9,0,0,0-1.556,0,2.905,2.905,0,0,0-.234,1.318" transform="translate(2144.486 -1839.367)" fill="#fff"/>
          <path id="Caminho_9664" data-name="Caminho 9664" d="M128.5,399.661a2.029,2.029,0,0,1-1.269-.415,2.62,2.62,0,0,1-.841-1.218,5.4,5.4,0,0,1-.3-1.88,4.413,4.413,0,0,1,.667-2.6,2.126,2.126,0,0,1,1.832-.937,2.1,2.1,0,0,1,1,.228,2.2,2.2,0,0,1,.783.769h.049a11.3,11.3,0,0,1-.114-1.6V390.2h2.366v9.345H130.9l-.5-.859h-.09a1.992,1.992,0,0,1-1.809.979m.962-1.856a.875.875,0,0,0,.795-.354,2.146,2.146,0,0,0,.25-1.093v-.187a2.381,2.381,0,0,0-.259-1.282.909.909,0,0,0-.81-.381.793.793,0,0,0-.718.436,2.475,2.475,0,0,0-.255,1.24,2.3,2.3,0,0,0,.258,1.207.821.821,0,0,0,.739.414" transform="translate(2144.486 -1839.367)" fill="#fff"/>
          <path id="Caminho_9665" data-name="Caminho 9665" d="M137.584,399.662a3.654,3.654,0,0,1-2.64-.9,3.4,3.4,0,0,1-.94-2.573,3.709,3.709,0,0,1,.871-2.647,3.257,3.257,0,0,1,2.486-.922,3.3,3.3,0,0,1,2.376.8,3.048,3.048,0,0,1,.838,2.31v1.045h-4.2a1.161,1.161,0,0,0,.417.895,1.635,1.635,0,0,0,1.072.324,5.181,5.181,0,0,0,1.138-.117,5.691,5.691,0,0,0,1.127-.4v1.687a4.132,4.132,0,0,1-1.142.391,7.907,7.907,0,0,1-1.4.108m-.139-5.448a.976.976,0,0,0-.693.262,1.226,1.226,0,0,0-.328.819h2.018a1.169,1.169,0,0,0-.279-.786.922.922,0,0,0-.718-.3" transform="translate(2144.486 -1839.367)" fill="#fff"/>
          <path id="Caminho_9666" data-name="Caminho 9666" d="M149.206,392.616a3.391,3.391,0,0,1,.582.049l.133.023-.21,2.217a3.411,3.411,0,0,0-.8-.072,1.52,1.52,0,0,0-1.117.351,1.376,1.376,0,0,0-.349,1.012v3.346H145.1v-6.806h1.748l.366,1.088h.114a2.36,2.36,0,0,1,.819-.874,1.962,1.962,0,0,1,1.061-.334" transform="translate(2144.486 -1839.367)" fill="#fff"/>
          <path id="Caminho_9667" data-name="Caminho 9667" d="M150.821,391.043a.992.992,0,0,1,.295-.787,1.868,1.868,0,0,1,1.9,0,.986.986,0,0,1,.3.782q0,1.032-1.256,1.033t-1.243-1.033m2.409,8.5h-2.349v-6.806h2.349Z" transform="translate(2144.486 -1839.367)" fill="#fff"/>
          <path id="Caminho_9668" data-name="Caminho 9668" d="M160.125,397.451a1.935,1.935,0,0,1-.745,1.652,3.516,3.516,0,0,1-2.138.559,9.28,9.28,0,0,1-1.315-.081,5.618,5.618,0,0,1-1.142-.3V397.4a7.07,7.07,0,0,0,1.2.4,5.067,5.067,0,0,0,1.163.156c.508,0,.763-.116.763-.349a.394.394,0,0,0-.214-.321,9.618,9.618,0,0,0-1.24-.549,3.108,3.108,0,0,1-1.309-.874,1.986,1.986,0,0,1-.373-1.24,1.719,1.719,0,0,1,.733-1.478,3.5,3.5,0,0,1,2.072-.529,5.234,5.234,0,0,1,1.265.148,7.552,7.552,0,0,1,1.228.429l-.636,1.514a7.048,7.048,0,0,0-.992-.358,3.294,3.294,0,0,0-.852-.147q-.578,0-.577.282a.353.353,0,0,0,.2.3,10.877,10.877,0,0,0,1.162.5,4.448,4.448,0,0,1,1.066.577,1.719,1.719,0,0,1,.517.663,2.337,2.337,0,0,1,.165.928" transform="translate(2144.486 -1839.367)" fill="#fff"/>
          <path id="Caminho_9669" data-name="Caminho 9669" d="M164.527,399.662a3.343,3.343,0,0,1-2.531-.9,3.6,3.6,0,0,1-.863-2.589,3.243,3.243,0,0,1,3.581-3.556,4.97,4.97,0,0,1,2.228.517l-.691,1.736a7.552,7.552,0,0,0-.787-.3,2.567,2.567,0,0,0-.75-.11,1.013,1.013,0,0,0-.883.444,2.155,2.155,0,0,0-.313,1.255q0,1.633,1.207,1.634a3.651,3.651,0,0,0,1.983-.6v1.868a3.857,3.857,0,0,1-2.181.6" transform="translate(2144.486 -1839.367)" fill="#fff"/>
          <path id="Caminho_9670" data-name="Caminho 9670" d="M174.557,396.124a3.606,3.606,0,0,1-.9,2.6,3.323,3.323,0,0,1-2.514.934,3.257,3.257,0,0,1-2.466-.955,4.134,4.134,0,0,1-.017-5.169,3.356,3.356,0,0,1,2.519-.922,3.6,3.6,0,0,1,1.772.427,2.9,2.9,0,0,1,1.186,1.223,3.932,3.932,0,0,1,.417,1.858m-4.408,0a3.029,3.029,0,0,0,.234,1.337.815.815,0,0,0,.787.459.792.792,0,0,0,.772-.459,3.151,3.151,0,0,0,.225-1.337,2.987,2.987,0,0,0-.228-1.315.9.9,0,0,0-1.556,0,2.905,2.905,0,0,0-.234,1.318" transform="translate(2144.486 -1839.367)" fill="#fff"/>
          <path id="Caminho_9671" data-name="Caminho 9671" d="M182.378,399.662a3.654,3.654,0,0,1-2.64-.9,3.4,3.4,0,0,1-.94-2.573,3.709,3.709,0,0,1,.871-2.647,3.257,3.257,0,0,1,2.486-.922,3.3,3.3,0,0,1,2.376.8,3.048,3.048,0,0,1,.838,2.31v1.045h-4.2a1.161,1.161,0,0,0,.417.895,1.635,1.635,0,0,0,1.072.324,5.181,5.181,0,0,0,1.138-.117,5.692,5.692,0,0,0,1.127-.4v1.687a4.133,4.133,0,0,1-1.142.391,7.907,7.907,0,0,1-1.4.108m-.139-5.448a.976.976,0,0,0-.693.262,1.226,1.226,0,0,0-.328.819h2.018a1.169,1.169,0,0,0-.279-.786.922.922,0,0,0-.718-.3" transform="translate(2144.486 -1839.367)" fill="#fff"/>
          <path id="Caminho_9672" data-name="Caminho 9672" d="M17.328,414.3,14.733,407.5h2.45l1.154,4.025c0,.021.012.054.024.1s.024.105.035.171.024.136.034.21a1.724,1.724,0,0,1,.015.207h.042a2.425,2.425,0,0,1,.108-.679L19.8,407.5h2.444L19.652,414.3Z" transform="translate(2144.486 -1839.367)" fill="#fff"/>
          <path id="Caminho_9673" data-name="Caminho 9673" d="M27.9,414.3l-.294-.846h-.138a1.914,1.914,0,0,1-.82.718,2.858,2.858,0,0,1-1.234.249,2.313,2.313,0,0,1-1.748-.652,2.554,2.554,0,0,1-.624-1.841V407.5h2.348v3.719a2.145,2.145,0,0,0,.189,1.01.659.659,0,0,0,.622.342.9.9,0,0,0,.864-.478,3.615,3.615,0,0,0,.259-1.612V407.5h2.348V414.3Z" transform="translate(2144.486 -1839.367)" fill="#fff"/>
          <rect id="Retângulo_1956" data-name="Retângulo 1956" width="2.348" height="9.346" transform="translate(2175.784 -1434.411)" fill="#fff"/>
          <path id="Caminho_9674" data-name="Caminho 9674" d="M39.569,414.3V410.59a2.137,2.137,0,0,0-.195-1.024.668.668,0,0,0-.628-.344.91.91,0,0,0-.86.474,3.615,3.615,0,0,0-.263,1.628V414.3H35.274V407.5h1.772l.294.842h.138a1.869,1.869,0,0,1,.832-.721,2.946,2.946,0,0,1,1.223-.24,2.323,2.323,0,0,1,1.757.655,2.558,2.558,0,0,1,.627,1.844V414.3Z" transform="translate(2144.486 -1839.367)" fill="#fff"/>
          <path id="Caminho_9675" data-name="Caminho 9675" d="M46.8,414.422a3.654,3.654,0,0,1-2.64-.9,3.4,3.4,0,0,1-.94-2.573,3.709,3.709,0,0,1,.871-2.647,3.257,3.257,0,0,1,2.486-.922,3.3,3.3,0,0,1,2.376.8,3.048,3.048,0,0,1,.838,2.31v1.045h-4.2a1.161,1.161,0,0,0,.417.9,1.635,1.635,0,0,0,1.072.324,5.181,5.181,0,0,0,1.138-.117,5.69,5.69,0,0,0,1.127-.4v1.687a4.133,4.133,0,0,1-1.142.391,7.909,7.909,0,0,1-1.405.108m-.139-5.448a.976.976,0,0,0-.693.262,1.226,1.226,0,0,0-.328.819h2.018a1.169,1.169,0,0,0-.279-.786.922.922,0,0,0-.718-.3" transform="translate(2144.486 -1839.367)" fill="#fff"/>
          <path id="Caminho_9676" data-name="Caminho 9676" d="M55.227,407.377a3.394,3.394,0,0,1,.582.049l.133.023-.21,2.217a3.413,3.413,0,0,0-.8-.072,1.52,1.52,0,0,0-1.117.351,1.376,1.376,0,0,0-.349,1.012V414.3H51.119V407.5h1.748l.366,1.088h.114a2.36,2.36,0,0,1,.819-.874,1.962,1.962,0,0,1,1.061-.334" transform="translate(2144.486 -1839.367)" fill="#fff"/>
          <path id="Caminho_9677" data-name="Caminho 9677" d="M61.33,414.3l-.451-.9h-.048a2.664,2.664,0,0,1-.967.8,3.177,3.177,0,0,1-1.273.217,2,2,0,0,1-1.514-.577,2.249,2.249,0,0,1-.552-1.621,1.845,1.845,0,0,1,.756-1.619,4.135,4.135,0,0,1,2.193-.6l1.135-.036v-.1a.738.738,0,0,0-.829-.84,4.933,4.933,0,0,0-1.891.5l-.679-1.549a6.515,6.515,0,0,1,3-.614,2.912,2.912,0,0,1,2.026.65,2.316,2.316,0,0,1,.718,1.813V414.3Zm-1.742-1.538a1.054,1.054,0,0,0,.729-.271.892.892,0,0,0,.3-.7v-.528l-.541.023q-1.158.043-1.159.854,0,.624.667.624" transform="translate(2144.486 -1839.367)" fill="#fff"/>
          <path id="Caminho_9678" data-name="Caminho 9678" d="M68.711,407.376a2.044,2.044,0,0,1,1.763.932,5.444,5.444,0,0,1-.006,5.174,2.108,2.108,0,0,1-1.829.94,2.544,2.544,0,0,1-.673-.081,2.048,2.048,0,0,1-.525-.225,2.73,2.73,0,0,1-.538-.481h-.144l-.373.667H64.555v-9.346H66.9v2.115q0,.378-.084,1.3H66.9a2.006,2.006,0,0,1,1.808-1m-.859,1.845a.8.8,0,0,0-.721.342,1.98,1.98,0,0,0-.228,1.075v.33a2.351,2.351,0,0,0,.228,1.2.813.813,0,0,0,.745.364.693.693,0,0,0,.637-.423,2.759,2.759,0,0,0,.222-1.246q0-1.641-.883-1.64" transform="translate(2144.486 -1839.367)" fill="#fff"/>
          <path id="Caminho_9679" data-name="Caminho 9679" d="M72.417,405.8a.992.992,0,0,1,.295-.787,1.871,1.871,0,0,1,1.9.006.988.988,0,0,1,.3.781q0,1.033-1.256,1.034T72.417,405.8m2.409,8.5H72.477V407.5h2.349Z" transform="translate(2144.486 -1839.367)" fill="#fff"/>
          <rect id="Retângulo_1957" data-name="Retângulo 1957" width="2.348" height="9.346" transform="translate(2220.951 -1434.411)" fill="#fff"/>
          <path id="Caminho_9680" data-name="Caminho 9680" d="M80.393,405.8a1,1,0,0,1,.294-.787,1.875,1.875,0,0,1,1.905.006.987.987,0,0,1,.3.781q0,1.033-1.254,1.034T80.393,405.8m2.409,8.5H80.453V407.5H82.8Z" transform="translate(2144.486 -1839.367)" fill="#fff"/>
          <path id="Caminho_9681" data-name="Caminho 9681" d="M86.555,414.422a2.032,2.032,0,0,1-1.27-.415,2.62,2.62,0,0,1-.841-1.218,5.4,5.4,0,0,1-.3-1.88,4.413,4.413,0,0,1,.666-2.6,2.127,2.127,0,0,1,1.832-.937,2.1,2.1,0,0,1,1,.228,2.2,2.2,0,0,1,.784.769h.048a11.3,11.3,0,0,1-.114-1.6v-1.819h2.366V414.3H88.957l-.5-.859h-.09a1.99,1.99,0,0,1-1.808.979m.961-1.856a.878.878,0,0,0,.8-.354,2.137,2.137,0,0,0,.249-1.093v-.187a2.382,2.382,0,0,0-.258-1.282.911.911,0,0,0-.811-.381.8.8,0,0,0-.718.436,2.474,2.474,0,0,0-.255,1.24,2.294,2.294,0,0,0,.259,1.207.821.821,0,0,0,.738.414" transform="translate(2144.486 -1839.367)" fill="#fff"/>
          <path id="Caminho_9682" data-name="Caminho 9682" d="M96.79,414.3l-.45-.9h-.048a2.658,2.658,0,0,1-.968.8,3.172,3.172,0,0,1-1.272.217,2,2,0,0,1-1.514-.577,2.245,2.245,0,0,1-.552-1.621,1.843,1.843,0,0,1,.756-1.619,4.133,4.133,0,0,1,2.193-.6l1.135-.036v-.1a.738.738,0,0,0-.83-.84,4.937,4.937,0,0,0-1.891.5l-.679-1.549a6.521,6.521,0,0,1,3-.614,2.914,2.914,0,0,1,2.027.65,2.316,2.316,0,0,1,.718,1.813V414.3Zm-1.741-1.538a1.054,1.054,0,0,0,.729-.271.892.892,0,0,0,.3-.7v-.528l-.54.023q-1.158.043-1.159.854,0,.624.667.624" transform="translate(2144.486 -1839.367)" fill="#fff"/>
          <path id="Caminho_9683" data-name="Caminho 9683" d="M102.13,414.422a2.032,2.032,0,0,1-1.27-.415,2.62,2.62,0,0,1-.841-1.218,5.4,5.4,0,0,1-.3-1.88,4.413,4.413,0,0,1,.666-2.6,2.127,2.127,0,0,1,1.832-.937,2.1,2.1,0,0,1,1,.228,2.2,2.2,0,0,1,.784.769h.048a11.3,11.3,0,0,1-.114-1.6v-1.819H106.3V414.3h-1.772l-.5-.859h-.09a1.99,1.99,0,0,1-1.808.979m.961-1.856a.878.878,0,0,0,.8-.354,2.137,2.137,0,0,0,.249-1.093v-.187a2.382,2.382,0,0,0-.258-1.282.911.911,0,0,0-.811-.381.8.8,0,0,0-.718.436,2.475,2.475,0,0,0-.255,1.24,2.294,2.294,0,0,0,.259,1.207.821.821,0,0,0,.738.414" transform="translate(2144.486 -1839.367)" fill="#fff"/>
          <path id="Caminho_9684" data-name="Caminho 9684" d="M111.211,414.422a3.657,3.657,0,0,1-2.64-.9,3.4,3.4,0,0,1-.939-2.573,3.713,3.713,0,0,1,.87-2.647,3.26,3.26,0,0,1,2.487-.922,3.3,3.3,0,0,1,2.375.8,3.048,3.048,0,0,1,.838,2.31v1.045H110a1.162,1.162,0,0,0,.418.9,1.632,1.632,0,0,0,1.071.324,5.19,5.19,0,0,0,1.139-.117,5.683,5.683,0,0,0,1.126-.4v1.687a4.121,4.121,0,0,1-1.142.391,7.894,7.894,0,0,1-1.4.108m-.138-5.448a.979.979,0,0,0-.694.262,1.225,1.225,0,0,0-.327.819h2.018a1.169,1.169,0,0,0-.279-.786.925.925,0,0,0-.718-.3" transform="translate(2144.486 -1839.367)" fill="#fff"/>
          <path id="Caminho_9685" data-name="Caminho 9685" d="M120.785,412.212a1.935,1.935,0,0,1-.745,1.652,3.516,3.516,0,0,1-2.138.559,9.284,9.284,0,0,1-1.315-.081,5.623,5.623,0,0,1-1.142-.3v-1.88a7.071,7.071,0,0,0,1.2.4,5.067,5.067,0,0,0,1.163.156c.508,0,.763-.116.763-.349a.394.394,0,0,0-.214-.321,9.622,9.622,0,0,0-1.24-.549,3.107,3.107,0,0,1-1.309-.874,1.985,1.985,0,0,1-.373-1.24,1.719,1.719,0,0,1,.733-1.478,3.5,3.5,0,0,1,2.072-.529,5.235,5.235,0,0,1,1.265.148,7.549,7.549,0,0,1,1.228.429l-.636,1.514a7.052,7.052,0,0,0-.992-.358,3.294,3.294,0,0,0-.852-.147q-.578,0-.577.282a.353.353,0,0,0,.2.3,10.881,10.881,0,0,0,1.162.5,4.447,4.447,0,0,1,1.066.577,1.718,1.718,0,0,1,.517.663,2.337,2.337,0,0,1,.165.928" transform="translate(2144.486 -1839.367)" fill="#fff"/>
          <path id="Caminho_9686" data-name="Caminho 9686" d="M127.4,414.422a2.029,2.029,0,0,1-1.269-.415,2.62,2.62,0,0,1-.841-1.218,5.4,5.4,0,0,1-.3-1.88,4.413,4.413,0,0,1,.667-2.6,2.126,2.126,0,0,1,1.832-.937,2.1,2.1,0,0,1,1,.228,2.2,2.2,0,0,1,.783.769h.049a11.3,11.3,0,0,1-.114-1.6v-1.819h2.366V414.3H129.8l-.5-.859h-.09a1.992,1.992,0,0,1-1.809.979m.962-1.856a.875.875,0,0,0,.8-.354,2.146,2.146,0,0,0,.25-1.093v-.187a2.381,2.381,0,0,0-.259-1.282.909.909,0,0,0-.81-.381.793.793,0,0,0-.718.436,2.475,2.475,0,0,0-.255,1.24,2.3,2.3,0,0,0,.258,1.207.821.821,0,0,0,.739.414" transform="translate(2144.486 -1839.367)" fill="#fff"/>
          <path id="Caminho_9687" data-name="Caminho 9687" d="M137.632,414.3l-.451-.9h-.048a2.664,2.664,0,0,1-.967.8,3.173,3.173,0,0,1-1.273.217,1.993,1.993,0,0,1-1.513-.577,2.245,2.245,0,0,1-.553-1.621,1.845,1.845,0,0,1,.756-1.619,4.138,4.138,0,0,1,2.193-.6l1.135-.036v-.1a.738.738,0,0,0-.829-.84,4.933,4.933,0,0,0-1.891.5l-.679-1.549a6.517,6.517,0,0,1,3-.614,2.911,2.911,0,0,1,2.025.65,2.316,2.316,0,0,1,.718,1.813V414.3Zm-1.741-1.538a1.053,1.053,0,0,0,.728-.271.892.892,0,0,0,.3-.7v-.528l-.541.023q-1.158.043-1.159.854c0,.416.224.624.668.624" transform="translate(2144.486 -1839.367)" fill="#fff"/>
          <path id="Caminho_9688" data-name="Caminho 9688" d="M146.113,412.212a1.935,1.935,0,0,1-.745,1.652,3.516,3.516,0,0,1-2.138.559,9.285,9.285,0,0,1-1.315-.081,5.623,5.623,0,0,1-1.142-.3v-1.88a7.071,7.071,0,0,0,1.2.4,5.067,5.067,0,0,0,1.163.156c.508,0,.763-.116.763-.349a.394.394,0,0,0-.214-.321,9.621,9.621,0,0,0-1.24-.549,3.107,3.107,0,0,1-1.309-.874,1.985,1.985,0,0,1-.373-1.24,1.719,1.719,0,0,1,.733-1.478,3.5,3.5,0,0,1,2.072-.529,5.235,5.235,0,0,1,1.265.148,7.549,7.549,0,0,1,1.228.429l-.636,1.514a7.052,7.052,0,0,0-.992-.358,3.294,3.294,0,0,0-.852-.147q-.577,0-.577.282a.353.353,0,0,0,.2.3,10.88,10.88,0,0,0,1.162.5,4.448,4.448,0,0,1,1.066.577,1.718,1.718,0,0,1,.517.663,2.337,2.337,0,0,1,.165.928" transform="translate(2144.486 -1839.367)" fill="#fff"/>
          <path id="Caminho_9689" data-name="Caminho 9689" d="M154.7,414.422a2.354,2.354,0,0,1-.925-.172,2.331,2.331,0,0,1-.811-.615h-.108a8.673,8.673,0,0,1,.108.889v2.733h-2.348V407.5h1.909l.331.866h.108a2.058,2.058,0,0,1,1.808-.986,2.037,2.037,0,0,1,1.772.938,4.481,4.481,0,0,1,.642,2.57,4.42,4.42,0,0,1-.669,2.592,2.112,2.112,0,0,1-1.817.946m-.787-5.2a.759.759,0,0,0-.724.369,2.432,2.432,0,0,0-.225,1.1v.186a2.579,2.579,0,0,0,.234,1.268.8.8,0,0,0,.739.39.689.689,0,0,0,.655-.387,2.955,2.955,0,0,0,.2-1.282,2.858,2.858,0,0,0-.2-1.259.71.71,0,0,0-.679-.381" transform="translate(2144.486 -1839.367)" fill="#fff"/>
          <path id="Caminho_9690" data-name="Caminho 9690" d="M161.808,414.422a3.654,3.654,0,0,1-2.64-.9,3.4,3.4,0,0,1-.94-2.573,3.709,3.709,0,0,1,.871-2.647,3.257,3.257,0,0,1,2.486-.922,3.3,3.3,0,0,1,2.376.8,3.048,3.048,0,0,1,.838,2.31v1.045h-4.2a1.161,1.161,0,0,0,.417.9,1.635,1.635,0,0,0,1.072.324,5.181,5.181,0,0,0,1.138-.117,5.689,5.689,0,0,0,1.127-.4v1.687a4.132,4.132,0,0,1-1.142.391,7.909,7.909,0,0,1-1.4.108m-.139-5.448a.976.976,0,0,0-.693.262,1.226,1.226,0,0,0-.328.819h2.018a1.169,1.169,0,0,0-.279-.786.922.922,0,0,0-.718-.3" transform="translate(2144.486 -1839.367)" fill="#fff"/>
          <path id="Caminho_9691" data-name="Caminho 9691" d="M171.382,412.212a1.937,1.937,0,0,1-.745,1.652,3.519,3.519,0,0,1-2.139.559,9.279,9.279,0,0,1-1.314-.081,5.606,5.606,0,0,1-1.142-.3v-1.88a7.07,7.07,0,0,0,1.2.4,5.06,5.06,0,0,0,1.163.156q.762,0,.762-.349a.4.4,0,0,0-.213-.321,9.693,9.693,0,0,0-1.24-.549,3.094,3.094,0,0,1-1.309-.874,1.985,1.985,0,0,1-.373-1.24,1.719,1.719,0,0,1,.733-1.478,3.5,3.5,0,0,1,2.072-.529,5.227,5.227,0,0,1,1.264.148,7.516,7.516,0,0,1,1.228.429l-.636,1.514a7.051,7.051,0,0,0-.992-.358,3.281,3.281,0,0,0-.852-.147q-.576,0-.576.282a.351.351,0,0,0,.2.3,10.78,10.78,0,0,0,1.162.5,4.448,4.448,0,0,1,1.066.577,1.716,1.716,0,0,1,.516.663,2.337,2.337,0,0,1,.166.928" transform="translate(2144.486 -1839.367)" fill="#fff"/>
          <path id="Caminho_9692" data-name="Caminho 9692" d="M177.94,412.212a1.937,1.937,0,0,1-.745,1.652,3.519,3.519,0,0,1-2.139.559,9.279,9.279,0,0,1-1.314-.081,5.606,5.606,0,0,1-1.142-.3v-1.88a7.07,7.07,0,0,0,1.2.4,5.06,5.06,0,0,0,1.163.156q.762,0,.762-.349a.4.4,0,0,0-.213-.321,9.693,9.693,0,0,0-1.24-.549,3.094,3.094,0,0,1-1.309-.874,1.985,1.985,0,0,1-.373-1.24,1.719,1.719,0,0,1,.733-1.478,3.5,3.5,0,0,1,2.072-.529,5.227,5.227,0,0,1,1.264.148,7.516,7.516,0,0,1,1.228.429l-.636,1.514a7.051,7.051,0,0,0-.992-.358,3.281,3.281,0,0,0-.852-.147q-.576,0-.576.282a.351.351,0,0,0,.2.3,10.78,10.78,0,0,0,1.162.5,4.447,4.447,0,0,1,1.066.577,1.716,1.716,0,0,1,.516.663,2.337,2.337,0,0,1,.166.928" transform="translate(2144.486 -1839.367)" fill="#fff"/>
          <path id="Caminho_9693" data-name="Caminho 9693" d="M185.742,410.884a3.608,3.608,0,0,1-.9,2.605,3.323,3.323,0,0,1-2.514.934,3.255,3.255,0,0,1-2.465-.956,4.134,4.134,0,0,1-.018-5.168,3.355,3.355,0,0,1,2.519-.922,3.6,3.6,0,0,1,1.773.427,2.9,2.9,0,0,1,1.185,1.223,3.928,3.928,0,0,1,.418,1.857m-4.409,0a3.03,3.03,0,0,0,.234,1.338.816.816,0,0,0,.787.459.791.791,0,0,0,.772-.459,3.135,3.135,0,0,0,.226-1.338,2.968,2.968,0,0,0-.229-1.314.9.9,0,0,0-1.556,0,2.9,2.9,0,0,0-.234,1.317" transform="translate(2144.486 -1839.367)" fill="#fff"/>
          <path id="Caminho_9694" data-name="Caminho 9694" d="M191.519,414.3l-.451-.9h-.047a2.664,2.664,0,0,1-.967.8,3.187,3.187,0,0,1-1.273.217,1.994,1.994,0,0,1-1.514-.577,2.245,2.245,0,0,1-.553-1.621,1.845,1.845,0,0,1,.756-1.619,4.142,4.142,0,0,1,2.194-.6l1.134-.036v-.1a.738.738,0,0,0-.828-.84,4.928,4.928,0,0,0-1.892.5l-.68-1.549a6.525,6.525,0,0,1,3-.614,2.915,2.915,0,0,1,2.027.65,2.315,2.315,0,0,1,.717,1.813V414.3Zm-1.742-1.538a1.057,1.057,0,0,0,.73-.271.9.9,0,0,0,.3-.7v-.528l-.541.023q-1.156.043-1.158.854c0,.416.223.624.666.624" transform="translate(2144.486 -1839.367)" fill="#fff"/>
          <path id="Caminho_9695" data-name="Caminho 9695" d="M200,412.212a1.935,1.935,0,0,1-.745,1.652,3.516,3.516,0,0,1-2.138.559,9.284,9.284,0,0,1-1.315-.081,5.606,5.606,0,0,1-1.142-.3v-1.88a7.07,7.07,0,0,0,1.2.4,5.067,5.067,0,0,0,1.163.156q.762,0,.762-.349a.393.393,0,0,0-.213-.321,9.7,9.7,0,0,0-1.24-.549,3.094,3.094,0,0,1-1.309-.874,1.985,1.985,0,0,1-.373-1.24,1.719,1.719,0,0,1,.733-1.478,3.5,3.5,0,0,1,2.072-.529,5.241,5.241,0,0,1,1.265.148,7.507,7.507,0,0,1,1.227.429l-.635,1.514a7.1,7.1,0,0,0-.992-.358,3.294,3.294,0,0,0-.853-.147q-.576,0-.576.282a.353.353,0,0,0,.2.3,10.78,10.78,0,0,0,1.162.5,4.447,4.447,0,0,1,1.066.577,1.718,1.718,0,0,1,.517.663,2.355,2.355,0,0,1,.165.928" transform="translate(2144.486 -1839.367)" fill="#fff"/>
          <path id="Caminho_9696" data-name="Caminho 9696" d="M207.784,414.422a3.658,3.658,0,0,1-2.641-.9,3.405,3.405,0,0,1-.939-2.573,3.709,3.709,0,0,1,.871-2.647,3.257,3.257,0,0,1,2.486-.922,3.3,3.3,0,0,1,2.375.8,3.048,3.048,0,0,1,.838,2.31v1.045h-4.2a1.165,1.165,0,0,0,.418.9,1.633,1.633,0,0,0,1.072.324,5.187,5.187,0,0,0,1.138-.117,5.66,5.66,0,0,0,1.126-.4v1.687a4.115,4.115,0,0,1-1.141.391,7.909,7.909,0,0,1-1.4.108m-.139-5.448a.975.975,0,0,0-.693.262,1.221,1.221,0,0,0-.328.819h2.018a1.169,1.169,0,0,0-.279-.786.922.922,0,0,0-.718-.3" transform="translate(2144.486 -1839.367)" fill="#fff"/>
          <path id="Caminho_9697" data-name="Caminho 9697" d="M92.357,424.017H90.909v5.046H88.561v-5.046h-.9v-1.152l.949-.577v-.115a2.782,2.782,0,0,1,.55-1.933,2.309,2.309,0,0,1,1.762-.589,5.212,5.212,0,0,1,.886.072,7.045,7.045,0,0,1,.97.252l-.5,1.52a3.117,3.117,0,0,0-.847-.121.462.462,0,0,0-.393.165.92.92,0,0,0-.123.539v.179h1.448Z" transform="translate(2144.486 -1839.367)" fill="#fff"/>
          <path id="Caminho_9698" data-name="Caminho 9698" d="M97.72,429.063l-.451-.9h-.048a2.664,2.664,0,0,1-.967.8,3.177,3.177,0,0,1-1.273.217,2,2,0,0,1-1.514-.577,2.249,2.249,0,0,1-.552-1.621,1.845,1.845,0,0,1,.756-1.619,4.135,4.135,0,0,1,2.193-.6L97,424.732v-.1a.738.738,0,0,0-.829-.84,4.933,4.933,0,0,0-1.891.5l-.679-1.549a6.515,6.515,0,0,1,3-.614,2.912,2.912,0,0,1,2.026.65,2.316,2.316,0,0,1,.718,1.813v4.463Zm-1.742-1.538a1.054,1.054,0,0,0,.729-.271.892.892,0,0,0,.3-.7v-.528l-.541.023q-1.158.043-1.159.854,0,.624.667.624" transform="translate(2144.486 -1839.367)" fill="#fff"/>
          <path id="Caminho_9699" data-name="Caminho 9699" d="M109.3,429.063v-3.7a2.223,2.223,0,0,0-.189-1.036.633.633,0,0,0-.6-.345.84.84,0,0,0-.793.462,3.155,3.155,0,0,0-.252,1.447v3.172h-2.355v-3.7a2.319,2.319,0,0,0-.18-1.036.609.609,0,0,0-.582-.345.844.844,0,0,0-.805.492,3.747,3.747,0,0,0-.253,1.61v2.979h-2.347v-6.806h1.771l.294.841h.139a1.754,1.754,0,0,1,.783-.714,2.661,2.661,0,0,1,1.169-.247,2.293,2.293,0,0,1,2.065.9h.187a1.917,1.917,0,0,1,.8-.658,2.657,2.657,0,0,1,1.132-.238,2.329,2.329,0,0,1,1.784.619,2.671,2.671,0,0,1,.577,1.88v4.427Z" transform="translate(2144.486 -1839.367)" fill="#fff"/>
          <path id="Caminho_9700" data-name="Caminho 9700" d="M113.078,421.609v-.174q.925-.992,1.175-1.279c.166-.192.3-.364.411-.517h2.57v.126q-.48.384-1.321.98c-.561.4-.984.684-1.274.864Zm2.529,7.454h-2.349v-6.806h2.349Z" transform="translate(2144.486 -1839.367)" fill="#fff"/>
          <rect id="Retângulo_1958" data-name="Retângulo 1958" width="2.348" height="9.346" transform="translate(2261.733 -1419.65)" fill="#fff"/>
          <path id="Caminho_9701" data-name="Caminho 9701" d="M121.175,420.564a.991.991,0,0,1,.294-.787,1.867,1.867,0,0,1,1.9.006.986.986,0,0,1,.3.781q0,1.033-1.255,1.033t-1.243-1.033m2.408,8.5h-2.349v-6.806h2.349Z" transform="translate(2144.486 -1839.367)" fill="#fff"/>
          <path id="Caminho_9702" data-name="Caminho 9702" d="M129.661,429.063l-.45-.9h-.048a2.658,2.658,0,0,1-.968.8,3.172,3.172,0,0,1-1.272.217,2,2,0,0,1-1.514-.577,2.245,2.245,0,0,1-.552-1.621,1.843,1.843,0,0,1,.756-1.619,4.133,4.133,0,0,1,2.193-.6l1.135-.036v-.1a.738.738,0,0,0-.83-.84,4.938,4.938,0,0,0-1.891.5l-.679-1.549a6.521,6.521,0,0,1,3-.614,2.915,2.915,0,0,1,2.027.65,2.316,2.316,0,0,1,.718,1.813v4.463Zm-1.741-1.538a1.054,1.054,0,0,0,.729-.271.892.892,0,0,0,.3-.7v-.528l-.54.023q-1.158.043-1.159.854,0,.624.667.624" transform="translate(2144.486 -1839.367)" fill="#fff"/>
          <path id="Caminho_9703" data-name="Caminho 9703" d="M138.142,426.972a1.937,1.937,0,0,1-.745,1.652,3.519,3.519,0,0,1-2.139.559,9.274,9.274,0,0,1-1.314-.081,5.6,5.6,0,0,1-1.142-.3v-1.88a7.07,7.07,0,0,0,1.2.4,5.062,5.062,0,0,0,1.163.156q.762,0,.762-.349a.4.4,0,0,0-.213-.321,9.694,9.694,0,0,0-1.24-.549,3.1,3.1,0,0,1-1.309-.874,1.985,1.985,0,0,1-.373-1.24,1.719,1.719,0,0,1,.733-1.478,3.5,3.5,0,0,1,2.072-.529,5.227,5.227,0,0,1,1.264.148,7.519,7.519,0,0,1,1.228.429l-.636,1.514a7.048,7.048,0,0,0-.992-.358,3.281,3.281,0,0,0-.852-.147q-.576,0-.576.282a.351.351,0,0,0,.2.3,10.778,10.778,0,0,0,1.162.5,4.448,4.448,0,0,1,1.066.577,1.716,1.716,0,0,1,.516.663,2.337,2.337,0,0,1,.166.928" transform="translate(2144.486 -1839.367)" fill="#fff"/>
          <path id="Caminho_9704" data-name="Caminho 9704" d="M40.921,437.835a2.945,2.945,0,0,1-.868,2.274,3.506,3.506,0,0,1-2.466.8H36.92v2.913H34.548v-8.782h3.039a3.72,3.72,0,0,1,2.5.727,2.594,2.594,0,0,1,.835,2.066m-4,1.141h.433a1.18,1.18,0,0,0,.849-.3,1.087,1.087,0,0,0,.316-.829q0-.889-.985-.889H36.92Z" transform="translate(2144.486 -1839.367)" fill="#fff"/>
          <rect id="Retângulo_1959" data-name="Retângulo 1959" width="2.349" height="9.346" transform="translate(2186.667 -1404.889)" fill="#fff"/>
          <path id="Caminho_9705" data-name="Caminho 9705" d="M50.6,443.824l-.451-.9H50.1a2.664,2.664,0,0,1-.967.8,3.177,3.177,0,0,1-1.273.217,2,2,0,0,1-1.514-.577,2.249,2.249,0,0,1-.552-1.621,1.845,1.845,0,0,1,.756-1.619,4.135,4.135,0,0,1,2.193-.6l1.135-.036v-.1a.738.738,0,0,0-.829-.84,4.933,4.933,0,0,0-1.891.5l-.679-1.549a6.515,6.515,0,0,1,3-.614,2.912,2.912,0,0,1,2.026.65,2.316,2.316,0,0,1,.718,1.813v4.463Zm-1.742-1.538a1.054,1.054,0,0,0,.729-.271.892.892,0,0,0,.3-.7v-.528l-.541.023q-1.158.043-1.159.854,0,.624.667.624" transform="translate(2144.486 -1839.367)" fill="#fff"/>
          <path id="Caminho_9706" data-name="Caminho 9706" d="M58.116,443.824v-3.712a2.132,2.132,0,0,0-.195-1.024.665.665,0,0,0-.628-.345.909.909,0,0,0-.859.474,3.6,3.6,0,0,0-.264,1.628v2.979H53.822v-6.806h1.772l.293.841h.139a1.869,1.869,0,0,1,.832-.721,2.941,2.941,0,0,1,1.222-.24,2.32,2.32,0,0,1,1.757.655,2.555,2.555,0,0,1,.628,1.844v4.427Z" transform="translate(2144.486 -1839.367)" fill="#fff"/>
          <path id="Caminho_9707" data-name="Caminho 9707" d="M68.56,440.406a3.606,3.606,0,0,1-.9,2.6,3.323,3.323,0,0,1-2.514.934,3.257,3.257,0,0,1-2.466-.955,4.134,4.134,0,0,1-.017-5.169,3.355,3.355,0,0,1,2.519-.922,3.6,3.6,0,0,1,1.772.427,2.9,2.9,0,0,1,1.186,1.223,3.932,3.932,0,0,1,.417,1.858m-4.408,0a3.029,3.029,0,0,0,.234,1.337.815.815,0,0,0,.787.459.792.792,0,0,0,.772-.459,3.151,3.151,0,0,0,.225-1.337,2.986,2.986,0,0,0-.228-1.315.9.9,0,0,0-1.556,0,2.905,2.905,0,0,0-.234,1.318" transform="translate(2144.486 -1839.367)" fill="#fff"/>
          <path id="Caminho_9708" data-name="Caminho 9708" d="M80.687,439.247a4.536,4.536,0,0,1-1.211,3.388,4.646,4.646,0,0,1-3.4,1.189H73.233v-8.781h3.039a4.582,4.582,0,0,1,3.264,1.081,4.08,4.08,0,0,1,1.151,3.123m-2.463.084a2.788,2.788,0,0,0-.478-1.79,1.765,1.765,0,0,0-1.45-.582h-.691v4.919h.529a1.91,1.91,0,0,0,1.585-.628,3.027,3.027,0,0,0,.5-1.919" transform="translate(2144.486 -1839.367)" fill="#fff"/>
          <path id="Caminho_9709" data-name="Caminho 9709" d="M82.074,435.325a.994.994,0,0,1,.3-.787,1.865,1.865,0,0,1,1.9.006.985.985,0,0,1,.3.781q0,1.032-1.256,1.033t-1.243-1.033m2.409,8.5H82.134v-6.806h2.349Z" transform="translate(2144.486 -1839.367)" fill="#fff"/>
          <path id="Caminho_9710" data-name="Caminho 9710" d="M90.23,436.9a3.415,3.415,0,0,1,.583.049l.132.023-.21,2.217a3.411,3.411,0,0,0-.8-.072,1.522,1.522,0,0,0-1.117.351,1.376,1.376,0,0,0-.349,1.012v3.346H86.123v-6.806H87.87l.366,1.088h.114a2.355,2.355,0,0,1,.82-.874,1.959,1.959,0,0,1,1.06-.334" transform="translate(2144.486 -1839.367)" fill="#fff"/>
          <path id="Caminho_9711" data-name="Caminho 9711" d="M95.18,443.944a3.657,3.657,0,0,1-2.64-.9,3.4,3.4,0,0,1-.939-2.573,3.713,3.713,0,0,1,.87-2.647,3.26,3.26,0,0,1,2.487-.922,3.3,3.3,0,0,1,2.375.8,3.048,3.048,0,0,1,.838,2.31v1.045h-4.2a1.162,1.162,0,0,0,.418.9,1.632,1.632,0,0,0,1.071.324,5.192,5.192,0,0,0,1.139-.117,5.683,5.683,0,0,0,1.126-.4v1.687a4.121,4.121,0,0,1-1.142.391,7.894,7.894,0,0,1-1.4.108m-.138-5.448a.979.979,0,0,0-.694.262,1.225,1.225,0,0,0-.327.819h2.018a1.169,1.169,0,0,0-.279-.786.925.925,0,0,0-.718-.295" transform="translate(2144.486 -1839.367)" fill="#fff"/>
          <path id="Caminho_9712" data-name="Caminho 9712" d="M102.832,442.088a3.5,3.5,0,0,0,1.135-.234v1.712a4.7,4.7,0,0,1-.9.292,5.2,5.2,0,0,1-1.005.086,2.2,2.2,0,0,1-1.706-.58,2.587,2.587,0,0,1-.523-1.78v-2.806h-.823v-.954l1.045-.739.607-1.43h1.537v1.364h1.67v1.759h-1.67v2.65q0,.66.637.66" transform="translate(2144.486 -1839.367)" fill="#fff"/>
          <path id="Caminho_9713" data-name="Caminho 9713" d="M111.655,440.406a3.607,3.607,0,0,1-.9,2.6,3.323,3.323,0,0,1-2.514.934,3.255,3.255,0,0,1-2.465-.955,4.136,4.136,0,0,1-.018-5.169,3.355,3.355,0,0,1,2.519-.922,3.6,3.6,0,0,1,1.773.427,2.907,2.907,0,0,1,1.185,1.223,3.932,3.932,0,0,1,.418,1.858m-4.409,0a3.029,3.029,0,0,0,.234,1.337.816.816,0,0,0,.787.459.791.791,0,0,0,.772-.459,3.133,3.133,0,0,0,.226-1.337,2.97,2.97,0,0,0-.229-1.315.9.9,0,0,0-1.556,0,2.905,2.905,0,0,0-.234,1.318" transform="translate(2144.486 -1839.367)" fill="#fff"/>
          <path id="Caminho_9714" data-name="Caminho 9714" d="M117.1,436.9a3.394,3.394,0,0,1,.582.049l.133.023-.21,2.217a3.411,3.411,0,0,0-.8-.072,1.52,1.52,0,0,0-1.117.351,1.376,1.376,0,0,0-.349,1.012v3.346h-2.348v-6.806h1.748l.366,1.088h.114a2.36,2.36,0,0,1,.819-.874,1.962,1.962,0,0,1,1.061-.334" transform="translate(2144.486 -1839.367)" fill="#fff"/>
          <path id="Caminho_9715" data-name="Caminho 9715" d="M124.075,443.944a2.029,2.029,0,0,1-1.269-.415,2.62,2.62,0,0,1-.841-1.218,5.4,5.4,0,0,1-.3-1.88,4.413,4.413,0,0,1,.667-2.6,2.126,2.126,0,0,1,1.832-.937,2.1,2.1,0,0,1,1,.228,2.2,2.2,0,0,1,.783.769H126a11.3,11.3,0,0,1-.114-1.6v-1.819h2.366v9.345h-1.772l-.5-.859h-.09a1.992,1.992,0,0,1-1.809.979m.962-1.856a.875.875,0,0,0,.795-.354,2.146,2.146,0,0,0,.25-1.093v-.187a2.381,2.381,0,0,0-.259-1.282.909.909,0,0,0-.81-.381.793.793,0,0,0-.718.436,2.475,2.475,0,0,0-.255,1.24,2.3,2.3,0,0,0,.258,1.207.821.821,0,0,0,.739.414" transform="translate(2144.486 -1839.367)" fill="#fff"/>
          <path id="Caminho_9716" data-name="Caminho 9716" d="M133.157,443.944a3.654,3.654,0,0,1-2.64-.9,3.4,3.4,0,0,1-.94-2.573,3.708,3.708,0,0,1,.871-2.647,3.257,3.257,0,0,1,2.486-.922,3.3,3.3,0,0,1,2.376.8,3.048,3.048,0,0,1,.838,2.31v1.045h-4.2a1.161,1.161,0,0,0,.417.9,1.635,1.635,0,0,0,1.072.324,5.183,5.183,0,0,0,1.138-.117,5.689,5.689,0,0,0,1.127-.4v1.687a4.132,4.132,0,0,1-1.142.391,7.909,7.909,0,0,1-1.4.108m-.139-5.448a.976.976,0,0,0-.693.262,1.226,1.226,0,0,0-.328.819h2.018a1.169,1.169,0,0,0-.279-.786.922.922,0,0,0-.718-.295" transform="translate(2144.486 -1839.367)" fill="#fff"/>
          <path id="Caminho_9717" data-name="Caminho 9717" d="M146.2,443.824l-.432-1.646h-2.853l-.445,1.646H139.86l2.864-8.818h3.166l2.9,8.818Zm-.925-3.592-.378-1.441c-.089-.321-.2-.736-.321-1.244s-.21-.873-.25-1.093c-.035.2-.107.541-.213,1.009s-.341,1.391-.706,2.769Z" transform="translate(2144.486 -1839.367)" fill="#fff"/>
          <path id="Caminho_9718" data-name="Caminho 9718" d="M152.935,442.088a3.5,3.5,0,0,0,1.135-.234v1.712a4.7,4.7,0,0,1-.9.292,5.2,5.2,0,0,1-1.005.086,2.2,2.2,0,0,1-1.706-.58,2.587,2.587,0,0,1-.523-1.78v-2.806h-.823v-.954l1.045-.739.607-1.43H152.3v1.364h1.67v1.759H152.3v2.65q0,.66.637.66" transform="translate(2144.486 -1839.367)" fill="#fff"/>
          <path id="Caminho_9719" data-name="Caminho 9719" d="M158.545,443.944a3.657,3.657,0,0,1-2.64-.9,3.4,3.4,0,0,1-.939-2.573,3.713,3.713,0,0,1,.87-2.647,3.26,3.26,0,0,1,2.487-.922,3.3,3.3,0,0,1,2.375.8,3.048,3.048,0,0,1,.838,2.31v1.045h-4.2a1.162,1.162,0,0,0,.418.9,1.632,1.632,0,0,0,1.071.324,5.192,5.192,0,0,0,1.139-.117,5.682,5.682,0,0,0,1.126-.4v1.687a4.121,4.121,0,0,1-1.142.391,7.894,7.894,0,0,1-1.4.108m-.138-5.448a.979.979,0,0,0-.694.262,1.225,1.225,0,0,0-.327.819H159.4a1.169,1.169,0,0,0-.279-.786.925.925,0,0,0-.718-.295" transform="translate(2144.486 -1839.367)" fill="#fff"/>
          <path id="Caminho_9720" data-name="Caminho 9720" d="M167.158,443.824v-3.712a2.131,2.131,0,0,0-.2-1.024.665.665,0,0,0-.628-.345.909.909,0,0,0-.859.474,3.6,3.6,0,0,0-.264,1.628v2.979h-2.348v-6.806h1.772l.293.841h.139a1.87,1.87,0,0,1,.832-.721,2.941,2.941,0,0,1,1.222-.24,2.32,2.32,0,0,1,1.757.655,2.555,2.555,0,0,1,.628,1.844v4.427Z" transform="translate(2144.486 -1839.367)" fill="#fff"/>
          <path id="Caminho_9721" data-name="Caminho 9721" d="M174.2,443.944a3.339,3.339,0,0,1-2.531-.9,3.6,3.6,0,0,1-.862-2.589,3.545,3.545,0,0,1,.931-2.624,3.582,3.582,0,0,1,2.649-.931,4.969,4.969,0,0,1,2.228.516l-.691,1.736a7.526,7.526,0,0,0-.786-.3,2.537,2.537,0,0,0-.751-.111,1.014,1.014,0,0,0-.883.445,2.152,2.152,0,0,0-.312,1.254q0,1.634,1.207,1.634a3.658,3.658,0,0,0,1.982-.6v1.868a3.862,3.862,0,0,1-2.181.6m1.184,1.394a1.322,1.322,0,0,1-.451,1.048,1.751,1.751,0,0,1-1.2.393,3.752,3.752,0,0,1-1.279-.174v-1.231a2.9,2.9,0,0,0,.883.162q.312,0,.312-.282a.427.427,0,0,0-.247-.352,2.091,2.091,0,0,0-.642-.243l.432-.835h1.22l-.054.174a1.737,1.737,0,0,1,.8.556,1.337,1.337,0,0,1,.223.784" transform="translate(2144.486 -1839.367)" fill="#fff"/>
          <path id="Caminho_9722" data-name="Caminho 9722" d="M182.173,443.824l-.451-.9h-.048a2.664,2.664,0,0,1-.967.8,3.173,3.173,0,0,1-1.273.217,1.993,1.993,0,0,1-1.513-.577,2.245,2.245,0,0,1-.553-1.621,1.845,1.845,0,0,1,.756-1.619,4.138,4.138,0,0,1,2.193-.6l1.135-.036v-.1a.738.738,0,0,0-.829-.84,4.933,4.933,0,0,0-1.891.5l-.679-1.549a6.517,6.517,0,0,1,3-.614,2.911,2.911,0,0,1,2.025.65,2.316,2.316,0,0,1,.718,1.813v4.463Zm-.2-7.442a1.727,1.727,0,0,1-.544-.09q-.273-.09-.538-.2c-.175-.073-.347-.138-.513-.2a1.419,1.419,0,0,0-.471-.089q-.325,0-.433.588h-1.081a2.97,2.97,0,0,1,.433-1.552,1.254,1.254,0,0,1,1.081-.5,1.455,1.455,0,0,1,.486.091c.172.059.347.126.522.2s.351.137.523.2a1.479,1.479,0,0,0,.487.09.319.319,0,0,0,.276-.151,1.167,1.167,0,0,0,.157-.438h1.093a2.925,2.925,0,0,1-.446,1.528,1.2,1.2,0,0,1-1.032.526m-1.537,5.9a1.053,1.053,0,0,0,.728-.271.892.892,0,0,0,.3-.7v-.528l-.541.023q-1.158.043-1.159.854c0,.416.224.624.668.624" transform="translate(2144.486 -1839.367)" fill="#fff"/>
          <path id="Caminho_9723" data-name="Caminho 9723" d="M191.9,440.406a3.607,3.607,0,0,1-.9,2.6,3.322,3.322,0,0,1-2.513.934,3.257,3.257,0,0,1-2.466-.955A4.134,4.134,0,0,1,186,437.82a3.351,3.351,0,0,1,2.518-.922,3.6,3.6,0,0,1,1.773.427,2.91,2.91,0,0,1,1.186,1.223,3.944,3.944,0,0,1,.417,1.858m-4.408,0a3.045,3.045,0,0,0,.233,1.337.816.816,0,0,0,.788.459.789.789,0,0,0,.771-.459,3.133,3.133,0,0,0,.226-1.337,2.97,2.97,0,0,0-.229-1.315.9.9,0,0,0-1.556,0,2.921,2.921,0,0,0-.233,1.318" transform="translate(2144.486 -1839.367)" fill="#fff"/>
          <path id="Caminho_9724" data-name="Caminho 9724" d="M41.287,452.6a2.945,2.945,0,0,1-.868,2.274,3.506,3.506,0,0,1-2.466.8h-.667v2.913H34.914V449.8h3.039a3.72,3.72,0,0,1,2.5.727,2.594,2.594,0,0,1,.835,2.066m-4,1.141h.433a1.18,1.18,0,0,0,.849-.3,1.087,1.087,0,0,0,.316-.829q0-.889-.985-.889h-.613Z" transform="translate(2144.486 -1839.367)" fill="#fff"/>
          <path id="Caminho_9725" data-name="Caminho 9725" d="M46.656,451.659a3.391,3.391,0,0,1,.582.049l.133.023-.21,2.217a3.411,3.411,0,0,0-.8-.072,1.52,1.52,0,0,0-1.117.351,1.376,1.376,0,0,0-.349,1.012v3.346H42.548v-6.806H44.3l.366,1.088h.114a2.36,2.36,0,0,1,.819-.874,1.962,1.962,0,0,1,1.061-.334" transform="translate(2144.486 -1839.367)" fill="#fff"/>
          <path id="Caminho_9726" data-name="Caminho 9726" d="M48.271,450.086a.992.992,0,0,1,.3-.787,1.87,1.87,0,0,1,1.9,0,.988.988,0,0,1,.3.782q0,1.032-1.256,1.033t-1.243-1.033m2.409,8.5H48.331v-6.806H50.68Z" transform="translate(2144.486 -1839.367)" fill="#fff"/>
          <path id="Caminho_9727" data-name="Caminho 9727" d="M60.675,458.585v-3.7a2.223,2.223,0,0,0-.189-1.036.633.633,0,0,0-.6-.345.84.84,0,0,0-.793.462,3.155,3.155,0,0,0-.252,1.447v3.172H56.488v-3.7a2.319,2.319,0,0,0-.18-1.036.609.609,0,0,0-.582-.345.844.844,0,0,0-.805.492,3.747,3.747,0,0,0-.253,1.61v2.979H52.321v-6.806h1.771l.294.841h.139a1.754,1.754,0,0,1,.783-.714,2.661,2.661,0,0,1,1.169-.247,2.293,2.293,0,0,1,2.065.9h.187a1.917,1.917,0,0,1,.8-.658,2.657,2.657,0,0,1,1.132-.238,2.329,2.329,0,0,1,1.784.619,2.671,2.671,0,0,1,.577,1.88v4.427Z" transform="translate(2144.486 -1839.367)" fill="#fff"/>
          <path id="Caminho_9728" data-name="Caminho 9728" d="M69.059,458.585l-.451-.9H68.56a2.664,2.664,0,0,1-.967.8,3.177,3.177,0,0,1-1.273.217,2,2,0,0,1-1.514-.577,2.249,2.249,0,0,1-.552-1.621,1.845,1.845,0,0,1,.756-1.619,4.135,4.135,0,0,1,2.193-.6l1.135-.036v-.1a.738.738,0,0,0-.829-.84,4.933,4.933,0,0,0-1.891.5l-.679-1.549a6.515,6.515,0,0,1,3-.614,2.912,2.912,0,0,1,2.026.65,2.316,2.316,0,0,1,.718,1.813v4.463Zm-2.643-7.454v-.174q.925-.992,1.174-1.279c.166-.193.3-.364.412-.517h2.571v.126q-.481.384-1.322.98t-1.273.864Zm.9,5.916a1.054,1.054,0,0,0,.729-.271.892.892,0,0,0,.3-.7v-.528l-.541.023q-1.158.043-1.159.854,0,.624.667.624" transform="translate(2144.486 -1839.367)" fill="#fff"/>
          <path id="Caminho_9729" data-name="Caminho 9729" d="M76.392,451.659a3.411,3.411,0,0,1,.583.049l.132.023-.21,2.217a3.411,3.411,0,0,0-.8-.072,1.522,1.522,0,0,0-1.117.351,1.376,1.376,0,0,0-.349,1.012v3.346H72.285v-6.806h1.747l.366,1.088h.114a2.354,2.354,0,0,1,.82-.874,1.959,1.959,0,0,1,1.06-.334" transform="translate(2144.486 -1839.367)" fill="#fff"/>
          <path id="Caminho_9730" data-name="Caminho 9730" d="M78.009,450.086a.989.989,0,0,1,.294-.787,1.87,1.87,0,0,1,1.9,0,.988.988,0,0,1,.3.782q0,1.032-1.255,1.033t-1.243-1.033m2.408,8.5H78.068v-6.806h2.349Z" transform="translate(2144.486 -1839.367)" fill="#fff"/>
          <path id="Caminho_9731" data-name="Caminho 9731" d="M86.5,458.585l-.45-.9H86a2.658,2.658,0,0,1-.968.8,3.172,3.172,0,0,1-1.272.217,2,2,0,0,1-1.514-.577,2.245,2.245,0,0,1-.552-1.621,1.843,1.843,0,0,1,.756-1.619,4.133,4.133,0,0,1,2.193-.6l1.135-.036v-.1a.738.738,0,0,0-.83-.84,4.937,4.937,0,0,0-1.891.5l-.679-1.549a6.521,6.521,0,0,1,3-.614,2.915,2.915,0,0,1,2.027.65,2.316,2.316,0,0,1,.718,1.813v4.463Zm-1.741-1.538a1.054,1.054,0,0,0,.729-.271.892.892,0,0,0,.3-.7v-.528l-.54.023q-1.158.043-1.159.854,0,.624.667.624" transform="translate(2144.486 -1839.367)" fill="#fff"/>
          <path id="Caminho_9732" data-name="Caminho 9732" d="M97.354,458.585l-.45-.9h-.048a2.658,2.658,0,0,1-.968.8,3.172,3.172,0,0,1-1.272.217,2,2,0,0,1-1.514-.577,2.245,2.245,0,0,1-.552-1.621,1.843,1.843,0,0,1,.756-1.619,4.133,4.133,0,0,1,2.193-.6l1.135-.036v-.1a.738.738,0,0,0-.83-.84,4.937,4.937,0,0,0-1.891.5l-.679-1.549a6.521,6.521,0,0,1,3-.614,2.915,2.915,0,0,1,2.027.65,2.316,2.316,0,0,1,.718,1.813v4.463Zm-1.429-7.454q-.416-.264-1.222-.832t-1.373-1.012v-.126h2.583q.312.421,1.22,1.4l.353.4v.174Zm-.312,5.916a1.054,1.054,0,0,0,.729-.271.892.892,0,0,0,.3-.7v-.528l-.54.023q-1.158.043-1.159.854,0,.624.667.624" transform="translate(2144.486 -1839.367)" fill="#fff"/>
          <path id="Caminho_9733" data-name="Caminho 9733" d="M109.655,455.918a2.589,2.589,0,0,1-.414,1.45,2.718,2.718,0,0,1-1.195.986,4.435,4.435,0,0,1-1.832.351,7.418,7.418,0,0,1-1.472-.123,5.454,5.454,0,0,1-1.237-.43v-2.114a7.057,7.057,0,0,0,1.412.544,5.249,5.249,0,0,0,1.344.194,1.311,1.311,0,0,0,.776-.182.564.564,0,0,0,.246-.472.513.513,0,0,0-.1-.315,1.156,1.156,0,0,0-.318-.274q-.219-.138-1.168-.564a5.607,5.607,0,0,1-1.288-.757,2.319,2.319,0,0,1-.637-.841,2.79,2.79,0,0,1-.207-1.123,2.251,2.251,0,0,1,.883-1.892,3.889,3.889,0,0,1,2.427-.678,6.8,6.8,0,0,1,2.78.631l-.727,1.831a5.272,5.272,0,0,0-2.126-.565,1.112,1.112,0,0,0-.672.162.491.491,0,0,0-.21.4.582.582,0,0,0,.266.463,10.44,10.44,0,0,0,1.451.745,4.01,4.01,0,0,1,1.577,1.1,2.378,2.378,0,0,1,.441,1.475" transform="translate(2144.486 -1839.367)" fill="#fff"/>
          <path id="Caminho_9734" data-name="Caminho 9734" d="M115.313,458.585l-.451-.9h-.048a2.664,2.664,0,0,1-.967.8,3.177,3.177,0,0,1-1.273.217,2,2,0,0,1-1.514-.577,2.249,2.249,0,0,1-.552-1.621,1.845,1.845,0,0,1,.756-1.619,4.135,4.135,0,0,1,2.193-.6l1.135-.036v-.1a.738.738,0,0,0-.829-.84,4.933,4.933,0,0,0-1.891.5l-.679-1.549a6.515,6.515,0,0,1,3-.614,2.912,2.912,0,0,1,2.026.65,2.316,2.316,0,0,1,.718,1.813v4.463Zm-1.742-1.538a1.054,1.054,0,0,0,.729-.271.892.892,0,0,0,.3-.7v-.528l-.541.023q-1.158.043-1.159.854,0,.624.667.624" transform="translate(2144.486 -1839.367)" fill="#fff"/>
          <path id="Caminho_9735" data-name="Caminho 9735" d="M123.385,458.585l-.294-.847h-.139a1.911,1.911,0,0,1-.819.718,2.855,2.855,0,0,1-1.234.249,2.308,2.308,0,0,1-1.748-.652,2.551,2.551,0,0,1-.625-1.841v-4.433h2.348V455.5a2.138,2.138,0,0,0,.19,1.01.655.655,0,0,0,.622.342.9.9,0,0,0,.864-.478,3.63,3.63,0,0,0,.259-1.612v-2.98h2.349v6.806Zm-2.828-7.454v-.174q.924-.992,1.173-1.279c.167-.193.305-.364.413-.517h2.57v.126q-.48.384-1.321.98c-.562.395-.985.684-1.274.864Z" transform="translate(2144.486 -1839.367)" fill="#fff"/>
          <path id="Caminho_9736" data-name="Caminho 9736" d="M128.892,458.7a2.029,2.029,0,0,1-1.269-.415,2.62,2.62,0,0,1-.841-1.218,5.4,5.4,0,0,1-.3-1.88,4.413,4.413,0,0,1,.667-2.6,2.126,2.126,0,0,1,1.832-.937,2.1,2.1,0,0,1,1,.228,2.2,2.2,0,0,1,.783.769h.049a11.3,11.3,0,0,1-.114-1.6v-1.819h2.366v9.345h-1.772l-.5-.859h-.09a1.992,1.992,0,0,1-1.809.979m.962-1.856a.875.875,0,0,0,.795-.354,2.146,2.146,0,0,0,.25-1.093v-.187a2.381,2.381,0,0,0-.259-1.282.909.909,0,0,0-.81-.381.793.793,0,0,0-.718.436,2.475,2.475,0,0,0-.255,1.24,2.3,2.3,0,0,0,.258,1.207.821.821,0,0,0,.739.414" transform="translate(2144.486 -1839.367)" fill="#fff"/>
          <path id="Caminho_9737" data-name="Caminho 9737" d="M137.975,458.7a3.654,3.654,0,0,1-2.64-.9,3.4,3.4,0,0,1-.94-2.573,3.709,3.709,0,0,1,.871-2.647,3.257,3.257,0,0,1,2.486-.922,3.3,3.3,0,0,1,2.376.8,3.048,3.048,0,0,1,.838,2.31v1.045h-4.2a1.161,1.161,0,0,0,.417.895,1.635,1.635,0,0,0,1.072.324,5.181,5.181,0,0,0,1.138-.117,5.692,5.692,0,0,0,1.127-.4v1.687a4.133,4.133,0,0,1-1.142.391,7.907,7.907,0,0,1-1.4.108m-.139-5.448a.976.976,0,0,0-.693.262,1.226,1.226,0,0,0-.328.819h2.018a1.169,1.169,0,0,0-.279-.786.922.922,0,0,0-.718-.3" transform="translate(2144.486 -1839.367)" fill="#fff"/>
          <path id="Caminho_9738" data-name="Caminho 9738" d="M151.368,455.918a2.589,2.589,0,0,1-.414,1.45,2.718,2.718,0,0,1-1.195.986,4.435,4.435,0,0,1-1.832.351,7.418,7.418,0,0,1-1.472-.123,5.454,5.454,0,0,1-1.237-.43v-2.114a7.056,7.056,0,0,0,1.412.544,5.249,5.249,0,0,0,1.344.194,1.311,1.311,0,0,0,.776-.182.564.564,0,0,0,.246-.472.513.513,0,0,0-.1-.315,1.156,1.156,0,0,0-.318-.274q-.219-.138-1.168-.564a5.607,5.607,0,0,1-1.288-.757,2.319,2.319,0,0,1-.637-.841,2.79,2.79,0,0,1-.207-1.123,2.251,2.251,0,0,1,.883-1.892,3.889,3.889,0,0,1,2.427-.678,6.8,6.8,0,0,1,2.78.631l-.727,1.831a5.272,5.272,0,0,0-2.126-.565,1.112,1.112,0,0,0-.672.162.491.491,0,0,0-.21.4.582.582,0,0,0,.266.463,10.44,10.44,0,0,0,1.451.745,4.01,4.01,0,0,1,1.577,1.1,2.378,2.378,0,0,1,.441,1.475" transform="translate(2144.486 -1839.367)" fill="#fff"/>
          <path id="Caminho_9739" data-name="Caminho 9739" d="M157.938,458.585h-5.213V449.8h5.213v1.9H155.1v1.381h2.631v1.9H155.1v1.657h2.841Z" transform="translate(2144.486 -1839.367)" fill="#fff"/>
          <path id="Caminho_9740" data-name="Caminho 9740" d="M165.219,455.918a2.589,2.589,0,0,1-.415,1.45,2.718,2.718,0,0,1-1.2.986,4.434,4.434,0,0,1-1.831.351,7.418,7.418,0,0,1-1.472-.123,5.437,5.437,0,0,1-1.237-.43v-2.114a7.048,7.048,0,0,0,1.411.544,5.257,5.257,0,0,0,1.345.194,1.308,1.308,0,0,0,.775-.182.564.564,0,0,0,.246-.472.512.512,0,0,0-.1-.315,1.171,1.171,0,0,0-.318-.274q-.221-.138-1.168-.564a5.617,5.617,0,0,1-1.289-.757,2.33,2.33,0,0,1-.637-.841,2.807,2.807,0,0,1-.207-1.123,2.253,2.253,0,0,1,.883-1.892,3.889,3.889,0,0,1,2.427-.678,6.8,6.8,0,0,1,2.781.631l-.727,1.831a5.276,5.276,0,0,0-2.127-.565,1.116,1.116,0,0,0-.672.162.493.493,0,0,0-.21.4.581.581,0,0,0,.267.463,10.339,10.339,0,0,0,1.45.745,4.022,4.022,0,0,1,1.578,1.1,2.384,2.384,0,0,1,.441,1.475" transform="translate(2144.486 -1839.367)" fill="#fff"/>
          <path id="Caminho_9741" data-name="Caminho 9741" d="M171.038,449.677l-3.273,9.027h-2.079l3.274-9.027Z" transform="translate(2144.486 -1839.367)" fill="#fff"/>
          <path id="Caminho_9742" data-name="Caminho 9742" d="M175.837,458.585l-1.8-6.325h-.054q.126,1.615.126,2.511v3.814h-2.1V449.8h3.159L177,456.038h.049l1.8-6.234h3.165v8.781h-2.181v-3.851c0-.2,0-.421.009-.666s.033-.842.082-1.795h-.055l-1.771,6.312Z" transform="translate(2144.486 -1839.367)" fill="#fff"/>
          <path id="Caminho_9743" data-name="Caminho 9743" d="M187.428,453.443h3.79v4.733a10.427,10.427,0,0,1-3.394.529,4.1,4.1,0,0,1-3.137-1.178,4.709,4.709,0,0,1-1.109-3.357,4.415,4.415,0,0,1,1.213-3.31,4.67,4.67,0,0,1,3.4-1.183,7.458,7.458,0,0,1,1.564.157,6.543,6.543,0,0,1,1.282.4l-.75,1.861a4.647,4.647,0,0,0-2.085-.467,1.983,1.983,0,0,0-1.606.674,2.931,2.931,0,0,0-.567,1.932,2.966,2.966,0,0,0,.513,1.877,1.779,1.779,0,0,0,1.481.646,4.34,4.34,0,0,0,.972-.1v-1.375h-1.567Z" transform="translate(2144.486 -1839.367)" fill="#fff"/>
        </g>
      </g>
    </g>
  </g>
</svg>
