<svg xmlns="http://www.w3.org/2000/svg" width="168.154" height="168.154" viewBox="0 0 168.154 168.154">
  <g id="Grupo_3279" data-name="Grupo 3279" transform="translate(4.077 4.077)">
    <path id="Caminho_11226" data-name="Caminho 11226" d="M1311.811,61.138h-11.617a61.72,61.72,0,0,0-4-9.655l8.216-8.216a9.189,9.189,0,0,0,0-13l-13.679-13.679a9.189,9.189,0,0,0-12.995,0l-8.216,8.216a61.725,61.725,0,0,0-9.656-4V9.189A9.189,9.189,0,0,0,1250.673,0h-19.345a9.189,9.189,0,0,0-9.189,9.189V20.806a61.729,61.729,0,0,0-9.656,4l-8.216-8.216a9.189,9.189,0,0,0-13,0l-13.679,13.679a9.189,9.189,0,0,0,0,13l8.216,8.216a61.674,61.674,0,0,0-4,9.655h-11.616A9.189,9.189,0,0,0,1161,70.327V89.673a9.189,9.189,0,0,0,9.189,9.189h11.616a61.675,61.675,0,0,0,4,9.656l-8.216,8.216a9.189,9.189,0,0,0,0,13l13.679,13.679a9.189,9.189,0,0,0,13,0l8.216-8.216a61.729,61.729,0,0,0,9.656,4v11.617a9.189,9.189,0,0,0,9.189,9.189h19.345a9.189,9.189,0,0,0,9.189-9.189V139.194a61.725,61.725,0,0,0,9.656-4l8.216,8.216a9.189,9.189,0,0,0,12.995,0l13.679-13.679a9.189,9.189,0,0,0,0-13l-8.216-8.216a61.721,61.721,0,0,0,4-9.656h11.617A9.189,9.189,0,0,0,1321,89.673V70.327a9.189,9.189,0,0,0-9.189-9.189" transform="translate(-1163.486 65.058) rotate(-3)" fill="#346e4d"/>
    <path id="Caminho_11227" data-name="Caminho 11227" d="M1367.985,159.18a47.8,47.8,0,1,1-47.8-47.8,47.8,47.8,0,0,1,47.8,47.8" transform="translate(-1240.18 -79.18)" fill="#fff"/>
    <path id="Caminho_11228" data-name="Caminho 11228" d="M1311.427,201.791a51.364,51.364,0,1,1,51.364-51.364,51.422,51.422,0,0,1-51.364,51.364m0-102.439a51.075,51.075,0,1,0,51.075,51.075,51.133,51.133,0,0,0-51.075-51.075" transform="translate(-1231.427 -70.427)" fill="#fff"/>
    <path id="Caminho_11229" data-name="Caminho 11229" d="M1317.428,216.58a2.207,2.207,0,0,1-.729,1.784,3.116,3.116,0,0,1-2.072.617h-.657v2.569h-1.531v-7.223h2.307a3.069,3.069,0,0,1,2,.566,2.063,2.063,0,0,1,.684,1.687m-3.458,1.146h.5a1.677,1.677,0,0,0,1.057-.279.976.976,0,0,0,.351-.813,1,1,0,0,0-.294-.8,1.376,1.376,0,0,0-.921-.257h-.7Z" transform="translate(-1268.661 -152.372)" fill="#25563a"/>
    <path id="Caminho_11230" data-name="Caminho 11230" d="M1334.416,221.55v-7.222h1.531v5.958h2.929v1.265Z" transform="translate(-1284.286 -152.372)" fill="#25563a"/>
    <path id="Caminho_11231" data-name="Caminho 11231" d="M1356.375,221.477l-.523-1.719h-2.633l-.524,1.719h-1.65l2.549-7.252h1.872l2.559,7.252Zm-.889-3q-.726-2.337-.818-2.643t-.131-.484q-.163.633-.934,3.127Z" transform="translate(-1296.109 -152.299)" fill="#25563a"/>
    <path id="Caminho_11232" data-name="Caminho 11232" d="M1379.385,221.55h-1.531V215.6h-1.961v-1.275h5.454V215.6h-1.961Z" transform="translate(-1313.773 -152.372)" fill="#25563a"/>
    <path id="Caminho_11233" data-name="Caminho 11233" d="M1400.791,221.477l-.523-1.719h-2.633l-.524,1.719h-1.65l2.549-7.252h1.872l2.559,7.252Zm-.889-3q-.726-2.337-.818-2.643t-.131-.484q-.162.633-.934,3.127Z" transform="translate(-1327.685 -152.299)" fill="#25563a"/>
    <path id="Caminho_11234" data-name="Caminho 11234" d="M1424.26,221.55h-1.507v-7.222h4.14v1.255h-2.633v1.862h2.45v1.25h-2.45Z" transform="translate(-1347.088 -152.372)" fill="#25563a"/>
    <path id="Caminho_11235" data-name="Caminho 11235" d="M1447.728,217.649a3.919,3.919,0,0,1-.889,2.757,3.854,3.854,0,0,1-5.1,0,3.935,3.935,0,0,1-.889-2.766,3.883,3.883,0,0,1,.892-2.754,3.335,3.335,0,0,1,2.557-.951,3.289,3.289,0,0,1,2.547.959,3.93,3.93,0,0,1,.882,2.757m-5.271,0a3.014,3.014,0,0,0,.459,1.823,1.607,1.607,0,0,0,1.373.613q1.833,0,1.833-2.435t-1.823-2.44a1.619,1.619,0,0,0-1.378.615,3.007,3.007,0,0,0-.464,1.825" transform="translate(-1359.954 -152.092)" fill="#25563a"/>
    <path id="Caminho_11236" data-name="Caminho 11236" d="M1471.35,218.779v2.772h-1.532v-7.222h2.1a3.6,3.6,0,0,1,2.179.536,2.137,2.137,0,0,1,.355,2.761,2.324,2.324,0,0,1-.993.778q1.631,2.435,2.124,3.147h-1.7l-1.724-2.772Zm0-1.245h.494a1.894,1.894,0,0,0,1.072-.242.865.865,0,0,0,.346-.761.791.791,0,0,0-.353-.731,2.146,2.146,0,0,0-1.094-.217h-.464Z" transform="translate(-1380.548 -152.372)" fill="#25563a"/>
    <path id="Caminho_11237" data-name="Caminho 11237" d="M1495.982,221.55l-1.739-5.666h-.044q.094,1.729.094,2.307v3.359h-1.368v-7.222h2.085l1.709,5.523h.03l1.813-5.523h2.085v7.222h-1.428v-3.419q0-.242.007-.558t.067-1.68h-.045l-1.862,5.657Z" transform="translate(-1396.975 -152.372)" fill="#25563a"/>
    <path id="Caminho_11238" data-name="Caminho 11238" d="M1528.111,221.477l-.524-1.719h-2.633l-.523,1.719h-1.65l2.549-7.252h1.872l2.558,7.252Zm-.889-3q-.727-2.337-.818-2.643t-.13-.484q-.164.633-.935,3.127Z" transform="translate(-1418.201 -152.299)" fill="#25563a"/>
    <path id="Caminho_11239" data-name="Caminho 11239" d="M1553.243,219.289a1.867,1.867,0,0,1-.7,1.541,3.059,3.059,0,0,1-1.959.563,4.6,4.6,0,0,1-2.045-.435v-1.423a8.417,8.417,0,0,0,1.237.46,3.665,3.665,0,0,0,.926.133,1.32,1.32,0,0,0,.774-.193.66.66,0,0,0,.269-.573.634.634,0,0,0-.119-.378,1.326,1.326,0,0,0-.348-.319,9.029,9.029,0,0,0-.936-.489,4.428,4.428,0,0,1-.993-.6,2.247,2.247,0,0,1-.529-.667,1.9,1.9,0,0,1-.2-.889,1.868,1.868,0,0,1,.649-1.507,2.7,2.7,0,0,1,1.8-.548,4.237,4.237,0,0,1,1.075.134,7.366,7.366,0,0,1,1.069.375l-.494,1.191a7.225,7.225,0,0,0-.956-.331,3.081,3.081,0,0,0-.743-.094.985.985,0,0,0-.667.2.668.668,0,0,0-.232.529.653.653,0,0,0,.094.353,1.032,1.032,0,0,0,.3.291,9.246,9.246,0,0,0,.971.506,3.864,3.864,0,0,1,1.388.971,1.9,1.9,0,0,1,.375,1.193" transform="translate(-1436.51 -152.116)" fill="#25563a"/>
    <path id="Caminho_11240" data-name="Caminho 11240" d="M1424.131,259.869a3.556,3.556,0,0,1-1.015,2.732,4.14,4.14,0,0,1-2.932.948h-2.045v-7.222h2.268a3.819,3.819,0,0,1,2.747.934,3.434,3.434,0,0,1,.978,2.608m-1.59.04q0-2.327-2.055-2.327h-.816v4.7h.657q2.213,0,2.213-2.376" transform="translate(-1343.808 -182.231)" fill="#25563a"/>
    <path id="Caminho_11241" data-name="Caminho 11241" d="M1448.207,263.55h-4.16v-7.222h4.16v1.255h-2.628v1.586h2.445v1.255h-2.445v1.862h2.628Z" transform="translate(-1362.227 -182.231)" fill="#25563a"/>
    <path id="Caminho_11242" data-name="Caminho 11242" d="M1307.967,299.243a1.561,1.561,0,0,0-1.339.65,3.022,3.022,0,0,0-.474,1.811q0,2.415,1.813,2.415a5.732,5.732,0,0,0,1.843-.38v1.284a5.12,5.12,0,0,1-1.986.37,3.029,3.029,0,0,1-2.411-.956,4.047,4.047,0,0,1-.835-2.744,4.485,4.485,0,0,1,.41-1.974,2.966,2.966,0,0,1,1.178-1.3,3.484,3.484,0,0,1,1.8-.452,4.859,4.859,0,0,1,2.114.509l-.494,1.245a8.22,8.22,0,0,0-.815-.336,2.437,2.437,0,0,0-.805-.143" transform="translate(-1263.074 -211.835)" fill="#25563a"/>
    <path id="Caminho_11243" data-name="Caminho 11243" d="M1333.757,301.648a3.919,3.919,0,0,1-.889,2.757,3.855,3.855,0,0,1-5.1,0,3.936,3.936,0,0,1-.889-2.766,3.884,3.884,0,0,1,.891-2.755,3.337,3.337,0,0,1,2.557-.951,3.29,3.29,0,0,1,2.547.959,3.93,3.93,0,0,1,.881,2.756m-5.271,0a3.017,3.017,0,0,0,.46,1.823,1.607,1.607,0,0,0,1.373.612q1.832,0,1.833-2.436t-1.823-2.44a1.619,1.619,0,0,0-1.378.615,3,3,0,0,0-.465,1.825" transform="translate(-1278.929 -211.81)" fill="#25563a"/>
    <path id="Caminho_11244" data-name="Caminho 11244" d="M1358.906,305.55l-1.739-5.666h-.045q.094,1.729.094,2.307v3.359h-1.368v-7.223h2.084l1.71,5.523h.029l1.813-5.523h2.085v7.223h-1.428v-3.419c0-.161,0-.347.007-.559s.027-.771.067-1.679h-.044l-1.862,5.656Z" transform="translate(-1299.523 -212.09)" fill="#25563a"/>
    <path id="Caminho_11245" data-name="Caminho 11245" d="M1394.605,298.327V303a2.7,2.7,0,0,1-.358,1.4,2.33,2.33,0,0,1-1.035.924,3.7,3.7,0,0,1-1.6.321,3.063,3.063,0,0,1-2.164-.714,2.531,2.531,0,0,1-.771-1.954v-4.654h1.526v4.422a1.849,1.849,0,0,0,.336,1.225,1.4,1.4,0,0,0,1.111.39,1.366,1.366,0,0,0,1.09-.393,1.863,1.863,0,0,0,.339-1.233v-4.411Z" transform="translate(-1322.862 -212.09)" fill="#25563a"/>
    <path id="Caminho_11246" data-name="Caminho 11246" d="M1421.711,305.55h-1.947l-3.142-5.464h-.044q.094,1.447.094,2.065v3.4H1415.3v-7.223h1.932l3.137,5.41h.035q-.075-1.409-.074-1.991v-3.419h1.379Z" transform="translate(-1341.792 -212.09)" fill="#25563a"/>
    <rect id="Retângulo_1997" data-name="Retângulo 1997" width="1.531" height="7.222" transform="translate(81.737 86.237)" fill="#25563a"/>
    <path id="Caminho_11247" data-name="Caminho 11247" d="M1457.622,299.243a1.56,1.56,0,0,0-1.339.65,3.021,3.021,0,0,0-.474,1.811q0,2.415,1.813,2.415a5.734,5.734,0,0,0,1.843-.38v1.284a5.122,5.122,0,0,1-1.986.37,3.029,3.029,0,0,1-2.411-.956,4.047,4.047,0,0,1-.835-2.744,4.481,4.481,0,0,1,.41-1.974,2.963,2.963,0,0,1,1.178-1.3,3.484,3.484,0,0,1,1.8-.452,4.86,4.86,0,0,1,2.114.509l-.494,1.245a8.24,8.24,0,0,0-.815-.336,2.433,2.433,0,0,0-.8-.143" transform="translate(-1369.468 -211.835)" fill="#25563a"/>
    <path id="Caminho_11248" data-name="Caminho 11248" d="M1479.832,305.477l-.523-1.719h-2.633l-.524,1.719h-1.65l2.549-7.252h1.872l2.559,7.252Zm-.889-3q-.726-2.337-.818-2.643t-.131-.484q-.163.633-.934,3.127Z" transform="translate(-1383.878 -212.017)" fill="#25563a"/>
    <path id="Caminho_11249" data-name="Caminho 11249" d="M1504.073,299.243a1.561,1.561,0,0,0-1.339.65,3.024,3.024,0,0,0-.474,1.811q0,2.415,1.813,2.415a5.728,5.728,0,0,0,1.843-.38v1.284a5.118,5.118,0,0,1-1.985.37,3.029,3.029,0,0,1-2.411-.956,4.048,4.048,0,0,1-.835-2.744,4.485,4.485,0,0,1,.41-1.974,2.964,2.964,0,0,1,1.178-1.3,3.483,3.483,0,0,1,1.8-.452,4.863,4.863,0,0,1,2.115.509l-.494,1.245a8.25,8.25,0,0,0-.815-.336,2.437,2.437,0,0,0-.805-.143m.761,7.287a1.07,1.07,0,0,1-.373.914,1.911,1.911,0,0,1-1.153.282,2.413,2.413,0,0,1-.721-.1v-.83c.089.023.208.046.358.07a2.482,2.482,0,0,0,.348.034q.356,0,.356-.306,0-.41-.82-.534l.385-.761h.953l-.134.3a1.273,1.273,0,0,1,.583.368.839.839,0,0,1,.218.566" transform="translate(-1402.492 -211.835)" fill="#25563a"/>
    <path id="Caminho_11250" data-name="Caminho 11250" d="M1526.282,300.374l-.524-1.719h-2.633l-.523,1.719h-1.65l2.549-7.252h1.873l2.559,7.252Zm-2.648-8.319a.432.432,0,0,0-.294.131.781.781,0,0,0-.2.4h-.736a1.873,1.873,0,0,1,.408-1.121,1.181,1.181,0,0,1,.936-.405,1.024,1.024,0,0,1,.4.082c.13.054.259.114.385.178s.251.123.373.175a.9.9,0,0,0,.36.079.433.433,0,0,0,.294-.129.765.765,0,0,0,.2-.4h.736a1.858,1.858,0,0,1-.412,1.121,1.186,1.186,0,0,1-.932.405,1.023,1.023,0,0,1-.4-.082q-.2-.082-.385-.178c-.127-.064-.251-.124-.373-.178a.876.876,0,0,0-.361-.082m1.759,5.316q-.727-2.337-.818-2.643t-.131-.484q-.164.633-.934,3.127Z" transform="translate(-1416.901 -206.914)" fill="#25563a"/>
    <path id="Caminho_11251" data-name="Caminho 11251" d="M1554.01,301.648a3.919,3.919,0,0,1-.889,2.757,3.855,3.855,0,0,1-5.1,0,3.936,3.936,0,0,1-.889-2.766,3.883,3.883,0,0,1,.892-2.755,3.336,3.336,0,0,1,2.557-.951,3.289,3.289,0,0,1,2.547.959,3.929,3.929,0,0,1,.881,2.756m-5.271,0a3.016,3.016,0,0,0,.459,1.823,1.607,1.607,0,0,0,1.373.612q1.832,0,1.833-2.436t-1.823-2.44a1.619,1.619,0,0,0-1.379.615,3,3,0,0,0-.464,1.825" transform="translate(-1435.513 -211.81)" fill="#25563a"/>
  </g>
</svg>
