<svg xmlns="http://www.w3.org/2000/svg" width="130" height="130" viewBox="0 0 130 130">
  <g id="Grupo_3272" data-name="Grupo 3272" transform="translate(-15 -15)">
    <path id="Caminho_11215" data-name="Caminho 11215" d="M703.034,49.675H693.6a50.142,50.142,0,0,0-3.252-7.845l6.676-6.676a7.466,7.466,0,0,0,0-10.559L685.9,13.481a7.466,7.466,0,0,0-10.558,0l-6.676,6.676a50.155,50.155,0,0,0-7.845-3.252V7.466A7.466,7.466,0,0,0,653.359,0H637.641a7.466,7.466,0,0,0-7.466,7.466V16.9a50.155,50.155,0,0,0-7.845,3.252l-6.676-6.676a7.466,7.466,0,0,0-10.559,0L593.981,24.6a7.466,7.466,0,0,0,0,10.559l6.676,6.676a50.13,50.13,0,0,0-3.252,7.845h-9.438a7.466,7.466,0,0,0-7.466,7.466V72.859a7.466,7.466,0,0,0,7.466,7.466H597.4a50.131,50.131,0,0,0,3.252,7.845l-6.676,6.676a7.466,7.466,0,0,0,0,10.559L605.1,116.519a7.466,7.466,0,0,0,10.559,0l6.676-6.676a50.155,50.155,0,0,0,7.845,3.252v9.439A7.466,7.466,0,0,0,637.641,130h15.718a7.466,7.466,0,0,0,7.466-7.466V113.1a50.143,50.143,0,0,0,7.845-3.252l6.676,6.676a7.466,7.466,0,0,0,10.558,0L697.019,105.4a7.466,7.466,0,0,0,0-10.559l-6.676-6.676a50.143,50.143,0,0,0,3.252-7.845h9.438a7.466,7.466,0,0,0,7.466-7.466V57.141a7.466,7.466,0,0,0-7.466-7.466" transform="translate(-565.5 15)" fill="#422556"/>
    <path id="Caminho_11216" data-name="Caminho 11216" d="M769.558,150.216a38.841,38.841,0,1,1-38.841-38.841,38.842,38.842,0,0,1,38.841,38.841" transform="translate(-650.717 -70.216)" fill="#d7b1e5"/>
    <path id="Caminho_11217" data-name="Caminho 11217" d="M721.3,182.53A41.733,41.733,0,1,1,763.029,140.8,41.78,41.78,0,0,1,721.3,182.53m0-83.232a41.5,41.5,0,1,0,41.5,41.5,41.545,41.545,0,0,0-41.5-41.5" transform="translate(-641.296 -60.796)" fill="#d7b1e5"/>
    <path id="Caminho_11218" data-name="Caminho 11218" d="M774.26,276.374h-1.531v-5.948h-1.961v-1.275h5.454v1.275H774.26Z" transform="translate(-715.767 -191.348)" fill="#422556"/>
    <path id="Caminho_11219" data-name="Caminho 11219" d="M797.639,276.374h-4.16v-7.222h4.16v1.255h-2.628v1.586h2.445v1.255h-2.445v1.862h2.628Z" transform="translate(-731.914 -191.348)" fill="#422556"/>
    <path id="Caminho_11220" data-name="Caminho 11220" d="M813.082,276.374v-7.222h1.531v5.958h2.93v1.265Z" transform="translate(-745.85 -191.348)" fill="#422556"/>
    <path id="Caminho_11221" data-name="Caminho 11221" d="M837.014,276.374h-4.16v-7.222h4.16v1.255h-2.628v1.586h2.445v1.255h-2.445v1.862h2.628Z" transform="translate(-759.906 -191.348)" fill="#422556"/>
    <path id="Caminho_11222" data-name="Caminho 11222" d="M853.964,276.374h-1.507v-7.222H856.6v1.255h-2.633v1.862h2.451v1.25h-2.451Z" transform="translate(-773.843 -191.348)" fill="#422556"/>
    <path id="Caminho_11223" data-name="Caminho 11223" d="M877.431,272.473a3.919,3.919,0,0,1-.889,2.757,3.854,3.854,0,0,1-5.1,0,3.935,3.935,0,0,1-.889-2.766,3.882,3.882,0,0,1,.891-2.754,3.335,3.335,0,0,1,2.557-.951,3.289,3.289,0,0,1,2.547.959,3.93,3.93,0,0,1,.882,2.757m-5.271,0a3.015,3.015,0,0,0,.459,1.823,1.607,1.607,0,0,0,1.373.613q1.832,0,1.833-2.435T874,270.033a1.62,1.62,0,0,0-1.379.615,3.008,3.008,0,0,0-.464,1.825" transform="translate(-786.708 -191.068)" fill="#422556"/>
    <path id="Caminho_11224" data-name="Caminho 11224" d="M905.929,276.374h-1.947l-3.142-5.464H900.8q.094,1.447.094,2.065v3.4h-1.368v-7.222h1.932l3.137,5.409h.034q-.074-1.408-.074-1.991v-3.419h1.379Z" transform="translate(-807.302 -191.348)" fill="#422556"/>
    <path id="Caminho_11225" data-name="Caminho 11225" d="M932.136,276.374h-4.16v-7.222h4.16v1.255h-2.628v1.586h2.446v1.255h-2.446v1.862h2.628Z" transform="translate(-827.532 -191.348)" fill="#422556"/>
  </g>
</svg>
