<svg xmlns="http://www.w3.org/2000/svg" width="190.897" height="190.897" viewBox="0 0 190.897 190.897">
  <g id="Grupo_3278" data-name="Grupo 3278" transform="translate(15.448 15.448)">
    <path id="Caminho_11215" data-name="Caminho 11215" d="M710.575,52.732H700.555A53.229,53.229,0,0,0,697.1,44.4l7.086-7.086a7.926,7.926,0,0,0,0-11.209l-11.8-11.8a7.925,7.925,0,0,0-11.208,0L674.1,21.4a53.239,53.239,0,0,0-8.328-3.452V7.925A7.925,7.925,0,0,0,657.843,0H641.157a7.926,7.926,0,0,0-7.926,7.925v10.02A53.238,53.238,0,0,0,624.9,21.4l-7.086-7.086a7.926,7.926,0,0,0-11.208,0l-11.8,11.8a7.925,7.925,0,0,0,0,11.209L601.9,44.4a53.218,53.218,0,0,0-3.452,8.328H588.426a7.926,7.926,0,0,0-7.926,7.925V77.343a7.926,7.926,0,0,0,7.926,7.925h10.019A53.219,53.219,0,0,0,601.9,93.6l-7.086,7.086a7.925,7.925,0,0,0,0,11.209l11.8,11.8a7.926,7.926,0,0,0,11.208,0L624.9,116.6a53.238,53.238,0,0,0,8.328,3.452v10.02A7.926,7.926,0,0,0,641.157,138h16.685a7.925,7.925,0,0,0,7.925-7.925v-10.02A53.224,53.224,0,0,0,674.1,116.6l7.087,7.086a7.925,7.925,0,0,0,11.208,0l11.8-11.8a7.926,7.926,0,0,0,0-11.209L697.1,93.6a53.23,53.23,0,0,0,3.452-8.328h10.019a7.925,7.925,0,0,0,7.925-7.925V60.657a7.925,7.925,0,0,0-7.925-7.925" transform="matrix(0.839, -0.545, 0.545, 0.839, -502.297, 375.875)" fill="#52306a"/>
    <path id="Caminho_11216" data-name="Caminho 11216" d="M769.558,150.216a38.841,38.841,0,1,1-38.841-38.841,38.842,38.842,0,0,1,38.841,38.841" transform="translate(-650.717 -70.216)" fill="#fff"/>
    <path id="Caminho_11217" data-name="Caminho 11217" d="M721.3,182.53A41.733,41.733,0,1,1,763.029,140.8,41.78,41.78,0,0,1,721.3,182.53m0-83.232a41.5,41.5,0,1,0,41.5,41.5,41.545,41.545,0,0,0-41.5-41.5" transform="translate(-641.296 -60.796)" fill="#fff"/>
    <path id="Caminho_11218" data-name="Caminho 11218" d="M774.26,276.374h-1.531v-5.948h-1.961v-1.275h5.454v1.275H774.26Z" transform="translate(-715.767 -191.348)" fill="#422556"/>
    <path id="Caminho_11219" data-name="Caminho 11219" d="M797.639,276.374h-4.16v-7.222h4.16v1.255h-2.628v1.586h2.445v1.255h-2.445v1.862h2.628Z" transform="translate(-731.914 -191.348)" fill="#422556"/>
    <path id="Caminho_11220" data-name="Caminho 11220" d="M813.082,276.374v-7.222h1.531v5.958h2.93v1.265Z" transform="translate(-745.85 -191.348)" fill="#422556"/>
    <path id="Caminho_11221" data-name="Caminho 11221" d="M837.014,276.374h-4.16v-7.222h4.16v1.255h-2.628v1.586h2.445v1.255h-2.445v1.862h2.628Z" transform="translate(-759.906 -191.348)" fill="#422556"/>
    <path id="Caminho_11222" data-name="Caminho 11222" d="M853.964,276.374h-1.507v-7.222H856.6v1.255h-2.633v1.862h2.451v1.25h-2.451Z" transform="translate(-773.843 -191.348)" fill="#422556"/>
    <path id="Caminho_11223" data-name="Caminho 11223" d="M877.431,272.473a3.919,3.919,0,0,1-.889,2.757,3.854,3.854,0,0,1-5.1,0,3.935,3.935,0,0,1-.889-2.766,3.882,3.882,0,0,1,.891-2.754,3.335,3.335,0,0,1,2.557-.951,3.289,3.289,0,0,1,2.547.959,3.93,3.93,0,0,1,.882,2.757m-5.271,0a3.015,3.015,0,0,0,.459,1.823,1.607,1.607,0,0,0,1.373.613q1.832,0,1.833-2.435T874,270.033a1.62,1.62,0,0,0-1.379.615,3.008,3.008,0,0,0-.464,1.825" transform="translate(-786.708 -191.068)" fill="#422556"/>
    <path id="Caminho_11224" data-name="Caminho 11224" d="M905.929,276.374h-1.947l-3.142-5.464H900.8q.094,1.447.094,2.065v3.4h-1.368v-7.222h1.932l3.137,5.409h.034q-.074-1.408-.074-1.991v-3.419h1.379Z" transform="translate(-807.302 -191.348)" fill="#422556"/>
    <path id="Caminho_11225" data-name="Caminho 11225" d="M932.136,276.374h-4.16v-7.222h4.16v1.255h-2.628v1.586h2.446v1.255h-2.446v1.862h2.628Z" transform="translate(-827.532 -191.348)" fill="#422556"/>
  </g>
</svg>
