<svg xmlns="http://www.w3.org/2000/svg" width="113" height="113" viewBox="0 0 113 113">
  <g id="Grupo_3271" data-name="Grupo 3271" transform="translate(-23.5 -23.5)">
    <path id="Caminho_11208" data-name="Caminho 11208" d="M106.51,43.179h-8.2a43.589,43.589,0,0,0-2.827-6.819l5.8-5.8a6.49,6.49,0,0,0,0-9.178l-9.661-9.661a6.49,6.49,0,0,0-9.178,0l-5.8,5.8a43.6,43.6,0,0,0-6.819-2.827V6.49A6.49,6.49,0,0,0,63.331,0H49.669a6.49,6.49,0,0,0-6.49,6.49v8.2a43.6,43.6,0,0,0-6.819,2.827l-5.8-5.8a6.49,6.49,0,0,0-9.178,0l-9.661,9.661a6.49,6.49,0,0,0,0,9.178l5.8,5.8a43.568,43.568,0,0,0-2.827,6.819H6.49A6.49,6.49,0,0,0,0,49.669V63.331a6.49,6.49,0,0,0,6.49,6.49h8.2a43.569,43.569,0,0,0,2.827,6.819l-5.8,5.8a6.49,6.49,0,0,0,0,9.178l9.661,9.661a6.49,6.49,0,0,0,9.178,0l5.8-5.8a43.6,43.6,0,0,0,6.819,2.827v8.2a6.49,6.49,0,0,0,6.49,6.49H63.331a6.49,6.49,0,0,0,6.49-6.49v-8.2a43.59,43.59,0,0,0,6.819-2.827l5.8,5.8a6.49,6.49,0,0,0,9.178,0l9.661-9.661a6.49,6.49,0,0,0,0-9.178l-5.8-5.8a43.59,43.59,0,0,0,2.827-6.819h8.2a6.49,6.49,0,0,0,6.49-6.49V49.669a6.49,6.49,0,0,0-6.49-6.49" transform="translate(23.5 23.5)" fill="#263d59"/>
    <path id="Caminho_11209" data-name="Caminho 11209" d="M178.9,145.137a33.762,33.762,0,1,1-33.762-33.762A33.762,33.762,0,0,1,178.9,145.137" transform="translate(-65.137 -65.137)" fill="#b1cae8"/>
    <path id="Caminho_11210" data-name="Caminho 11210" d="M135.339,171.615a36.276,36.276,0,1,1,36.276-36.276,36.317,36.317,0,0,1-36.276,36.276m0-72.348a36.072,36.072,0,1,0,36.072,36.072,36.112,36.112,0,0,0-36.072-36.072" transform="translate(-55.339 -55.339)" fill="#b1cae8"/>
    <path id="Caminho_11211" data-name="Caminho 11211" d="M224.367,276.374h-4.16v-7.222h4.16v1.255h-2.628v1.586h2.446v1.255h-2.446v1.862h2.628Z" transform="translate(-156.553 -191.348)" fill="#263d59"/>
    <rect id="Ret창ngulo_1995" data-name="Ret창ngulo 1995" width="2.653" height="1.235" transform="translate(68.714 81.697)" fill="#263d59"/>
    <path id="Caminho_11212" data-name="Caminho 11212" d="M254.13,276.374l-1.739-5.666h-.044q.094,1.729.094,2.307v3.359h-1.368v-7.222h2.085l1.709,5.523h.03l1.813-5.523h2.085v7.222h-1.428v-3.419q0-.242.007-.558t.067-1.68H257.4l-1.862,5.656Z" transform="translate(-178.495 -191.348)" fill="#263d59"/>
    <path id="Caminho_11213" data-name="Caminho 11213" d="M286.258,276.3l-.523-1.719H283.1l-.524,1.719h-1.65l2.549-7.252h1.872l2.559,7.252Zm-.889-3q-.726-2.337-.818-2.643t-.131-.484q-.163.633-.934,3.127Z" transform="translate(-199.721 -191.275)" fill="#263d59"/>
    <rect id="Ret창ngulo_1996" data-name="Ret창ngulo 1996" width="1.531" height="7.222" transform="translate(89.097 77.804)" fill="#263d59"/>
    <path id="Caminho_11214" data-name="Caminho 11214" d="M319.808,276.374v-7.222h1.531v5.958h2.929v1.265Z" transform="translate(-227.361 -191.348)" fill="#263d59"/>
  </g>
</svg>
