<svg xmlns="http://www.w3.org/2000/svg" width="165.166" height="165.166" viewBox="0 0 165.166 165.166">
  <g id="Grupo_3277" data-name="Grupo 3277" transform="translate(-0.578 -0.578)">
    <path id="Caminho_11208" data-name="Caminho 11208" d="M116.426,47.2h-8.968a47.647,47.647,0,0,0-3.09-7.454l6.343-6.343a7.094,7.094,0,0,0,0-10.032l-10.56-10.56a7.094,7.094,0,0,0-10.032,0l-6.343,6.343a47.657,47.657,0,0,0-7.454-3.09V7.094A7.094,7.094,0,0,0,69.227,0H54.293A7.094,7.094,0,0,0,47.2,7.094v8.968a47.654,47.654,0,0,0-7.454,3.09L33.4,12.809a7.094,7.094,0,0,0-10.032,0l-10.56,10.56a7.094,7.094,0,0,0,0,10.032l6.343,6.343a47.624,47.624,0,0,0-3.09,7.454H7.094A7.094,7.094,0,0,0,0,54.292V69.227a7.094,7.094,0,0,0,7.094,7.094h8.968a47.625,47.625,0,0,0,3.09,7.454l-6.343,6.343a7.094,7.094,0,0,0,0,10.032l10.56,10.56a7.094,7.094,0,0,0,10.032,0l6.343-6.343a47.654,47.654,0,0,0,7.454,3.09v8.968a7.094,7.094,0,0,0,7.094,7.094H69.227a7.094,7.094,0,0,0,7.094-7.094v-8.968a47.647,47.647,0,0,0,7.454-3.09l6.343,6.343a7.094,7.094,0,0,0,10.032,0l10.56-10.56a7.094,7.094,0,0,0,0-10.032l-6.343-6.343a47.648,47.648,0,0,0,3.09-7.454h8.968a7.094,7.094,0,0,0,7.094-7.094V54.292a7.094,7.094,0,0,0-7.094-7.094" transform="matrix(0.438, -0.899, 0.899, 0.438, 0.578, 111.597)" fill="#33547b"/>
    <path id="Caminho_11209" data-name="Caminho 11209" d="M182.677,147.026a35.651,35.651,0,1,1-35.651-35.651,35.651,35.651,0,0,1,35.651,35.651" transform="translate(-63.865 -63.865)" fill="#fff"/>
    <path id="Caminho_11210" data-name="Caminho 11210" d="M137.368,175.674a38.305,38.305,0,1,1,38.305-38.306,38.349,38.349,0,0,1-38.305,38.306m0-76.4a38.09,38.09,0,1,0,38.09,38.09,38.133,38.133,0,0,0-38.09-38.09" transform="translate(-54.207 -54.207)" fill="#fff"/>
    <path id="Caminho_11211" data-name="Caminho 11211" d="M224.6,276.778h-4.392v-7.626H224.6v1.325h-2.775v1.675h2.582v1.325h-2.582v1.967H224.6Z" transform="translate(-154.306 -188.31)" fill="#263d59"/>
    <rect id="Ret창ngulo_1995" data-name="Ret창ngulo 1995" width="2.801" height="1.304" transform="translate(71.243 84.953)" fill="#263d59"/>
    <path id="Caminho_11212" data-name="Caminho 11212" d="M254.3,276.778l-1.836-5.983h-.047q.1,1.826.1,2.436v3.547h-1.445v-7.626h2.2l1.8,5.832h.031l1.915-5.832h2.2v7.626h-1.508v-3.61q0-.256.008-.589t.071-1.774h-.047l-1.966,5.973Z" transform="translate(-175.749 -188.31)" fill="#263d59"/>
    <path id="Caminho_11213" data-name="Caminho 11213" d="M286.557,276.707,286,274.891h-2.78l-.553,1.816h-1.742l2.692-7.658H285.6l2.7,7.658Zm-.939-3.172q-.767-2.467-.864-2.791t-.138-.511q-.172.668-.986,3.3Z" transform="translate(-196.492 -188.238)" fill="#263d59"/>
    <rect id="Ret창ngulo_1996" data-name="Ret창ngulo 1996" width="1.617" height="7.626" transform="translate(92.767 80.842)" fill="#263d59"/>
    <path id="Caminho_11214" data-name="Caminho 11214" d="M319.808,276.778v-7.626h1.617v6.291h3.093v1.335Z" transform="translate(-223.504 -188.31)" fill="#263d59"/>
  </g>
</svg>
