<svg xmlns="http://www.w3.org/2000/svg" xmlns:xlink="http://www.w3.org/1999/xlink" width="852" height="298.673" viewBox="0 0 852 298.673">
  <defs>
    <clipPath id="clip-path">
      <rect id="Ret창ngulo_1974" data-name="Ret창ngulo 1974" width="76.149" height="74.673" fill="none"/>
    </clipPath>
  </defs>
  <g id="Grupo_3218" data-name="Grupo 3218" transform="translate(-2218 5170.673)">
    <path id="Caminho_10816" data-name="Caminho 10816" d="M3,3V258.336H849V3H3M0,0H852V261.336H0Z" transform="translate(2218 -5133.336)" fill="#244759"/>
    <g id="Grupo_3217" data-name="Grupo 3217" transform="translate(2604.926 -5170.673)">
      <g id="Grupo_3188" data-name="Grupo 3188" clip-path="url(#clip-path)">
        <path id="Caminho_10765" data-name="Caminho 10765" d="M229.407,210.546a21.972,21.972,0,1,1-21.972-21.972,21.972,21.972,0,0,1,21.972,21.972" transform="translate(-168.889 -171.723)" fill="#244759"/>
        <path id="Caminho_10766" data-name="Caminho 10766" d="M76.724,222.946a4.791,4.791,0,1,1-4.791-4.791,4.791,4.791,0,0,1,4.791,4.791" transform="translate(-61.142 -198.661)" fill="#244759"/>
        <path id="Caminho_10767" data-name="Caminho 10767" d="M792.786,645.683a2.313,2.313,0,1,1-2.313-2.313,2.313,2.313,0,0,1,2.313,2.313" transform="translate(-717.73 -585.878)" fill="#244759"/>
        <path id="Caminho_10768" data-name="Caminho 10768" d="M179.772,510.8a3.625,3.625,0,1,1-3.625-3.625,3.625,3.625,0,0,1,3.625,3.625" transform="translate(-157.104 -461.857)" fill="#244759"/>
        <path id="Caminho_10769" data-name="Caminho 10769" d="M467.785,163.038a5.277,5.277,0,1,1-5.277-5.277,5.277,5.277,0,0,1,5.277,5.277" transform="translate(-416.372 -143.663)" fill="#244759"/>
        <path id="Caminho_10770" data-name="Caminho 10770" d="M544.64,224.575a3.956,3.956,0,1,1-3.956-3.956,3.956,3.956,0,0,1,3.956,3.956" transform="translate(-488.766 -200.904)" fill="#244759"/>
        <path id="Caminho_10771" data-name="Caminho 10771" d="M625.985,339.2a3.956,3.956,0,1,1-3.956-3.956,3.956,3.956,0,0,1,3.956,3.956" transform="translate(-562.843 -305.285)" fill="#244759"/>
        <path id="Caminho_10772" data-name="Caminho 10772" d="M465.142,622.06a3.956,3.956,0,1,1-3.956-3.956,3.956,3.956,0,0,1,3.956,3.956" transform="translate(-416.373 -562.87)" fill="#244759"/>
        <path id="Caminho_10773" data-name="Caminho 10773" d="M248.868,225.516a3.047,3.047,0,1,1-3.047-3.047,3.047,3.047,0,0,1,3.047,3.047" transform="translate(-221.08 -202.589)" fill="#244759"/>
        <path id="Caminho_10774" data-name="Caminho 10774" d="M217.1,8.425A8.426,8.426,0,1,1,208.677,0,8.426,8.426,0,0,1,217.1,8.425" transform="translate(-182.357)" fill="#244759"/>
        <path id="Caminho_10775" data-name="Caminho 10775" d="M707.617,449.65a5.947,5.947,0,1,1-5.947-5.948,5.947,5.947,0,0,1,5.947,5.948" transform="translate(-633.552 -404.054)" fill="#244759"/>
        <path id="Caminho_10776" data-name="Caminho 10776" d="M108.617,397.885a5.947,5.947,0,1,1-5.947-5.947,5.947,5.947,0,0,1,5.947,5.947" transform="translate(-88.079 -356.914)" fill="#244759"/>
        <path id="Caminho_10777" data-name="Caminho 10777" d="M671.365,119.084a4.461,4.461,0,1,1-4.461-4.461,4.461,4.461,0,0,1,4.461,4.461" transform="translate(-603.248 -104.38)" fill="#244759"/>
        <path id="Caminho_10778" data-name="Caminho 10778" d="M132.248,683.32a2.974,2.974,0,1,1-2.974-2.974,2.974,2.974,0,0,1,2.974,2.974" transform="translate(-115.015 -619.55)" fill="#244759"/>
        <path id="Caminho_10779" data-name="Caminho 10779" d="M567.377,666.09a7.93,7.93,0,1,1-7.93-7.93,7.93,7.93,0,0,1,7.93,7.93" transform="translate(-502.233 -599.347)" fill="#244759"/>
        <path id="Caminho_10780" data-name="Caminho 10780" d="M74.764,367.01a5.155,5.155,0,0,0-3.925-1.52,5.782,5.782,0,0,0-2.723.611,1.993,1.993,0,0,0-1.325-.5H61.625a2,2,0,0,0-.487.062,2,2,0,0,0-.487-.062H59.008a1.994,1.994,0,0,0-1.222.416,2,2,0,0,0-1.222-.416H54.159a2,2,0,0,0-.6.091,2,2,0,0,0-.6-.091H48.917a1.994,1.994,0,0,0-.735.141,1.994,1.994,0,0,0-.735-.141H44.99a2,2,0,0,0-1.427.6,2,2,0,0,0-1.427-.6H39.683a1.993,1.993,0,0,0-.737.142,1.994,1.994,0,0,0-.737-.142H36.358a1.994,1.994,0,0,0-.737.142,1.993,1.993,0,0,0-.737-.142H33.033a1.994,1.994,0,0,0-1.07.31,1.993,1.993,0,0,0-1.07-.31H29.041a2,2,0,0,0-1.858,1.258,2,2,0,0,0-1.858-1.258H23.483a2,2,0,0,0-1.5.682,5.593,5.593,0,0,0-3.035-.789,5.59,5.59,0,0,0-3.042.8,2.007,2.007,0,0,0-.2-.111,6.862,6.862,0,0,0-2.975-.675,5.454,5.454,0,0,0-2.761.7,4.8,4.8,0,0,0-1.276,1.066l-.1-.318a2,2,0,0,0-1.9-1.377H4.227a2,2,0,0,0-1.9,1.384L.1,373.8A2,2,0,0,0,2,376.421H4.027a2,2,0,0,0,1.448-.619,2,2,0,0,0,1.448.619H8.937A2,2,0,0,0,10.164,376a5.6,5.6,0,0,0,2.448.517,6.73,6.73,0,0,0,2.742-.549,2,2,0,0,0,.48-.3,5.533,5.533,0,0,0,3.1.85,5.6,5.6,0,0,0,3.032-.788,2,2,0,0,0,1.515.695H27.95a2,2,0,0,0,.546-.077,2,2,0,0,0,.546.077h1.851a1.993,1.993,0,0,0,1.07-.31,1.994,1.994,0,0,0,1.07.31h1.851a2,2,0,0,0,.737-.142,2,2,0,0,0,.737.142h1.851a2,2,0,0,0,.737-.142,2,2,0,0,0,.737.142h1.632a2,2,0,0,0,.67-.115,2,2,0,0,0,.669.115h1.753a2,2,0,0,0,.673-.116,2,2,0,0,0,.674.116h1.693a2,2,0,0,0,.735-.141,1.994,1.994,0,0,0,.735.141h4.048a2,2,0,0,0,.6-.091,2,2,0,0,0,.6.091h1.632a1.994,1.994,0,0,0,1.222-.416,2,2,0,0,0,1.222.416H60.65a1.993,1.993,0,0,0,1.32-.5,1.993,1.993,0,0,0,1.32.5h1.842a2,2,0,0,0,1.885-1.331,5.215,5.215,0,0,0,3.814,1.424,5.162,5.162,0,0,0,3.929-1.524,6.432,6.432,0,0,0,0-7.98m-55.93,3.981a.361.361,0,0,1,.226,0,.411.411,0,0,1-.226,0m51.894,0a.361.361,0,0,1,.226,0,.411.411,0,0,1-.226,0" transform="translate(0 -332.83)" fill="#244759"/>
        <path id="Caminho_10781" data-name="Caminho 10781" d="M27.336,395.639,27,394.361H24.785l-.345,1.278H22.416l2.224-6.846H27.1l2.252,6.846Zm-.718-2.789-.294-1.119q-.1-.373-.249-.965t-.193-.849q-.042.238-.166.783t-.548,2.15Z" transform="translate(-20.413 -354.05)" fill="#fff"/>
        <path id="Caminho_10782" data-name="Caminho 10782" d="M108.732,389.52a1.175,1.175,0,0,0-1.026.539,2.6,2.6,0,0,0-.368,1.485q0,1.968,1.5,1.968a3.068,3.068,0,0,0,.877-.126,8.754,8.754,0,0,0,.853-.3v1.558a4.722,4.722,0,0,1-1.931.378,3.054,3.054,0,0,1-2.367-.9,3.693,3.693,0,0,1-.823-2.588,4.13,4.13,0,0,1,.4-1.861,2.854,2.854,0,0,1,1.147-1.233,3.466,3.466,0,0,1,1.76-.431,4.851,4.851,0,0,1,2.113.48l-.564,1.45a6.36,6.36,0,0,0-.756-.3,2.642,2.642,0,0,0-.811-.121" transform="translate(-96.021 -353.336)" fill="#fff"/>
        <path id="Caminho_10783" data-name="Caminho 10783" d="M181.432,391.413a3.677,3.677,0,0,1-.844,2.616,3.835,3.835,0,0,1-4.932,0,4.419,4.419,0,0,1,0-5.221,3.86,3.86,0,0,1,4.941-.007,3.68,3.68,0,0,1,.839,2.616m-4.692,0q0,1.977,1.376,1.977a1.182,1.182,0,0,0,1.038-.48,3.486,3.486,0,0,0,0-3.006,1.169,1.169,0,0,0-1.024-.487q-1.385,0-1.385,2" transform="translate(-159.18 -353.243)" fill="#fff"/>
        <path id="Caminho_10784" data-name="Caminho 10784" d="M262.789,395.924v-6.818h1.842v5.33h2.626v1.488Z" transform="translate(-239.307 -354.335)" fill="#fff"/>
        <path id="Caminho_10785" data-name="Caminho 10785" d="M330.838,395.924h-1.851v-2.779h-2.141v2.779h-1.851v-6.818h1.851v2.528h2.141v-2.528h1.851Z" transform="translate(-295.953 -354.335)" fill="#fff"/>
        <rect id="Ret창ngulo_1973" data-name="Ret창ngulo 1973" width="1.851" height="6.818" transform="translate(36.358 34.771)" fill="#fff"/>
        <path id="Caminho_10786" data-name="Caminho 10786" d="M447.056,395.924l-1.394-4.911h-.042q.1,1.255.1,1.949v2.961h-1.632v-6.818h2.453l1.422,4.841H448l1.394-4.841h2.458v6.818h-1.693v-2.989q0-.233.007-.518t.063-1.394h-.042l-1.376,4.9Z" transform="translate(-404.402 -354.335)" fill="#fff"/>
        <path id="Caminho_10787" data-name="Caminho 10787" d="M551.464,395.924h-4.048v-6.818h4.048v1.478h-2.206v1.073H551.3v1.478h-2.043v1.287h2.206Z" transform="translate(-498.499 -354.335)" fill="#fff"/>
        <path id="Caminho_10788" data-name="Caminho 10788" d="M612.565,395.924H610.15l-2.49-4.8h-.042q.089,1.133.089,1.73v3.073h-1.632v-6.818h2.406l2.481,4.738h.028q-.065-1.031-.065-1.656v-3.083h1.642Z" transform="translate(-551.915 -354.335)" fill="#fff"/>
        <path id="Caminho_10789" data-name="Caminho 10789" d="M693.131,395.924h-1.842v-5.312h-1.665v-1.506h5.167v1.506h-1.66Z" transform="translate(-627.999 -354.335)" fill="#fff"/>
        <path id="Caminho_10790" data-name="Caminho 10790" d="M762.167,391.413a3.677,3.677,0,0,1-.844,2.616,3.835,3.835,0,0,1-4.931,0,4.419,4.419,0,0,1,0-5.221,3.86,3.86,0,0,1,4.941-.007,3.68,3.68,0,0,1,.84,2.616m-4.691,0q0,1.977,1.376,1.977a1.182,1.182,0,0,0,1.038-.48,3.487,3.487,0,0,0,0-3.006,1.169,1.169,0,0,0-1.023-.487q-1.385,0-1.385,2" transform="translate(-688.02 -353.243)" fill="#fff"/>
      </g>
    </g>
  </g>
</svg>
