<svg id="Grupo_2507" data-name="Grupo 2507" xmlns="http://www.w3.org/2000/svg" xmlns:xlink="http://www.w3.org/1999/xlink" width="515.647" height="469.763" viewBox="0 0 515.647 469.763">
  <defs>
    <clipPath id="clip-path">
      <rect id="Retângulo_1644" data-name="Retângulo 1644" width="515.647" height="469.763" fill="none"/>
    </clipPath>
    <clipPath id="clip-path-2">
      <rect id="Retângulo_1632" data-name="Retângulo 1632" width="160.979" height="90.599" fill="none"/>
    </clipPath>
  </defs>
  <g id="Grupo_2506" data-name="Grupo 2506" clip-path="url(#clip-path)">
    <rect id="Retângulo_1627" data-name="Retângulo 1627" width="5.438" height="190.56" transform="translate(67.234 245.787) rotate(-88.068)" fill="#3a3344"/>
    <rect id="Retângulo_1628" data-name="Retângulo 1628" width="190.56" height="5.438" transform="translate(167.417 418.485) rotate(-63.863)" fill="#3a3344"/>
    <rect id="Retângulo_1629" data-name="Retângulo 1629" width="190.56" height="5.438" transform="translate(256.243 249.807) rotate(-89.646)" fill="#3a3344"/>
    <rect id="Retângulo_1630" data-name="Retângulo 1630" width="190.56" height="5.438" transform="translate(257.87 246.776) rotate(-1.932)" fill="#3a3344"/>
    <rect id="Retângulo_1631" data-name="Retângulo 1631" width="5.438" height="190.56" transform="translate(259.496 249.806) rotate(-26.137)" fill="#3a3344"/>
    <g id="Grupo_2505" data-name="Grupo 2505" transform="translate(177.38 159.576)">
      <g id="Grupo_2509" data-name="Grupo 2509">
        <path id="Caminho_5936" data-name="Caminho 5936" d="M487.158,373.93a80.489,80.489,0,1,1-80.49-80.49,80.49,80.49,0,0,1,80.49,80.49" transform="translate(-326.179 -293.44)" fill="#2772a0"/>
        <g id="Grupo_2488" data-name="Grupo 2488" transform="translate(0 70.38)" opacity="0.5">
          <g id="Grupo_2487" data-name="Grupo 2487">
            <g id="Grupo_2486" data-name="Grupo 2486" clip-path="url(#clip-path-2)">
              <path id="Caminho_5937" data-name="Caminho 5937" d="M406.669,493.239a80.5,80.5,0,0,1-79.859-70.38,80.49,80.49,0,1,0,159.718,0,80.5,80.5,0,0,1-79.859,70.38" transform="translate(-326.179 -422.859)" fill="#3b32b2"/>
            </g>
          </g>
        </g>
        <path id="Caminho_5938" data-name="Caminho 5938" d="M362.349,410.348l-.68-2.235h-3.423l-.68,2.235h-2.145l3.313-9.426h2.434l3.326,9.426Zm-1.156-3.9q-.944-3.037-1.063-3.435t-.17-.629q-.212.822-1.214,4.064Z" transform="translate(-339.519 -342.472)" fill="#fff"/>
        <path id="Caminho_5939" data-name="Caminho 5939" d="M377.916,402.4a2.029,2.029,0,0,0-1.74.845,3.926,3.926,0,0,0-.616,2.353q0,3.14,2.356,3.14a7.451,7.451,0,0,0,2.395-.494v1.669a6.655,6.655,0,0,1-2.581.482,3.938,3.938,0,0,1-3.133-1.243,5.263,5.263,0,0,1-1.085-3.567,5.818,5.818,0,0,1,.533-2.565,3.851,3.851,0,0,1,1.531-1.689,4.531,4.531,0,0,1,2.341-.587,6.314,6.314,0,0,1,2.748.661l-.642,1.618a10.6,10.6,0,0,0-1.06-.437,3.162,3.162,0,0,0-1.046-.186" transform="translate(-347.771 -342.391)" fill="#fff"/>
        <path id="Caminho_5940" data-name="Caminho 5940" d="M395.094,410.38h-5.407v-9.388h5.407v1.631h-3.416v2.062h3.179v1.631h-3.179v2.421h3.416Z" transform="translate(-355.151 -342.504)" fill="#fff"/>
        <path id="Caminho_5941" data-name="Caminho 5941" d="M408.288,407.66a2.426,2.426,0,0,1-.915,2,3.973,3.973,0,0,1-2.546.732,5.977,5.977,0,0,1-2.658-.565v-1.85a10.879,10.879,0,0,0,1.609.6,4.749,4.749,0,0,0,1.2.173,1.713,1.713,0,0,0,1-.25.857.857,0,0,0,.35-.745.822.822,0,0,0-.154-.491,1.716,1.716,0,0,0-.453-.414,11.8,11.8,0,0,0-1.216-.636,5.77,5.77,0,0,1-1.29-.777,2.918,2.918,0,0,1-.687-.867,2.475,2.475,0,0,1-.257-1.156,2.426,2.426,0,0,1,.844-1.958,3.509,3.509,0,0,1,2.334-.713,5.527,5.527,0,0,1,1.4.173,9.579,9.579,0,0,1,1.39.488l-.642,1.547a9.417,9.417,0,0,0-1.242-.43,3.988,3.988,0,0,0-.967-.122,1.281,1.281,0,0,0-.866.263.869.869,0,0,0-.3.687.847.847,0,0,0,.122.459,1.333,1.333,0,0,0,.388.379,11.989,11.989,0,0,0,1.262.658,5.034,5.034,0,0,1,1.8,1.262,2.465,2.465,0,0,1,.488,1.551" transform="translate(-360.844 -342.391)" fill="#fff"/>
        <path id="Caminho_5942" data-name="Caminho 5942" d="M421.607,407.66a2.426,2.426,0,0,1-.915,2,3.973,3.973,0,0,1-2.546.732,5.977,5.977,0,0,1-2.658-.565v-1.85a10.878,10.878,0,0,0,1.609.6,4.749,4.749,0,0,0,1.2.173,1.713,1.713,0,0,0,1-.25.857.857,0,0,0,.35-.745.822.822,0,0,0-.154-.491,1.716,1.716,0,0,0-.453-.414,11.8,11.8,0,0,0-1.217-.636,5.772,5.772,0,0,1-1.29-.777,2.917,2.917,0,0,1-.687-.867,2.475,2.475,0,0,1-.257-1.156,2.426,2.426,0,0,1,.844-1.958,3.509,3.509,0,0,1,2.334-.713,5.527,5.527,0,0,1,1.4.173,9.579,9.579,0,0,1,1.39.488l-.642,1.547a9.418,9.418,0,0,0-1.242-.43,3.987,3.987,0,0,0-.967-.122,1.281,1.281,0,0,0-.866.263.869.869,0,0,0-.3.687.848.848,0,0,0,.122.459,1.333,1.333,0,0,0,.388.379,11.98,11.98,0,0,0,1.262.658,5.034,5.034,0,0,1,1.8,1.262,2.465,2.465,0,0,1,.488,1.551" transform="translate(-366.92 -342.391)" fill="#fff"/>
        <rect id="Retângulo_1633" data-name="Retângulo 1633" width="1.991" height="9.388" transform="translate(56.387 58.488)" fill="#fff"/>
        <path id="Caminho_5943" data-name="Caminho 5943" d="M437.873,400.993h2.922a5.628,5.628,0,0,1,2.9.568,1.977,1.977,0,0,1,.9,1.807,2.278,2.278,0,0,1-.395,1.381,1.576,1.576,0,0,1-1.05.649v.064a2.068,2.068,0,0,1,1.288.745,2.422,2.422,0,0,1,.395,1.451,2.393,2.393,0,0,1-.928,2,4.013,4.013,0,0,1-2.521.719h-3.513Zm1.991,3.717h1.156a2.113,2.113,0,0,0,1.172-.25.934.934,0,0,0,.363-.828.828.828,0,0,0-.395-.774,2.534,2.534,0,0,0-1.249-.234h-1.047Zm0,1.58v2.447h1.3a1.923,1.923,0,0,0,1.214-.315,1.161,1.161,0,0,0,.392-.963q0-1.169-1.67-1.169Z" transform="translate(-377.132 -342.504)" fill="#fff"/>
        <rect id="Retângulo_1634" data-name="Retângulo 1634" width="1.991" height="9.388" transform="translate(69.576 58.488)" fill="#fff"/>
        <path id="Caminho_5944" data-name="Caminho 5944" d="M462.126,410.38v-9.388h1.991v7.744h3.807v1.644Z" transform="translate(-388.197 -342.504)" fill="#fff"/>
        <rect id="Retângulo_1635" data-name="Retângulo 1635" width="1.99" height="9.388" transform="translate(81.359 58.488)" fill="#fff"/>
        <path id="Caminho_5945" data-name="Caminho 5945" d="M491.582,405.6a4.622,4.622,0,0,1-1.32,3.551,5.381,5.381,0,0,1-3.811,1.233h-2.658v-9.388h2.947a4.963,4.963,0,0,1,3.57,1.214,4.465,4.465,0,0,1,1.271,3.39m-2.068.052q0-3.025-2.671-3.025h-1.059v6.113h.854q2.876,0,2.877-3.088" transform="translate(-398.081 -342.504)" fill="#fff"/>
        <path id="Caminho_5946" data-name="Caminho 5946" d="M506.45,410.348l-.68-2.235h-3.423l-.681,2.235h-2.144l3.313-9.426h2.433l3.326,9.426Zm-1.156-3.9q-.944-3.037-1.063-3.435t-.171-.629q-.211.822-1.213,4.064Z" transform="translate(-405.256 -342.472)" fill="#fff"/>
        <path id="Caminho_5947" data-name="Caminho 5947" d="M526.167,405.6a4.622,4.622,0,0,1-1.32,3.551,5.381,5.381,0,0,1-3.811,1.233h-2.658v-9.388h2.947a4.963,4.963,0,0,1,3.57,1.214,4.465,4.465,0,0,1,1.271,3.39m-2.068.052q0-3.025-2.671-3.025h-1.059v6.113h.854q2.876,0,2.877-3.088" transform="translate(-413.858 -342.504)" fill="#fff"/>
        <path id="Caminho_5948" data-name="Caminho 5948" d="M541.686,410.38H536.28v-9.388h5.406v1.631H538.27v2.062h3.178v1.631H538.27v2.421h3.416Z" transform="translate(-422.024 -342.504)" fill="#fff"/>
        <path id="Caminho_5949" data-name="Caminho 5949" d="M569.88,407.983l-.68-2.235h-3.423l-.681,2.235h-2.144l3.313-9.426H568.7l3.327,9.426Zm-2.35-10.139q-.4-.283-1.188-.915t-1.22-1.057v-.135h2.2a18.118,18.118,0,0,0,1.509,1.933v.173Zm1.194,6.235q-.944-3.037-1.063-3.435t-.171-.629q-.211.822-1.213,4.064Z" transform="translate(-434.192 -340.107)" fill="#fff"/>
        <path id="Caminho_5950" data-name="Caminho 5950" d="M586.866,407.66a2.426,2.426,0,0,1-.915,2,3.97,3.97,0,0,1-2.546.732,5.975,5.975,0,0,1-2.658-.565v-1.85a10.848,10.848,0,0,0,1.608.6,4.753,4.753,0,0,0,1.2.173,1.714,1.714,0,0,0,1.005-.25.858.858,0,0,0,.35-.745.823.823,0,0,0-.154-.491,1.721,1.721,0,0,0-.452-.414,11.868,11.868,0,0,0-1.217-.636,5.779,5.779,0,0,1-1.291-.777,2.908,2.908,0,0,1-.687-.867,2.468,2.468,0,0,1-.257-1.156,2.426,2.426,0,0,1,.844-1.958,3.508,3.508,0,0,1,2.334-.713,5.523,5.523,0,0,1,1.4.173,9.562,9.562,0,0,1,1.391.488l-.642,1.547a9.422,9.422,0,0,0-1.243-.43,3.983,3.983,0,0,0-.966-.122,1.281,1.281,0,0,0-.867.263.87.87,0,0,0-.3.687.852.852,0,0,0,.122.459,1.33,1.33,0,0,0,.389.379,11.9,11.9,0,0,0,1.262.658,5.029,5.029,0,0,1,1.8,1.262,2.465,2.465,0,0,1,.488,1.551" transform="translate(-442.31 -342.391)" fill="#fff"/>
        <path id="Caminho_5951" data-name="Caminho 5951" d="M381.187,430.011v6.074a3.5,3.5,0,0,1-.465,1.823,3.025,3.025,0,0,1-1.345,1.2,4.807,4.807,0,0,1-2.08.418,3.983,3.983,0,0,1-2.813-.928,3.29,3.29,0,0,1-1-2.539v-6.049h1.984v5.747a2.407,2.407,0,0,0,.437,1.592,1.815,1.815,0,0,0,1.445.507,1.773,1.773,0,0,0,1.416-.511,2.418,2.418,0,0,0,.44-1.6v-5.734Z" transform="translate(-347.758 -355.742)" fill="#fff"/>
        <path id="Caminho_5952" data-name="Caminho 5952" d="M391.878,430.011H394.8a5.632,5.632,0,0,1,2.9.568,1.977,1.977,0,0,1,.9,1.807,2.274,2.274,0,0,1-.4,1.381,1.575,1.575,0,0,1-1.05.649v.064a2.071,2.071,0,0,1,1.288.745,2.426,2.426,0,0,1,.394,1.451,2.392,2.392,0,0,1-.928,2,4.012,4.012,0,0,1-2.521.719h-3.512Zm1.991,3.717h1.156a2.115,2.115,0,0,0,1.172-.25.935.935,0,0,0,.363-.828.829.829,0,0,0-.4-.774,2.531,2.531,0,0,0-1.248-.234h-1.047Zm0,1.58v2.447h1.3a1.922,1.922,0,0,0,1.214-.315,1.161,1.161,0,0,0,.392-.963q0-1.169-1.669-1.169Z" transform="translate(-356.15 -355.742)" fill="#fff"/>
        <path id="Caminho_5953" data-name="Caminho 5953" d="M413.182,436.679a2.426,2.426,0,0,1-.915,2,3.973,3.973,0,0,1-2.546.732,5.976,5.976,0,0,1-2.658-.565V437a10.89,10.89,0,0,0,1.609.6,4.75,4.75,0,0,0,1.2.173,1.713,1.713,0,0,0,1-.25.857.857,0,0,0,.35-.745.822.822,0,0,0-.154-.491,1.715,1.715,0,0,0-.453-.414,11.791,11.791,0,0,0-1.217-.636,5.771,5.771,0,0,1-1.29-.777,2.918,2.918,0,0,1-.687-.867,2.476,2.476,0,0,1-.257-1.156,2.426,2.426,0,0,1,.844-1.958,3.509,3.509,0,0,1,2.334-.713,5.527,5.527,0,0,1,1.4.173,9.569,9.569,0,0,1,1.39.488l-.642,1.547a9.418,9.418,0,0,0-1.242-.43,3.99,3.99,0,0,0-.967-.122,1.281,1.281,0,0,0-.866.263.869.869,0,0,0-.3.687.848.848,0,0,0,.122.459,1.333,1.333,0,0,0,.388.379,12.005,12.005,0,0,0,1.262.658,5.034,5.034,0,0,1,1.8,1.262,2.466,2.466,0,0,1,.488,1.551" transform="translate(-363.077 -355.629)" fill="#fff"/>
        <path id="Caminho_5954" data-name="Caminho 5954" d="M427.725,430.011h2.922a5.628,5.628,0,0,1,2.9.568,1.977,1.977,0,0,1,.9,1.807,2.278,2.278,0,0,1-.395,1.381,1.576,1.576,0,0,1-1.05.649v.064a2.068,2.068,0,0,1,1.288.745,2.422,2.422,0,0,1,.395,1.451,2.392,2.392,0,0,1-.928,2,4.013,4.013,0,0,1-2.521.719h-3.512Zm1.991,3.717h1.156a2.114,2.114,0,0,0,1.172-.25.934.934,0,0,0,.363-.828.828.828,0,0,0-.395-.774,2.534,2.534,0,0,0-1.249-.234h-1.047Zm0,1.58v2.447h1.3a1.923,1.923,0,0,0,1.214-.315,1.161,1.161,0,0,0,.392-.963q0-1.169-1.669-1.169Z" transform="translate(-372.503 -355.742)" fill="#fff"/>
        <path id="Caminho_5955" data-name="Caminho 5955" d="M445.963,435.8v3.6h-1.991v-9.388h2.736a4.683,4.683,0,0,1,2.832.7A2.778,2.778,0,0,1,450,434.3a3.015,3.015,0,0,1-1.29,1.012q2.118,3.166,2.761,4.091h-2.209l-2.241-3.6Zm0-1.618h.642a2.455,2.455,0,0,0,1.393-.315,1.122,1.122,0,0,0,.449-.989,1.028,1.028,0,0,0-.459-.951,2.786,2.786,0,0,0-1.422-.282h-.6Z" transform="translate(-379.915 -355.742)" fill="#fff"/>
        <path id="Caminho_5956" data-name="Caminho 5956" d="M464.692,439.366l-.68-2.235h-3.423l-.68,2.235h-2.145l3.313-9.426h2.434l3.326,9.426Zm-1.156-3.9q-.944-3.037-1.063-3.435t-.17-.629q-.212.822-1.214,4.064Z" transform="translate(-386.207 -355.71)" fill="#fff"/>
        <path id="Caminho_5957" data-name="Caminho 5957" d="M481.677,436.679a2.426,2.426,0,0,1-.915,2,3.97,3.97,0,0,1-2.546.732,5.974,5.974,0,0,1-2.658-.565V437a10.862,10.862,0,0,0,1.608.6,4.752,4.752,0,0,0,1.2.173,1.714,1.714,0,0,0,1.005-.25.858.858,0,0,0,.35-.745.823.823,0,0,0-.154-.491,1.721,1.721,0,0,0-.452-.414,11.854,11.854,0,0,0-1.216-.636,5.776,5.776,0,0,1-1.291-.777,2.906,2.906,0,0,1-.687-.867,2.468,2.468,0,0,1-.257-1.156,2.427,2.427,0,0,1,.845-1.958,3.508,3.508,0,0,1,2.334-.713,5.523,5.523,0,0,1,1.4.173,9.555,9.555,0,0,1,1.391.488l-.642,1.547a9.424,9.424,0,0,0-1.243-.43,3.987,3.987,0,0,0-.966-.122,1.281,1.281,0,0,0-.867.263.87.87,0,0,0-.3.687.852.852,0,0,0,.122.459,1.329,1.329,0,0,0,.389.379,11.917,11.917,0,0,0,1.262.658,5.029,5.029,0,0,1,1.8,1.262,2.466,2.466,0,0,1,.488,1.551" transform="translate(-394.324 -355.629)" fill="#fff"/>
        <rect id="Retângulo_1636" data-name="Retângulo 1636" width="1.99" height="9.388" transform="translate(89.055 74.269)" fill="#fff"/>
        <path id="Caminho_5958" data-name="Caminho 5958" d="M497.946,439.4v-9.388h1.99v7.744h3.808V439.4Z" transform="translate(-404.537 -355.742)" fill="#fff"/>
        <path id="Caminho_5959" data-name="Caminho 5959" d="M517.014,439.4h-5.406v-9.388h5.406v1.631H513.6V433.7h3.178v1.631H513.6v2.421h3.416Z" transform="translate(-410.769 -355.742)" fill="#fff"/>
        <rect id="Retângulo_1637" data-name="Retângulo 1637" width="1.99" height="9.388" transform="translate(108.203 74.269)" fill="#fff"/>
        <path id="Caminho_5960" data-name="Caminho 5960" d="M535.146,435.8v3.6h-1.99v-9.388h2.735a4.683,4.683,0,0,1,2.832.7,2.776,2.776,0,0,1,.462,3.589,3.015,3.015,0,0,1-1.29,1.012q2.118,3.166,2.761,4.091h-2.209l-2.241-3.6Zm0-1.618h.642a2.455,2.455,0,0,0,1.393-.315,1.122,1.122,0,0,0,.449-.989,1.029,1.029,0,0,0-.458-.951,2.791,2.791,0,0,0-1.423-.282h-.6Z" transform="translate(-420.599 -355.742)" fill="#fff"/>
        <path id="Caminho_5961" data-name="Caminho 5961" d="M553.875,439.366l-.68-2.235h-3.423l-.681,2.235h-2.144l3.313-9.426h2.433l3.326,9.426Zm-1.156-3.9q-.944-3.037-1.063-3.435t-.171-.629q-.211.822-1.213,4.064Z" transform="translate(-426.891 -355.71)" fill="#fff"/>
        <path id="Caminho_5962" data-name="Caminho 5962" d="M570.861,436.679a2.426,2.426,0,0,1-.915,2,3.97,3.97,0,0,1-2.546.732,5.974,5.974,0,0,1-2.658-.565V437a10.862,10.862,0,0,0,1.608.6,4.753,4.753,0,0,0,1.2.173,1.714,1.714,0,0,0,1.005-.25.858.858,0,0,0,.35-.745.823.823,0,0,0-.155-.491,1.719,1.719,0,0,0-.452-.414,11.857,11.857,0,0,0-1.217-.636,5.777,5.777,0,0,1-1.291-.777,2.906,2.906,0,0,1-.687-.867,2.468,2.468,0,0,1-.257-1.156,2.426,2.426,0,0,1,.844-1.958,3.508,3.508,0,0,1,2.334-.713,5.523,5.523,0,0,1,1.4.173,9.555,9.555,0,0,1,1.391.488l-.642,1.547a9.424,9.424,0,0,0-1.243-.43,3.986,3.986,0,0,0-.966-.122,1.281,1.281,0,0,0-.867.263.87.87,0,0,0-.3.687.852.852,0,0,0,.122.459,1.331,1.331,0,0,0,.389.379,11.914,11.914,0,0,0,1.262.658,5.028,5.028,0,0,1,1.8,1.262,2.466,2.466,0,0,1,.488,1.551" transform="translate(-435.009 -355.629)" fill="#fff"/>
      </g>
    </g>
  </g>
</svg>
