<svg xmlns="http://www.w3.org/2000/svg" xmlns:xlink="http://www.w3.org/1999/xlink" width="476.919" height="335.462" viewBox="0 0 476.919 335.462">
  <defs>
    <clipPath id="clip-path">
      <rect id="Retângulo_1879" data-name="Retângulo 1879" width="476.919" height="335.462" fill="none"/>
    </clipPath>
  </defs>
  <g id="Grupo_3322" data-name="Grupo 3322" transform="translate(-262 -106)">
    <g id="Grupo_2985" data-name="Grupo 2985" transform="translate(262 106)">
      <g id="Grupo_2984" data-name="Grupo 2984">
        <path id="Caminho_7834" data-name="Caminho 7834" d="M323.822,166.42v54.93H509.26l28.5-27.465-28.5-27.464Z" transform="translate(-60.839 -31.267)" fill="#992e2e"/>
        <path id="Caminho_7835" data-name="Caminho 7835" d="M371.265,193.671h-2.23V187.24h-2.017v-1.824h6.257v1.824h-2.011Z" transform="translate(-68.955 -34.836)" fill="#fff"/>
        <g id="Grupo_2983" data-name="Grupo 2983">
          <g id="Grupo_2982" data-name="Grupo 2982" clip-path="url(#clip-path)">
            <path id="Caminho_7836" data-name="Caminho 7836" d="M379.04,194.188a3.436,3.436,0,0,1-2.482-.849,3.2,3.2,0,0,1-.884-2.42,3.485,3.485,0,0,1,.819-2.487,3.059,3.059,0,0,1,2.337-.867,3.1,3.1,0,0,1,2.233.754,2.866,2.866,0,0,1,.788,2.172v.983h-3.946a1.091,1.091,0,0,0,.391.841,1.541,1.541,0,0,0,1.008.3,4.836,4.836,0,0,0,1.07-.11,5.244,5.244,0,0,0,1.058-.375v1.587a3.863,3.863,0,0,1-1.072.367,7.39,7.39,0,0,1-1.321.1m-.13-5.121a.916.916,0,0,0-.652.246,1.144,1.144,0,0,0-.308.77h1.9a1.1,1.1,0,0,0-.262-.739.865.865,0,0,0-.675-.277" transform="translate(-70.581 -35.239)" fill="#fff"/>
            <path id="Caminho_7837" data-name="Caminho 7837" d="M387.668,194.187a3.144,3.144,0,0,1-2.38-.847,3.382,3.382,0,0,1-.811-2.433,3.048,3.048,0,0,1,3.366-3.343,4.671,4.671,0,0,1,2.094.485l-.65,1.632a7.339,7.339,0,0,0-.739-.28,2.4,2.4,0,0,0-.706-.1.955.955,0,0,0-.831.418,2.032,2.032,0,0,0-.293,1.18q0,1.536,1.135,1.536a3.436,3.436,0,0,0,1.863-.564v1.756a3.621,3.621,0,0,1-2.049.564" transform="translate(-72.235 -35.239)" fill="#fff"/>
            <path id="Caminho_7838" data-name="Caminho 7838" d="M396.532,194.075v-3.49a1.987,1.987,0,0,0-.184-.962.625.625,0,0,0-.59-.325.854.854,0,0,0-.807.446,3.379,3.379,0,0,0-.249,1.531v2.8h-2.208v-6.4h1.666l.277.791h.13a1.748,1.748,0,0,1,.782-.677,2.756,2.756,0,0,1,1.149-.227,2.182,2.182,0,0,1,1.652.616,2.406,2.406,0,0,1,.59,1.734v4.161Z" transform="translate(-73.741 -35.239)" fill="#fff"/>
            <path id="Caminho_7839" data-name="Caminho 7839" d="M408.079,190.862a3.384,3.384,0,0,1-.845,2.448,3.124,3.124,0,0,1-2.362.878,3.058,3.058,0,0,1-2.318-.9,3.885,3.885,0,0,1-.017-4.858,3.152,3.152,0,0,1,2.368-.867,3.372,3.372,0,0,1,1.666.4,2.731,2.731,0,0,1,1.115,1.148,3.713,3.713,0,0,1,.393,1.748m-4.145,0a2.839,2.839,0,0,0,.22,1.256.766.766,0,0,0,.74.432.744.744,0,0,0,.725-.432,2.939,2.939,0,0,0,.212-1.256,2.777,2.777,0,0,0-.215-1.236.849.849,0,0,0-1.462,0,2.722,2.722,0,0,0-.22,1.239" transform="translate(-75.469 -35.239)" fill="#fff"/>
            <rect id="Retângulo_1874" data-name="Retângulo 1874" width="2.208" height="8.786" transform="translate(333.868 150.05)" fill="#fff"/>
            <path id="Caminho_7840" data-name="Caminho 7840" d="M421.755,190.862a3.384,3.384,0,0,1-.845,2.448,3.125,3.125,0,0,1-2.362.878,3.058,3.058,0,0,1-2.318-.9,3.885,3.885,0,0,1-.017-4.858,3.153,3.153,0,0,1,2.368-.867,3.372,3.372,0,0,1,1.666.4,2.731,2.731,0,0,1,1.115,1.148,3.713,3.713,0,0,1,.393,1.748m-4.145,0a2.839,2.839,0,0,0,.22,1.256.766.766,0,0,0,.74.432.744.744,0,0,0,.725-.432,2.94,2.94,0,0,0,.212-1.256,2.776,2.776,0,0,0-.215-1.236.849.849,0,0,0-1.462,0,2.722,2.722,0,0,0-.22,1.239" transform="translate(-78.038 -35.239)" fill="#fff"/>
            <path id="Caminho_7841" data-name="Caminho 7841" d="M430.668,187.677v1.067l-.875.322a1.563,1.563,0,0,1,.18.762,1.922,1.922,0,0,1-.726,1.6,3.461,3.461,0,0,1-2.165.57,2.734,2.734,0,0,1-.564-.045.593.593,0,0,0-.08.277q0,.164.266.252a2.3,2.3,0,0,0,.7.087h1.061q2.152,0,2.152,1.813a2.052,2.052,0,0,1-1,1.818,5.106,5.106,0,0,1-2.8.65,4.011,4.011,0,0,1-2.1-.455,1.448,1.448,0,0,1-.737-1.307q0-1.148,1.424-1.48a1.279,1.279,0,0,1-.512-.4.857.857,0,0,1-.054-1.076,2.422,2.422,0,0,1,.683-.545,1.706,1.706,0,0,1-.782-.688,2.159,2.159,0,0,1-.285-1.141,1.967,1.967,0,0,1,.712-1.621,3.16,3.16,0,0,1,2.032-.576c.117,0,.318.014.6.04s.5.051.633.073Zm-4.822,7.194a.494.494,0,0,0,.293.438,1.586,1.586,0,0,0,.785.166,3.414,3.414,0,0,0,1.284-.2q.482-.2.482-.516a.373.373,0,0,0-.293-.359,2.626,2.626,0,0,0-.841-.1h-.864a1.05,1.05,0,0,0-.6.167.485.485,0,0,0-.245.409m.694-5.1q0,.983.683.983a.561.561,0,0,0,.488-.244,1.254,1.254,0,0,0,.172-.728q0-.994-.66-.994-.683,0-.683.983" transform="translate(-79.657 -35.239)" fill="#fff"/>
            <path id="Caminho_7842" data-name="Caminho 7842" d="M433.355,185.516a.933.933,0,0,1,.277-.74,1.753,1.753,0,0,1,1.79.006.924.924,0,0,1,.283.734q0,.971-1.18.97t-1.169-.97m2.265,7.99h-2.208v-6.4h2.208Z" transform="translate(-81.418 -34.67)" fill="#fff"/>
            <path id="Caminho_7843" data-name="Caminho 7843" d="M442.136,194.074l-.424-.847h-.046a2.512,2.512,0,0,1-.91.757,3,3,0,0,1-1.2.2,1.877,1.877,0,0,1-1.423-.542,2.113,2.113,0,0,1-.52-1.524,1.734,1.734,0,0,1,.711-1.522,3.892,3.892,0,0,1,2.061-.562l1.067-.033v-.091a.693.693,0,0,0-.779-.79,4.651,4.651,0,0,0-1.779.474l-.638-1.457a6.131,6.131,0,0,1,2.823-.576,2.74,2.74,0,0,1,1.905.61,2.18,2.18,0,0,1,.675,1.7v4.2Zm-1.638-1.446a1,1,0,0,0,.686-.253.844.844,0,0,0,.284-.661v-.5l-.508.023q-1.089.039-1.089.8c0,.392.208.587.626.587" transform="translate(-82.219 -35.239)" fill="#fff"/>
            <rect id="Retângulo_1875" data-name="Retângulo 1875" width="2.208" height="8.786" transform="translate(365.953 150.05)" fill="#fff"/>
            <path id="Caminho_7844" data-name="Caminho 7844" d="M458.24,194.188a3.436,3.436,0,0,1-2.482-.849,3.2,3.2,0,0,1-.884-2.42,3.486,3.486,0,0,1,.819-2.487,3.059,3.059,0,0,1,2.337-.867,3.1,3.1,0,0,1,2.233.754,2.866,2.866,0,0,1,.788,2.172v.983h-3.946a1.09,1.09,0,0,0,.391.841,1.54,1.54,0,0,0,1.008.3,4.836,4.836,0,0,0,1.07-.11,5.246,5.246,0,0,0,1.058-.375v1.587a3.864,3.864,0,0,1-1.072.367,7.389,7.389,0,0,1-1.321.1m-.13-5.121a.916.916,0,0,0-.652.246,1.144,1.144,0,0,0-.308.77h1.9a1.1,1.1,0,0,0-.262-.739.865.865,0,0,0-.675-.277" transform="translate(-85.461 -35.239)" fill="#fff"/>
            <path id="Caminho_7845" data-name="Caminho 7845" d="M465.52,194.1l-2.44-6.4h2.3l1.084,3.784c0,.019.011.051.022.1s.024.1.034.162.022.128.031.2a1.4,1.4,0,0,1,.015.194h.04a2.276,2.276,0,0,1,.1-.638l1.135-3.8h2.3l-2.44,6.4Z" transform="translate(-87.002 -35.265)" fill="#fff"/>
            <path id="Caminho_7846" data-name="Caminho 7846" d="M475.741,194.188a3.436,3.436,0,0,1-2.482-.849,3.2,3.2,0,0,1-.884-2.42,3.486,3.486,0,0,1,.819-2.487,3.059,3.059,0,0,1,2.337-.867,3.1,3.1,0,0,1,2.233.754,2.866,2.866,0,0,1,.788,2.172v.983h-3.946a1.091,1.091,0,0,0,.391.841,1.54,1.54,0,0,0,1.008.3,4.836,4.836,0,0,0,1.07-.11,5.246,5.246,0,0,0,1.058-.375v1.587a3.864,3.864,0,0,1-1.072.367,7.39,7.39,0,0,1-1.321.1m-.13-5.121a.916.916,0,0,0-.652.246,1.144,1.144,0,0,0-.308.77h1.9a1.1,1.1,0,0,0-.262-.739.865.865,0,0,0-.675-.277" transform="translate(-88.749 -35.239)" fill="#fff"/>
            <path id="Caminho_7847" data-name="Caminho 7847" d="M487.142,193.66a1.915,1.915,0,0,1-1.195-.389,2.473,2.473,0,0,1-.79-1.146,5.1,5.1,0,0,1-.279-1.768,4.143,4.143,0,0,1,.627-2.439,2,2,0,0,1,1.722-.881,1.967,1.967,0,0,1,.94.215,2.082,2.082,0,0,1,.737.722h.045a10.491,10.491,0,0,1-.108-1.5v-1.711h2.225v8.786H489.4l-.474-.807h-.085a1.869,1.869,0,0,1-1.7.919m.9-1.744a.826.826,0,0,0,.749-.333,2.013,2.013,0,0,0,.234-1.027v-.175a2.237,2.237,0,0,0-.243-1.205.853.853,0,0,0-.762-.358.746.746,0,0,0-.675.408,2.319,2.319,0,0,0-.24,1.166,2.161,2.161,0,0,0,.243,1.135.771.771,0,0,0,.694.389" transform="translate(-91.098 -34.713)" fill="#fff"/>
            <path id="Caminho_7848" data-name="Caminho 7848" d="M500.422,190.862a3.385,3.385,0,0,1-.845,2.448,3.125,3.125,0,0,1-2.362.878,3.059,3.059,0,0,1-2.318-.9,3.885,3.885,0,0,1-.017-4.858,3.152,3.152,0,0,1,2.368-.867,3.372,3.372,0,0,1,1.666.4,2.731,2.731,0,0,1,1.115,1.148,3.713,3.713,0,0,1,.393,1.748m-4.145,0a2.839,2.839,0,0,0,.22,1.256.766.766,0,0,0,.74.432.744.744,0,0,0,.725-.432,2.938,2.938,0,0,0,.212-1.256,2.776,2.776,0,0,0-.215-1.236.849.849,0,0,0-1.462,0,2.722,2.722,0,0,0-.22,1.239" transform="translate(-92.818 -35.239)" fill="#fff"/>
            <path id="Caminho_7849" data-name="Caminho 7849" d="M370.452,211.274a3.144,3.144,0,0,1-2.38-.847,3.382,3.382,0,0,1-.81-2.433,3.048,3.048,0,0,1,3.366-3.343,4.671,4.671,0,0,1,2.094.485l-.65,1.632a7.339,7.339,0,0,0-.739-.28,2.4,2.4,0,0,0-.706-.1.955.955,0,0,0-.831.418,2.032,2.032,0,0,0-.293,1.18q0,1.536,1.135,1.536a3.436,3.436,0,0,0,1.863-.564v1.756a3.622,3.622,0,0,1-2.049.564" transform="translate(-69 -38.449)" fill="#fff"/>
            <path id="Caminho_7850" data-name="Caminho 7850" d="M379.833,211.188l-.277-.8h-.13a1.8,1.8,0,0,1-.771.675,2.686,2.686,0,0,1-1.16.234,2.168,2.168,0,0,1-1.643-.612,2.4,2.4,0,0,1-.587-1.731V204.79h2.208v3.5a2.015,2.015,0,0,0,.177.949.617.617,0,0,0,.585.321.848.848,0,0,0,.813-.449,3.416,3.416,0,0,0,.243-1.515v-2.8H381.5v6.4Z" transform="translate(-70.504 -38.476)" fill="#fff"/>
            <path id="Caminho_7851" data-name="Caminho 7851" d="M384.762,202.6a.93.93,0,0,1,.277-.74,1.756,1.756,0,0,1,1.79,0,.929.929,0,0,1,.282.735q0,.971-1.18.97t-1.169-.97m2.264,7.99h-2.208v-6.4h2.208Z" transform="translate(-72.288 -37.88)" fill="#fff"/>
            <path id="Caminho_7852" data-name="Caminho 7852" d="M391.372,210.747a1.914,1.914,0,0,1-1.195-.389,2.473,2.473,0,0,1-.79-1.146,5.1,5.1,0,0,1-.279-1.768,4.143,4.143,0,0,1,.627-2.439,2,2,0,0,1,1.722-.881,1.967,1.967,0,0,1,.94.215,2.082,2.082,0,0,1,.737.722h.045a10.491,10.491,0,0,1-.108-1.5v-1.711H395.3v8.786h-1.666l-.474-.807h-.085a1.869,1.869,0,0,1-1.7.919m.9-1.744a.826.826,0,0,0,.749-.333,2.012,2.012,0,0,0,.234-1.027v-.175a2.237,2.237,0,0,0-.243-1.205.853.853,0,0,0-.762-.358.746.746,0,0,0-.675.409,2.32,2.32,0,0,0-.24,1.166,2.161,2.161,0,0,0,.243,1.135.771.771,0,0,0,.694.389" transform="translate(-73.105 -37.923)" fill="#fff"/>
            <path id="Caminho_7853" data-name="Caminho 7853" d="M402.7,211.161l-.424-.847h-.045a2.514,2.514,0,0,1-.91.757,2.993,2.993,0,0,1-1.2.2,1.876,1.876,0,0,1-1.422-.542,2.113,2.113,0,0,1-.521-1.524,1.734,1.734,0,0,1,.711-1.522,3.892,3.892,0,0,1,2.061-.562l1.067-.033V207a.693.693,0,0,0-.778-.79,4.654,4.654,0,0,0-1.78.474l-.638-1.457a6.135,6.135,0,0,1,2.824-.576,2.739,2.739,0,0,1,1.9.61,2.181,2.181,0,0,1,.676,1.7v4.2Zm-1.638-1.446a1,1,0,0,0,.685-.253.844.844,0,0,0,.284-.661v-.5l-.508.023q-1.088.039-1.089.8c0,.392.208.587.627.587" transform="translate(-74.809 -38.449)" fill="#fff"/>
            <path id="Caminho_7854" data-name="Caminho 7854" d="M409.4,210.747a1.914,1.914,0,0,1-1.195-.389,2.472,2.472,0,0,1-.79-1.146,5.1,5.1,0,0,1-.279-1.768,4.143,4.143,0,0,1,.627-2.439,2,2,0,0,1,1.722-.881,1.967,1.967,0,0,1,.94.215,2.083,2.083,0,0,1,.737.722h.045a10.5,10.5,0,0,1-.108-1.5v-1.711h2.225v8.786H411.66l-.474-.807H411.1a1.869,1.869,0,0,1-1.7.919m.9-1.744a.826.826,0,0,0,.749-.333,2.013,2.013,0,0,0,.234-1.027v-.175a2.237,2.237,0,0,0-.243-1.205.853.853,0,0,0-.762-.358.746.746,0,0,0-.675.409,2.32,2.32,0,0,0-.24,1.166,2.161,2.161,0,0,0,.243,1.135.771.771,0,0,0,.694.389" transform="translate(-76.492 -37.923)" fill="#fff"/>
            <path id="Caminho_7855" data-name="Caminho 7855" d="M422.681,207.949a3.385,3.385,0,0,1-.845,2.448,3.125,3.125,0,0,1-2.362.878,3.058,3.058,0,0,1-2.318-.9,3.885,3.885,0,0,1-.017-4.858,3.152,3.152,0,0,1,2.368-.867,3.372,3.372,0,0,1,1.666.4,2.731,2.731,0,0,1,1.115,1.148,3.713,3.713,0,0,1,.393,1.748m-4.145,0a2.839,2.839,0,0,0,.22,1.256.766.766,0,0,0,.74.432.744.744,0,0,0,.725-.432,2.939,2.939,0,0,0,.212-1.256,2.776,2.776,0,0,0-.215-1.236.849.849,0,0,0-1.462,0,2.722,2.722,0,0,0-.22,1.239" transform="translate(-78.212 -38.449)" fill="#fff"/>
            <path id="Caminho_7856" data-name="Caminho 7856" d="M425.367,211.262a1.034,1.034,0,0,1,.308-.8,1.279,1.279,0,0,1,.895-.283,1.2,1.2,0,0,1,.858.283,1.047,1.047,0,0,1,.3.8,1.027,1.027,0,0,1-.308.793,1.2,1.2,0,0,1-.849.285,1.291,1.291,0,0,1-.881-.283,1,1,0,0,1-.322-.8" transform="translate(-79.917 -39.488)" fill="#fff"/>
            <path id="Caminho_7857" data-name="Caminho 7857" d="M337.3,335.462H288.983V0H330.3a7.005,7.005,0,0,1,7,7Z" transform="translate(-54.294)" fill="#8c7854"/>
            <path id="Caminho_7858" data-name="Caminho 7858" d="M264.954,335.462h19.514V0h-12.51a7.005,7.005,0,0,0-7,7Z" transform="translate(-49.779)" fill="#56452a"/>
            <path id="Caminho_7859" data-name="Caminho 7859" d="M28.5,130.741H223.848V75.812H28.5L0,103.276Z" transform="translate(0 -14.243)" fill="#143c60"/>
            <path id="Caminho_7860" data-name="Caminho 7860" d="M41.211,130.741H226.649V75.812H41.211l-28.5,27.464Z" transform="translate(-2.389 -14.243)" fill="#2672c4"/>
            <path id="Caminho_7861" data-name="Caminho 7861" d="M57.076,103.062l-1.688-5.946h-.05q.118,1.519.119,2.36v3.586H53.479V94.807H56.45l1.722,5.861h.045L59.9,94.807H62.88v8.255H60.831v-3.62c0-.188,0-.4.008-.627s.031-.792.076-1.688h-.05L59.2,103.062Z" transform="translate(-10.048 -17.812)" fill="#fff"/>
            <path id="Caminho_7862" data-name="Caminho 7862" d="M70.11,103.579a3.434,3.434,0,0,1-2.482-.849,3.2,3.2,0,0,1-.884-2.42,3.484,3.484,0,0,1,.819-2.487,3.06,3.06,0,0,1,2.337-.867,3.1,3.1,0,0,1,2.233.754,2.861,2.861,0,0,1,.788,2.171v.983H68.975a1.1,1.1,0,0,0,.393.841,1.537,1.537,0,0,0,1.007.3,4.888,4.888,0,0,0,1.07-.11,5.327,5.327,0,0,0,1.059-.376v1.587a3.887,3.887,0,0,1-1.073.367,7.46,7.46,0,0,1-1.321.1m-.13-5.121a.92.92,0,0,0-.652.245,1.152,1.152,0,0,0-.308.771h1.9a1.1,1.1,0,0,0-.262-.74.866.866,0,0,0-.675-.276" transform="translate(-12.54 -18.216)" fill="#fff"/>
            <path id="Caminho_7863" data-name="Caminho 7863" d="M78.738,103.579a3.144,3.144,0,0,1-2.38-.847,3.384,3.384,0,0,1-.81-2.434,3.047,3.047,0,0,1,3.365-3.343,4.664,4.664,0,0,1,2.1.486l-.649,1.632a7.093,7.093,0,0,0-.741-.28,2.367,2.367,0,0,0-.706-.1.956.956,0,0,0-.83.417,2.034,2.034,0,0,0-.293,1.18q0,1.536,1.135,1.536a3.431,3.431,0,0,0,1.864-.564v1.757a3.633,3.633,0,0,1-2.05.564" transform="translate(-14.194 -18.216)" fill="#fff"/>
            <path id="Caminho_7864" data-name="Caminho 7864" d="M87.656,103.466l-.423-.847h-.045a2.519,2.519,0,0,1-.908.756,3.011,3.011,0,0,1-1.2.2,1.877,1.877,0,0,1-1.423-.543,2.115,2.115,0,0,1-.52-1.524,1.735,1.735,0,0,1,.711-1.522,3.885,3.885,0,0,1,2.061-.561l1.068-.034V99.3a.7.7,0,0,0-.78-.791,4.666,4.666,0,0,0-1.779.474l-.638-1.457a6.145,6.145,0,0,1,2.824-.576,2.743,2.743,0,0,1,1.9.61,2.179,2.179,0,0,1,.675,1.705v4.2ZM86.02,102.02a1,1,0,0,0,.685-.254.844.844,0,0,0,.286-.66v-.5l-.508.023q-1.091.039-1.091.8,0,.587.628.587" transform="translate(-15.62 -18.216)" fill="#fff"/>
            <path id="Caminho_7865" data-name="Caminho 7865" d="M96.472,103.466v-3.49a2,2,0,0,0-.184-.962.626.626,0,0,0-.59-.325.855.855,0,0,0-.808.446,3.393,3.393,0,0,0-.248,1.53v2.8H92.435v-6.4H94.1l.277.79h.13a1.741,1.741,0,0,1,.781-.677,2.759,2.759,0,0,1,1.149-.227,2.18,2.18,0,0,1,1.652.616,2.4,2.4,0,0,1,.59,1.734v4.161Z" transform="translate(-17.366 -18.216)" fill="#fff"/>
            <path id="Caminho_7866" data-name="Caminho 7866" d="M101.918,94.906a.932.932,0,0,1,.277-.739,1.753,1.753,0,0,1,1.79.006.925.925,0,0,1,.283.733q0,.972-1.18.971t-1.169-.971m2.265,7.99h-2.207V96.5h2.207Z" transform="translate(-19.148 -17.646)" fill="#fff"/>
            <path id="Caminho_7867" data-name="Caminho 7867" d="M111.524,101.5a1.82,1.82,0,0,1-.7,1.553,3.305,3.305,0,0,1-2.01.525,8.8,8.8,0,0,1-1.237-.076,5.327,5.327,0,0,1-1.073-.279v-1.768a6.568,6.568,0,0,0,1.126.373,4.726,4.726,0,0,0,1.092.147q.718,0,.717-.327a.369.369,0,0,0-.2-.3,9.18,9.18,0,0,0-1.165-.517,2.9,2.9,0,0,1-1.231-.821,1.873,1.873,0,0,1-.35-1.166,1.614,1.614,0,0,1,.689-1.389,3.29,3.29,0,0,1,1.948-.5,4.9,4.9,0,0,1,1.189.138,7.2,7.2,0,0,1,1.155.4l-.6,1.423a6.638,6.638,0,0,0-.932-.335,3.086,3.086,0,0,0-.8-.139q-.542,0-.542.266a.33.33,0,0,0,.189.279,10.212,10.212,0,0,0,1.093.472,4.214,4.214,0,0,1,1,.542,1.628,1.628,0,0,1,.486.625,2.2,2.2,0,0,1,.155.872" transform="translate(-20.008 -18.216)" fill="#fff"/>
            <path id="Caminho_7868" data-name="Caminho 7868" d="M122.051,103.466V99.987a2.085,2.085,0,0,0-.178-.974.6.6,0,0,0-.562-.325.791.791,0,0,0-.746.434,2.975,2.975,0,0,0-.237,1.361v2.981h-2.213V99.987a2.175,2.175,0,0,0-.17-.974.572.572,0,0,0-.547-.325.794.794,0,0,0-.757.463,3.544,3.544,0,0,0-.237,1.513v2.8H114.2v-6.4h1.666l.277.79h.129a1.647,1.647,0,0,1,.737-.672,2.509,2.509,0,0,1,1.1-.232,2.157,2.157,0,0,1,1.943.842h.175a1.8,1.8,0,0,1,.754-.619,2.506,2.506,0,0,1,1.064-.223,2.188,2.188,0,0,1,1.677.582,2.513,2.513,0,0,1,.543,1.767v4.161Z" transform="translate(-21.455 -18.216)" fill="#fff"/>
            <path id="Caminho_7869" data-name="Caminho 7869" d="M134.482,100.253a3.386,3.386,0,0,1-.844,2.448,3.123,3.123,0,0,1-2.363.878,3.061,3.061,0,0,1-2.318-.9,3.889,3.889,0,0,1-.017-4.859,3.153,3.153,0,0,1,2.369-.867,3.379,3.379,0,0,1,1.666.4,2.738,2.738,0,0,1,1.115,1.149,3.713,3.713,0,0,1,.392,1.748m-4.144,0a2.839,2.839,0,0,0,.22,1.256.766.766,0,0,0,.74.432.744.744,0,0,0,.725-.432,2.939,2.939,0,0,0,.212-1.256,2.8,2.8,0,0,0-.214-1.237.851.851,0,0,0-1.463,0,2.722,2.722,0,0,0-.22,1.239" transform="translate(-24.066 -18.216)" fill="#fff"/>
            <path id="Caminho_7870" data-name="Caminho 7870" d="M143.132,103.052a1.914,1.914,0,0,1-1.195-.39,2.474,2.474,0,0,1-.791-1.146,5.1,5.1,0,0,1-.279-1.767,4.146,4.146,0,0,1,.626-2.44,2,2,0,0,1,1.722-.88,1.973,1.973,0,0,1,.94.214,2.072,2.072,0,0,1,.737.723h.045a10.621,10.621,0,0,1-.107-1.5v-1.71h2.225v8.786H145.39l-.474-.807h-.084a1.87,1.87,0,0,1-1.7.92m.9-1.744a.825.825,0,0,0,.748-.333,2,2,0,0,0,.235-1.028v-.175a2.237,2.237,0,0,0-.243-1.205.856.856,0,0,0-.763-.359.746.746,0,0,0-.675.409,2.326,2.326,0,0,0-.24,1.166,2.16,2.16,0,0,0,.243,1.135.772.772,0,0,0,.694.39" transform="translate(-26.466 -17.689)" fill="#fff"/>
            <path id="Caminho_7871" data-name="Caminho 7871" d="M153.389,103.579a3.434,3.434,0,0,1-2.482-.849,3.2,3.2,0,0,1-.884-2.42,3.484,3.484,0,0,1,.819-2.487,3.06,3.06,0,0,1,2.337-.867,3.1,3.1,0,0,1,2.233.754,2.861,2.861,0,0,1,.788,2.171v.983h-3.947a1.1,1.1,0,0,0,.393.841,1.536,1.536,0,0,0,1.007.3,4.887,4.887,0,0,0,1.07-.11,5.327,5.327,0,0,0,1.059-.376v1.587a3.887,3.887,0,0,1-1.073.367,7.46,7.46,0,0,1-1.321.1m-.13-5.121a.92.92,0,0,0-.652.245,1.152,1.152,0,0,0-.308.771h1.9a1.1,1.1,0,0,0-.262-.74.866.866,0,0,0-.675-.276" transform="translate(-28.186 -18.216)" fill="#fff"/>
            <path id="Caminho_7872" data-name="Caminho 7872" d="M166.959,103.466l-.423-.847h-.045a2.514,2.514,0,0,1-.909.756,3,3,0,0,1-1.2.2,1.877,1.877,0,0,1-1.423-.543,2.111,2.111,0,0,1-.52-1.524,1.735,1.735,0,0,1,.711-1.522,3.885,3.885,0,0,1,2.061-.561l1.067-.034V99.3a.694.694,0,0,0-.78-.791,4.663,4.663,0,0,0-1.779.474l-.638-1.457a6.144,6.144,0,0,1,2.823-.576,2.744,2.744,0,0,1,1.905.61,2.179,2.179,0,0,1,.675,1.705v4.2Zm-1.637-1.446a1,1,0,0,0,.686-.254.843.843,0,0,0,.285-.66v-.5l-.508.023q-1.09.039-1.09.8,0,.587.627.587" transform="translate(-30.519 -18.216)" fill="#fff"/>
            <path id="Caminho_7873" data-name="Caminho 7873" d="M179.592,103.466V99.987a2.085,2.085,0,0,0-.178-.974.6.6,0,0,0-.562-.325.791.791,0,0,0-.746.434,2.974,2.974,0,0,0-.237,1.361v2.981h-2.213V99.987a2.175,2.175,0,0,0-.17-.974.572.572,0,0,0-.547-.325.794.794,0,0,0-.757.463,3.544,3.544,0,0,0-.237,1.513v2.8h-2.207v-6.4H173.4l.277.79h.129a1.647,1.647,0,0,1,.737-.672,2.509,2.509,0,0,1,1.1-.232,2.157,2.157,0,0,1,1.943.842h.175a1.8,1.8,0,0,1,.754-.619,2.506,2.506,0,0,1,1.064-.223,2.188,2.188,0,0,1,1.677.582A2.513,2.513,0,0,1,181.8,99.3v4.161Z" transform="translate(-32.266 -18.216)" fill="#fff"/>
            <path id="Caminho_7874" data-name="Caminho 7874" d="M189.817,103.579a1.992,1.992,0,0,1-1.632-.74h-.1a8.22,8.22,0,0,1,.1.836v2.569h-2.207V97.069h1.8l.31.813h.1a1.935,1.935,0,0,1,1.7-.926,1.912,1.912,0,0,1,1.666.88,4.221,4.221,0,0,1,.6,2.417,4.15,4.15,0,0,1-.629,2.436,1.986,1.986,0,0,1-1.708.889m-.74-4.89a.714.714,0,0,0-.681.348,2.275,2.275,0,0,0-.212,1.031v.175a2.425,2.425,0,0,0,.22,1.191.751.751,0,0,0,.7.367.647.647,0,0,0,.616-.364,2.769,2.769,0,0,0,.192-1.206,2.673,2.673,0,0,0-.192-1.182.667.667,0,0,0-.638-.359" transform="translate(-34.941 -18.216)" fill="#fff"/>
            <rect id="Retângulo_1876" data-name="Retângulo 1876" width="2.208" height="8.786" transform="translate(158.472 76.465)" fill="#fff"/>
            <path id="Caminho_7875" data-name="Caminho 7875" d="M199.68,94.906a.932.932,0,0,1,.277-.739,1.753,1.753,0,0,1,1.79.006.925.925,0,0,1,.283.733q0,.972-1.18.971t-1.169-.971m2.264,7.99h-2.207V96.5h2.207Z" transform="translate(-37.515 -17.646)" fill="#fff"/>
            <path id="Caminho_7876" data-name="Caminho 7876" d="M208.459,103.466l-.423-.847h-.045a2.514,2.514,0,0,1-.909.756,3,3,0,0,1-1.2.2,1.877,1.877,0,0,1-1.423-.543,2.111,2.111,0,0,1-.52-1.524,1.735,1.735,0,0,1,.711-1.522,3.885,3.885,0,0,1,2.061-.561l1.067-.034V99.3a.694.694,0,0,0-.78-.791,4.663,4.663,0,0,0-1.779.474l-.638-1.457a6.144,6.144,0,0,1,2.823-.576,2.744,2.744,0,0,1,1.905.61,2.179,2.179,0,0,1,.675,1.705v4.2Zm-1.637-1.446a1,1,0,0,0,.686-.254.843.843,0,0,0,.285-.66v-.5l-.508.023q-1.09.039-1.09.8,0,.587.627.587" transform="translate(-38.316 -18.216)" fill="#fff"/>
            <path id="Caminho_7877" data-name="Caminho 7877" d="M216.087,103.579a3.14,3.14,0,0,1-2.38-.847,3.383,3.383,0,0,1-.811-2.433,3.048,3.048,0,0,1,3.365-3.343,4.659,4.659,0,0,1,2.094.486l-.649,1.632a7.134,7.134,0,0,0-.74-.279,2.375,2.375,0,0,0-.706-.1.956.956,0,0,0-.83.417,2.035,2.035,0,0,0-.294,1.18q0,1.536,1.135,1.537a3.43,3.43,0,0,0,1.863-.565v1.757a3.631,3.631,0,0,1-2.05.564m1.113,1.31a1.244,1.244,0,0,1-.423.985,1.648,1.648,0,0,1-1.124.37,3.511,3.511,0,0,1-1.2-.164v-1.157a2.727,2.727,0,0,0,.83.152c.2,0,.294-.088.294-.265a.4.4,0,0,0-.232-.331,1.994,1.994,0,0,0-.6-.229l.406-.785h1.146l-.05.164a1.632,1.632,0,0,1,.751.522,1.266,1.266,0,0,1,.209.737" transform="translate(-39.999 -18.216)" fill="#fff"/>
            <path id="Caminho_7878" data-name="Caminho 7878" d="M225.007,102.907l-.423-.847h-.045a2.514,2.514,0,0,1-.909.756,3,3,0,0,1-1.2.2,1.877,1.877,0,0,1-1.423-.542,2.111,2.111,0,0,1-.52-1.524,1.735,1.735,0,0,1,.711-1.522,3.885,3.885,0,0,1,2.061-.561l1.067-.034v-.09a.694.694,0,0,0-.78-.791,4.663,4.663,0,0,0-1.779.474l-.637-1.457a6.144,6.144,0,0,1,2.823-.576,2.744,2.744,0,0,1,1.905.61,2.179,2.179,0,0,1,.675,1.705v4.2Zm-.192-7a1.639,1.639,0,0,1-.512-.084q-.257-.085-.505-.186t-.482-.187a1.317,1.317,0,0,0-.443-.084q-.3,0-.407.553H221.45a2.792,2.792,0,0,1,.407-1.459,1.177,1.177,0,0,1,1.016-.472,1.382,1.382,0,0,1,.457.085c.162.056.326.119.491.186s.329.13.491.186a1.381,1.381,0,0,0,.457.085.3.3,0,0,0,.26-.141,1.108,1.108,0,0,0,.147-.412H226.2a2.764,2.764,0,0,1-.417,1.437,1.135,1.135,0,0,1-.971.494m-1.446,5.551a1,1,0,0,0,.686-.254.843.843,0,0,0,.285-.66v-.5l-.508.023q-1.09.039-1.09.8,0,.587.627.587" transform="translate(-41.425 -17.657)" fill="#fff"/>
            <path id="Caminho_7879" data-name="Caminho 7879" d="M235.831,100.253a3.386,3.386,0,0,1-.844,2.448,3.123,3.123,0,0,1-2.363.878,3.061,3.061,0,0,1-2.318-.9,3.889,3.889,0,0,1-.017-4.859,3.153,3.153,0,0,1,2.369-.867,3.379,3.379,0,0,1,1.666.4,2.738,2.738,0,0,1,1.115,1.149,3.713,3.713,0,0,1,.392,1.748m-4.144,0a2.839,2.839,0,0,0,.22,1.256.766.766,0,0,0,.74.432.744.744,0,0,0,.725-.432,2.939,2.939,0,0,0,.212-1.256,2.8,2.8,0,0,0-.214-1.237.851.851,0,0,0-1.463,0,2.722,2.722,0,0,0-.22,1.239" transform="translate(-43.108 -18.216)" fill="#fff"/>
            <path id="Caminho_7880" data-name="Caminho 7880" d="M245.582,103.579a3.434,3.434,0,0,1-2.482-.849,3.2,3.2,0,0,1-.884-2.42,3.484,3.484,0,0,1,.819-2.487,3.06,3.06,0,0,1,2.337-.867,3.1,3.1,0,0,1,2.233.754,2.861,2.861,0,0,1,.788,2.171v.983h-3.947a1.1,1.1,0,0,0,.393.841,1.537,1.537,0,0,0,1.007.3,4.888,4.888,0,0,0,1.07-.11,5.327,5.327,0,0,0,1.059-.376v1.587a3.887,3.887,0,0,1-1.073.367,7.46,7.46,0,0,1-1.321.1m-.13-5.121a.92.92,0,0,0-.652.245,1.152,1.152,0,0,0-.308.771h1.9a1.1,1.1,0,0,0-.262-.74.866.866,0,0,0-.675-.276" transform="translate(-45.507 -18.216)" fill="#fff"/>
            <path id="Caminho_7881" data-name="Caminho 7881" d="M57.109,115.269H55.747v4.743H53.54v-4.743h-.847v-1.084l.893-.542v-.108a2.627,2.627,0,0,1,.516-1.818,2.178,2.178,0,0,1,1.658-.553,4.862,4.862,0,0,1,.833.068,6.61,6.61,0,0,1,.912.237L57.03,112.9a2.962,2.962,0,0,0-.8-.113.43.43,0,0,0-.37.155.858.858,0,0,0-.116.505v.17h1.361Z" transform="translate(-9.9 -20.885)" fill="#fff"/>
            <path id="Caminho_7882" data-name="Caminho 7882" d="M63.294,120.553l-.423-.847h-.045a2.514,2.514,0,0,1-.909.756,3,3,0,0,1-1.2.2,1.877,1.877,0,0,1-1.423-.543,2.111,2.111,0,0,1-.52-1.524,1.735,1.735,0,0,1,.711-1.522,3.885,3.885,0,0,1,2.061-.561l1.067-.034v-.09a.694.694,0,0,0-.78-.791,4.663,4.663,0,0,0-1.779.474l-.638-1.457a6.144,6.144,0,0,1,2.823-.576,2.744,2.744,0,0,1,1.905.61,2.179,2.179,0,0,1,.675,1.705v4.2Zm-1.637-1.446a1,1,0,0,0,.686-.254.843.843,0,0,0,.285-.66v-.5l-.508.023q-1.09.039-1.09.8,0,.587.627.587" transform="translate(-11.043 -21.426)" fill="#fff"/>
            <path id="Caminho_7883" data-name="Caminho 7883" d="M70.923,120.666a3.144,3.144,0,0,1-2.38-.847,3.384,3.384,0,0,1-.81-2.434,3.047,3.047,0,0,1,3.365-3.343,4.664,4.664,0,0,1,2.1.486l-.649,1.632a7.094,7.094,0,0,0-.741-.28,2.367,2.367,0,0,0-.706-.1.956.956,0,0,0-.83.417,2.034,2.034,0,0,0-.293,1.18q0,1.536,1.135,1.536a3.431,3.431,0,0,0,1.864-.564V120.1a3.633,3.633,0,0,1-2.05.564" transform="translate(-12.726 -21.426)" fill="#fff"/>
            <path id="Caminho_7884" data-name="Caminho 7884" d="M75.693,111.994a.933.933,0,0,1,.277-.74,1.753,1.753,0,0,1,1.79.006.925.925,0,0,1,.282.734q0,.971-1.18.971t-1.169-.971m2.264,7.99H75.75v-6.4h2.207Z" transform="translate(-14.221 -20.857)" fill="#fff"/>
            <rect id="Retângulo_1877" data-name="Retângulo 1877" width="2.208" height="8.786" transform="translate(65.278 90.341)" fill="#fff"/>
            <path id="Caminho_7885" data-name="Caminho 7885" d="M84.926,111.994a.933.933,0,0,1,.277-.74,1.753,1.753,0,0,1,1.79.006.925.925,0,0,1,.282.734q0,.971-1.18.971t-1.169-.971m2.264,7.99H84.983v-6.4H87.19Z" transform="translate(-15.956 -20.857)" fill="#fff"/>
            <path id="Caminho_7886" data-name="Caminho 7886" d="M92.639,118.651a3.279,3.279,0,0,0,1.067-.22v1.609a4.313,4.313,0,0,1-.849.274,4.76,4.76,0,0,1-.946.082,2.069,2.069,0,0,1-1.6-.544,2.444,2.444,0,0,1-.491-1.675V115.54h-.773v-.9l.983-.694.57-1.344H92.04v1.282h1.57v1.654H92.04v2.49q0,.621.6.621" transform="translate(-16.729 -21.156)" fill="#fff"/>
            <path id="Caminho_7887" data-name="Caminho 7887" d="M100.254,120.553l-.423-.847h-.045a2.514,2.514,0,0,1-.909.756,3,3,0,0,1-1.2.2,1.877,1.877,0,0,1-1.423-.543,2.111,2.111,0,0,1-.52-1.524,1.735,1.735,0,0,1,.711-1.522,3.885,3.885,0,0,1,2.061-.561l1.067-.034v-.09a.694.694,0,0,0-.78-.791,4.663,4.663,0,0,0-1.779.474l-.638-1.457a6.144,6.144,0,0,1,2.823-.576,2.744,2.744,0,0,1,1.905.61,2.179,2.179,0,0,1,.675,1.705v4.2Zm-1.637-1.446a1,1,0,0,0,.686-.254.843.843,0,0,0,.285-.66v-.5l-.508.023q-1.09.039-1.09.8,0,.587.627.587" transform="translate(-17.987 -21.426)" fill="#fff"/>
            <path id="Caminho_7888" data-name="Caminho 7888" d="M107.882,120.666a3.14,3.14,0,0,1-2.38-.847,3.383,3.383,0,0,1-.811-2.433,3.048,3.048,0,0,1,3.365-3.344,4.659,4.659,0,0,1,2.094.486l-.649,1.632a7.135,7.135,0,0,0-.74-.279,2.375,2.375,0,0,0-.706-.1.956.956,0,0,0-.83.417,2.035,2.035,0,0,0-.294,1.18q0,1.536,1.135,1.537a3.43,3.43,0,0,0,1.863-.565V120.1a3.631,3.631,0,0,1-2.05.564m1.113,1.31a1.244,1.244,0,0,1-.423.985,1.648,1.648,0,0,1-1.124.37,3.511,3.511,0,0,1-1.2-.164V122.01a2.727,2.727,0,0,0,.83.152c.2,0,.294-.088.294-.265a.4.4,0,0,0-.232-.331,1.994,1.994,0,0,0-.6-.229l.406-.785h1.146l-.05.164a1.632,1.632,0,0,1,.751.522,1.266,1.266,0,0,1,.209.737" transform="translate(-19.669 -21.426)" fill="#fff"/>
            <path id="Caminho_7889" data-name="Caminho 7889" d="M116.8,119.994l-.423-.847h-.045a2.514,2.514,0,0,1-.909.756,3,3,0,0,1-1.2.2,1.877,1.877,0,0,1-1.423-.543,2.111,2.111,0,0,1-.52-1.524,1.735,1.735,0,0,1,.711-1.522,3.885,3.885,0,0,1,2.061-.561l1.067-.034v-.09a.694.694,0,0,0-.78-.791,4.663,4.663,0,0,0-1.779.474l-.638-1.457a6.144,6.144,0,0,1,2.823-.576,2.744,2.744,0,0,1,1.905.61,2.179,2.179,0,0,1,.675,1.705v4.2Zm-.192-7a1.639,1.639,0,0,1-.512-.084q-.257-.085-.505-.186t-.482-.187a1.317,1.317,0,0,0-.443-.084q-.3,0-.407.553h-1.016a2.792,2.792,0,0,1,.407-1.459,1.177,1.177,0,0,1,1.016-.472,1.382,1.382,0,0,1,.457.085c.162.056.326.119.491.186s.329.13.491.186a1.381,1.381,0,0,0,.457.085.3.3,0,0,0,.26-.141,1.108,1.108,0,0,0,.147-.412H118a2.764,2.764,0,0,1-.417,1.437,1.135,1.135,0,0,1-.971.494m-1.446,5.551a1,1,0,0,0,.686-.254.843.843,0,0,0,.285-.66v-.5l-.508.023q-1.09.039-1.09.8,0,.587.627.587" transform="translate(-21.096 -20.867)" fill="#fff"/>
            <path id="Caminho_7890" data-name="Caminho 7890" d="M127.626,117.34a3.386,3.386,0,0,1-.844,2.448,3.123,3.123,0,0,1-2.363.878,3.061,3.061,0,0,1-2.318-.9,3.889,3.889,0,0,1-.017-4.859,3.153,3.153,0,0,1,2.369-.867,3.379,3.379,0,0,1,1.666.4,2.738,2.738,0,0,1,1.115,1.149,3.713,3.713,0,0,1,.392,1.748m-4.144,0a2.839,2.839,0,0,0,.22,1.256.766.766,0,0,0,.74.432.744.744,0,0,0,.725-.432,2.939,2.939,0,0,0,.212-1.256,2.8,2.8,0,0,0-.214-1.237.851.851,0,0,0-1.463,0,2.722,2.722,0,0,0-.22,1.239" transform="translate(-22.778 -21.426)" fill="#fff"/>
            <path id="Caminho_7891" data-name="Caminho 7891" d="M136.276,120.139a1.914,1.914,0,0,1-1.195-.39,2.474,2.474,0,0,1-.791-1.146,5.1,5.1,0,0,1-.279-1.767,4.146,4.146,0,0,1,.626-2.44,2,2,0,0,1,1.723-.88,1.973,1.973,0,0,1,.94.214,2.072,2.072,0,0,1,.737.723h.045a10.624,10.624,0,0,1-.107-1.5v-1.71H140.2v8.786h-1.666l-.474-.807h-.084a1.87,1.87,0,0,1-1.7.92m.9-1.744a.825.825,0,0,0,.748-.333,2,2,0,0,0,.235-1.028v-.175a2.237,2.237,0,0,0-.243-1.205.856.856,0,0,0-.763-.359.746.746,0,0,0-.675.409,2.326,2.326,0,0,0-.24,1.166,2.16,2.16,0,0,0,.243,1.135.772.772,0,0,0,.694.39" transform="translate(-25.178 -20.9)" fill="#fff"/>
            <path id="Caminho_7892" data-name="Caminho 7892" d="M149.555,117.34a3.386,3.386,0,0,1-.844,2.448,3.123,3.123,0,0,1-2.363.878,3.061,3.061,0,0,1-2.318-.9,3.889,3.889,0,0,1-.017-4.859,3.153,3.153,0,0,1,2.369-.867,3.379,3.379,0,0,1,1.666.4,2.738,2.738,0,0,1,1.115,1.149,3.713,3.713,0,0,1,.392,1.748m-4.144,0a2.839,2.839,0,0,0,.22,1.256.766.766,0,0,0,.74.432.744.744,0,0,0,.725-.432,2.939,2.939,0,0,0,.212-1.256,2.8,2.8,0,0,0-.214-1.237.851.851,0,0,0-1.463,0,2.722,2.722,0,0,0-.22,1.239" transform="translate(-26.898 -21.426)" fill="#fff"/>
            <path id="Caminho_7893" data-name="Caminho 7893" d="M160.374,120.553l-.423-.847h-.045a2.514,2.514,0,0,1-.909.756,3,3,0,0,1-1.2.2,1.877,1.877,0,0,1-1.423-.543,2.111,2.111,0,0,1-.52-1.524,1.735,1.735,0,0,1,.711-1.522,3.885,3.885,0,0,1,2.061-.561l1.067-.034v-.09a.694.694,0,0,0-.78-.791,4.663,4.663,0,0,0-1.779.474l-.637-1.457a6.144,6.144,0,0,1,2.823-.576,2.744,2.744,0,0,1,1.905.61,2.179,2.179,0,0,1,.675,1.705v4.2Zm-1.637-1.446a1,1,0,0,0,.686-.254.843.843,0,0,0,.285-.66v-.5l-.508.023q-1.09.039-1.09.8,0,.587.627.587" transform="translate(-29.282 -21.426)" fill="#fff"/>
            <path id="Caminho_7894" data-name="Caminho 7894" d="M168,120.666a3.144,3.144,0,0,1-2.38-.847,3.384,3.384,0,0,1-.81-2.434,3.047,3.047,0,0,1,3.365-3.343,4.664,4.664,0,0,1,2.1.486l-.649,1.632a7.094,7.094,0,0,0-.741-.28,2.367,2.367,0,0,0-.706-.1.956.956,0,0,0-.83.417,2.034,2.034,0,0,0-.293,1.18q0,1.536,1.135,1.536a3.431,3.431,0,0,0,1.864-.564V120.1a3.632,3.632,0,0,1-2.05.564" transform="translate(-30.965 -21.426)" fill="#fff"/>
            <path id="Caminho_7895" data-name="Caminho 7895" d="M175.853,120.666a3.434,3.434,0,0,1-2.482-.849,3.2,3.2,0,0,1-.884-2.42,3.484,3.484,0,0,1,.819-2.487,3.06,3.06,0,0,1,2.337-.867,3.1,3.1,0,0,1,2.233.754,2.861,2.861,0,0,1,.788,2.171v.983h-3.947a1.1,1.1,0,0,0,.393.841,1.537,1.537,0,0,0,1.007.3,4.888,4.888,0,0,0,1.07-.11,5.326,5.326,0,0,0,1.059-.376V120.2a3.887,3.887,0,0,1-1.073.367,7.46,7.46,0,0,1-1.321.1m-.13-5.121a.92.92,0,0,0-.652.245,1.152,1.152,0,0,0-.308.771h1.9a1.1,1.1,0,0,0-.262-.74.866.866,0,0,0-.675-.276" transform="translate(-32.407 -21.426)" fill="#fff"/>
            <path id="Caminho_7896" data-name="Caminho 7896" d="M186.55,118.588a1.82,1.82,0,0,1-.7,1.553,3.305,3.305,0,0,1-2.01.525,8.8,8.8,0,0,1-1.237-.076,5.328,5.328,0,0,1-1.073-.279v-1.768a6.567,6.567,0,0,0,1.126.373,4.725,4.725,0,0,0,1.092.147q.717,0,.717-.327a.369.369,0,0,0-.2-.3,9.177,9.177,0,0,0-1.165-.517,2.9,2.9,0,0,1-1.231-.821,1.873,1.873,0,0,1-.35-1.166,1.614,1.614,0,0,1,.689-1.389,3.29,3.29,0,0,1,1.948-.5,4.9,4.9,0,0,1,1.189.138,7.2,7.2,0,0,1,1.155.4l-.6,1.423a6.64,6.64,0,0,0-.932-.335,3.085,3.085,0,0,0-.8-.139q-.542,0-.542.266a.33.33,0,0,0,.189.279,10.219,10.219,0,0,0,1.093.472,4.213,4.213,0,0,1,1,.542,1.628,1.628,0,0,1,.486.625,2.2,2.2,0,0,1,.155.872" transform="translate(-34.103 -21.426)" fill="#fff"/>
            <path id="Caminho_7897" data-name="Caminho 7897" d="M194.143,118.588a1.82,1.82,0,0,1-.7,1.553,3.305,3.305,0,0,1-2.01.525,8.805,8.805,0,0,1-1.237-.076,5.328,5.328,0,0,1-1.073-.279v-1.768a6.567,6.567,0,0,0,1.126.373,4.725,4.725,0,0,0,1.092.147q.718,0,.717-.327a.369.369,0,0,0-.2-.3,9.18,9.18,0,0,0-1.165-.517,2.9,2.9,0,0,1-1.231-.821,1.873,1.873,0,0,1-.35-1.166,1.614,1.614,0,0,1,.689-1.389,3.29,3.29,0,0,1,1.948-.5,4.9,4.9,0,0,1,1.189.138,7.2,7.2,0,0,1,1.155.4l-.6,1.423a6.639,6.639,0,0,0-.932-.335,3.086,3.086,0,0,0-.8-.139q-.542,0-.542.266a.33.33,0,0,0,.189.279,10.219,10.219,0,0,0,1.093.472,4.214,4.214,0,0,1,1,.542,1.628,1.628,0,0,1,.486.625,2.2,2.2,0,0,1,.155.872" transform="translate(-35.53 -21.426)" fill="#fff"/>
            <path id="Caminho_7898" data-name="Caminho 7898" d="M202.861,117.34a3.386,3.386,0,0,1-.844,2.448,3.123,3.123,0,0,1-2.363.878,3.061,3.061,0,0,1-2.318-.9,3.889,3.889,0,0,1-.017-4.859,3.153,3.153,0,0,1,2.369-.867,3.379,3.379,0,0,1,1.666.4,2.738,2.738,0,0,1,1.115,1.149,3.713,3.713,0,0,1,.392,1.748m-4.144,0a2.839,2.839,0,0,0,.22,1.256.766.766,0,0,0,.74.432.744.744,0,0,0,.725-.432,2.939,2.939,0,0,0,.212-1.256,2.8,2.8,0,0,0-.214-1.237.851.851,0,0,0-1.463,0,2.722,2.722,0,0,0-.22,1.239" transform="translate(-36.913 -21.426)" fill="#fff"/>
            <path id="Caminho_7899" data-name="Caminho 7899" d="M205.548,120.654a1.033,1.033,0,0,1,.308-.8,1.278,1.278,0,0,1,.895-.283,1.205,1.205,0,0,1,.858.283,1.051,1.051,0,0,1,.3.8,1.027,1.027,0,0,1-.308.793,1.2,1.2,0,0,1-.849.285,1.289,1.289,0,0,1-.881-.283,1,1,0,0,1-.322-.8" transform="translate(-38.618 -22.465)" fill="#fff"/>
            <path id="Caminho_7900" data-name="Caminho 7900" d="M28.5,311.958H223.848V257.028H28.5L0,284.493Z" transform="translate(0 -48.29)" fill="#a85407"/>
            <path id="Caminho_7901" data-name="Caminho 7901" d="M41.211,311.958H226.649V257.028H41.211l-28.5,27.465Z" transform="translate(-2.389 -48.29)" fill="#c17427"/>
            <path id="Caminho_7902" data-name="Caminho 7902" d="M53.367,279.976a4.265,4.265,0,0,1-1.138,3.184,4.369,4.369,0,0,1-3.2,1.118H46.359v-8.255h2.857a4.308,4.308,0,0,1,3.069,1.017,3.834,3.834,0,0,1,1.082,2.936m-2.315.079a2.622,2.622,0,0,0-.449-1.682,1.659,1.659,0,0,0-1.364-.548h-.65v4.624h.5a1.8,1.8,0,0,0,1.491-.59,2.854,2.854,0,0,0,.474-1.8" transform="translate(-8.71 -51.859)" fill="#fff"/>
            <path id="Caminho_7903" data-name="Caminho 7903" d="M56.594,276.123a.933.933,0,0,1,.277-.74,1.753,1.753,0,0,1,1.79.006.925.925,0,0,1,.282.734q0,.971-1.18.971t-1.169-.971m2.264,7.99H56.651v-6.4h2.207Z" transform="translate(-10.633 -51.693)" fill="#fff"/>
            <path id="Caminho_7904" data-name="Caminho 7904" d="M66.2,282.716a1.82,1.82,0,0,1-.7,1.553,3.3,3.3,0,0,1-2.01.525,8.808,8.808,0,0,1-1.237-.076,5.275,5.275,0,0,1-1.073-.279v-1.768a6.567,6.567,0,0,0,1.126.373,4.725,4.725,0,0,0,1.092.147q.718,0,.717-.327a.368.368,0,0,0-.2-.3,8.931,8.931,0,0,0-1.165-.517,2.906,2.906,0,0,1-1.231-.822,1.872,1.872,0,0,1-.35-1.165,1.612,1.612,0,0,1,.689-1.389,3.284,3.284,0,0,1,1.948-.5,4.939,4.939,0,0,1,1.189.138,7.28,7.28,0,0,1,1.155.4l-.6,1.424a6.637,6.637,0,0,0-.932-.336,3.113,3.113,0,0,0-.8-.138q-.542,0-.542.265a.333.333,0,0,0,.189.28,10.285,10.285,0,0,0,1.093.471,4.24,4.24,0,0,1,1,.542,1.631,1.631,0,0,1,.486.624,2.2,2.2,0,0,1,.155.872" transform="translate(-11.492 -52.262)" fill="#fff"/>
            <path id="Caminho_7905" data-name="Caminho 7905" d="M72.712,284.795a2,2,0,0,1-1.632-.74h-.1a8.24,8.24,0,0,1,.1.836v2.57H68.872v-9.176h1.8l.31.814h.1a1.934,1.934,0,0,1,1.7-.927,1.913,1.913,0,0,1,1.666.881,4.219,4.219,0,0,1,.6,2.417,4.154,4.154,0,0,1-.629,2.436,1.986,1.986,0,0,1-1.708.889m-.74-4.89a.714.714,0,0,0-.681.348,2.273,2.273,0,0,0-.212,1.03v.175a2.427,2.427,0,0,0,.22,1.191.75.75,0,0,0,.7.367.647.647,0,0,0,.616-.365,2.766,2.766,0,0,0,.192-1.206,2.673,2.673,0,0,0-.192-1.182.667.667,0,0,0-.638-.358" transform="translate(-12.94 -52.262)" fill="#fff"/>
            <path id="Caminho_7906" data-name="Caminho 7906" d="M84.075,281.469a3.387,3.387,0,0,1-.844,2.448,3.126,3.126,0,0,1-2.363.878,3.058,3.058,0,0,1-2.318-.9,3.888,3.888,0,0,1-.017-4.858,3.153,3.153,0,0,1,2.369-.867,3.371,3.371,0,0,1,1.666.4,2.731,2.731,0,0,1,1.115,1.148,3.713,3.713,0,0,1,.392,1.748m-4.144,0a2.839,2.839,0,0,0,.22,1.256.766.766,0,0,0,.74.432.744.744,0,0,0,.725-.432,2.939,2.939,0,0,0,.212-1.256,2.79,2.79,0,0,0-.214-1.236.85.85,0,0,0-1.463,0,2.722,2.722,0,0,0-.22,1.239" transform="translate(-14.596 -52.262)" fill="#fff"/>
            <path id="Caminho_7907" data-name="Caminho 7907" d="M92.022,282.716a1.82,1.82,0,0,1-.7,1.553,3.3,3.3,0,0,1-2.01.525,8.808,8.808,0,0,1-1.237-.076A5.275,5.275,0,0,1,87,284.439v-1.768a6.567,6.567,0,0,0,1.126.373,4.725,4.725,0,0,0,1.092.147q.717,0,.717-.327a.368.368,0,0,0-.2-.3,8.932,8.932,0,0,0-1.165-.517,2.906,2.906,0,0,1-1.231-.822,1.872,1.872,0,0,1-.35-1.165,1.612,1.612,0,0,1,.689-1.389,3.284,3.284,0,0,1,1.948-.5,4.939,4.939,0,0,1,1.189.138,7.279,7.279,0,0,1,1.155.4l-.6,1.424a6.637,6.637,0,0,0-.932-.336,3.113,3.113,0,0,0-.8-.138q-.542,0-.542.265a.333.333,0,0,0,.189.28,10.285,10.285,0,0,0,1.093.471,4.241,4.241,0,0,1,1,.542,1.632,1.632,0,0,1,.486.624,2.2,2.2,0,0,1,.155.872" transform="translate(-16.344 -52.262)" fill="#fff"/>
            <path id="Caminho_7908" data-name="Caminho 7908" d="M94.639,276.123a.933.933,0,0,1,.276-.74,1.755,1.755,0,0,1,1.791.006.925.925,0,0,1,.282.734q0,.971-1.18.971t-1.169-.971m2.264,7.99H94.7v-6.4H96.9Z" transform="translate(-17.781 -51.693)" fill="#fff"/>
            <path id="Caminho_7909" data-name="Caminho 7909" d="M102.352,282.779a3.28,3.28,0,0,0,1.067-.22v1.61a4.428,4.428,0,0,1-.849.274,4.829,4.829,0,0,1-.946.081,2.069,2.069,0,0,1-1.6-.544,2.442,2.442,0,0,1-.491-1.675v-2.637h-.773v-.9l.983-.694.57-1.344h1.446v1.281h1.57v1.654h-1.57v2.49q0,.621.6.621" transform="translate(-18.554 -51.992)" fill="#fff"/>
            <path id="Caminho_7910" data-name="Caminho 7910" d="M105.818,276.123a.933.933,0,0,1,.277-.74,1.753,1.753,0,0,1,1.79.006.925.925,0,0,1,.283.734q0,.971-1.18.971t-1.169-.971m2.264,7.99h-2.207v-6.4h2.207Z" transform="translate(-19.881 -51.693)" fill="#fff"/>
            <path id="Caminho_7911" data-name="Caminho 7911" d="M112,284.708l-2.439-6.4h2.3l1.084,3.784c0,.019.011.051.023.1s.023.1.034.162.022.127.031.2a1.4,1.4,0,0,1,.014.194h.04a2.276,2.276,0,0,1,.1-.638l1.135-3.8h2.3l-2.439,6.4Z" transform="translate(-20.585 -52.288)" fill="#fff"/>
            <path id="Caminho_7912" data-name="Caminho 7912" d="M125.248,281.469a3.387,3.387,0,0,1-.844,2.448,3.126,3.126,0,0,1-2.363.878,3.058,3.058,0,0,1-2.318-.9,3.888,3.888,0,0,1-.017-4.858,3.153,3.153,0,0,1,2.369-.867,3.371,3.371,0,0,1,1.666.4,2.731,2.731,0,0,1,1.115,1.148,3.713,3.713,0,0,1,.392,1.748m-4.144,0a2.839,2.839,0,0,0,.22,1.256.766.766,0,0,0,.74.432.744.744,0,0,0,.725-.432,2.939,2.939,0,0,0,.212-1.256,2.79,2.79,0,0,0-.214-1.236.85.85,0,0,0-1.463,0,2.722,2.722,0,0,0-.22,1.239" transform="translate(-22.332 -52.262)" fill="#fff"/>
            <path id="Caminho_7913" data-name="Caminho 7913" d="M133.9,284.267a1.913,1.913,0,0,1-1.195-.389,2.473,2.473,0,0,1-.791-1.146,5.1,5.1,0,0,1-.279-1.768,4.143,4.143,0,0,1,.626-2.439,2,2,0,0,1,1.723-.881,1.964,1.964,0,0,1,.94.215,2.076,2.076,0,0,1,.737.722h.045a10.612,10.612,0,0,1-.107-1.5v-1.711h2.225v8.786h-1.666l-.474-.807H135.6a1.871,1.871,0,0,1-1.7.919m.9-1.744a.825.825,0,0,0,.748-.333,2,2,0,0,0,.235-1.027v-.175a2.237,2.237,0,0,0-.243-1.205.855.855,0,0,0-.763-.358.747.747,0,0,0-.675.408,2.328,2.328,0,0,0-.24,1.166,2.161,2.161,0,0,0,.243,1.135.771.771,0,0,0,.694.389" transform="translate(-24.731 -51.736)" fill="#fff"/>
            <path id="Caminho_7914" data-name="Caminho 7914" d="M144.155,284.795a3.437,3.437,0,0,1-2.482-.849,3.2,3.2,0,0,1-.884-2.42,3.486,3.486,0,0,1,.819-2.487,3.06,3.06,0,0,1,2.337-.867,3.1,3.1,0,0,1,2.233.754,2.865,2.865,0,0,1,.788,2.172v.983H143.02a1.1,1.1,0,0,0,.393.841,1.537,1.537,0,0,0,1.007.3,4.836,4.836,0,0,0,1.07-.11,5.266,5.266,0,0,0,1.059-.375v1.587a3.888,3.888,0,0,1-1.073.367,7.388,7.388,0,0,1-1.321.1m-.13-5.121a.918.918,0,0,0-.652.246,1.148,1.148,0,0,0-.308.77h1.9a1.1,1.1,0,0,0-.262-.739.864.864,0,0,0-.675-.277" transform="translate(-26.451 -52.262)" fill="#fff"/>
            <path id="Caminho_7915" data-name="Caminho 7915" d="M153.208,280.938a10.117,10.117,0,0,1,.4-2.953,6.32,6.32,0,0,1,1.18-2.247h1.84a7.485,7.485,0,0,0-1.1,2.326,10.787,10.787,0,0,0-.011,5.661,7.357,7.357,0,0,0,1.095,2.329h-1.829a6.027,6.027,0,0,1-1.178-2.191,9.85,9.85,0,0,1-.4-2.925" transform="translate(-28.784 -51.805)" fill="#fff"/>
            <path id="Caminho_7916" data-name="Caminho 7916" d="M162.6,278.171a3.2,3.2,0,0,1,.547.046l.125.022-.2,2.083a3.325,3.325,0,0,0-.751-.068,1.425,1.425,0,0,0-1.05.332,1.29,1.29,0,0,0-.327.951v3.145h-2.208v-6.4h1.644l.344,1.021h.107a2.224,2.224,0,0,1,.771-.821,1.851,1.851,0,0,1,1-.313" transform="translate(-29.824 -52.262)" fill="#fff"/>
            <path id="Caminho_7917" data-name="Caminho 7917" d="M168.448,284.795a3.437,3.437,0,0,1-2.482-.849,3.2,3.2,0,0,1-.884-2.42,3.486,3.486,0,0,1,.819-2.487,3.06,3.06,0,0,1,2.337-.867,3.1,3.1,0,0,1,2.233.754,2.865,2.865,0,0,1,.788,2.172v.983h-3.947a1.1,1.1,0,0,0,.393.841,1.537,1.537,0,0,0,1.007.3,4.836,4.836,0,0,0,1.07-.11,5.266,5.266,0,0,0,1.059-.375v1.587a3.888,3.888,0,0,1-1.073.367,7.388,7.388,0,0,1-1.321.1m-.13-5.121a.917.917,0,0,0-.652.246,1.148,1.148,0,0,0-.308.77h1.9a1.1,1.1,0,0,0-.262-.739.864.864,0,0,0-.675-.277" transform="translate(-31.015 -52.262)" fill="#fff"/>
            <path id="Caminho_7918" data-name="Caminho 7918" d="M177.1,280.938a9.823,9.823,0,0,1-.4,2.9,6.082,6.082,0,0,1-1.183,2.211h-1.829a7.183,7.183,0,0,0,1.09-2.307,10.318,10.318,0,0,0,.378-2.82,10.483,10.483,0,0,0-.373-2.831,7.427,7.427,0,0,0-1.107-2.358h1.84a6.31,6.31,0,0,1,1.186,2.27,10.136,10.136,0,0,1,.4,2.93" transform="translate(-32.629 -51.805)" fill="#fff"/>
            <path id="Caminho_7919" data-name="Caminho 7919" d="M185.382,281.469a3.387,3.387,0,0,1-.844,2.448,3.126,3.126,0,0,1-2.363.878,3.058,3.058,0,0,1-2.318-.9,3.888,3.888,0,0,1-.017-4.858,3.153,3.153,0,0,1,2.369-.867,3.371,3.371,0,0,1,1.666.4,2.731,2.731,0,0,1,1.115,1.148,3.713,3.713,0,0,1,.392,1.748m-4.144,0a2.839,2.839,0,0,0,.22,1.256.766.766,0,0,0,.74.432.744.744,0,0,0,.725-.432,2.938,2.938,0,0,0,.212-1.256,2.79,2.79,0,0,0-.214-1.236.85.85,0,0,0-1.463,0,2.722,2.722,0,0,0-.22,1.239" transform="translate(-33.629 -52.262)" fill="#fff"/>
            <path id="Caminho_7920" data-name="Caminho 7920" d="M192.271,278.171a3.2,3.2,0,0,1,.547.046l.125.022-.2,2.083a3.325,3.325,0,0,0-.751-.068,1.425,1.425,0,0,0-1.05.332,1.29,1.29,0,0,0-.327.951v3.145h-2.208v-6.4h1.644l.344,1.021h.107a2.224,2.224,0,0,1,.771-.821,1.851,1.851,0,0,1,1-.313" transform="translate(-35.398 -52.262)" fill="#fff"/>
            <path id="Caminho_7921" data-name="Caminho 7921" d="M200.977,278.284v1.067l-.875.322a1.554,1.554,0,0,1,.181.762,1.922,1.922,0,0,1-.726,1.6,3.464,3.464,0,0,1-2.166.57,2.732,2.732,0,0,1-.564-.046.592.592,0,0,0-.079.277q0,.164.266.252a2.29,2.29,0,0,0,.694.087h1.061q2.151,0,2.151,1.813a2.053,2.053,0,0,1-1,1.817,5.107,5.107,0,0,1-2.8.65,4.015,4.015,0,0,1-2.1-.455,1.449,1.449,0,0,1-.737-1.307q0-1.148,1.423-1.48a1.284,1.284,0,0,1-.512-.4.86.86,0,0,1-.054-1.076,2.441,2.441,0,0,1,.684-.545,1.7,1.7,0,0,1-.782-.688,2.159,2.159,0,0,1-.285-1.141,1.969,1.969,0,0,1,.711-1.621,3.16,3.16,0,0,1,2.032-.576c.117,0,.318.014.605.04s.5.051.632.073Zm-4.822,7.194a.5.5,0,0,0,.293.438,1.591,1.591,0,0,0,.785.166,3.422,3.422,0,0,0,1.285-.2q.482-.2.482-.517a.374.374,0,0,0-.293-.359,2.632,2.632,0,0,0-.842-.1H197a1.053,1.053,0,0,0-.6.166.487.487,0,0,0-.245.409m.694-5.1q0,.983.683.983a.564.564,0,0,0,.489-.244,1.261,1.261,0,0,0,.172-.728q0-.994-.661-.994-.683,0-.683.983" transform="translate(-36.503 -52.262)" fill="#fff"/>
            <path id="Caminho_7922" data-name="Caminho 7922" d="M207.813,284.682l-.423-.847h-.045a2.517,2.517,0,0,1-.909.757,3.005,3.005,0,0,1-1.2.2,1.876,1.876,0,0,1-1.423-.542,2.113,2.113,0,0,1-.52-1.524,1.734,1.734,0,0,1,.711-1.522,3.892,3.892,0,0,1,2.061-.562l1.067-.033v-.091a.694.694,0,0,0-.78-.79,4.648,4.648,0,0,0-1.779.474l-.638-1.457a6.134,6.134,0,0,1,2.823-.576,2.74,2.74,0,0,1,1.905.61,2.178,2.178,0,0,1,.675,1.7v4.2Zm-1.637-1.446a1,1,0,0,0,.686-.253.845.845,0,0,0,.285-.661v-.5l-.508.023q-1.09.039-1.09.8c0,.392.209.587.627.587" transform="translate(-38.195 -52.262)" fill="#fff"/>
            <path id="Caminho_7923" data-name="Caminho 7923" d="M216.629,284.682v-3.49a2,2,0,0,0-.184-.962.626.626,0,0,0-.59-.325.855.855,0,0,0-.808.446,3.393,3.393,0,0,0-.248,1.531v2.8h-2.208v-6.4h1.666l.277.791h.13a1.741,1.741,0,0,1,.781-.677,2.758,2.758,0,0,1,1.149-.227,2.18,2.18,0,0,1,1.652.616,2.4,2.4,0,0,1,.59,1.734v4.161Z" transform="translate(-39.941 -52.262)" fill="#fff"/>
            <path id="Caminho_7924" data-name="Caminho 7924" d="M222.075,276.123a.93.93,0,0,1,.277-.74,1.753,1.753,0,0,1,1.79.006.925.925,0,0,1,.282.734q0,.971-1.18.971t-1.169-.971m2.264,7.99h-2.207v-6.4h2.207Z" transform="translate(-41.723 -51.693)" fill="#fff"/>
            <path id="Caminho_7925" data-name="Caminho 7925" d="M231.459,284.708h-5.3v-1.26l2.648-3.45h-2.5V278.31h5.02v1.367L228.8,283.02h2.659Z" transform="translate(-42.491 -52.288)" fill="#fff"/>
            <path id="Caminho_7926" data-name="Caminho 7926" d="M238.071,284.682l-.423-.847H237.6a2.517,2.517,0,0,1-.909.757,3.005,3.005,0,0,1-1.2.2,1.876,1.876,0,0,1-1.423-.542,2.113,2.113,0,0,1-.52-1.524,1.734,1.734,0,0,1,.711-1.522,3.892,3.892,0,0,1,2.061-.562l1.067-.033v-.091a.694.694,0,0,0-.78-.79,4.648,4.648,0,0,0-1.779.474l-.638-1.457a6.134,6.134,0,0,1,2.823-.576,2.74,2.74,0,0,1,1.905.61,2.178,2.178,0,0,1,.675,1.7v4.2Zm-1.637-1.446a1,1,0,0,0,.686-.253.845.845,0,0,0,.285-.661v-.5l-.508.023q-1.09.039-1.09.8c0,.392.209.587.627.587" transform="translate(-43.88 -52.262)" fill="#fff"/>
            <path id="Caminho_7927" data-name="Caminho 7927" d="M245.7,284.795a3.143,3.143,0,0,1-2.38-.847,3.385,3.385,0,0,1-.81-2.433,3.331,3.331,0,0,1,.875-2.467,3.366,3.366,0,0,1,2.49-.876,4.669,4.669,0,0,1,2.094.486l-.649,1.632a7.167,7.167,0,0,0-.74-.28,2.4,2.4,0,0,0-.706-.1.953.953,0,0,0-.83.418,2.032,2.032,0,0,0-.294,1.18q0,1.536,1.135,1.536a3.43,3.43,0,0,0,1.863-.565v1.756a3.625,3.625,0,0,1-2.05.565m1.113,1.31a1.246,1.246,0,0,1-.423.986,1.652,1.652,0,0,1-1.124.37,3.511,3.511,0,0,1-1.2-.164v-1.157a2.728,2.728,0,0,0,.83.152c.2,0,.294-.088.294-.266a.4.4,0,0,0-.232-.33,1.974,1.974,0,0,0-.6-.228l.406-.785H245.9l-.05.163a1.644,1.644,0,0,1,.751.523,1.268,1.268,0,0,1,.209.737" transform="translate(-45.562 -52.262)" fill="#fff"/>
            <path id="Caminho_7928" data-name="Caminho 7928" d="M254.618,284.123l-.423-.847h-.045a2.517,2.517,0,0,1-.909.757,3.005,3.005,0,0,1-1.2.2,1.876,1.876,0,0,1-1.423-.542,2.113,2.113,0,0,1-.52-1.524,1.734,1.734,0,0,1,.711-1.522,3.891,3.891,0,0,1,2.061-.562l1.067-.033v-.091a.694.694,0,0,0-.78-.79,4.648,4.648,0,0,0-1.779.474l-.638-1.457a6.134,6.134,0,0,1,2.823-.576,2.74,2.74,0,0,1,1.905.61,2.178,2.178,0,0,1,.675,1.7v4.2Zm-.192-7a1.638,1.638,0,0,1-.512-.084q-.257-.085-.505-.187c-.166-.067-.326-.13-.482-.186a1.3,1.3,0,0,0-.443-.085q-.3,0-.407.554h-1.016a2.79,2.79,0,0,1,.407-1.459,1.175,1.175,0,0,1,1.016-.472,1.4,1.4,0,0,1,.457.084c.162.057.326.119.491.187s.329.13.491.186a1.382,1.382,0,0,0,.457.085.3.3,0,0,0,.26-.141,1.106,1.106,0,0,0,.147-.413h1.027a2.77,2.77,0,0,1-.417,1.437,1.135,1.135,0,0,1-.971.494m-1.446,5.55a1,1,0,0,0,.686-.253.845.845,0,0,0,.285-.661v-.5l-.508.023q-1.09.039-1.09.8c0,.392.209.587.627.587" transform="translate(-46.988 -51.703)" fill="#fff"/>
            <path id="Caminho_7929" data-name="Caminho 7929" d="M265.442,281.469a3.388,3.388,0,0,1-.844,2.448,3.126,3.126,0,0,1-2.363.878,3.058,3.058,0,0,1-2.318-.9,3.888,3.888,0,0,1-.017-4.858,3.153,3.153,0,0,1,2.369-.867,3.371,3.371,0,0,1,1.666.4,2.731,2.731,0,0,1,1.115,1.148,3.713,3.713,0,0,1,.392,1.748m-4.144,0a2.839,2.839,0,0,0,.22,1.256.766.766,0,0,0,.74.432.744.744,0,0,0,.725-.432,2.939,2.939,0,0,0,.212-1.256,2.79,2.79,0,0,0-.214-1.236.85.85,0,0,0-1.463,0,2.722,2.722,0,0,0-.22,1.239" transform="translate(-48.671 -52.262)" fill="#fff"/>
            <path id="Caminho_7930" data-name="Caminho 7930" d="M48.123,301.354a1.913,1.913,0,0,1-1.195-.389,2.474,2.474,0,0,1-.791-1.146,5.1,5.1,0,0,1-.279-1.768,4.143,4.143,0,0,1,.626-2.439,2,2,0,0,1,1.723-.881,1.964,1.964,0,0,1,.94.215,2.076,2.076,0,0,1,.737.722h.045a10.61,10.61,0,0,1-.107-1.5v-1.711h2.225v8.786H50.381l-.474-.807h-.084a1.871,1.871,0,0,1-1.7.919m.9-1.744a.825.825,0,0,0,.748-.333,2,2,0,0,0,.235-1.027v-.175a2.236,2.236,0,0,0-.243-1.205.855.855,0,0,0-.763-.358.747.747,0,0,0-.675.409,2.328,2.328,0,0,0-.24,1.166,2.161,2.161,0,0,0,.243,1.135.771.771,0,0,0,.694.389" transform="translate(-8.616 -54.946)" fill="#fff"/>
            <path id="Caminho_7931" data-name="Caminho 7931" d="M61.4,298.556A3.388,3.388,0,0,1,60.558,301a3.127,3.127,0,0,1-2.363.878,3.058,3.058,0,0,1-2.318-.9,3.888,3.888,0,0,1-.017-4.858,3.153,3.153,0,0,1,2.369-.867,3.371,3.371,0,0,1,1.666.4,2.731,2.731,0,0,1,1.115,1.148,3.713,3.713,0,0,1,.392,1.748m-4.144,0a2.839,2.839,0,0,0,.22,1.256.766.766,0,0,0,.74.432.744.744,0,0,0,.725-.432,2.939,2.939,0,0,0,.212-1.256,2.79,2.79,0,0,0-.214-1.236.85.85,0,0,0-1.463,0,2.722,2.722,0,0,0-.22,1.239" transform="translate(-10.336 -55.472)" fill="#fff"/>
            <path id="Caminho_7932" data-name="Caminho 7932" d="M71.968,301.882a2,2,0,0,1-1.632-.74h-.1a8.24,8.24,0,0,1,.1.836v2.57H68.128v-9.176h1.8l.31.814h.1a1.934,1.934,0,0,1,1.7-.927,1.913,1.913,0,0,1,1.666.881,4.219,4.219,0,0,1,.6,2.417,4.154,4.154,0,0,1-.629,2.436,1.986,1.986,0,0,1-1.708.889m-.74-4.89a.714.714,0,0,0-.681.348,2.273,2.273,0,0,0-.212,1.03v.175a2.427,2.427,0,0,0,.22,1.191.75.75,0,0,0,.7.367.647.647,0,0,0,.616-.365,2.766,2.766,0,0,0,.192-1.206,2.673,2.673,0,0,0-.192-1.182.667.667,0,0,0-.638-.358" transform="translate(-12.8 -55.472)" fill="#fff"/>
            <path id="Caminho_7933" data-name="Caminho 7933" d="M81.146,295.258a3.2,3.2,0,0,1,.547.046l.125.021-.2,2.085a3.278,3.278,0,0,0-.751-.068,1.428,1.428,0,0,0-1.05.331,1.291,1.291,0,0,0-.327.951v3.145H77.284v-6.4h1.644l.344,1.022h.107a2.212,2.212,0,0,1,.771-.821,1.845,1.845,0,0,1,1-.314" transform="translate(-14.52 -55.472)" fill="#fff"/>
            <path id="Caminho_7934" data-name="Caminho 7934" d="M90.012,298.556A3.388,3.388,0,0,1,89.168,301a3.127,3.127,0,0,1-2.363.878,3.058,3.058,0,0,1-2.318-.9,3.888,3.888,0,0,1-.017-4.858,3.153,3.153,0,0,1,2.369-.867,3.371,3.371,0,0,1,1.666.4,2.731,2.731,0,0,1,1.115,1.148,3.713,3.713,0,0,1,.392,1.748m-4.144,0a2.839,2.839,0,0,0,.22,1.256.766.766,0,0,0,.74.432.744.744,0,0,0,.725-.432,2.939,2.939,0,0,0,.212-1.256,2.79,2.79,0,0,0-.214-1.236.85.85,0,0,0-1.463,0,2.722,2.722,0,0,0-.22,1.239" transform="translate(-15.711 -55.472)" fill="#fff"/>
            <path id="Caminho_7935" data-name="Caminho 7935" d="M95.889,301.882a3.144,3.144,0,0,1-2.38-.847,3.382,3.382,0,0,1-.81-2.433,3.047,3.047,0,0,1,3.365-3.343,4.674,4.674,0,0,1,2.1.485l-.649,1.632a7.281,7.281,0,0,0-.741-.28,2.394,2.394,0,0,0-.706-.1.955.955,0,0,0-.83.418,2.032,2.032,0,0,0-.293,1.18q0,1.536,1.135,1.536a3.438,3.438,0,0,0,1.864-.564v1.756a3.626,3.626,0,0,1-2.05.564" transform="translate(-17.416 -55.473)" fill="#fff"/>
            <path id="Caminho_7936" data-name="Caminho 7936" d="M103.74,301.882a3.437,3.437,0,0,1-2.482-.849,3.2,3.2,0,0,1-.884-2.42,3.486,3.486,0,0,1,.819-2.487,3.06,3.06,0,0,1,2.337-.867,3.1,3.1,0,0,1,2.233.754,2.865,2.865,0,0,1,.788,2.172v.983h-3.947a1.1,1.1,0,0,0,.393.841,1.537,1.537,0,0,0,1.007.3,4.836,4.836,0,0,0,1.07-.11,5.268,5.268,0,0,0,1.059-.375v1.587a3.888,3.888,0,0,1-1.073.367,7.384,7.384,0,0,1-1.321.1m-.13-5.121a.917.917,0,0,0-.652.246,1.147,1.147,0,0,0-.308.77h1.9a1.1,1.1,0,0,0-.262-.739.864.864,0,0,0-.675-.277" transform="translate(-18.858 -55.472)" fill="#fff"/>
            <path id="Caminho_7937" data-name="Caminho 7937" d="M114.438,299.8a1.82,1.82,0,0,1-.7,1.553,3.3,3.3,0,0,1-2.01.525,8.807,8.807,0,0,1-1.237-.076,5.273,5.273,0,0,1-1.073-.279v-1.768a6.567,6.567,0,0,0,1.126.373,4.725,4.725,0,0,0,1.092.147q.717,0,.717-.327a.368.368,0,0,0-.2-.3,8.936,8.936,0,0,0-1.165-.517,2.906,2.906,0,0,1-1.231-.822,1.872,1.872,0,0,1-.35-1.165,1.612,1.612,0,0,1,.689-1.389,3.284,3.284,0,0,1,1.948-.5,4.94,4.94,0,0,1,1.189.138,7.286,7.286,0,0,1,1.155.4l-.6,1.424a6.644,6.644,0,0,0-.932-.336,3.115,3.115,0,0,0-.8-.138q-.542,0-.542.265a.333.333,0,0,0,.189.28,10.279,10.279,0,0,0,1.093.471,4.242,4.242,0,0,1,1,.542,1.632,1.632,0,0,1,.486.624,2.2,2.2,0,0,1,.155.872" transform="translate(-20.555 -55.472)" fill="#fff"/>
            <path id="Caminho_7938" data-name="Caminho 7938" d="M122.03,299.8a1.82,1.82,0,0,1-.7,1.553,3.3,3.3,0,0,1-2.01.525,8.807,8.807,0,0,1-1.237-.076,5.273,5.273,0,0,1-1.073-.279v-1.768a6.567,6.567,0,0,0,1.126.373,4.725,4.725,0,0,0,1.092.147q.718,0,.717-.327a.368.368,0,0,0-.2-.3,8.935,8.935,0,0,0-1.165-.517,2.906,2.906,0,0,1-1.231-.822,1.872,1.872,0,0,1-.35-1.165,1.612,1.612,0,0,1,.689-1.389,3.284,3.284,0,0,1,1.948-.5,4.94,4.94,0,0,1,1.189.138,7.286,7.286,0,0,1,1.155.4l-.6,1.424a6.645,6.645,0,0,0-.932-.336,3.115,3.115,0,0,0-.8-.138q-.542,0-.542.265a.333.333,0,0,0,.189.28,10.279,10.279,0,0,0,1.093.471,4.242,4.242,0,0,1,1,.542,1.632,1.632,0,0,1,.486.624,2.2,2.2,0,0,1,.155.872" transform="translate(-21.982 -55.472)" fill="#fff"/>
            <path id="Caminho_7939" data-name="Caminho 7939" d="M130.748,298.556A3.387,3.387,0,0,1,129.9,301a3.127,3.127,0,0,1-2.363.878,3.058,3.058,0,0,1-2.318-.9,3.888,3.888,0,0,1-.017-4.858,3.153,3.153,0,0,1,2.369-.867,3.371,3.371,0,0,1,1.666.4,2.731,2.731,0,0,1,1.115,1.148,3.713,3.713,0,0,1,.392,1.748m-4.144,0a2.839,2.839,0,0,0,.22,1.256.766.766,0,0,0,.74.432.744.744,0,0,0,.725-.432,2.939,2.939,0,0,0,.212-1.256,2.79,2.79,0,0,0-.214-1.236.85.85,0,0,0-1.463,0,2.722,2.722,0,0,0-.22,1.239" transform="translate(-23.365 -55.472)" fill="#fff"/>
            <path id="Caminho_7940" data-name="Caminho 7940" d="M139.4,301.354a1.913,1.913,0,0,1-1.195-.389,2.474,2.474,0,0,1-.791-1.146,5.1,5.1,0,0,1-.279-1.768,4.143,4.143,0,0,1,.626-2.439,2,2,0,0,1,1.723-.881,1.964,1.964,0,0,1,.94.215,2.076,2.076,0,0,1,.737.722h.045a10.609,10.609,0,0,1-.107-1.5v-1.711h2.225v8.786h-1.666l-.474-.807H141.1a1.871,1.871,0,0,1-1.7.919m.9-1.744a.825.825,0,0,0,.748-.333,2,2,0,0,0,.235-1.027v-.175a2.237,2.237,0,0,0-.243-1.205.855.855,0,0,0-.763-.358.747.747,0,0,0-.675.409,2.328,2.328,0,0,0-.24,1.166,2.161,2.161,0,0,0,.243,1.135.771.771,0,0,0,.694.389" transform="translate(-25.764 -54.946)" fill="#fff"/>
            <path id="Caminho_7941" data-name="Caminho 7941" d="M149.655,301.882a3.437,3.437,0,0,1-2.482-.849,3.2,3.2,0,0,1-.884-2.42,3.486,3.486,0,0,1,.819-2.487,3.06,3.06,0,0,1,2.337-.867,3.1,3.1,0,0,1,2.233.754,2.865,2.865,0,0,1,.788,2.172v.983H148.52a1.1,1.1,0,0,0,.393.841,1.537,1.537,0,0,0,1.007.3,4.836,4.836,0,0,0,1.07-.11,5.268,5.268,0,0,0,1.059-.375v1.587a3.888,3.888,0,0,1-1.073.367,7.385,7.385,0,0,1-1.321.1m-.13-5.121a.917.917,0,0,0-.652.246,1.148,1.148,0,0,0-.308.77h1.9a1.1,1.1,0,0,0-.262-.739.864.864,0,0,0-.675-.277" transform="translate(-27.485 -55.472)" fill="#fff"/>
            <path id="Caminho_7942" data-name="Caminho 7942" d="M162.159,299.866a3.279,3.279,0,0,0,1.067-.22v1.61a4.422,4.422,0,0,1-.849.274,4.829,4.829,0,0,1-.946.081,2.069,2.069,0,0,1-1.6-.544,2.442,2.442,0,0,1-.491-1.675v-2.637h-.773v-.9l.983-.694.57-1.344h1.446V295.1h1.57v1.654h-1.57v2.49q0,.621.6.621" transform="translate(-29.79 -55.202)" fill="#fff"/>
            <path id="Caminho_7943" data-name="Caminho 7943" d="M169.543,295.258a3.2,3.2,0,0,1,.547.046l.125.021-.2,2.085a3.278,3.278,0,0,0-.751-.068,1.428,1.428,0,0,0-1.05.331,1.291,1.291,0,0,0-.327.951v3.145h-2.208v-6.4h1.644l.344,1.022h.107a2.212,2.212,0,0,1,.771-.821,1.845,1.845,0,0,1,1-.314" transform="translate(-31.128 -55.472)" fill="#fff"/>
            <path id="Caminho_7944" data-name="Caminho 7944" d="M176.456,301.769l-.423-.847h-.045a2.517,2.517,0,0,1-.909.757,3.005,3.005,0,0,1-1.2.2,1.876,1.876,0,0,1-1.423-.542,2.113,2.113,0,0,1-.52-1.524,1.734,1.734,0,0,1,.711-1.522,3.892,3.892,0,0,1,2.061-.562l1.067-.033v-.091a.694.694,0,0,0-.78-.79,4.648,4.648,0,0,0-1.779.474l-.638-1.457a6.134,6.134,0,0,1,2.823-.576,2.74,2.74,0,0,1,1.905.61,2.177,2.177,0,0,1,.675,1.7v4.2Zm-1.637-1.446a1,1,0,0,0,.686-.253.845.845,0,0,0,.285-.661v-.5l-.508.023q-1.09.039-1.09.8c0,.392.209.587.627.587" transform="translate(-32.304 -55.473)" fill="#fff"/>
            <path id="Caminho_7945" data-name="Caminho 7945" d="M185.142,294.732a1.923,1.923,0,0,1,1.658.875,5.116,5.116,0,0,1-.006,4.865,1.984,1.984,0,0,1-1.719.884,2.408,2.408,0,0,1-.633-.076,1.893,1.893,0,0,1-.495-.212,2.593,2.593,0,0,1-.505-.452h-.136l-.35.627h-1.722v-8.786h2.207v1.988q0,.356-.079,1.225h.079a2.011,2.011,0,0,1,.742-.717,2.035,2.035,0,0,1,.958-.221m-.807,1.734a.755.755,0,0,0-.677.322,1.853,1.853,0,0,0-.215,1.011v.31a2.2,2.2,0,0,0,.215,1.126.764.764,0,0,0,.7.342.653.653,0,0,0,.6-.4,2.6,2.6,0,0,0,.209-1.173q0-1.54-.83-1.541" transform="translate(-34.05 -54.946)" fill="#fff"/>
            <path id="Caminho_7946" data-name="Caminho 7946" d="M194.484,301.769l-.423-.847h-.045a2.517,2.517,0,0,1-.909.757,3.005,3.005,0,0,1-1.2.2,1.876,1.876,0,0,1-1.423-.542,2.113,2.113,0,0,1-.52-1.524,1.734,1.734,0,0,1,.711-1.522,3.891,3.891,0,0,1,2.061-.562l1.067-.033v-.091a.694.694,0,0,0-.78-.79,4.648,4.648,0,0,0-1.779.474l-.638-1.457a6.134,6.134,0,0,1,2.823-.576,2.74,2.74,0,0,1,1.905.61,2.177,2.177,0,0,1,.675,1.7v4.2Zm-1.637-1.446a1,1,0,0,0,.686-.253.845.845,0,0,0,.285-.661v-.5l-.508.023q-1.09.039-1.09.8c0,.392.209.587.627.587" transform="translate(-35.691 -55.473)" fill="#fff"/>
            <rect id="Retângulo_1878" data-name="Retângulo 1878" width="2.208" height="8.786" transform="translate(161.825 237.511)" fill="#fff"/>
            <path id="Caminho_7947" data-name="Caminho 7947" d="M207.891,301.243v-3.49q0-1.288-.762-1.287a.855.855,0,0,0-.8.455,3.251,3.251,0,0,0-.257,1.51v2.812h-2.208v-8.786h2.208V293.7q0,.847-.09,1.931h.1a1.819,1.819,0,0,1,.751-.7,2.362,2.362,0,0,1,1.01-.2,2.208,2.208,0,0,1,1.669.619,2.391,2.391,0,0,1,.6,1.731v4.161Z" transform="translate(-38.302 -54.946)" fill="#fff"/>
            <path id="Caminho_7948" data-name="Caminho 7948" d="M219.45,298.556a3.388,3.388,0,0,1-.844,2.448,3.127,3.127,0,0,1-2.363.878,3.059,3.059,0,0,1-2.318-.9,3.888,3.888,0,0,1-.017-4.858,3.153,3.153,0,0,1,2.369-.867,3.371,3.371,0,0,1,1.666.4,2.731,2.731,0,0,1,1.115,1.148,3.713,3.713,0,0,1,.392,1.748m-4.144,0a2.839,2.839,0,0,0,.22,1.256.766.766,0,0,0,.74.432.744.744,0,0,0,.725-.432,2.939,2.939,0,0,0,.212-1.256,2.79,2.79,0,0,0-.214-1.236.85.85,0,0,0-1.463,0,2.722,2.722,0,0,0-.22,1.239" transform="translate(-40.03 -55.472)" fill="#fff"/>
          </g>
        </g>
      </g>
    </g>
  </g>
</svg>
