<svg xmlns="http://www.w3.org/2000/svg" xmlns:xlink="http://www.w3.org/1999/xlink" width="318" height="214" viewBox="0 0 318 214">
  <defs>
    <clipPath id="clip-path">
      <rect id="Retângulo_2004" data-name="Retângulo 2004" width="318" height="214" transform="translate(0 0.006)" fill="none"/>
    </clipPath>
    <clipPath id="clip-path-3">
      <rect id="Retângulo_2000" data-name="Retângulo 2000" width="318" height="187.139" fill="none"/>
    </clipPath>
    <clipPath id="clip-path-4">
      <path id="Caminho_11255" data-name="Caminho 11255" d="M83.375,2.75l95.069,176.005H371.15L276.081,2.75Z" transform="translate(-83.375 -2.75)" fill="none"/>
    </clipPath>
    <linearGradient id="linear-gradient" x1="-0.038" y1="0.873" x2="-0.037" y2="0.873" gradientUnits="objectBoundingBox">
      <stop offset="0" stop-color="#c5e0f9"/>
      <stop offset="1" stop-color="#e3f0fc"/>
    </linearGradient>
  </defs>
  <g id="Grupo_3324" data-name="Grupo 3324" transform="translate(0 -0.006)">
    <g id="Grupo_3298" data-name="Grupo 3298" clip-path="url(#clip-path)">
      <g id="Grupo_3293" data-name="Grupo 3293">
        <g id="Grupo_3292" data-name="Grupo 3292" clip-path="url(#clip-path)">
          <g id="Grupo_3291" data-name="Grupo 3291" transform="translate(0 26.979)" opacity="0.2">
            <g id="Grupo_3290" data-name="Grupo 3290">
              <g id="Grupo_3289" data-name="Grupo 3289" clip-path="url(#clip-path-3)">
                <path id="Caminho_11252" data-name="Caminho 11252" d="M214.368,95.223H26.9A21.633,21.633,0,0,0,21.34,94.5a21.1,21.1,0,0,0-12.66,38.154,21.1,21.1,0,0,0,8.589,15.083,21.1,21.1,0,0,0,8.588,15.083A21.1,21.1,0,0,0,34.447,177.9a21.1,21.1,0,0,0,8.589,15.083,21.1,21.1,0,0,0,8.588,15.083,21.1,21.1,0,0,0,8.588,15.083A21.1,21.1,0,0,0,68.8,238.235a21.1,21.1,0,0,0,8.588,15.083,21.364,21.364,0,0,0,28.166,18.07l5.465,10.251L318,279.355ZM88.035,238.523a18.419,18.419,0,0,1-3.536.96,18.636,18.636,0,0,1,2.666-2.592ZM27.043,131.311l.919,1.614a18.394,18.394,0,0,1-3.584.976,18.662,18.662,0,0,1,2.664-2.591M8.658,129.1A18.507,18.507,0,0,1,21.34,97.131c.368,0,.734.013,1.1.035A34.494,34.494,0,0,1,24,110.419,21.232,21.232,0,0,0,8.658,129.1m2.785,1.632a18.542,18.542,0,0,1,12.269-17.434,45.48,45.48,0,0,1-2.05,8.566l4.025,7.068a21.394,21.394,0,0,0-4.954,5.216,18.344,18.344,0,0,1-9.274-2.865c-.005-.184-.014-.366-.014-.551m5.8,13.451a18.513,18.513,0,0,1-5.4-9.6,21.316,21.316,0,0,0,7.421,2.114,20.834,20.834,0,0,0-2.021,7.49m2.785,1.632a18.415,18.415,0,0,1,2.366-9.048,21.381,21.381,0,0,0,6.894-1.5l4.982,8.75a21.4,21.4,0,0,0-4.955,5.216,18.34,18.34,0,0,1-9.274-2.865c-.005-.183-.014-.366-.014-.551m5.8,13.451a18.511,18.511,0,0,1-5.4-9.6,21.316,21.316,0,0,0,7.42,2.114,20.833,20.833,0,0,0-2.021,7.49m2.785,1.632a18.418,18.418,0,0,1,2.366-9.048,21.382,21.382,0,0,0,6.894-1.5l-1.33-2.335a18.423,18.423,0,0,1-3.584.976,18.664,18.664,0,0,1,2.665-2.591l7.231,12.7a21.392,21.392,0,0,0-4.955,5.216,18.341,18.341,0,0,1-9.274-2.865c-.005-.183-.014-.366-.014-.551m5.8,13.451a18.514,18.514,0,0,1-5.4-9.6,21.316,21.316,0,0,0,7.421,2.113,20.833,20.833,0,0,0-2.021,7.491m2.785,1.632a18.415,18.415,0,0,1,2.367-9.048,21.379,21.379,0,0,0,6.894-1.5l-1.33-2.335a18.418,18.418,0,0,1-3.584.976,18.636,18.636,0,0,1,2.665-2.591l7.231,12.7a21.4,21.4,0,0,0-4.955,5.216,18.341,18.341,0,0,1-9.274-2.865c-.005-.184-.014-.366-.014-.551m5.8,13.451a18.516,18.516,0,0,1-5.4-9.6,21.315,21.315,0,0,0,7.421,2.113,20.834,20.834,0,0,0-2.021,7.491M45.8,191.06a18.415,18.415,0,0,1,2.366-9.047,21.387,21.387,0,0,0,6.894-1.5l-1.33-2.335a18.393,18.393,0,0,1-3.584.976,18.668,18.668,0,0,1,2.665-2.591l7.231,12.7a21.4,21.4,0,0,0-4.955,5.216,18.343,18.343,0,0,1-9.274-2.865c-.005-.184-.014-.366-.014-.551m5.8,13.451a18.511,18.511,0,0,1-5.4-9.6,21.316,21.316,0,0,0,7.42,2.114,20.833,20.833,0,0,0-2.021,7.49m2.785,1.632a18.419,18.419,0,0,1,2.366-9.048,21.374,21.374,0,0,0,6.894-1.5l-1.33-2.335a18.382,18.382,0,0,1-3.584.976,18.673,18.673,0,0,1,2.665-2.591l7.231,12.7a21.391,21.391,0,0,0-4.955,5.217,18.344,18.344,0,0,1-9.274-2.865c-.005-.184-.014-.366-.014-.551m5.8,13.451a18.513,18.513,0,0,1-5.4-9.6,21.316,21.316,0,0,0,7.421,2.114,20.833,20.833,0,0,0-2.021,7.49m2.785,1.632a18.415,18.415,0,0,1,2.367-9.048,21.381,21.381,0,0,0,6.894-1.5l-1.33-2.335a18.4,18.4,0,0,1-3.584.976,18.658,18.658,0,0,1,2.666-2.591l7.231,12.7a21.4,21.4,0,0,0-4.956,5.216,18.341,18.341,0,0,1-9.274-2.865c-.005-.183-.014-.366-.014-.551m5.8,13.451a18.513,18.513,0,0,1-5.4-9.6,21.323,21.323,0,0,0,7.421,2.114,20.834,20.834,0,0,0-2.021,7.49m2.785,1.632a18.415,18.415,0,0,1,2.366-9.047,21.381,21.381,0,0,0,6.894-1.5l-1.33-2.335a18.412,18.412,0,0,1-3.584.976,18.635,18.635,0,0,1,2.666-2.592l7.231,12.7a21.4,21.4,0,0,0-4.956,5.217,18.34,18.34,0,0,1-9.274-2.865c-.005-.183-.014-.366-.014-.551m5.8,13.451a18.512,18.512,0,0,1-5.4-9.6,21.317,21.317,0,0,0,7.42,2.113,20.833,20.833,0,0,0-2.021,7.491m2.785,1.632a18.418,18.418,0,0,1,2.366-9.048,21.378,21.378,0,0,0,6.776-1.458l6.869,12.886a18.37,18.37,0,0,1-16-1.829c-.005-.184-.014-.366-.014-.551m18.486,18.514a18.523,18.523,0,0,1-18.082-14.667,21.413,21.413,0,0,0,16.871.9l6.863,12.874a18.349,18.349,0,0,1-5.652.893" transform="translate(0 -94.5)" fill="#606060"/>
              </g>
            </g>
          </g>
          <path id="Caminho_11253" data-name="Caminho 11253" d="M83.375,31.656l89.359,170.3H371.15l-.964-3.926V190.96l.642-5.781.321-6.424L83.375,2.75s5.46,11.562,0,28.906" transform="translate(-59.572 -1.965)" fill="#87a0b2"/>
          <path id="Caminho_11254" data-name="Caminho 11254" d="M178.444,178.755c-4.818-17.344,1.606-71.944,1.606-71.944l-53.621-77.73L83.375,2.75s5.46,11.562,0,28.906l89.359,170.3s10.527-5.853,5.71-23.2" transform="translate(-59.572 -1.965)" fill="#69808e"/>
        </g>
      </g>
      <g id="Grupo_3295" data-name="Grupo 3295" transform="translate(23.803 0.785)">
        <g id="Grupo_3294" data-name="Grupo 3294" clip-path="url(#clip-path-4)">
          <rect id="Retângulo_2002" data-name="Retângulo 2002" width="311.603" height="336.255" transform="matrix(0.588, -0.809, 0.809, 0.588, -83.721, 115.117)" fill="url(#linear-gradient)"/>
        </g>
      </g>
      <g id="Grupo_3297" data-name="Grupo 3297">
        <g id="Grupo_3296" data-name="Grupo 3296" clip-path="url(#clip-path)">
          <path id="Caminho_11256" data-name="Caminho 11256" d="M408.492,83.877H263.32l-3.1-5.739H405.392Z" transform="translate(-185.929 -55.83)" fill="#fff"/>
          <path id="Caminho_11257" data-name="Caminho 11257" d="M177.064,73.587H152.012l-2.067-3.826H175Z" transform="translate(-107.138 -49.845)" fill="#fff"/>
          <path id="Caminho_11258" data-name="Caminho 11258" d="M189.733,97.041H164.681l-2.067-3.826h25.052Z" transform="translate(-116.189 -66.603)" fill="#fff"/>
          <path id="Caminho_11259" data-name="Caminho 11259" d="M451.927,164.29H306.755l-3.1-5.739H448.827Z" transform="translate(-216.964 -113.286)" fill="#fff"/>
          <path id="Caminho_11260" data-name="Caminho 11260" d="M220.5,154H195.447l-2.067-3.826h25.052Z" transform="translate(-138.172 -107.301)" fill="#fff"/>
          <path id="Caminho_11261" data-name="Caminho 11261" d="M233.168,177.454H208.116l-2.067-3.826H231.1Z" transform="translate(-147.224 -124.059)" fill="#fff"/>
          <path id="Caminho_11262" data-name="Caminho 11262" d="M495.362,244.7H350.19l-3.1-5.739H492.262Z" transform="translate(-247.998 -170.742)" fill="#fff"/>
          <path id="Caminho_11263" data-name="Caminho 11263" d="M263.934,234.413H238.882l-2.067-3.826h25.052Z" transform="translate(-169.207 -164.757)" fill="#fff"/>
          <path id="Caminho_11264" data-name="Caminho 11264" d="M276.6,257.867H251.55l-2.067-3.826h25.052Z" transform="translate(-178.258 -181.514)" fill="#fff"/>
          <path id="Caminho_11265" data-name="Caminho 11265" d="M538.8,325.116H393.624l-3.1-5.739H535.7Z" transform="translate(-279.033 -228.197)" fill="#fff"/>
          <path id="Caminho_11266" data-name="Caminho 11266" d="M307.369,314.826H282.317L280.25,311H305.3Z" transform="translate(-200.241 -222.212)" fill="#fff"/>
          <path id="Caminho_11267" data-name="Caminho 11267" d="M320.037,338.28H294.985l-2.067-3.826H317.97Z" transform="translate(-209.293 -238.97)" fill="#fff"/>
          <path id="Caminho_11268" data-name="Caminho 11268" d="M582.231,405.529H437.059l-3.1-5.739H579.131Z" transform="translate(-310.067 -285.653)" fill="#fff"/>
          <path id="Caminho_11269" data-name="Caminho 11269" d="M350.8,395.239H325.752l-2.067-3.826h25.052Z" transform="translate(-231.276 -279.668)" fill="#fff"/>
          <path id="Caminho_11270" data-name="Caminho 11270" d="M363.472,418.693H338.42l-2.067-3.826h25.052Z" transform="translate(-240.327 -296.426)" fill="#fff"/>
          <path id="Caminho_11271" data-name="Caminho 11271" d="M625.666,485.942H480.494l-3.1-5.739H622.566Z" transform="translate(-341.102 -343.109)" fill="#fff"/>
          <path id="Caminho_11272" data-name="Caminho 11272" d="M394.238,475.652H369.186l-2.067-3.826h25.052Z" transform="translate(-262.31 -337.124)" fill="#fff"/>
          <path id="Caminho_11273" data-name="Caminho 11273" d="M406.907,499.106H381.855l-2.067-3.826H404.84Z" transform="translate(-271.362 -353.882)" fill="#fff"/>
          <path id="Caminho_11274" data-name="Caminho 11274" d="M669.1,566.355H523.929l-3.1-5.739H666Z" transform="translate(-372.137 -400.565)" fill="#fff"/>
          <path id="Caminho_11275" data-name="Caminho 11275" d="M437.673,556.065H412.621l-2.067-3.826h25.052Z" transform="translate(-293.345 -394.58)" fill="#fff"/>
          <path id="Caminho_11276" data-name="Caminho 11276" d="M450.341,579.519H425.29l-2.067-3.826h25.052Z" transform="translate(-302.397 -411.338)" fill="#fff"/>
          <path id="Caminho_11277" data-name="Caminho 11277" d="M335.09,29.79H201.48l-2.842-5.261h133.61Z" transform="translate(-141.929 -17.526)" fill="#fff"/>
          <path id="Caminho_11278" data-name="Caminho 11278" d="M35.463,41.7a17.093,17.093,0,0,1-6.622,1.338c-10.193,0-18.486-9.013-18.486-20.091S18.648,2.855,28.84,2.855c7.1,0,13.465,4.379,16.553,11.14h3.1C45.181,5.551,37.492,0,28.84,0,17.073,0,7.5,10.294,7.5,22.946s9.573,22.946,21.34,22.946a19.931,19.931,0,0,0,7.952-1.659Z" transform="translate(-5.359)" fill="#a30000"/>
          <path id="Caminho_11279" data-name="Caminho 11279" d="M65.547,99.033a17.093,17.093,0,0,1-6.622,1.338c-10.193,0-18.486-9.013-18.486-20.091s8.293-20.091,18.486-20.091c7.1,0,13.465,4.379,16.553,11.14h3.1c-3.316-8.444-11-13.994-19.656-13.994-11.767,0-21.34,10.294-21.34,22.946s9.573,22.946,21.34,22.946a19.931,19.931,0,0,0,7.952-1.659Z" transform="translate(-26.854 -40.966)" fill="#a30000"/>
          <path id="Caminho_11280" data-name="Caminho 11280" d="M95.63,156.366a17.093,17.093,0,0,1-6.622,1.338c-10.193,0-18.486-9.013-18.486-20.091s8.293-20.091,18.486-20.091c7.1,0,13.465,4.379,16.553,11.14h3.1c-3.316-8.444-11-13.994-19.656-13.994-11.767,0-21.34,10.294-21.34,22.946s9.573,22.946,21.34,22.946A19.931,19.931,0,0,0,96.96,158.9Z" transform="translate(-48.349 -81.931)" fill="#a30000"/>
          <path id="Caminho_11281" data-name="Caminho 11281" d="M125.713,213.7a17.093,17.093,0,0,1-6.622,1.338c-10.193,0-18.486-9.013-18.486-20.091s8.293-20.091,18.486-20.091c7.1,0,13.465,4.379,16.553,11.14h3.1c-3.316-8.444-11-13.994-19.656-13.994-11.767,0-21.34,10.294-21.34,22.946s9.573,22.946,21.34,22.946a19.931,19.931,0,0,0,7.952-1.659Z" transform="translate(-69.843 -122.896)" fill="#a30000"/>
          <path id="Caminho_11282" data-name="Caminho 11282" d="M155.8,271.033a17.093,17.093,0,0,1-6.622,1.338c-10.193,0-18.486-9.013-18.486-20.091s8.293-20.091,18.486-20.091c7.1,0,13.465,4.379,16.553,11.14h3.1c-3.316-8.444-11-13.995-19.656-13.995-11.767,0-21.34,10.294-21.34,22.946s9.573,22.946,21.34,22.946a19.931,19.931,0,0,0,7.952-1.659Z" transform="translate(-91.339 -163.861)" fill="#a30000"/>
          <path id="Caminho_11283" data-name="Caminho 11283" d="M185.88,328.366a17.094,17.094,0,0,1-6.622,1.338c-10.193,0-18.486-9.013-18.486-20.091s8.293-20.091,18.486-20.091c7.1,0,13.465,4.379,16.553,11.14h3.1c-3.316-8.444-11-13.994-19.656-13.994-11.767,0-21.34,10.294-21.34,22.946s9.573,22.946,21.34,22.946a19.931,19.931,0,0,0,7.952-1.659Z" transform="translate(-112.833 -204.826)" fill="#a30000"/>
          <path id="Caminho_11284" data-name="Caminho 11284" d="M215.963,385.7a17.093,17.093,0,0,1-6.622,1.338c-10.193,0-18.486-9.013-18.486-20.091s8.293-20.091,18.486-20.091c7.1,0,13.465,4.379,16.553,11.14H229c-3.316-8.444-11-13.994-19.656-13.994C197.573,344,188,354.294,188,366.946s9.573,22.946,21.34,22.946a19.931,19.931,0,0,0,7.952-1.659Z" transform="translate(-134.328 -245.791)" fill="#a30000"/>
          <path id="Caminho_11285" data-name="Caminho 11285" d="M246.047,443.033a17.093,17.093,0,0,1-6.622,1.338c-10.193,0-18.486-9.013-18.486-20.091s8.293-20.091,18.486-20.091c7.1,0,13.465,4.379,16.553,11.14h3.1c-3.316-8.444-11-13.994-19.656-13.994-11.767,0-21.34,10.294-21.34,22.946s9.573,22.946,21.34,22.946a19.931,19.931,0,0,0,7.952-1.659Z" transform="translate(-155.823 -286.757)" fill="#a30000"/>
          <path id="Caminho_11286" data-name="Caminho 11286" d="M276.13,500.366a17.093,17.093,0,0,1-6.622,1.338c-10.193,0-18.486-9.013-18.486-20.091s8.293-20.091,18.486-20.091c7.1,0,13.465,4.379,16.553,11.14h3.1c-3.316-8.444-11-13.995-19.656-13.995-11.767,0-21.34,10.294-21.34,22.946s9.573,22.946,21.34,22.946a19.931,19.931,0,0,0,7.952-1.659Z" transform="translate(-177.318 -327.722)" fill="#a30000"/>
          <path id="Caminho_11287" data-name="Caminho 11287" d="M306.213,557.7a17.094,17.094,0,0,1-6.622,1.338c-10.193,0-18.486-9.013-18.486-20.091s8.293-20.091,18.486-20.091c7.1,0,13.465,4.379,16.553,11.14h3.1c-3.316-8.444-11-13.994-19.656-13.994-11.767,0-21.34,10.294-21.34,22.946s9.573,22.946,21.34,22.946a19.932,19.932,0,0,0,7.952-1.659Z" transform="translate(-198.812 -368.687)" fill="#a30000"/>
        </g>
      </g>
    </g>
  </g>
</svg>
