<svg id="Grupo_3323" data-name="Grupo 3323" xmlns="http://www.w3.org/2000/svg" xmlns:xlink="http://www.w3.org/1999/xlink" width="447.942" height="343.618" viewBox="0 0 447.942 343.618">
  <defs>
    <clipPath id="clip-path">
      <rect id="Retângulo_1993" data-name="Retângulo 1993" width="447.942" height="343.618" fill="none"/>
    </clipPath>
    <clipPath id="clip-path-3">
      <rect id="Retângulo_1984" data-name="Retângulo 1984" width="169.035" height="81.444" fill="none"/>
    </clipPath>
  </defs>
  <g id="Grupo_3233" data-name="Grupo 3233" clip-path="url(#clip-path)">
    <g id="Grupo_3232" data-name="Grupo 3232">
      <g id="Grupo_3231" data-name="Grupo 3231" clip-path="url(#clip-path)">
        <path id="Caminho_10816" data-name="Caminho 10816" d="M482.185,191.563a170.1,170.1,0,0,0-41.056-56.192l-22.909,25.323a136.884,136.884,0,0,1,44.99,101.326c0,75.318-61.276,136.594-136.594,136.594S190.023,337.338,190.023,262.02a136.071,136.071,0,0,1,16.191-64.571l12.123,10.615,13.229-66.8L167.1,163.2,180,174.492a170.725,170.725,0,1,0,302.188,17.071" transform="translate(-102.646 -89.144)" fill="#508091"/>
        <path id="Caminho_10817" data-name="Caminho 10817" d="M332.873,438.4A167.524,167.524,0,0,1,189.037,185.037l1.39-2.323-10.705-9.374,53.827-18.317L222.5,210.8l-10.96-9.6-1.929,3.589A140.053,140.053,0,0,0,193.035,270.9c0,77.107,62.731,139.838,139.838,139.838S472.711,348.007,472.711,270.9a140.516,140.516,0,0,0-43.557-101.413l-.121-.115L447.6,148.855l.127.12A167.455,167.455,0,0,1,332.873,438.4M180.392,173.473l10.474,9.172-1.536,2.568a167.236,167.236,0,1,0,258.284-35.869l-18.1,20.012A140.863,140.863,0,0,1,473.052,270.9c0,77.295-62.884,140.179-140.179,140.179S192.694,348.195,192.694,270.9a140.4,140.4,0,0,1,16.619-66.268l2.132-3.967,10.838,9.49L233.1,155.538Z" transform="translate(-108.902 -98.023)" fill="#fff"/>
        <g id="Grupo_3224" data-name="Grupo 3224" transform="translate(139.454 9.988)" opacity="0.3">
          <g id="Grupo_3223" data-name="Grupo 3223">
            <g id="Grupo_3222" data-name="Grupo 3222" clip-path="url(#clip-path-3)">
              <path id="Caminho_10818" data-name="Caminho 10818" d="M560.122,110.694H425.663a17.288,17.288,0,0,1-17.288-17.288V46.538A17.288,17.288,0,0,1,425.663,29.25H560.122A17.288,17.288,0,0,1,577.41,46.538V93.406a17.288,17.288,0,0,1-17.288,17.288" transform="translate(-408.375 -29.25)" fill="#193242"/>
            </g>
          </g>
        </g>
        <path id="Caminho_10819" data-name="Caminho 10819" d="M564.4,79.907H439.163A17.288,17.288,0,0,1,421.875,62.62V17.288A17.288,17.288,0,0,1,439.163,0H564.4A17.288,17.288,0,0,1,581.69,17.288V62.62A17.288,17.288,0,0,1,564.4,79.907" transform="translate(-277.811)" fill="#2f7275"/>
        <path id="Caminho_10820" data-name="Caminho 10820" d="M570.658,82.919H445.419a14.059,14.059,0,0,1-14.044-14.044V23.544A14.06,14.06,0,0,1,445.419,9.5H570.658A14.059,14.059,0,0,1,584.7,23.544V68.876a14.059,14.059,0,0,1-14.044,14.044M445.419,9.841a13.718,13.718,0,0,0-13.7,13.7V68.876a13.718,13.718,0,0,0,13.7,13.7H570.658a13.718,13.718,0,0,0,13.7-13.7V23.544a13.718,13.718,0,0,0-13.7-13.7Z" transform="translate(-284.067 -6.256)" fill="#fff"/>
        <g id="Grupo_3227" data-name="Grupo 3227" transform="translate(278.907 168.266)" opacity="0.3">
          <g id="Grupo_3226" data-name="Grupo 3226">
            <g id="Grupo_3225" data-name="Grupo 3225" clip-path="url(#clip-path-3)">
              <path id="Caminho_10821" data-name="Caminho 10821" d="M968.5,574.194H834.038a17.288,17.288,0,0,1-17.288-17.288V510.038a17.288,17.288,0,0,1,17.288-17.288H968.5a17.288,17.288,0,0,1,17.288,17.288v46.869A17.288,17.288,0,0,1,968.5,574.194" transform="translate(-816.75 -492.75)" fill="#193242"/>
            </g>
          </g>
        </g>
        <path id="Caminho_10822" data-name="Caminho 10822" d="M972.777,543.407H847.538A17.288,17.288,0,0,1,830.25,526.12V480.788A17.288,17.288,0,0,1,847.538,463.5H972.777a17.288,17.288,0,0,1,17.288,17.288V526.12a17.288,17.288,0,0,1-17.288,17.288" transform="translate(-546.733 -305.222)" fill="#652f72"/>
        <path id="Caminho_10823" data-name="Caminho 10823" d="M979.033,546.419H853.794a14.059,14.059,0,0,1-14.044-14.043V487.044A14.06,14.06,0,0,1,853.794,473H979.033a14.059,14.059,0,0,1,14.044,14.044v45.332a14.059,14.059,0,0,1-14.044,14.043M853.794,473.341a13.718,13.718,0,0,0-13.7,13.7v45.332a13.717,13.717,0,0,0,13.7,13.7H979.033a13.718,13.718,0,0,0,13.7-13.7V487.044a13.718,13.718,0,0,0-13.7-13.7Z" transform="translate(-552.989 -311.478)" fill="#fff"/>
        <g id="Grupo_3230" data-name="Grupo 3230" transform="translate(0 168.266)" opacity="0.3">
          <g id="Grupo_3229" data-name="Grupo 3229">
            <g id="Grupo_3228" data-name="Grupo 3228" clip-path="url(#clip-path-3)">
              <path id="Caminho_10824" data-name="Caminho 10824" d="M151.747,574.194H17.288A17.288,17.288,0,0,1,0,556.906V510.038A17.288,17.288,0,0,1,17.288,492.75H151.747a17.288,17.288,0,0,1,17.288,17.288v46.869a17.288,17.288,0,0,1-17.288,17.288" transform="translate(0 -492.75)" fill="#193242"/>
            </g>
          </g>
        </g>
        <path id="Caminho_10825" data-name="Caminho 10825" d="M156.027,543.407H30.788A17.288,17.288,0,0,1,13.5,526.12V480.788A17.288,17.288,0,0,1,30.788,463.5H156.027a17.288,17.288,0,0,1,17.288,17.288V526.12a17.288,17.288,0,0,1-17.288,17.288" transform="translate(-8.89 -305.222)" fill="#2f4a72"/>
        <path id="Caminho_10826" data-name="Caminho 10826" d="M162.283,546.419H37.044A14.059,14.059,0,0,1,23,532.376V487.044A14.06,14.06,0,0,1,37.044,473H162.283a14.059,14.059,0,0,1,14.044,14.044v45.332a14.059,14.059,0,0,1-14.044,14.043M37.044,473.341a13.718,13.718,0,0,0-13.7,13.7v45.332a13.718,13.718,0,0,0,13.7,13.7H162.283a13.718,13.718,0,0,0,13.7-13.7V487.044a13.718,13.718,0,0,0-13.7-13.7Z" transform="translate(-15.146 -311.478)" fill="#fff"/>
        <path id="Caminho_10827" data-name="Caminho 10827" d="M496.214,98.6v6.6a4.429,4.429,0,0,1-1.219,3.335,5.787,5.787,0,0,1-6.963.034,4.348,4.348,0,0,1-1.2-3.3V98.6h2.978v6.438a2.636,2.636,0,0,0,.435,1.688,1.877,1.877,0,0,0,2.6,0,2.8,2.8,0,0,0,.409-1.707V98.6Z" transform="translate(-320.584 -64.93)" fill="#fff"/>
        <path id="Caminho_10828" data-name="Caminho 10828" d="M531.5,109.571h-3.886l-4.007-7.728h-.067q.142,1.824.142,2.784v4.945H521.06V98.6h3.872l3.992,7.623h.045q-.1-1.658-.105-2.664V98.6H531.5Z" transform="translate(-343.126 -64.93)" fill="#fff"/>
        <rect id="Retângulo_1987" data-name="Retângulo 1987" width="2.979" height="10.97" transform="translate(190.75 33.671)" fill="#fff"/>
        <path id="Caminho_10829" data-name="Caminho 10829" d="M578.131,98.6h3.316l-3.594,10.97h-3.489L570.785,98.6h3.331l1.493,5.56a16.983,16.983,0,0,1,.51,2.581q.052-.525.21-1.313t.277-1.238Z" transform="translate(-375.871 -64.93)" fill="#fff"/>
        <path id="Caminho_10830" data-name="Caminho 10830" d="M611.994,109.571h-6.513V98.6h6.513v2.378h-3.549v1.726h3.286v2.378h-3.286v2.071h3.549Z" transform="translate(-398.719 -64.93)" fill="#fff"/>
        <path id="Caminho_10831" data-name="Caminho 10831" d="M633.141,105.579v3.992h-2.964V98.6h3.594q4.471,0,4.471,3.241a3.239,3.239,0,0,1-1.861,2.949l3.2,4.779h-3.362l-2.326-3.992Zm0-2.229h.555q1.553,0,1.553-1.373,0-1.133-1.523-1.133h-.585Z" transform="translate(-414.982 -64.93)" fill="#fff"/>
        <path id="Caminho_10832" data-name="Caminho 10832" d="M666.821,105.935a3.235,3.235,0,0,1-.518,1.812,3.387,3.387,0,0,1-1.493,1.23,5.535,5.535,0,0,1-2.289.439,9.269,9.269,0,0,1-1.838-.154,6.818,6.818,0,0,1-1.546-.536v-2.641a8.815,8.815,0,0,0,1.763.679,6.572,6.572,0,0,0,1.681.244,1.633,1.633,0,0,0,.968-.229.7.7,0,0,0,.308-.589.647.647,0,0,0-.124-.394,1.437,1.437,0,0,0-.4-.341q-.274-.173-1.459-.706a7,7,0,0,1-1.61-.945,2.9,2.9,0,0,1-.8-1.05,3.49,3.49,0,0,1-.259-1.4,2.812,2.812,0,0,1,1.1-2.364,4.862,4.862,0,0,1,3.031-.848,8.5,8.5,0,0,1,3.474.788l-.908,2.288a6.579,6.579,0,0,0-2.656-.705,1.383,1.383,0,0,0-.84.2.612.612,0,0,0-.263.5.726.726,0,0,0,.334.578,12.741,12.741,0,0,0,1.812.931,5.014,5.014,0,0,1,1.97,1.369,2.974,2.974,0,0,1,.551,1.842" transform="translate(-434.053 -64.626)" fill="#fff"/>
        <rect id="Retângulo_1988" data-name="Retângulo 1988" width="2.979" height="10.97" transform="translate(234.464 33.671)" fill="#fff"/>
        <path id="Caminho_10833" data-name="Caminho 10833" d="M711.582,103.854a5.668,5.668,0,0,1-1.512,4.232,5.809,5.809,0,0,1-4.251,1.486H702.27V98.6h3.8a5.728,5.728,0,0,1,4.078,1.351,5.1,5.1,0,0,1,1.437,3.9m-3.077.105a3.488,3.488,0,0,0-.6-2.236A2.207,2.207,0,0,0,706.1,101h-.863v6.145h.66a2.39,2.39,0,0,0,1.981-.784,3.787,3.787,0,0,0,.63-2.4" transform="translate(-462.456 -64.931)" fill="#fff"/>
        <path id="Caminho_10834" data-name="Caminho 10834" d="M739.74,109.484l-.54-2.056h-3.564l-.555,2.056h-3.256L735.4,98.469h3.954l3.624,11.015ZM738.584,105l-.473-1.8q-.165-.6-.4-1.553t-.311-1.366q-.068.383-.266,1.261T736.251,105Z" transform="translate(-481.918 -64.843)" fill="#fff"/>
        <path id="Caminho_10835" data-name="Caminho 10835" d="M777.281,103.854a5.667,5.667,0,0,1-1.512,4.232,5.808,5.808,0,0,1-4.25,1.486h-3.549V98.6h3.8a5.728,5.728,0,0,1,4.078,1.351,5.1,5.1,0,0,1,1.437,3.9m-3.076.105a3.488,3.488,0,0,0-.6-2.236A2.206,2.206,0,0,0,771.8,101h-.863v6.145h.66a2.391,2.391,0,0,0,1.981-.784,3.791,3.791,0,0,0,.63-2.4" transform="translate(-505.72 -64.931)" fill="#fff"/>
        <path id="Caminho_10836" data-name="Caminho 10836" d="M807.508,109.571H801V98.6h6.513v2.378h-3.549v1.726h3.287v2.378h-3.287v2.071h3.549Z" transform="translate(-527.468 -64.93)" fill="#fff"/>
        <rect id="Retângulo_1989" data-name="Retângulo 1989" width="2.979" height="10.969" transform="translate(24.33 193.059)" fill="#fff"/>
        <path id="Caminho_10837" data-name="Caminho 10837" d="M97.36,576.322H93.473l-4.007-7.728H89.4q.142,1.823.142,2.784v4.944H86.915v-10.97h3.872l3.992,7.623h.045q-.1-1.659-.1-2.664v-4.959H97.36Z" transform="translate(-57.235 -372.293)" fill="#fff"/>
        <path id="Caminho_10838" data-name="Caminho 10838" d="M127.736,576.321h-2.964v-8.546h-2.679v-2.423h8.313v2.423h-2.671Z" transform="translate(-80.401 -372.293)" fill="#fff"/>
        <path id="Caminho_10839" data-name="Caminho 10839" d="M157.544,576.321h-6.513V565.352h6.513v2.378H154v1.726h3.286v2.378H154v2.071h3.549Z" transform="translate(-99.457 -372.293)" fill="#fff"/>
        <path id="Caminho_10840" data-name="Caminho 10840" d="M179.351,569.594h4.735v5.912a13.007,13.007,0,0,1-4.24.66,5.124,5.124,0,0,1-3.921-1.471,5.888,5.888,0,0,1-1.384-4.194,5.508,5.508,0,0,1,1.516-4.134,5.825,5.825,0,0,1,4.247-1.478,9.393,9.393,0,0,1,1.954.2,8.252,8.252,0,0,1,1.6.5l-.938,2.326a5.8,5.8,0,0,0-2.6-.585,2.475,2.475,0,0,0-2.007.844,3.654,3.654,0,0,0-.709,2.413,3.7,3.7,0,0,0,.642,2.345,2.224,2.224,0,0,0,1.849.806,5.453,5.453,0,0,0,1.216-.127v-1.718h-1.958Z" transform="translate(-114.939 -371.989)" fill="#fff"/>
        <path id="Caminho_10841" data-name="Caminho 10841" d="M212,572.33v3.992h-2.964v-10.97h3.594q4.472,0,4.472,3.241a3.239,3.239,0,0,1-1.861,2.949l3.2,4.779h-3.362l-2.326-3.992Zm0-2.228h.555q1.553,0,1.553-1.373,0-1.132-1.523-1.133H212Z" transform="translate(-137.655 -372.293)" fill="#fff"/>
        <path id="Caminho_10842" data-name="Caminho 10842" d="M243.937,576.234l-.54-2.056h-3.564l-.555,2.056h-3.256l3.579-11.015h3.954l3.624,11.015Zm-1.156-4.487-.473-1.8q-.165-.6-.4-1.553t-.311-1.366q-.068.383-.266,1.26t-.882,3.459Z" transform="translate(-155.424 -372.206)" fill="#fff"/>
        <path id="Caminho_10843" data-name="Caminho 10843" d="M272.167,576.321V565.352h2.964v8.576h4.224v2.393Z" transform="translate(-179.226 -372.293)" fill="#fff"/>
        <rect id="Retângulo_1990" data-name="Retângulo 1990" width="2.979" height="10.969" transform="translate(101.885 193.059)" fill="#fff"/>
        <path id="Caminho_10844" data-name="Caminho 10844" d="M323.336,570.6a5.667,5.667,0,0,1-1.512,4.232,5.808,5.808,0,0,1-4.25,1.485h-3.549v-10.97h3.8A5.728,5.728,0,0,1,321.9,566.7a5.1,5.1,0,0,1,1.437,3.9m-3.077.1a3.487,3.487,0,0,0-.6-2.236,2.206,2.206,0,0,0-1.812-.728h-.863v6.145h.66a2.39,2.39,0,0,0,1.981-.784,3.788,3.788,0,0,0,.63-2.4" transform="translate(-206.79 -372.293)" fill="#fff"/>
        <path id="Caminho_10845" data-name="Caminho 10845" d="M351.494,576.234l-.54-2.056H347.39l-.555,2.056h-3.256l3.579-11.015h3.954l3.624,11.015Zm-1.156-4.487-.473-1.8q-.165-.6-.4-1.553t-.311-1.366q-.068.383-.266,1.26t-.882,3.459Z" transform="translate(-226.252 -372.206)" fill="#fff"/>
        <path id="Caminho_10846" data-name="Caminho 10846" d="M389.035,570.6a5.667,5.667,0,0,1-1.512,4.232,5.808,5.808,0,0,1-4.25,1.485h-3.549v-10.97h3.8A5.728,5.728,0,0,1,387.6,566.7a5.1,5.1,0,0,1,1.437,3.9m-3.077.1a3.487,3.487,0,0,0-.6-2.236,2.206,2.206,0,0,0-1.812-.728h-.863v6.145h.66a2.39,2.39,0,0,0,1.981-.784,3.787,3.787,0,0,0,.63-2.4" transform="translate(-250.054 -372.293)" fill="#fff"/>
        <path id="Caminho_10847" data-name="Caminho 10847" d="M419.262,576.321h-6.513V565.352h6.513v2.378h-3.549v1.726H419v2.378h-3.287v2.071h3.549Z" transform="translate(-271.802 -372.293)" fill="#fff"/>
        <path id="Caminho_10848" data-name="Caminho 10848" d="M958.259,576.321h-6.513V565.352h6.513v2.378H954.71v1.726H958v2.378H954.71v2.071h3.549Z" transform="translate(-626.74 -372.293)" fill="#fff"/>
        <path id="Caminho_10849" data-name="Caminho 10849" d="M985.926,570.488q0,3.729-2.371,5.027l2.679,3.084h-3.692l-1.936-2.439-.008-.007v-.008l-.008-.008a5.2,5.2,0,0,1-3.958-1.448,7.109,7.109,0,0,1-.008-8.4,6.21,6.21,0,0,1,7.95-.011,5.921,5.921,0,0,1,1.35,4.209m-7.548,0q0,3.182,2.213,3.181a1.9,1.9,0,0,0,1.67-.773,5.608,5.608,0,0,0-.007-4.835,1.881,1.881,0,0,0-1.647-.784q-2.228,0-2.228,3.211" transform="translate(-642.222 -371.96)" fill="#fff"/>
        <path id="Caminho_10850" data-name="Caminho 10850" d="M1021.514,565.352v6.6a4.431,4.431,0,0,1-1.219,3.335,5.785,5.785,0,0,1-6.963.034,4.348,4.348,0,0,1-1.2-3.3v-6.67h2.978v6.438a2.637,2.637,0,0,0,.436,1.688,1.876,1.876,0,0,0,2.6,0,2.792,2.792,0,0,0,.409-1.707v-6.423Z" transform="translate(-666.502 -372.293)" fill="#fff"/>
        <rect id="Retângulo_1991" data-name="Retângulo 1991" width="2.979" height="10.969" transform="translate(357.315 193.059)" fill="#fff"/>
        <path id="Caminho_10851" data-name="Caminho 10851" d="M1071.339,570.6a5.668,5.668,0,0,1-1.512,4.232,5.808,5.808,0,0,1-4.251,1.485h-3.549v-10.97h3.8a5.73,5.73,0,0,1,4.079,1.351,5.1,5.1,0,0,1,1.437,3.9m-3.077.1a3.487,3.487,0,0,0-.6-2.236,2.205,2.205,0,0,0-1.812-.728h-.863v6.145h.661a2.389,2.389,0,0,0,1.98-.784,3.787,3.787,0,0,0,.63-2.4" transform="translate(-699.362 -372.293)" fill="#fff"/>
        <path id="Caminho_10852" data-name="Caminho 10852" d="M1099.5,576.234l-.54-2.056h-3.564l-.555,2.056h-3.256l3.579-11.015h3.954l3.624,11.015Zm-1.156-4.487-.473-1.8q-.165-.6-.4-1.553t-.311-1.366q-.068.383-.266,1.26t-.882,3.459Z" transform="translate(-718.823 -372.206)" fill="#fff"/>
        <path id="Caminho_10853" data-name="Caminho 10853" d="M1137.037,570.6a5.668,5.668,0,0,1-1.512,4.232,5.808,5.808,0,0,1-4.25,1.485h-3.549v-10.97h3.8a5.728,5.728,0,0,1,4.078,1.351,5.1,5.1,0,0,1,1.437,3.9m-3.077.1a3.487,3.487,0,0,0-.6-2.236,2.206,2.206,0,0,0-1.812-.728h-.863v6.145h.66a2.39,2.39,0,0,0,1.981-.784,3.787,3.787,0,0,0,.63-2.4" transform="translate(-742.625 -372.293)" fill="#fff"/>
        <path id="Caminho_10854" data-name="Caminho 10854" d="M1167.264,576.321h-6.513V565.352h6.513v2.378h-3.549v1.726H1167v2.378h-3.287v2.071h3.549Z" transform="translate(-764.373 -372.293)" fill="#fff"/>
      </g>
    </g>
  </g>
</svg>
