<svg xmlns="http://www.w3.org/2000/svg" xmlns:xlink="http://www.w3.org/1999/xlink" width="383" height="296.733" viewBox="0 0 383 296.733">
  <defs>
    <linearGradient id="linear-gradient" x1="0.5" y1="1.045" x2="0.5" y2="4.149" gradientUnits="objectBoundingBox">
      <stop offset="0" stop-color="#18569b"/>
      <stop offset="1" stop-color="#137567"/>
    </linearGradient>
    <linearGradient id="linear-gradient-2" y1="1.043" y2="4.521" xlink:href="#linear-gradient"/>
    <linearGradient id="linear-gradient-3" y1="-0.023" y2="3.081" xlink:href="#linear-gradient"/>
    <linearGradient id="linear-gradient-4" y1="-0.086" y2="3.391" xlink:href="#linear-gradient"/>
    <linearGradient id="linear-gradient-5" y1="-1.091" y2="2.013" xlink:href="#linear-gradient"/>
    <linearGradient id="linear-gradient-6" y1="-1.283" y2="2.195" xlink:href="#linear-gradient"/>
    <linearGradient id="linear-gradient-7" y1="-2.16" y2="0.944" xlink:href="#linear-gradient"/>
    <linearGradient id="linear-gradient-8" y1="-2.48" y2="0.998" xlink:href="#linear-gradient"/>
    <linearGradient id="linear-gradient-9" y1="-3.228" y2="-0.124" xlink:href="#linear-gradient"/>
    <linearGradient id="linear-gradient-10" y1="-3.676" y2="-0.199" xlink:href="#linear-gradient"/>
  </defs>
  <g id="Slide_55" data-name="Slide 55" transform="translate(0 0)">
    <path id="Caminho_7949" data-name="Caminho 7949" d="M10.627,296.732a2.921,2.921,0,0,1-2.407-4.574C57.667,220.081,55.068,145.808,44.18,96.192,32.34,42.236,8.417,4.881,8.177,4.51a2.922,2.922,0,0,1,4.9-3.179C13.326,1.71,37.75,39.8,49.844,94.737c7.111,32.3,8.654,64.056,4.588,94.384-5.088,37.944-19.015,73.723-41.393,106.342a2.92,2.92,0,0,1-2.412,1.269Z" transform="translate(-2.769 0)" fill="#18569b"/>
    <g id="Grupo_2989" data-name="Grupo 2989" transform="translate(0 8.88)">
      <circle id="Elipse_151" data-name="Elipse 151" cx="26.766" cy="26.766" r="26.766" fill="url(#linear-gradient)"/>
      <path id="Caminho_7950" data-name="Caminho 7950" d="M74.933,23.387a34.184,34.184,0,0,1,0,47.783H409.922V23.387Z" transform="translate(-26.922 -17.283)" fill="url(#linear-gradient-2)"/>
      <circle id="Elipse_152" data-name="Elipse 152" cx="8.074" cy="8.074" r="8.074" transform="translate(18.692 18.692)" fill="#fff"/>
      <g id="Grupo_2988" data-name="Grupo 2988" transform="translate(73.334 20.61)">
        <path id="Caminho_7951" data-name="Caminho 7951" d="M120.027,56.684h-5.572V47.3h5.572v2.035h-3.036V50.81H119.8v2.035h-2.812v1.772h3.036Z" transform="translate(-114.455 -46.483)" fill="#fff"/>
        <path id="Caminho_7952" data-name="Caminho 7952" d="M131.047,55.562a2.067,2.067,0,0,1-.8,1.765,3.76,3.76,0,0,1-2.285.6,9.939,9.939,0,0,1-1.406-.086,5.937,5.937,0,0,1-1.22-.318V55.511a7.524,7.524,0,0,0,1.281.424,5.389,5.389,0,0,0,1.242.167q.815,0,.815-.372a.422.422,0,0,0-.227-.343,10.472,10.472,0,0,0-1.326-.588,3.3,3.3,0,0,1-1.4-.934,2.128,2.128,0,0,1-.4-1.326,1.836,1.836,0,0,1,.783-1.579,3.744,3.744,0,0,1,2.215-.564,5.6,5.6,0,0,1,1.351.157,8.054,8.054,0,0,1,1.313.459l-.68,1.618a7.577,7.577,0,0,0-1.059-.382,3.516,3.516,0,0,0-.911-.158q-.617,0-.616.3a.376.376,0,0,0,.215.318,11.494,11.494,0,0,0,1.242.536,4.772,4.772,0,0,1,1.139.616,1.848,1.848,0,0,1,.552.709,2.488,2.488,0,0,1,.176.992Z" transform="translate(-118.361 -47.596)" fill="#fff"/>
        <path id="Caminho_7953" data-name="Caminho 7953" d="M139.7,55.2a3.73,3.73,0,0,0,1.214-.251v1.83a4.951,4.951,0,0,1-.966.311,5.462,5.462,0,0,1-1.075.093,2.349,2.349,0,0,1-1.823-.62,2.776,2.776,0,0,1-.559-1.9v-3h-.88V50.637l1.117-.789.648-1.528h1.643v1.457H140.8v1.881h-1.784V54.49q0,.706.68.706Z" transform="translate(-122.054 -46.85)" fill="#fff"/>
        <path id="Caminho_7954" data-name="Caminho 7954" d="M150.258,50.393a3.6,3.6,0,0,1,.623.051l.142.026-.225,2.369a3.693,3.693,0,0,0-.854-.078,1.628,1.628,0,0,0-1.194.375,1.471,1.471,0,0,0-.373,1.082v3.576h-2.51V50.521h1.868l.391,1.162h.122a2.512,2.512,0,0,1,.876-.934,2.1,2.1,0,0,1,1.133-.356Z" transform="translate(-125.741 -47.595)" fill="#fff"/>
        <path id="Caminho_7955" data-name="Caminho 7955" d="M160.669,57.868l-.315-.905h-.147a2.038,2.038,0,0,1-.877.767,3.051,3.051,0,0,1-1.319.267,2.466,2.466,0,0,1-1.868-.7,2.729,2.729,0,0,1-.668-1.968V50.594h2.51v3.974a2.278,2.278,0,0,0,.2,1.078.7.7,0,0,0,.664.366.967.967,0,0,0,.924-.511,3.886,3.886,0,0,0,.276-1.724V50.593h2.51v7.273h-1.894Z" transform="translate(-129.193 -47.667)" fill="#fff"/>
        <path id="Caminho_7956" data-name="Caminho 7956" d="M172.51,55.2a3.73,3.73,0,0,0,1.214-.251v1.83a4.951,4.951,0,0,1-.966.311,5.462,5.462,0,0,1-1.075.093,2.349,2.349,0,0,1-1.823-.62,2.776,2.776,0,0,1-.559-1.9v-3h-.88V50.637l1.117-.789.648-1.528h1.643v1.457h1.784v1.881h-1.784V54.49q0,.706.68.706Z" transform="translate(-133.843 -46.85)" fill="#fff"/>
        <path id="Caminho_7957" data-name="Caminho 7957" d="M183.855,57.868l-.315-.905h-.147a2.038,2.038,0,0,1-.877.767A3.051,3.051,0,0,1,181.2,58a2.466,2.466,0,0,1-1.868-.7,2.729,2.729,0,0,1-.668-1.968V50.594h2.51v3.974a2.278,2.278,0,0,0,.2,1.078.7.7,0,0,0,.664.366.967.967,0,0,0,.924-.511,3.886,3.886,0,0,0,.276-1.724V50.593h2.51v7.273h-1.894Z" transform="translate(-137.523 -47.667)" fill="#fff"/>
        <path id="Caminho_7958" data-name="Caminho 7958" d="M196.819,50.393a3.6,3.6,0,0,1,.623.051l.142.026-.225,2.369a3.693,3.693,0,0,0-.854-.078,1.628,1.628,0,0,0-1.194.375,1.471,1.471,0,0,0-.373,1.082v3.576h-2.51V50.521H194.3l.391,1.162h.122a2.512,2.512,0,0,1,.876-.934,2.1,2.1,0,0,1,1.133-.356Z" transform="translate(-142.469 -47.595)" fill="#fff"/>
        <path id="Caminho_7959" data-name="Caminho 7959" d="M206.58,57.8l-.481-.963h-.051a2.861,2.861,0,0,1-1.034.86,3.422,3.422,0,0,1-1.362.231,2.133,2.133,0,0,1-1.618-.616,2.4,2.4,0,0,1-.591-1.733,1.971,1.971,0,0,1,.809-1.73,4.428,4.428,0,0,1,2.343-.639l1.214-.038v-.1a.789.789,0,0,0-.886-.9,5.3,5.3,0,0,0-2.022.539l-.725-1.656a6.97,6.97,0,0,1,3.21-.655,3.116,3.116,0,0,1,2.166.693,2.48,2.48,0,0,1,.767,1.939V57.8Zm-1.861-1.643a1.13,1.13,0,0,0,.78-.289.96.96,0,0,0,.324-.751v-.565l-.578.026q-1.239.045-1.239.912,0,.668.712.668Z" transform="translate(-145.708 -47.596)" fill="#fff"/>
        <path id="Caminho_7960" data-name="Caminho 7960" d="M224.29,50.913h-1.547v5.393h-2.51V50.913h-.963V49.681l1.014-.616v-.122a2.978,2.978,0,0,1,.588-2.068,2.474,2.474,0,0,1,1.884-.629,5.514,5.514,0,0,1,.947.078,7.57,7.57,0,0,1,1.037.269l-.539,1.624a3.389,3.389,0,0,0-.905-.128.491.491,0,0,0-.42.176.975.975,0,0,0-.131.574v.193h1.547v1.881Z" transform="translate(-152.112 -46.105)" fill="#fff"/>
        <path id="Caminho_7961" data-name="Caminho 7961" d="M228.368,48.332v-.186q.988-1.059,1.255-1.367t.44-.552h2.747v.135q-.513.411-1.412,1.046t-1.361.925h-1.669Zm2.7,7.967h-2.51V49.025h2.51Z" transform="translate(-155.381 -46.098)" fill="#fff"/>
        <path id="Caminho_7962" data-name="Caminho 7962" d="M240.881,55.562a2.067,2.067,0,0,1-.8,1.765,3.76,3.76,0,0,1-2.285.6,9.939,9.939,0,0,1-1.406-.086,5.938,5.938,0,0,1-1.22-.318V55.511a7.525,7.525,0,0,0,1.281.424,5.389,5.389,0,0,0,1.242.167q.815,0,.815-.372a.422.422,0,0,0-.227-.343,10.472,10.472,0,0,0-1.326-.588,3.3,3.3,0,0,1-1.4-.934,2.128,2.128,0,0,1-.4-1.326,1.836,1.836,0,0,1,.783-1.579,3.744,3.744,0,0,1,2.215-.564,5.6,5.6,0,0,1,1.351.157,8.053,8.053,0,0,1,1.313.459l-.68,1.618a7.577,7.577,0,0,0-1.059-.382,3.516,3.516,0,0,0-.911-.158q-.617,0-.616.3a.376.376,0,0,0,.215.318,11.494,11.494,0,0,0,1.242.536,4.773,4.773,0,0,1,1.139.616,1.848,1.848,0,0,1,.552.709,2.488,2.488,0,0,1,.176.992Z" transform="translate(-157.822 -47.596)" fill="#fff"/>
        <path id="Caminho_7963" data-name="Caminho 7963" d="M246.182,47.143a1.061,1.061,0,0,1,.315-.841,1.993,1.993,0,0,1,2.035.006,1.052,1.052,0,0,1,.321.834q0,1.1-1.342,1.1T246.182,47.143Zm2.574,9.084h-2.51V48.953h2.51Z" transform="translate(-161.781 -46.026)" fill="#fff"/>
        <path id="Caminho_7964" data-name="Caminho 7964" d="M256.071,57.925a3.572,3.572,0,0,1-2.706-.963,3.848,3.848,0,0,1-.921-2.767,3.464,3.464,0,0,1,3.826-3.8,5.308,5.308,0,0,1,2.382.552l-.738,1.856a8.054,8.054,0,0,0-.841-.318,2.7,2.7,0,0,0-.8-.119,1.085,1.085,0,0,0-.944.475,2.312,2.312,0,0,0-.334,1.342q0,1.746,1.29,1.747a3.905,3.905,0,0,0,2.118-.642v2a4.125,4.125,0,0,1-2.33.642Z" transform="translate(-164.031 -47.596)" fill="#fff"/>
        <path id="Caminho_7965" data-name="Caminho 7965" d="M268.521,57.8l-.481-.963h-.051a2.861,2.861,0,0,1-1.034.86,3.422,3.422,0,0,1-1.362.231,2.133,2.133,0,0,1-1.618-.616,2.4,2.4,0,0,1-.591-1.733,1.971,1.971,0,0,1,.809-1.73,4.428,4.428,0,0,1,2.343-.639l1.214-.038v-.1a.789.789,0,0,0-.886-.9,5.3,5.3,0,0,0-2.022.539l-.725-1.656a6.97,6.97,0,0,1,3.21-.655,3.116,3.116,0,0,1,2.166.693,2.48,2.48,0,0,1,.767,1.939V57.8h-1.74Zm-1.861-1.643a1.13,1.13,0,0,0,.78-.289.96.96,0,0,0,.324-.751v-.565l-.578.026q-1.239.045-1.239.912,0,.668.712.668Z" transform="translate(-167.962 -47.596)" fill="#fff"/>
        <path id="Caminho_7966" data-name="Caminho 7966" d="M284.2,56.474a2.175,2.175,0,0,1-1.358-.443,2.814,2.814,0,0,1-.9-1.3,5.783,5.783,0,0,1-.318-2.009,4.717,4.717,0,0,1,.712-2.773,2.274,2.274,0,0,1,1.958-1,2.252,2.252,0,0,1,1.069.243,2.367,2.367,0,0,1,.837.822h.052a12.047,12.047,0,0,1-.122-1.708V46.357h2.529v9.989h-1.894l-.539-.918h-.1a2.127,2.127,0,0,1-1.932,1.046Zm1.027-1.984a.939.939,0,0,0,.851-.379,2.277,2.277,0,0,0,.267-1.169v-.2a2.543,2.543,0,0,0-.276-1.371.972.972,0,0,0-.867-.408.847.847,0,0,0-.767.466,2.653,2.653,0,0,0-.273,1.326,2.463,2.463,0,0,0,.276,1.29.878.878,0,0,0,.789.443Z" transform="translate(-174.514 -46.145)" fill="#fff"/>
        <path id="Caminho_7967" data-name="Caminho 7967" d="M299.832,57.8l-.481-.963H299.3a2.861,2.861,0,0,1-1.034.86,3.422,3.422,0,0,1-1.362.231,2.133,2.133,0,0,1-1.618-.616,2.4,2.4,0,0,1-.591-1.733,1.971,1.971,0,0,1,.809-1.73,4.428,4.428,0,0,1,2.343-.639l1.214-.038v-.1a.789.789,0,0,0-.886-.9,5.3,5.3,0,0,0-2.022.539l-.725-1.656a6.97,6.97,0,0,1,3.21-.655,3.116,3.116,0,0,1,2.166.693,2.48,2.48,0,0,1,.767,1.939V57.8h-1.74Zm-1.861-1.643a1.13,1.13,0,0,0,.78-.289.96.96,0,0,0,.324-.751v-.565l-.578.026q-1.239.045-1.239.912,0,.668.712.668Z" transform="translate(-179.211 -47.596)" fill="#fff"/>
        <path id="Caminho_7968" data-name="Caminho 7968" d="M318.6,57.868l-.315-.905h-.147a2.04,2.04,0,0,1-.876.767,3.054,3.054,0,0,1-1.32.267,2.463,2.463,0,0,1-1.868-.7,2.729,2.729,0,0,1-.668-1.968V50.594h2.51v3.974a2.287,2.287,0,0,0,.2,1.078.7.7,0,0,0,.664.366.967.967,0,0,0,.925-.511,3.886,3.886,0,0,0,.276-1.724V50.593h2.51v7.273H318.6Z" transform="translate(-185.933 -47.667)" fill="#fff"/>
        <path id="Caminho_7969" data-name="Caminho 7969" d="M331.76,57.8V53.83a2.267,2.267,0,0,0-.209-1.094.712.712,0,0,0-.671-.369.971.971,0,0,0-.918.507,3.844,3.844,0,0,0-.282,1.74V57.8h-2.51V50.524h1.894l.315.9h.147a2,2,0,0,1,.889-.771,3.146,3.146,0,0,1,1.306-.256,2.479,2.479,0,0,1,1.878.7,2.733,2.733,0,0,1,.671,1.971V57.8h-2.51Z" transform="translate(-190.879 -47.596)" fill="#fff"/>
        <path id="Caminho_7970" data-name="Caminho 7970" d="M340.837,47.143a1.061,1.061,0,0,1,.315-.841,1.993,1.993,0,0,1,2.035.006,1.052,1.052,0,0,1,.321.834q0,1.1-1.342,1.1T340.837,47.143Zm2.574,9.084H340.9V48.953h2.51Z" transform="translate(-195.789 -46.026)" fill="#fff"/>
        <path id="Caminho_7971" data-name="Caminho 7971" d="M349.673,56.474a2.174,2.174,0,0,1-1.358-.443,2.81,2.81,0,0,1-.9-1.3,5.8,5.8,0,0,1-.318-2.009,4.717,4.717,0,0,1,.712-2.773,2.432,2.432,0,0,1,3.027-.758,2.368,2.368,0,0,1,.838.822h.051a12.047,12.047,0,0,1-.122-1.708V46.357h2.529v9.989h-1.893l-.539-.918h-.1a2.127,2.127,0,0,1-1.932,1.046ZM350.7,54.49a.939.939,0,0,0,.851-.379,2.277,2.277,0,0,0,.266-1.169v-.2a2.542,2.542,0,0,0-.276-1.371.972.972,0,0,0-.867-.408.847.847,0,0,0-.767.466,2.646,2.646,0,0,0-.273,1.326,2.462,2.462,0,0,0,.276,1.29.878.878,0,0,0,.789.443Z" transform="translate(-198.039 -46.145)" fill="#fff"/>
        <path id="Caminho_7972" data-name="Caminho 7972" d="M365.309,57.8l-.481-.963h-.051a2.861,2.861,0,0,1-1.034.86,3.421,3.421,0,0,1-1.361.231,2.132,2.132,0,0,1-1.618-.616,2.4,2.4,0,0,1-.591-1.733,1.971,1.971,0,0,1,.809-1.73,4.428,4.428,0,0,1,2.343-.639l1.214-.038v-.1a.789.789,0,0,0-.886-.9,5.3,5.3,0,0,0-2.022.539l-.725-1.656a6.97,6.97,0,0,1,3.21-.655,3.119,3.119,0,0,1,2.167.693,2.48,2.48,0,0,1,.767,1.939V57.8h-1.74Zm-1.861-1.643a1.13,1.13,0,0,0,.78-.289.958.958,0,0,0,.325-.751v-.565l-.578.026q-1.239.045-1.239.912Q362.736,56.153,363.448,56.153Z" transform="translate(-202.736 -47.596)" fill="#fff"/>
        <path id="Caminho_7973" data-name="Caminho 7973" d="M375.654,56.474a2.174,2.174,0,0,1-1.358-.443,2.81,2.81,0,0,1-.9-1.3,5.8,5.8,0,0,1-.318-2.009,4.717,4.717,0,0,1,.712-2.773,2.432,2.432,0,0,1,3.027-.758,2.368,2.368,0,0,1,.838.822h.051a12.052,12.052,0,0,1-.122-1.708V46.357h2.529v9.989h-1.893l-.539-.918h-.1a2.127,2.127,0,0,1-1.932,1.046Zm1.027-1.984a.939.939,0,0,0,.851-.379,2.277,2.277,0,0,0,.266-1.169v-.2a2.543,2.543,0,0,0-.276-1.371.972.972,0,0,0-.867-.408.847.847,0,0,0-.767.466,2.646,2.646,0,0,0-.273,1.326,2.463,2.463,0,0,0,.276,1.29.878.878,0,0,0,.789.443Z" transform="translate(-207.373 -46.145)" fill="#fff"/>
        <path id="Caminho_7974" data-name="Caminho 7974" d="M390.1,57.924a3.9,3.9,0,0,1-2.821-.966,3.636,3.636,0,0,1-1-2.751,3.963,3.963,0,0,1,.931-2.828,3.482,3.482,0,0,1,2.658-.985,3.527,3.527,0,0,1,2.539.857,3.255,3.255,0,0,1,.9,2.469v1.117H388.81a1.244,1.244,0,0,0,.446.957,1.745,1.745,0,0,0,1.146.347,5.546,5.546,0,0,0,1.217-.125,6.016,6.016,0,0,0,1.2-.427v1.8a4.42,4.42,0,0,1-1.219.417,8.46,8.46,0,0,1-1.5.115Zm-.147-5.822a1.042,1.042,0,0,0-.741.279,1.311,1.311,0,0,0-.35.876h2.157a1.247,1.247,0,0,0-.3-.841A.985.985,0,0,0,389.953,52.1Z" transform="translate(-212.114 -47.595)" fill="#fff"/>
        <path id="Caminho_7975" data-name="Caminho 7975" d="M398.959,59.593a1.175,1.175,0,0,1,.35-.912,1.453,1.453,0,0,1,1.017-.321,1.366,1.366,0,0,1,.975.321,1.193,1.193,0,0,1,.34.912,1.17,1.17,0,0,1-.35.9,1.368,1.368,0,0,1-.966.324,1.466,1.466,0,0,1-1-.321,1.142,1.142,0,0,1-.366-.905Z" transform="translate(-216.671 -50.457)" fill="#fff"/>
      </g>
    </g>
    <g id="Grupo_2991" data-name="Grupo 2991" transform="translate(14.608 66.065)">
      <circle id="Elipse_153" data-name="Elipse 153" cx="26.766" cy="26.766" r="26.766" fill="url(#linear-gradient-3)"/>
      <path id="Caminho_7976" data-name="Caminho 7976" d="M102.772,107.6a34.184,34.184,0,0,1,0,47.783H419.923V107.6Z" transform="translate(-51.532 -104.722)" fill="url(#linear-gradient-4)"/>
      <circle id="Elipse_154" data-name="Elipse 154" cx="8.074" cy="8.074" r="8.074" transform="translate(18.692 18.692)" fill="#fff"/>
      <g id="Grupo_2990" data-name="Grupo 2990" transform="translate(72.79 20.609)">
        <path id="Caminho_7977" data-name="Caminho 7977" d="M145.342,145.933h-3.325l-3.428-6.612h-.058q.122,1.56.122,2.382v4.231h-2.247v-9.385h3.313l3.416,6.523h.038q-.09-1.419-.09-2.279v-4.243h2.26v9.385Z" transform="translate(-136.406 -135.732)" fill="#fff"/>
        <path id="Caminho_7978" data-name="Caminho 7978" d="M158.462,145.548l-.315-.905H158a2.038,2.038,0,0,1-.877.767,3.051,3.051,0,0,1-1.319.267,2.466,2.466,0,0,1-1.868-.7,2.729,2.729,0,0,1-.668-1.968v-4.738h2.51v3.974a2.278,2.278,0,0,0,.2,1.078.7.7,0,0,0,.664.366.967.967,0,0,0,.924-.511,3.886,3.886,0,0,0,.276-1.724v-3.184h2.51v7.273H158.46Zm-3.024-7.967v-.186q.988-1.059,1.255-1.367t.44-.552h2.748v.135q-.514.411-1.413,1.046t-1.361.925h-1.669Z" transform="translate(-142.464 -135.347)" fill="#fff"/>
        <path id="Caminho_7979" data-name="Caminho 7979" d="M175.965,147.045v-3.955a2.381,2.381,0,0,0-.2-1.108.677.677,0,0,0-.639-.369.9.9,0,0,0-.847.494,3.368,3.368,0,0,0-.27,1.547v3.389h-2.517V143.09a2.474,2.474,0,0,0-.193-1.108.652.652,0,0,0-.623-.369.9.9,0,0,0-.861.527,4.027,4.027,0,0,0-.27,1.72v3.184h-2.51v-7.273h1.894l.315.9h.147a1.875,1.875,0,0,1,.838-.764,2.852,2.852,0,0,1,1.249-.263,2.454,2.454,0,0,1,2.209.957h.2a2.061,2.061,0,0,1,.857-.7,2.85,2.85,0,0,1,1.21-.254,2.491,2.491,0,0,1,1.907.661,2.859,2.859,0,0,1,.616,2.009v4.731h-2.51Z" transform="translate(-147.41 -136.844)" fill="#fff"/>
        <path id="Caminho_7980" data-name="Caminho 7980" d="M190.89,147.173a3.9,3.9,0,0,1-2.822-.966,3.637,3.637,0,0,1-1-2.751,3.963,3.963,0,0,1,.931-2.828,3.48,3.48,0,0,1,2.658-.985,3.529,3.529,0,0,1,2.539.857,3.256,3.256,0,0,1,.9,2.469v1.117H189.6a1.246,1.246,0,0,0,.446.957,1.747,1.747,0,0,0,1.146.347,5.536,5.536,0,0,0,1.216-.125,6.022,6.022,0,0,0,1.2-.427v1.8a4.424,4.424,0,0,1-1.22.417,8.458,8.458,0,0,1-1.5.115Zm-.147-5.822a1.042,1.042,0,0,0-.741.279,1.308,1.308,0,0,0-.35.876h2.157a1.253,1.253,0,0,0-.3-.841.985.985,0,0,0-.767-.315Z" transform="translate(-154.606 -136.844)" fill="#fff"/>
        <path id="Caminho_7981" data-name="Caminho 7981" d="M204.631,139.643a3.6,3.6,0,0,1,.623.051l.142.026-.225,2.369a3.692,3.692,0,0,0-.854-.078,1.628,1.628,0,0,0-1.194.375,1.471,1.471,0,0,0-.373,1.082v3.576h-2.51v-7.273h1.868l.391,1.162h.122A2.512,2.512,0,0,1,203.5,140a2.1,2.1,0,0,1,1.133-.356Z" transform="translate(-159.34 -136.844)" fill="#fff"/>
        <path id="Caminho_7982" data-name="Caminho 7982" d="M216.639,143.393a3.853,3.853,0,0,1-.96,2.783,3.55,3.55,0,0,1-2.687,1,3.481,3.481,0,0,1-2.635-1.021,4.42,4.42,0,0,1-.019-5.524,3.588,3.588,0,0,1,2.693-.985,3.841,3.841,0,0,1,1.894.456,3.11,3.11,0,0,1,1.268,1.306,4.22,4.22,0,0,1,.446,1.987Zm-4.712,0a3.223,3.223,0,0,0,.251,1.428.871.871,0,0,0,.841.491.846.846,0,0,0,.825-.491,3.348,3.348,0,0,0,.241-1.428,3.173,3.173,0,0,0-.244-1.406.967.967,0,0,0-1.663,0A3.1,3.1,0,0,0,211.927,143.393Z" transform="translate(-162.623 -136.845)" fill="#fff"/>
        <path id="Caminho_7983" data-name="Caminho 7983" d="M230.357,145.723A2.175,2.175,0,0,1,229,145.28a2.814,2.814,0,0,1-.9-1.3,5.783,5.783,0,0,1-.318-2.009,4.717,4.717,0,0,1,.712-2.773,2.431,2.431,0,0,1,3.027-.758,2.367,2.367,0,0,1,.837.822h.052a12.052,12.052,0,0,1-.122-1.708v-1.945h2.529v9.989h-1.894l-.539-.918h-.1a2.127,2.127,0,0,1-1.932,1.046Zm1.027-1.984a.939.939,0,0,0,.851-.379,2.277,2.277,0,0,0,.267-1.169v-.2a2.542,2.542,0,0,0-.276-1.37.972.972,0,0,0-.867-.408.847.847,0,0,0-.767.466,2.653,2.653,0,0,0-.273,1.326,2.462,2.462,0,0,0,.276,1.29A.878.878,0,0,0,231.385,143.739Z" transform="translate(-169.236 -135.394)" fill="#fff"/>
        <path id="Caminho_7984" data-name="Caminho 7984" d="M244.805,147.173a3.9,3.9,0,0,1-2.822-.966,3.637,3.637,0,0,1-1-2.751,3.963,3.963,0,0,1,.931-2.828,3.48,3.48,0,0,1,2.658-.985,3.529,3.529,0,0,1,2.539.857,3.256,3.256,0,0,1,.9,2.469v1.117h-4.487a1.246,1.246,0,0,0,.446.957,1.747,1.747,0,0,0,1.146.347,5.536,5.536,0,0,0,1.216-.125,6.022,6.022,0,0,0,1.2-.427v1.8a4.424,4.424,0,0,1-1.22.417,8.458,8.458,0,0,1-1.5.115Zm-.147-5.822a1.042,1.042,0,0,0-.741.279,1.308,1.308,0,0,0-.35.876h2.157a1.253,1.253,0,0,0-.3-.841.985.985,0,0,0-.767-.315Z" transform="translate(-173.977 -136.844)" fill="#fff"/>
        <path id="Caminho_7985" data-name="Caminho 7985" d="M262.82,147.173a3.9,3.9,0,0,1-2.822-.966,3.637,3.637,0,0,1-1-2.751,3.963,3.963,0,0,1,.931-2.828,3.48,3.48,0,0,1,2.658-.985,3.529,3.529,0,0,1,2.539.857,3.256,3.256,0,0,1,.9,2.469v1.117H261.53a1.246,1.246,0,0,0,.446.957,1.747,1.747,0,0,0,1.146.347,5.536,5.536,0,0,0,1.216-.125,6.02,6.02,0,0,0,1.2-.427v1.8a4.424,4.424,0,0,1-1.22.417,8.458,8.458,0,0,1-1.5.115Zm-.147-5.822a1.042,1.042,0,0,0-.741.279,1.308,1.308,0,0,0-.35.876h2.157a1.253,1.253,0,0,0-.3-.841.985.985,0,0,0-.767-.315Z" transform="translate(-180.449 -136.844)" fill="#fff"/>
        <path id="Caminho_7986" data-name="Caminho 7986" d="M274.285,147.174a2.2,2.2,0,0,1-1.913-1,5.8,5.8,0,0,1,.016-5.527,2.248,2.248,0,0,1,1.936-1,2.212,2.212,0,0,1,1.984,1.027h.051l.186-.9h2.169V150.2h-2.51v-3.011q0-.218.077-1.066h-.077a2.07,2.07,0,0,1-1.92,1.046Zm1.021-1.945a.965.965,0,0,0,.832-.353,2.068,2.068,0,0,0,.26-1.194v-.3a2.681,2.681,0,0,0-.263-1.377.948.948,0,0,0-.867-.414q-1.04,0-1.04,1.868a2.632,2.632,0,0,0,.263,1.362.9.9,0,0,0,.815.411Z" transform="translate(-185.006 -136.845)" fill="#fff"/>
        <path id="Caminho_7987" data-name="Caminho 7987" d="M290.54,147.117l-.315-.905h-.147a2.038,2.038,0,0,1-.876.767,3.051,3.051,0,0,1-1.319.267,2.466,2.466,0,0,1-1.868-.7,2.73,2.73,0,0,1-.668-1.968v-4.738h2.51v3.974a2.278,2.278,0,0,0,.2,1.078.7.7,0,0,0,.664.366.966.966,0,0,0,.924-.511,3.886,3.886,0,0,0,.276-1.724v-3.184h2.51v7.273h-1.894Z" transform="translate(-189.917 -136.916)" fill="#fff"/>
        <path id="Caminho_7988" data-name="Caminho 7988" d="M299.032,136.392a1.061,1.061,0,0,1,.315-.841,1.993,1.993,0,0,1,2.035.006,1.052,1.052,0,0,1,.321.834q0,1.1-1.342,1.1T299.032,136.392Zm2.574,9.084H299.1V138.2h2.51Z" transform="translate(-194.834 -135.275)" fill="#fff"/>
        <path id="Caminho_7989" data-name="Caminho 7989" d="M310.151,147.174a2.264,2.264,0,0,1-1.856-.841h-.115a9.259,9.259,0,0,1,.115.95V150.2h-2.51V139.772h2.041l.353.925h.115a2.2,2.2,0,0,1,1.932-1.053,2.175,2.175,0,0,1,1.894,1,4.8,4.8,0,0,1,.686,2.747,4.721,4.721,0,0,1-.716,2.77,2.257,2.257,0,0,1-1.941,1.011Zm-.841-5.56a.812.812,0,0,0-.774.395,2.592,2.592,0,0,0-.241,1.172v.2a2.745,2.745,0,0,0,.25,1.354.853.853,0,0,0,.789.417.736.736,0,0,0,.7-.414,3.128,3.128,0,0,0,.218-1.371,3.024,3.024,0,0,0-.218-1.345.758.758,0,0,0-.725-.408Z" transform="translate(-197.26 -136.845)" fill="#fff"/>
        <path id="Caminho_7990" data-name="Caminho 7990" d="M322.316,147.173a3.9,3.9,0,0,1-2.821-.966,3.636,3.636,0,0,1-1-2.751,3.963,3.963,0,0,1,.931-2.828,3.482,3.482,0,0,1,2.658-.985,3.527,3.527,0,0,1,2.539.857,3.255,3.255,0,0,1,.9,2.469v1.117h-4.488a1.244,1.244,0,0,0,.446.957,1.745,1.745,0,0,0,1.146.347,5.546,5.546,0,0,0,1.217-.125,6.017,6.017,0,0,0,1.2-.427v1.8a4.42,4.42,0,0,1-1.219.417,8.461,8.461,0,0,1-1.5.115Zm-.147-5.822a1.042,1.042,0,0,0-.741.279,1.311,1.311,0,0,0-.35.876h2.157a1.247,1.247,0,0,0-.3-.841.985.985,0,0,0-.767-.315Z" transform="translate(-201.825 -136.844)" fill="#fff"/>
        <path id="Caminho_7991" data-name="Caminho 7991" d="M337.226,144.811a2.068,2.068,0,0,1-.8,1.765,3.756,3.756,0,0,1-2.285.6,9.939,9.939,0,0,1-1.406-.086,5.948,5.948,0,0,1-1.22-.318V144.76a7.523,7.523,0,0,0,1.281.424,5.389,5.389,0,0,0,1.242.167q.815,0,.815-.372a.421.421,0,0,0-.228-.343,10.446,10.446,0,0,0-1.325-.588,3.3,3.3,0,0,1-1.4-.934,2.128,2.128,0,0,1-.4-1.326,1.835,1.835,0,0,1,.784-1.579,3.741,3.741,0,0,1,2.214-.564,5.6,5.6,0,0,1,1.351.157,8.053,8.053,0,0,1,1.313.459l-.68,1.618a7.578,7.578,0,0,0-1.059-.382,3.548,3.548,0,0,0-.912-.158q-.617,0-.616.3a.374.374,0,0,0,.215.318,11.458,11.458,0,0,0,1.242.536,4.772,4.772,0,0,1,1.139.616,1.839,1.839,0,0,1,.552.709,2.5,2.5,0,0,1,.177.992Z" transform="translate(-206.501 -136.845)" fill="#fff"/>
        <path id="Caminho_7992" data-name="Caminho 7992" d="M342.115,148.842a1.175,1.175,0,0,1,.35-.912,1.453,1.453,0,0,1,1.017-.321,1.366,1.366,0,0,1,.975.321,1.193,1.193,0,0,1,.34.912,1.17,1.17,0,0,1-.35.9,1.368,1.368,0,0,1-.966.324,1.466,1.466,0,0,1-1-.321,1.142,1.142,0,0,1-.366-.905Z" transform="translate(-210.312 -139.706)" fill="#fff"/>
      </g>
    </g>
    <g id="Grupo_2993" data-name="Grupo 2993" transform="translate(24.103 123.249)">
      <circle id="Elipse_155" data-name="Elipse 155" cx="26.766" cy="26.766" r="26.766" fill="url(#linear-gradient-5)"/>
      <path id="Caminho_7993" data-name="Caminho 7993" d="M117.592,196.846a34.184,34.184,0,0,1,0,47.783H425.248V196.846Z" transform="translate(-66.351 -193.971)" fill="url(#linear-gradient-6)"/>
      <circle id="Elipse_156" data-name="Elipse 156" cx="8.074" cy="8.074" r="8.074" transform="translate(18.692 18.692)" fill="#fff"/>
      <g id="Grupo_2992" data-name="Grupo 2992" transform="translate(71.897 12.721)">
        <path id="Caminho_7994" data-name="Caminho 7994" d="M157.486,216.471a3.143,3.143,0,0,1-.928,2.43,3.741,3.741,0,0,1-2.635.857h-.712v3.113h-2.536v-9.385h3.248a3.971,3.971,0,0,1,2.671.777,2.77,2.77,0,0,1,.893,2.209Zm-4.276,1.219h.463a1.261,1.261,0,0,0,.908-.321,1.162,1.162,0,0,0,.337-.885q0-.951-1.053-.95h-.655v2.157Z" transform="translate(-150.135 -212.67)" fill="#fff"/>
        <path id="Caminho_7995" data-name="Caminho 7995" d="M166.744,224.111a3.9,3.9,0,0,1-2.822-.966,3.637,3.637,0,0,1-1-2.751,3.963,3.963,0,0,1,.931-2.828,3.48,3.48,0,0,1,2.658-.985,3.529,3.529,0,0,1,2.539.857,3.256,3.256,0,0,1,.9,2.469v1.117h-4.487a1.246,1.246,0,0,0,.446.957,1.747,1.747,0,0,0,1.146.347,5.536,5.536,0,0,0,1.216-.125,6.021,6.021,0,0,0,1.2-.427v1.8a4.424,4.424,0,0,1-1.22.417,8.456,8.456,0,0,1-1.5.115Zm-.147-5.822a1.042,1.042,0,0,0-.741.279,1.308,1.308,0,0,0-.35.876h2.157a1.253,1.253,0,0,0-.3-.841.985.985,0,0,0-.767-.315Z" transform="translate(-154.533 -213.782)" fill="#fff"/>
        <path id="Caminho_7996" data-name="Caminho 7996" d="M180.485,216.581a3.6,3.6,0,0,1,.623.051l.142.026-.225,2.369a3.692,3.692,0,0,0-.854-.078,1.628,1.628,0,0,0-1.194.375,1.471,1.471,0,0,0-.373,1.082v3.576h-2.51v-7.273h1.868l.391,1.162h.122a2.512,2.512,0,0,1,.877-.934,2.1,2.1,0,0,1,1.133-.356Z" transform="translate(-159.267 -213.782)" fill="#fff"/>
        <path id="Caminho_7997" data-name="Caminho 7997" d="M189.841,217.022h-1.547v5.393h-2.51v-5.393h-.963V215.79l1.014-.616v-.122a2.978,2.978,0,0,1,.588-2.068,2.474,2.474,0,0,1,1.884-.629,5.512,5.512,0,0,1,.947.078,7.57,7.57,0,0,1,1.037.269l-.539,1.624a3.389,3.389,0,0,0-.905-.128.491.491,0,0,0-.42.176.975.975,0,0,0-.131.574v.193h1.547v1.881Zm.937-3.691a1.061,1.061,0,0,1,.315-.841,1.993,1.993,0,0,1,2.035.006,1.053,1.053,0,0,1,.321.834q0,1.1-1.342,1.1T190.778,213.331Zm2.574,9.084h-2.51v-7.273h2.51Z" transform="translate(-162.402 -212.213)" fill="#fff"/>
        <path id="Caminho_7998" data-name="Caminho 7998" d="M203.372,222.533h-2.51v-9.989h2.51Z" transform="translate(-168.166 -212.332)" fill="#fff"/>
        <path id="Caminho_7999" data-name="Caminho 7999" d="M214.908,222.661a2.175,2.175,0,0,1-1.358-.443,2.814,2.814,0,0,1-.9-1.3,5.783,5.783,0,0,1-.318-2.009,4.717,4.717,0,0,1,.712-2.773,2.274,2.274,0,0,1,1.958-1,2.252,2.252,0,0,1,1.069.243,2.367,2.367,0,0,1,.837.822h.052a12.052,12.052,0,0,1-.122-1.708v-1.945h2.529v9.989h-1.894l-.539-.918h-.1a2.127,2.127,0,0,1-1.932,1.046Zm1.027-1.984a.939.939,0,0,0,.851-.379,2.277,2.277,0,0,0,.267-1.169v-.2a2.542,2.542,0,0,0-.276-1.371.972.972,0,0,0-.867-.408.847.847,0,0,0-.767.466,2.653,2.653,0,0,0-.273,1.326,2.462,2.462,0,0,0,.276,1.29A.878.878,0,0,0,215.936,220.677Z" transform="translate(-172.288 -212.332)" fill="#fff"/>
        <path id="Caminho_8000" data-name="Caminho 8000" d="M232.791,220.331a3.853,3.853,0,0,1-.96,2.783,3.55,3.55,0,0,1-2.687,1,3.481,3.481,0,0,1-2.635-1.021,4.42,4.42,0,0,1-.019-5.524,3.588,3.588,0,0,1,2.693-.985,3.841,3.841,0,0,1,1.894.456,3.11,3.11,0,0,1,1.268,1.306,4.221,4.221,0,0,1,.446,1.987Zm-4.712,0a3.223,3.223,0,0,0,.251,1.428.871.871,0,0,0,.841.491.846.846,0,0,0,.825-.491,3.348,3.348,0,0,0,.241-1.428,3.173,3.173,0,0,0-.244-1.406.967.967,0,0,0-1.663,0A3.1,3.1,0,0,0,228.079,220.331Z" transform="translate(-177.029 -213.783)" fill="#fff"/>
        <path id="Caminho_8001" data-name="Caminho 8001" d="M248.792,224.112a2.264,2.264,0,0,1-1.856-.841h-.115a9.255,9.255,0,0,1,.115.95v2.921h-2.51V216.71h2.041l.353.925h.115a2.2,2.2,0,0,1,1.932-1.053,2.175,2.175,0,0,1,1.894,1,4.8,4.8,0,0,1,.687,2.747,4.726,4.726,0,0,1-.716,2.771,2.258,2.258,0,0,1-1.942,1.011Zm-.841-5.56a.813.813,0,0,0-.774.395,2.582,2.582,0,0,0-.241,1.172v.2a2.744,2.744,0,0,0,.251,1.354.853.853,0,0,0,.789.417.736.736,0,0,0,.7-.414,3.135,3.135,0,0,0,.219-1.37,3.032,3.032,0,0,0-.219-1.345.758.758,0,0,0-.725-.408Z" transform="translate(-183.818 -213.783)" fill="#fff"/>
        <path id="Caminho_8002" data-name="Caminho 8002" d="M262.014,216.581a3.6,3.6,0,0,1,.623.051l.142.026-.225,2.369a3.692,3.692,0,0,0-.854-.078,1.628,1.628,0,0,0-1.194.375,1.471,1.471,0,0,0-.373,1.082v3.576h-2.51v-7.273h1.868l.391,1.162H260a2.512,2.512,0,0,1,.877-.934,2.1,2.1,0,0,1,1.133-.356Z" transform="translate(-188.559 -213.782)" fill="#fff"/>
        <path id="Caminho_8003" data-name="Caminho 8003" d="M274.022,220.331a3.853,3.853,0,0,1-.96,2.783,3.55,3.55,0,0,1-2.687,1,3.481,3.481,0,0,1-2.635-1.021,4.42,4.42,0,0,1-.019-5.524,3.588,3.588,0,0,1,2.693-.985,3.841,3.841,0,0,1,1.894.456,3.11,3.11,0,0,1,1.268,1.306,4.221,4.221,0,0,1,.446,1.987Zm-4.712,0a3.223,3.223,0,0,0,.251,1.428.871.871,0,0,0,.841.491.846.846,0,0,0,.825-.491,3.348,3.348,0,0,0,.241-1.428,3.172,3.172,0,0,0-.244-1.406.967.967,0,0,0-1.663,0A3.1,3.1,0,0,0,269.31,220.331Z" transform="translate(-191.842 -213.783)" fill="#fff"/>
        <path id="Caminho_8004" data-name="Caminho 8004" d="M284.445,217.022H282.9v5.393h-2.51v-5.393h-.963V215.79l1.014-.616v-.122a2.978,2.978,0,0,1,.588-2.068,2.474,2.474,0,0,1,1.884-.629,5.512,5.512,0,0,1,.947.078,7.57,7.57,0,0,1,1.037.269l-.539,1.624a3.389,3.389,0,0,0-.905-.128.491.491,0,0,0-.42.176.975.975,0,0,0-.131.574v.193h1.547v1.881Zm.937-3.691a1.061,1.061,0,0,1,.315-.841,1.993,1.993,0,0,1,2.035.006,1.053,1.053,0,0,1,.321.834q0,1.1-1.342,1.1T285.382,213.331Zm2.574,9.084h-2.51v-7.273h2.51Z" transform="translate(-196.391 -212.213)" fill="#fff"/>
        <path id="Caminho_8005" data-name="Caminho 8005" d="M301.026,221.749a2.067,2.067,0,0,1-.8,1.765,3.76,3.76,0,0,1-2.285.6,9.94,9.94,0,0,1-1.406-.086,5.936,5.936,0,0,1-1.22-.318V221.7a7.522,7.522,0,0,0,1.281.424,5.389,5.389,0,0,0,1.242.167q.815,0,.815-.372a.422.422,0,0,0-.227-.343,10.476,10.476,0,0,0-1.326-.588,3.3,3.3,0,0,1-1.4-.934,2.128,2.128,0,0,1-.4-1.326,1.837,1.837,0,0,1,.783-1.579,3.744,3.744,0,0,1,2.215-.564,5.605,5.605,0,0,1,1.351.157,8.054,8.054,0,0,1,1.313.459l-.68,1.618a7.577,7.577,0,0,0-1.059-.382,3.516,3.516,0,0,0-.911-.158q-.617,0-.616.3a.376.376,0,0,0,.215.318,11.5,11.5,0,0,0,1.242.536,4.774,4.774,0,0,1,1.139.616,1.847,1.847,0,0,1,.552.709,2.488,2.488,0,0,1,.176.992Z" transform="translate(-202.097 -213.783)" fill="#fff"/>
        <path id="Caminho_8006" data-name="Caminho 8006" d="M311.968,221.749a2.068,2.068,0,0,1-.8,1.765,3.756,3.756,0,0,1-2.285.6,9.939,9.939,0,0,1-1.406-.086,5.936,5.936,0,0,1-1.22-.318V221.7a7.523,7.523,0,0,0,1.281.424,5.389,5.389,0,0,0,1.242.167q.815,0,.816-.372a.421.421,0,0,0-.228-.343,10.383,10.383,0,0,0-1.326-.588,3.3,3.3,0,0,1-1.4-.934,2.128,2.128,0,0,1-.4-1.326,1.837,1.837,0,0,1,.783-1.579,3.744,3.744,0,0,1,2.215-.564,5.605,5.605,0,0,1,1.351.157,8.054,8.054,0,0,1,1.313.459l-.68,1.618a7.577,7.577,0,0,0-1.059-.382,3.548,3.548,0,0,0-.912-.158q-.617,0-.616.3a.376.376,0,0,0,.215.318,11.4,11.4,0,0,0,1.242.536,4.773,4.773,0,0,1,1.139.616,1.84,1.84,0,0,1,.552.709,2.5,2.5,0,0,1,.177.992Z" transform="translate(-206.029 -213.783)" fill="#fff"/>
        <path id="Caminho_8007" data-name="Caminho 8007" d="M317.268,213.33a1.061,1.061,0,0,1,.315-.841,1.993,1.993,0,0,1,2.035.006,1.053,1.053,0,0,1,.321.834q0,1.1-1.342,1.1T317.268,213.33Zm2.574,9.084h-2.51V215.14h2.51Z" transform="translate(-209.988 -212.213)" fill="#fff"/>
        <path id="Caminho_8008" data-name="Caminho 8008" d="M330.791,220.331a3.851,3.851,0,0,1-.96,2.783,3.549,3.549,0,0,1-2.686,1,3.479,3.479,0,0,1-2.635-1.021,4.42,4.42,0,0,1-.019-5.524,3.587,3.587,0,0,1,2.693-.985,3.843,3.843,0,0,1,1.894.456,3.114,3.114,0,0,1,1.268,1.306,4.213,4.213,0,0,1,.446,1.987Zm-4.712,0a3.223,3.223,0,0,0,.251,1.428.869.869,0,0,0,.841.491.845.845,0,0,0,.825-.491,3.338,3.338,0,0,0,.241-1.428,3.172,3.172,0,0,0-.244-1.406.967.967,0,0,0-1.663,0,3.1,3.1,0,0,0-.251,1.409Z" transform="translate(-212.238 -213.783)" fill="#fff"/>
        <path id="Caminho_8009" data-name="Caminho 8009" d="M341.687,223.984v-3.967a2.268,2.268,0,0,0-.209-1.094.712.712,0,0,0-.671-.369.971.971,0,0,0-.918.507,3.844,3.844,0,0,0-.282,1.74v3.184H337.1v-7.273h1.894l.315.9h.147a2,2,0,0,1,.889-.771,3.146,3.146,0,0,1,1.306-.256,2.479,2.479,0,0,1,1.878.7,2.733,2.733,0,0,1,.671,1.971v4.731h-2.51Z" transform="translate(-217.112 -213.783)" fill="#fff"/>
        <path id="Caminho_8010" data-name="Caminho 8010" d="M355.368,223.984l-.481-.963h-.051a2.861,2.861,0,0,1-1.034.86,3.421,3.421,0,0,1-1.361.231,2.133,2.133,0,0,1-1.618-.616,2.4,2.4,0,0,1-.591-1.733,1.971,1.971,0,0,1,.809-1.73,4.428,4.428,0,0,1,2.343-.639l1.214-.038v-.1a.789.789,0,0,0-.886-.9,5.3,5.3,0,0,0-2.022.539l-.725-1.656a6.97,6.97,0,0,1,3.21-.655,3.119,3.119,0,0,1,2.167.693,2.48,2.48,0,0,1,.767,1.939v4.77h-1.74Zm-1.861-1.643a1.13,1.13,0,0,0,.78-.289.958.958,0,0,0,.325-.751v-.565l-.578.026q-1.239.045-1.239.912Q352.795,222.34,353.507,222.34Z" transform="translate(-221.831 -213.783)" fill="#fff"/>
        <path id="Caminho_8011" data-name="Caminho 8011" d="M366.139,222.533h-2.51v-9.989h2.51Z" transform="translate(-226.644 -212.332)" fill="#fff"/>
        <path id="Caminho_8012" data-name="Caminho 8012" d="M377.707,224.112a2.2,2.2,0,0,1-1.913-1,5.8,5.8,0,0,1,.016-5.527,2.248,2.248,0,0,1,1.936-1,2.213,2.213,0,0,1,1.984,1.027h.051l.186-.9h2.17v10.432h-2.51v-3.011q0-.218.077-1.066h-.077a2.072,2.072,0,0,1-1.92,1.046Zm1.021-1.945a.965.965,0,0,0,.832-.353,2.068,2.068,0,0,0,.259-1.194v-.3a2.689,2.689,0,0,0-.263-1.377.949.949,0,0,0-.867-.414q-1.04,0-1.04,1.868a2.64,2.64,0,0,0,.263,1.362.9.9,0,0,0,.815.411Z" transform="translate(-230.766 -213.783)" fill="#fff"/>
        <path id="Caminho_8013" data-name="Caminho 8013" d="M393.961,224.055l-.315-.905H393.5a2.04,2.04,0,0,1-.876.767,3.054,3.054,0,0,1-1.32.267,2.463,2.463,0,0,1-1.868-.7,2.729,2.729,0,0,1-.668-1.968v-4.738h2.51v3.974a2.287,2.287,0,0,0,.2,1.078.7.7,0,0,0,.664.366.967.967,0,0,0,.925-.511,3.886,3.886,0,0,0,.276-1.724V216.78h2.51v7.273h-1.894Z" transform="translate(-235.676 -213.854)" fill="#fff"/>
        <path id="Caminho_8014" data-name="Caminho 8014" d="M405.87,224.111a3.9,3.9,0,0,1-2.821-.966,3.636,3.636,0,0,1-1-2.751,3.963,3.963,0,0,1,.931-2.828,3.482,3.482,0,0,1,2.658-.985,3.527,3.527,0,0,1,2.539.857,3.255,3.255,0,0,1,.9,2.469v1.117h-4.488a1.244,1.244,0,0,0,.446.957,1.745,1.745,0,0,0,1.146.347,5.547,5.547,0,0,0,1.217-.125,6.016,6.016,0,0,0,1.2-.427v1.8a4.421,4.421,0,0,1-1.219.417,8.459,8.459,0,0,1-1.5.115Zm-.147-5.822a1.042,1.042,0,0,0-.741.279,1.311,1.311,0,0,0-.35.876h2.157a1.247,1.247,0,0,0-.3-.841.985.985,0,0,0-.767-.315Z" transform="translate(-240.446 -213.782)" fill="#fff"/>
        <path id="Caminho_8015" data-name="Caminho 8015" d="M424.94,216.581a3.6,3.6,0,0,1,.623.051l.142.026-.225,2.369a3.7,3.7,0,0,0-.854-.078,1.628,1.628,0,0,0-1.194.375,1.471,1.471,0,0,0-.372,1.082v3.576h-2.51v-7.273h1.868l.391,1.162h.122a2.511,2.511,0,0,1,.876-.934,2.1,2.1,0,0,1,1.133-.356Z" transform="translate(-247.094 -213.782)" fill="#fff"/>
        <path id="Caminho_8016" data-name="Caminho 8016" d="M433.513,224.111a3.9,3.9,0,0,1-2.821-.966,3.636,3.636,0,0,1-1-2.751,3.963,3.963,0,0,1,.931-2.828,3.482,3.482,0,0,1,2.658-.985,3.527,3.527,0,0,1,2.539.857,3.255,3.255,0,0,1,.9,2.469v1.117h-4.488a1.244,1.244,0,0,0,.446.957,1.745,1.745,0,0,0,1.146.347,5.546,5.546,0,0,0,1.217-.125,6.015,6.015,0,0,0,1.2-.427v1.8a4.421,4.421,0,0,1-1.219.417,8.459,8.459,0,0,1-1.5.115Zm-.147-5.822a1.041,1.041,0,0,0-.741.279,1.311,1.311,0,0,0-.35.876h2.157a1.247,1.247,0,0,0-.3-.841.985.985,0,0,0-.767-.315Z" transform="translate(-250.377 -213.782)" fill="#fff"/>
        <path id="Caminho_8017" data-name="Caminho 8017" d="M447.387,223.984l-.481-.963h-.051a2.861,2.861,0,0,1-1.034.86,3.421,3.421,0,0,1-1.361.231,2.132,2.132,0,0,1-1.618-.616,2.4,2.4,0,0,1-.591-1.733,1.971,1.971,0,0,1,.809-1.73,4.427,4.427,0,0,1,2.343-.639l1.214-.038v-.1a.789.789,0,0,0-.886-.9,5.3,5.3,0,0,0-2.022.539l-.725-1.656a6.97,6.97,0,0,1,3.21-.655,3.119,3.119,0,0,1,2.167.693,2.48,2.48,0,0,1,.767,1.939v4.77h-1.74Zm-1.861-1.643a1.13,1.13,0,0,0,.78-.289.958.958,0,0,0,.325-.751v-.565l-.578.026q-1.239.045-1.239.912Q444.814,222.34,445.526,222.34Z" transform="translate(-254.892 -213.783)" fill="#fff"/>
        <path id="Caminho_8018" data-name="Caminho 8018" d="M458.157,222.533h-2.51v-9.989h2.51Z" transform="translate(-259.704 -212.332)" fill="#fff"/>
        <path id="Caminho_8019" data-name="Caminho 8019" d="M462.2,213.33a1.061,1.061,0,0,1,.315-.841,1.993,1.993,0,0,1,2.035.006,1.053,1.053,0,0,1,.321.834q0,1.1-1.342,1.1T462.2,213.33Zm2.574,9.084h-2.51V215.14h2.51Z" transform="translate(-262.059 -212.213)" fill="#fff"/>
        <path id="Caminho_8020" data-name="Caminho 8020" d="M474.114,224.056h-6.022v-1.431L471.1,218.7h-2.838v-1.92h5.707v1.554l-2.883,3.8h3.024v1.92Z" transform="translate(-264.175 -213.855)" fill="#fff"/>
        <path id="Caminho_8021" data-name="Caminho 8021" d="M483.878,223.984l-.481-.963h-.051a2.861,2.861,0,0,1-1.034.86,3.421,3.421,0,0,1-1.361.231,2.133,2.133,0,0,1-1.618-.616,2.4,2.4,0,0,1-.591-1.733,1.971,1.971,0,0,1,.809-1.73,4.428,4.428,0,0,1,2.343-.639l1.214-.038v-.1a.789.789,0,0,0-.886-.9,5.3,5.3,0,0,0-2.022.539l-.725-1.656a6.97,6.97,0,0,1,3.21-.655,3.119,3.119,0,0,1,2.167.693,2.48,2.48,0,0,1,.767,1.939v4.77h-1.74Zm-1.861-1.643a1.13,1.13,0,0,0,.78-.289.958.958,0,0,0,.325-.751v-.565l-.578.026q-1.239.045-1.239.912Q481.3,222.34,482.017,222.34Z" transform="translate(-268.002 -213.783)" fill="#fff"/>
        <path id="Caminho_8022" data-name="Caminho 8022" d="M504.238,220.331a3.851,3.851,0,0,1-.96,2.783,3.549,3.549,0,0,1-2.686,1,3.48,3.48,0,0,1-2.635-1.021,4.42,4.42,0,0,1-.019-5.524,3.587,3.587,0,0,1,2.693-.985,3.843,3.843,0,0,1,1.894.456,3.114,3.114,0,0,1,1.268,1.306,4.213,4.213,0,0,1,.446,1.987Zm-4.712,0a3.223,3.223,0,0,0,.25,1.428.869.869,0,0,0,.841.491.845.845,0,0,0,.825-.491,3.338,3.338,0,0,0,.241-1.428,3.173,3.173,0,0,0-.244-1.406.967.967,0,0,0-1.663,0,3.1,3.1,0,0,0-.25,1.409Z" transform="translate(-274.554 -213.783)" fill="#fff"/>
        <path id="Caminho_8023" data-name="Caminho 8023" d="M154.968,248.608l-.481-.963h-.051a2.861,2.861,0,0,1-1.034.86,3.422,3.422,0,0,1-1.362.231,2.133,2.133,0,0,1-1.618-.616,2.4,2.4,0,0,1-.591-1.733,1.971,1.971,0,0,1,.809-1.73,4.428,4.428,0,0,1,2.343-.639l1.214-.038v-.1a.789.789,0,0,0-.886-.9,5.3,5.3,0,0,0-2.022.539l-.725-1.656a6.97,6.97,0,0,1,3.21-.655,3.116,3.116,0,0,1,2.166.693,2.48,2.48,0,0,1,.767,1.939v4.77h-1.74Zm-1.861-1.643a1.13,1.13,0,0,0,.78-.288.96.96,0,0,0,.324-.751v-.565l-.578.026q-1.239.045-1.239.911,0,.668.712.668Z" transform="translate(-149.832 -222.63)" fill="#fff"/>
        <path id="Caminho_8024" data-name="Caminho 8024" d="M166.364,248.736a3.572,3.572,0,0,1-2.706-.963,3.848,3.848,0,0,1-.921-2.767,3.464,3.464,0,0,1,3.826-3.8,5.308,5.308,0,0,1,2.382.552l-.738,1.856a8.058,8.058,0,0,0-.841-.318,2.7,2.7,0,0,0-.8-.119,1.085,1.085,0,0,0-.944.475,2.312,2.312,0,0,0-.334,1.342q0,1.746,1.29,1.746a3.91,3.91,0,0,0,2.118-.641v2a4.125,4.125,0,0,1-2.33.642Z" transform="translate(-154.468 -222.63)" fill="#fff"/>
        <path id="Caminho_8025" data-name="Caminho 8025" d="M181.06,244.954a3.853,3.853,0,0,1-.96,2.783,3.553,3.553,0,0,1-2.687,1,3.481,3.481,0,0,1-2.635-1.021,4.42,4.42,0,0,1-.019-5.524,3.588,3.588,0,0,1,2.693-.985,3.841,3.841,0,0,1,1.894.456,3.11,3.11,0,0,1,1.268,1.306,4.221,4.221,0,0,1,.446,1.987Zm-4.712,0a3.223,3.223,0,0,0,.251,1.428.871.871,0,0,0,.841.491.846.846,0,0,0,.825-.491,3.348,3.348,0,0,0,.241-1.428,3.173,3.173,0,0,0-.244-1.406.967.967,0,0,0-1.663,0A3.1,3.1,0,0,0,176.348,244.954Z" transform="translate(-158.443 -222.629)" fill="#fff"/>
        <path id="Caminho_8026" data-name="Caminho 8026" d="M189.876,247.157h-2.51v-9.989h2.51Z" transform="translate(-163.317 -221.179)" fill="#fff"/>
        <path id="Caminho_8027" data-name="Caminho 8027" d="M198.575,247.157V243.19q0-1.464-.867-1.464a.972.972,0,0,0-.909.517,3.7,3.7,0,0,0-.292,1.717v3.2H194v-9.989h2.51v1.419q0,.963-.1,2.2h.115a2.064,2.064,0,0,1,.854-.8,2.69,2.69,0,0,1,1.149-.231,2.51,2.51,0,0,1,1.9.7,2.718,2.718,0,0,1,.677,1.968v4.731h-2.523Z" transform="translate(-165.7 -221.179)" fill="#fff"/>
        <path id="Caminho_8028" data-name="Caminho 8028" d="M207.664,237.954a1.061,1.061,0,0,1,.315-.841,1.993,1.993,0,0,1,2.035.006,1.052,1.052,0,0,1,.321.834q0,1.1-1.342,1.1T207.664,237.954Zm2.574,9.084h-2.51v-7.273h2.51Z" transform="translate(-170.61 -221.06)" fill="#fff"/>
        <path id="Caminho_8029" data-name="Caminho 8029" d="M223.347,248.607v-3.955a2.381,2.381,0,0,0-.2-1.108.677.677,0,0,0-.639-.369.9.9,0,0,0-.847.494,3.368,3.368,0,0,0-.27,1.547v3.389h-2.517v-3.955a2.474,2.474,0,0,0-.193-1.108.652.652,0,0,0-.623-.369.9.9,0,0,0-.861.527,4.027,4.027,0,0,0-.27,1.72v3.184h-2.51v-7.273h1.894l.315.9h.147a1.875,1.875,0,0,1,.838-.764,2.852,2.852,0,0,1,1.249-.263,2.454,2.454,0,0,1,2.209.957h.2a2.061,2.061,0,0,1,.857-.7,2.85,2.85,0,0,1,1.21-.254,2.491,2.491,0,0,1,1.907.661,2.859,2.859,0,0,1,.616,2.009v4.731h-2.51Z" transform="translate(-173.036 -222.629)" fill="#fff"/>
        <path id="Caminho_8030" data-name="Caminho 8030" d="M238.272,248.735a3.9,3.9,0,0,1-2.822-.966,3.638,3.638,0,0,1-1-2.751,3.963,3.963,0,0,1,.931-2.828,3.48,3.48,0,0,1,2.658-.985,3.529,3.529,0,0,1,2.539.857,3.256,3.256,0,0,1,.9,2.469v1.117h-4.487a1.245,1.245,0,0,0,.446.957,1.751,1.751,0,0,0,1.146.347,5.536,5.536,0,0,0,1.216-.125,6.06,6.06,0,0,0,1.2-.427v1.8a4.467,4.467,0,0,1-1.22.417,8.457,8.457,0,0,1-1.5.115Zm-.147-5.822a1.041,1.041,0,0,0-.741.279,1.308,1.308,0,0,0-.35.876h2.157a1.253,1.253,0,0,0-.3-.841.985.985,0,0,0-.767-.315Z" transform="translate(-180.232 -222.629)" fill="#fff"/>
        <path id="Caminho_8031" data-name="Caminho 8031" d="M252.212,248.608v-3.967a2.275,2.275,0,0,0-.209-1.094.713.713,0,0,0-.671-.369.971.971,0,0,0-.918.507,3.842,3.842,0,0,0-.283,1.74v3.184h-2.51v-7.273h1.894l.315.9h.147a1.992,1.992,0,0,1,.889-.771,3.144,3.144,0,0,1,1.306-.256,2.481,2.481,0,0,1,1.878.7,2.733,2.733,0,0,1,.671,1.971v4.731h-2.51Z" transform="translate(-184.966 -222.63)" fill="#fff"/>
        <path id="Caminho_8032" data-name="Caminho 8032" d="M264.637,246.006a3.716,3.716,0,0,0,1.214-.251v1.83a4.9,4.9,0,0,1-.966.311,5.409,5.409,0,0,1-1.075.094,2.349,2.349,0,0,1-1.824-.62,2.776,2.776,0,0,1-.559-1.9v-3h-.88v-1.021l1.117-.789.648-1.528h1.643v1.457h1.784v1.881h-1.784V245.3q0,.706.68.706Z" transform="translate(-189.609 -221.884)" fill="#fff"/>
        <path id="Caminho_8033" data-name="Caminho 8033" d="M277.577,244.954a3.853,3.853,0,0,1-.96,2.783,3.553,3.553,0,0,1-2.687,1,3.481,3.481,0,0,1-2.635-1.021,4.42,4.42,0,0,1-.019-5.524,3.588,3.588,0,0,1,2.693-.985,3.841,3.841,0,0,1,1.894.456,3.11,3.11,0,0,1,1.268,1.306,4.221,4.221,0,0,1,.446,1.987Zm-4.712,0a3.223,3.223,0,0,0,.251,1.428.871.871,0,0,0,.841.491.846.846,0,0,0,.825-.491,3.348,3.348,0,0,0,.241-1.428,3.173,3.173,0,0,0-.244-1.406.967.967,0,0,0-1.663,0A3.1,3.1,0,0,0,272.865,244.954Z" transform="translate(-193.119 -222.629)" fill="#fff"/>
        <path id="Caminho_8034" data-name="Caminho 8034" d="M292.548,248.735a3.9,3.9,0,0,1-2.822-.966,3.638,3.638,0,0,1-1-2.751,3.963,3.963,0,0,1,.931-2.828,3.48,3.48,0,0,1,2.658-.985,3.529,3.529,0,0,1,2.539.857,3.256,3.256,0,0,1,.9,2.469v1.117h-4.487a1.245,1.245,0,0,0,.446.957,1.751,1.751,0,0,0,1.146.347,5.536,5.536,0,0,0,1.216-.125,6.06,6.06,0,0,0,1.2-.427v1.8a4.467,4.467,0,0,1-1.22.417,8.456,8.456,0,0,1-1.5.115Zm-.147-5.822a1.042,1.042,0,0,0-.741.279,1.308,1.308,0,0,0-.35.876h2.157a1.253,1.253,0,0,0-.3-.841.985.985,0,0,0-.767-.315Z" transform="translate(-199.732 -222.629)" fill="#fff"/>
        <path id="Caminho_8035" data-name="Caminho 8035" d="M311.753,248.608l-.482-.963h-.051a2.85,2.85,0,0,1-1.034.86,3.418,3.418,0,0,1-1.361.231,2.133,2.133,0,0,1-1.618-.616,2.4,2.4,0,0,1-.591-1.733,1.971,1.971,0,0,1,.809-1.73,4.428,4.428,0,0,1,2.344-.639l1.213-.038v-.1a.789.789,0,0,0-.886-.9,5.3,5.3,0,0,0-2.022.539l-.725-1.656a6.972,6.972,0,0,1,3.21-.655,3.118,3.118,0,0,1,2.166.693,2.477,2.477,0,0,1,.767,1.939v4.77h-1.74Zm-1.862-1.643a1.127,1.127,0,0,0,.78-.288.958.958,0,0,0,.325-.751v-.565l-.578.026q-1.239.045-1.239.911Q309.179,246.965,309.891,246.964Z" transform="translate(-206.161 -222.63)" fill="#fff"/>
        <path id="Caminho_8036" data-name="Caminho 8036" d="M328.479,248.736a3.573,3.573,0,0,1-2.706-.963,3.845,3.845,0,0,1-.921-2.767,3.465,3.465,0,0,1,3.826-3.8,5.309,5.309,0,0,1,2.382.552l-.738,1.856a8.058,8.058,0,0,0-.841-.318,2.7,2.7,0,0,0-.8-.119,1.085,1.085,0,0,0-.944.475,2.307,2.307,0,0,0-.334,1.342q0,1.746,1.29,1.746a3.912,3.912,0,0,0,2.119-.641v2a4.127,4.127,0,0,1-2.331.642Z" transform="translate(-212.713 -222.63)" fill="#fff"/>
        <path id="Caminho_8037" data-name="Caminho 8037" d="M338.914,247.157H336.4v-9.989h2.51Z" transform="translate(-216.863 -221.179)" fill="#fff"/>
        <path id="Caminho_8038" data-name="Caminho 8038" d="M347.561,248.608l-.481-.963h-.051a2.861,2.861,0,0,1-1.034.86,3.421,3.421,0,0,1-1.361.231,2.132,2.132,0,0,1-1.618-.616,2.4,2.4,0,0,1-.591-1.733,1.971,1.971,0,0,1,.809-1.73,4.427,4.427,0,0,1,2.343-.639l1.214-.038v-.1a.789.789,0,0,0-.886-.9,5.3,5.3,0,0,0-2.022.539l-.725-1.656a6.97,6.97,0,0,1,3.21-.655,3.119,3.119,0,0,1,2.167.693,2.48,2.48,0,0,1,.767,1.939v4.77h-1.74Zm-1.861-1.643a1.13,1.13,0,0,0,.78-.288.958.958,0,0,0,.325-.751v-.565l-.578.026q-1.239.045-1.239.911Q344.988,246.965,345.7,246.964Z" transform="translate(-219.027 -222.63)" fill="#fff"/>
        <path id="Caminho_8039" data-name="Caminho 8039" d="M361.383,246.373a2.068,2.068,0,0,1-.8,1.765,3.756,3.756,0,0,1-2.285.6,9.939,9.939,0,0,1-1.406-.086,6.03,6.03,0,0,1-1.22-.318v-2.009a7.58,7.58,0,0,0,1.281.424,5.386,5.386,0,0,0,1.242.167q.815,0,.815-.372a.422.422,0,0,0-.228-.343,10.448,10.448,0,0,0-1.325-.588,3.3,3.3,0,0,1-1.4-.934,2.128,2.128,0,0,1-.4-1.326,1.835,1.835,0,0,1,.784-1.579,3.741,3.741,0,0,1,2.214-.564,5.605,5.605,0,0,1,1.351.157,8.054,8.054,0,0,1,1.313.459l-.68,1.618a7.577,7.577,0,0,0-1.059-.382,3.548,3.548,0,0,0-.912-.158q-.617,0-.616.3a.374.374,0,0,0,.215.318,11.461,11.461,0,0,0,1.242.536,4.772,4.772,0,0,1,1.139.616,1.84,1.84,0,0,1,.552.709,2.5,2.5,0,0,1,.177.992Z" transform="translate(-223.782 -222.629)" fill="#fff"/>
        <path id="Caminho_8040" data-name="Caminho 8040" d="M372.324,246.373a2.068,2.068,0,0,1-.8,1.765,3.757,3.757,0,0,1-2.285.6,9.94,9.94,0,0,1-1.406-.086,6.03,6.03,0,0,1-1.22-.318v-2.009a7.581,7.581,0,0,0,1.281.424,5.386,5.386,0,0,0,1.242.167q.815,0,.815-.372a.422.422,0,0,0-.228-.343,10.448,10.448,0,0,0-1.325-.588,3.3,3.3,0,0,1-1.4-.934,2.128,2.128,0,0,1-.4-1.326,1.836,1.836,0,0,1,.784-1.579,3.741,3.741,0,0,1,2.214-.564,5.605,5.605,0,0,1,1.351.157,8.054,8.054,0,0,1,1.313.459l-.68,1.618a7.574,7.574,0,0,0-1.059-.382,3.548,3.548,0,0,0-.912-.158q-.617,0-.616.3a.375.375,0,0,0,.215.318,11.46,11.46,0,0,0,1.242.536,4.774,4.774,0,0,1,1.139.616,1.84,1.84,0,0,1,.552.709,2.5,2.5,0,0,1,.177.992Z" transform="translate(-227.713 -222.629)" fill="#fff"/>
        <path id="Caminho_8041" data-name="Caminho 8041" d="M377.625,237.954a1.061,1.061,0,0,1,.315-.841,1.993,1.993,0,0,1,2.035.006,1.052,1.052,0,0,1,.321.834q0,1.1-1.342,1.1T377.625,237.954Zm2.574,9.084h-2.51v-7.273h2.51Z" transform="translate(-231.673 -221.06)" fill="#fff"/>
        <path id="Caminho_8042" data-name="Caminho 8042" d="M388.5,241.645h-1.547v5.393h-2.51v-5.393h-.963v-1.232l1.014-.616v-.122a2.982,2.982,0,0,1,.588-2.068,2.473,2.473,0,0,1,1.884-.629,5.506,5.506,0,0,1,.947.078,7.57,7.57,0,0,1,1.037.269l-.539,1.624a3.381,3.381,0,0,0-.9-.128.49.49,0,0,0-.42.176.97.97,0,0,0-.132.574v.193H388.5v1.881Zm.937-3.691a1.059,1.059,0,0,1,.315-.841,1.993,1.993,0,0,1,2.035.006,1.052,1.052,0,0,1,.321.834q0,1.1-1.342,1.1T389.433,237.954Zm2.574,9.084H389.5v-7.273h2.51Z" transform="translate(-233.775 -221.06)" fill="#fff"/>
        <path id="Caminho_8043" data-name="Caminho 8043" d="M402.653,248.736a3.573,3.573,0,0,1-2.706-.963,3.845,3.845,0,0,1-.921-2.767,3.465,3.465,0,0,1,3.826-3.8,5.309,5.309,0,0,1,2.382.552l-.738,1.856a8.06,8.06,0,0,0-.841-.318,2.7,2.7,0,0,0-.8-.119,1.085,1.085,0,0,0-.944.475,2.306,2.306,0,0,0-.334,1.342q0,1.746,1.29,1.746a3.912,3.912,0,0,0,2.119-.641v2a4.127,4.127,0,0,1-2.331.642Z" transform="translate(-239.362 -222.63)" fill="#fff"/>
        <path id="Caminho_8044" data-name="Caminho 8044" d="M415.1,248.608l-.481-.963h-.051a2.861,2.861,0,0,1-1.034.86,3.421,3.421,0,0,1-1.361.231,2.132,2.132,0,0,1-1.618-.616,2.4,2.4,0,0,1-.591-1.733,1.971,1.971,0,0,1,.809-1.73,4.428,4.428,0,0,1,2.343-.639l1.214-.038v-.1a.789.789,0,0,0-.886-.9,5.3,5.3,0,0,0-2.022.539l-.725-1.656a6.97,6.97,0,0,1,3.21-.655,3.119,3.119,0,0,1,2.167.693,2.48,2.48,0,0,1,.767,1.939v4.77H415.1Zm-1.861-1.643a1.13,1.13,0,0,0,.78-.288.958.958,0,0,0,.325-.751v-.565l-.578.026q-1.239.045-1.239.911Q412.53,246.965,413.242,246.964Z" transform="translate(-243.293 -222.63)" fill="#fff"/>
        <path id="Caminho_8045" data-name="Caminho 8045" d="M426.5,248.736a3.573,3.573,0,0,1-2.706-.963,3.845,3.845,0,0,1-.921-2.767,3.465,3.465,0,0,1,3.826-3.8,5.309,5.309,0,0,1,2.382.552l-.738,1.856a8.055,8.055,0,0,0-.841-.318,2.7,2.7,0,0,0-.8-.119,1.086,1.086,0,0,0-.944.475,2.307,2.307,0,0,0-.334,1.342q0,1.746,1.29,1.746a3.912,3.912,0,0,0,2.119-.641v2a4.127,4.127,0,0,1-2.331.642Zm1.265,1.49a1.412,1.412,0,0,1-.481,1.12,1.875,1.875,0,0,1-1.278.42,4,4,0,0,1-1.367-.186v-1.316a3.087,3.087,0,0,0,.944.174c.223,0,.334-.1.334-.3a.458.458,0,0,0-.263-.375,2.234,2.234,0,0,0-.687-.26l.463-.893h1.3l-.058.186a1.85,1.85,0,0,1,.854.594,1.435,1.435,0,0,1,.237.838Z" transform="translate(-247.929 -222.63)" fill="#fff"/>
        <path id="Caminho_8046" data-name="Caminho 8046" d="M438.95,247.067l-.481-.963h-.051a2.861,2.861,0,0,1-1.034.861,3.421,3.421,0,0,1-1.361.231,2.132,2.132,0,0,1-1.618-.616,2.4,2.4,0,0,1-.591-1.733,1.971,1.971,0,0,1,.809-1.73,4.428,4.428,0,0,1,2.343-.639l1.214-.038v-.1a.789.789,0,0,0-.886-.9,5.3,5.3,0,0,0-2.022.539l-.725-1.656a6.97,6.97,0,0,1,3.21-.655,3.119,3.119,0,0,1,2.167.693,2.48,2.48,0,0,1,.767,1.939v4.77h-1.74Zm-.218-7.954a1.846,1.846,0,0,1-.581-.1q-.293-.1-.574-.212t-.549-.212a1.469,1.469,0,0,0-.5-.1c-.231,0-.386.21-.463.629h-1.156a3.178,3.178,0,0,1,.463-1.659,1.341,1.341,0,0,1,1.156-.536,1.588,1.588,0,0,1,.52.1c.185.064.37.135.559.212s.374.147.558.212a1.569,1.569,0,0,0,.52.1.339.339,0,0,0,.3-.16,1.273,1.273,0,0,0,.167-.468h1.168a3.138,3.138,0,0,1-.475,1.634,1.288,1.288,0,0,1-1.1.562Zm-1.643,6.31a1.13,1.13,0,0,0,.78-.288.958.958,0,0,0,.325-.751v-.565l-.578.026q-1.239.045-1.239.911Q436.377,245.424,437.089,245.424Z" transform="translate(-251.861 -221.089)" fill="#fff"/>
        <path id="Caminho_8047" data-name="Caminho 8047" d="M453.981,244.954a3.85,3.85,0,0,1-.96,2.783,3.552,3.552,0,0,1-2.686,1,3.48,3.48,0,0,1-2.635-1.021,4.42,4.42,0,0,1-.019-5.524,3.587,3.587,0,0,1,2.693-.985,3.843,3.843,0,0,1,1.894.456,3.114,3.114,0,0,1,1.268,1.306,4.213,4.213,0,0,1,.446,1.987Zm-4.712,0a3.223,3.223,0,0,0,.251,1.428.869.869,0,0,0,.841.491.845.845,0,0,0,.825-.491,3.338,3.338,0,0,0,.241-1.428,3.173,3.173,0,0,0-.244-1.406.967.967,0,0,0-1.663,0,3.1,3.1,0,0,0-.251,1.409Z" transform="translate(-256.497 -222.629)" fill="#fff"/>
        <path id="Caminho_8048" data-name="Caminho 8048" d="M467.7,247.285a2.174,2.174,0,0,1-1.358-.443,2.81,2.81,0,0,1-.9-1.3,5.8,5.8,0,0,1-.318-2.009,4.717,4.717,0,0,1,.712-2.773,2.432,2.432,0,0,1,3.027-.758,2.368,2.368,0,0,1,.838.822h.051a12.047,12.047,0,0,1-.122-1.708v-1.945h2.529v9.989h-1.893l-.539-.918h-.1a2.127,2.127,0,0,1-1.932,1.046Zm1.027-1.984a.939.939,0,0,0,.851-.379,2.279,2.279,0,0,0,.266-1.169v-.2a2.542,2.542,0,0,0-.276-1.371.972.972,0,0,0-.867-.408.847.847,0,0,0-.767.466,2.646,2.646,0,0,0-.273,1.326,2.462,2.462,0,0,0,.276,1.29.878.878,0,0,0,.789.443Z" transform="translate(-263.109 -221.179)" fill="#fff"/>
        <path id="Caminho_8049" data-name="Caminho 8049" d="M482.147,248.735a3.9,3.9,0,0,1-2.821-.966,3.636,3.636,0,0,1-1-2.751,3.963,3.963,0,0,1,.931-2.828,3.482,3.482,0,0,1,2.658-.985,3.527,3.527,0,0,1,2.539.857,3.255,3.255,0,0,1,.9,2.469v1.117h-4.488a1.243,1.243,0,0,0,.446.957,1.749,1.749,0,0,0,1.146.347,5.546,5.546,0,0,0,1.217-.125,6.054,6.054,0,0,0,1.2-.427v1.8a4.463,4.463,0,0,1-1.219.417,8.459,8.459,0,0,1-1.5.115ZM482,242.913a1.042,1.042,0,0,0-.741.279,1.311,1.311,0,0,0-.35.876h2.157a1.247,1.247,0,0,0-.3-.841.985.985,0,0,0-.767-.315Z" transform="translate(-267.85 -222.629)" fill="#fff"/>
        <path id="Caminho_8050" data-name="Caminho 8050" d="M501.218,241.2a3.6,3.6,0,0,1,.623.051l.142.026-.225,2.369a3.7,3.7,0,0,0-.854-.078,1.628,1.628,0,0,0-1.194.375,1.471,1.471,0,0,0-.372,1.082v3.576h-2.51v-7.273H498.7l.391,1.162h.122a2.51,2.51,0,0,1,.876-.934,2.1,2.1,0,0,1,1.133-.356Z" transform="translate(-274.499 -222.628)" fill="#fff"/>
        <path id="Caminho_8051" data-name="Caminho 8051" d="M506.375,237.954a1.061,1.061,0,0,1,.315-.841,1.993,1.993,0,0,1,2.035.006,1.052,1.052,0,0,1,.321.834q0,1.1-1.342,1.1T506.375,237.954Zm2.574,9.084h-2.51v-7.273h2.51Z" transform="translate(-277.93 -221.06)" fill="#fff"/>
        <path id="Caminho_8052" data-name="Caminho 8052" d="M518.688,246.373a2.068,2.068,0,0,1-.8,1.765,3.756,3.756,0,0,1-2.285.6,9.939,9.939,0,0,1-1.406-.086,6.03,6.03,0,0,1-1.22-.318v-2.009a7.581,7.581,0,0,0,1.281.424,5.386,5.386,0,0,0,1.242.167q.815,0,.815-.372a.422.422,0,0,0-.228-.343,10.444,10.444,0,0,0-1.325-.588,3.3,3.3,0,0,1-1.4-.934,2.128,2.128,0,0,1-.4-1.326,1.835,1.835,0,0,1,.784-1.579,3.741,3.741,0,0,1,2.214-.564,5.605,5.605,0,0,1,1.351.157,8.051,8.051,0,0,1,1.313.459l-.68,1.618a7.578,7.578,0,0,0-1.059-.382,3.547,3.547,0,0,0-.912-.158q-.617,0-.616.3a.375.375,0,0,0,.215.318,11.455,11.455,0,0,0,1.242.536,4.773,4.773,0,0,1,1.139.616,1.84,1.84,0,0,1,.552.709,2.5,2.5,0,0,1,.177.992Z" transform="translate(-280.298 -222.629)" fill="#fff"/>
        <path id="Caminho_8053" data-name="Caminho 8053" d="M527.205,248.736a3.573,3.573,0,0,1-2.706-.963,3.845,3.845,0,0,1-.921-2.767,3.465,3.465,0,0,1,3.826-3.8,5.309,5.309,0,0,1,2.382.552l-.738,1.856a8.06,8.06,0,0,0-.841-.318,2.7,2.7,0,0,0-.8-.119,1.086,1.086,0,0,0-.944.475,2.307,2.307,0,0,0-.334,1.342q0,1.746,1.29,1.746a3.912,3.912,0,0,0,2.119-.641v2a4.126,4.126,0,0,1-2.331.642Z" transform="translate(-284.11 -222.63)" fill="#fff"/>
        <path id="Caminho_8054" data-name="Caminho 8054" d="M541.9,244.954a3.851,3.851,0,0,1-.96,2.783,3.552,3.552,0,0,1-2.686,1,3.479,3.479,0,0,1-2.635-1.021,4.42,4.42,0,0,1-.019-5.524,3.587,3.587,0,0,1,2.693-.985,3.843,3.843,0,0,1,1.894.456,3.113,3.113,0,0,1,1.268,1.306,4.212,4.212,0,0,1,.446,1.987Zm-4.712,0a3.223,3.223,0,0,0,.251,1.428.869.869,0,0,0,.841.491.846.846,0,0,0,.825-.491,3.338,3.338,0,0,0,.241-1.428,3.173,3.173,0,0,0-.244-1.406.967.967,0,0,0-1.663,0,3.1,3.1,0,0,0-.251,1.409Z" transform="translate(-288.085 -222.629)" fill="#fff"/>
        <path id="Caminho_8055" data-name="Caminho 8055" d="M547.715,250.4a1.176,1.176,0,0,1,.35-.912,1.453,1.453,0,0,1,1.018-.321,1.366,1.366,0,0,1,.975.321,1.194,1.194,0,0,1,.34.912,1.168,1.168,0,0,1-.35.9,1.365,1.365,0,0,1-.966.324,1.469,1.469,0,0,1-1-.32A1.141,1.141,0,0,1,547.715,250.4Z" transform="translate(-292.782 -225.491)" fill="#fff"/>
      </g>
    </g>
    <g id="Grupo_2995" data-name="Grupo 2995" transform="translate(14.608 180.433)">
      <circle id="Elipse_157" data-name="Elipse 157" cx="26.766" cy="26.766" r="26.766" fill="url(#linear-gradient-7)"/>
      <path id="Caminho_8056" data-name="Caminho 8056" d="M102.772,286.1a34.184,34.184,0,0,1,0,47.783H419.923V286.1Z" transform="translate(-51.532 -283.22)" fill="url(#linear-gradient-8)"/>
      <circle id="Elipse_158" data-name="Elipse 158" cx="8.074" cy="8.074" r="8.074" transform="translate(18.692 18.692)" fill="#fff"/>
      <g id="Grupo_2994" data-name="Grupo 2994" transform="translate(72.353 12.721)">
        <path id="Caminho_8057" data-name="Caminho 8057" d="M142.3,309.194a2.766,2.766,0,0,1-.443,1.55,2.9,2.9,0,0,1-1.278,1.053,4.735,4.735,0,0,1-1.958.375,7.927,7.927,0,0,1-1.573-.131,5.816,5.816,0,0,1-1.322-.459v-2.259a7.538,7.538,0,0,0,1.508.581,5.6,5.6,0,0,0,1.438.209,1.393,1.393,0,0,0,.828-.2.6.6,0,0,0,.263-.5.55.55,0,0,0-.106-.336,1.236,1.236,0,0,0-.34-.292q-.234-.147-1.249-.6a5.975,5.975,0,0,1-1.377-.809,2.486,2.486,0,0,1-.68-.9,2.985,2.985,0,0,1-.222-1.2,2.4,2.4,0,0,1,.944-2.022,4.159,4.159,0,0,1,2.594-.725,7.282,7.282,0,0,1,2.972.674l-.777,1.958a5.626,5.626,0,0,0-2.273-.6,1.181,1.181,0,0,0-.719.174.524.524,0,0,0-.225.43.619.619,0,0,0,.286.494,10.766,10.766,0,0,0,1.55.8,4.289,4.289,0,0,1,1.685,1.172,2.544,2.544,0,0,1,.472,1.576Z" transform="translate(-135.724 -301.844)" fill="#fff"/>
        <path id="Caminho_8058" data-name="Caminho 8058" d="M147.938,302.579a1.06,1.06,0,0,1,.315-.841,1.995,1.995,0,0,1,2.035.006,1.054,1.054,0,0,1,.321.835q0,1.1-1.342,1.1T147.938,302.579Zm2.574,9.084H148v-7.273h2.51Z" transform="translate(-140.112 -301.462)" fill="#fff"/>
        <path id="Caminho_8059" data-name="Caminho 8059" d="M157.959,310.631a3.729,3.729,0,0,0,1.214-.251v1.829a4.9,4.9,0,0,1-.966.311,5.411,5.411,0,0,1-1.075.094,2.349,2.349,0,0,1-1.824-.62,2.776,2.776,0,0,1-.559-1.9v-3h-.88v-1.021l1.117-.789.648-1.527h1.643v1.457h1.784v1.881h-1.784v2.831q0,.706.68.707Z" transform="translate(-142.243 -302.286)" fill="#fff"/>
        <path id="Caminho_8060" data-name="Caminho 8060" d="M169.3,313.3l-.315-.905h-.147a2.034,2.034,0,0,1-.877.767,3.051,3.051,0,0,1-1.319.267,2.466,2.466,0,0,1-1.868-.7,2.728,2.728,0,0,1-.668-1.968v-4.738h2.51V310a2.279,2.279,0,0,0,.2,1.079.7.7,0,0,0,.664.366.967.967,0,0,0,.924-.511,3.886,3.886,0,0,0,.276-1.724v-3.184h2.51V313.3H169.3Z" transform="translate(-145.922 -303.103)" fill="#fff"/>
        <path id="Caminho_8061" data-name="Caminho 8061" d="M182.4,313.233l-.481-.963h-.051a2.86,2.86,0,0,1-1.033.86,3.422,3.422,0,0,1-1.362.231,2.133,2.133,0,0,1-1.618-.616,2.4,2.4,0,0,1-.591-1.733,1.971,1.971,0,0,1,.809-1.73,4.427,4.427,0,0,1,2.343-.639l1.214-.038v-.1a.789.789,0,0,0-.886-.9,5.289,5.289,0,0,0-2.022.539L178,306.486a6.97,6.97,0,0,1,3.21-.655,3.119,3.119,0,0,1,2.166.693,2.481,2.481,0,0,1,.767,1.939v4.77H182.4Zm-1.861-1.643a1.13,1.13,0,0,0,.78-.288.96.96,0,0,0,.324-.752v-.565l-.578.026q-1.239.044-1.239.911,0,.668.712.668Z" transform="translate(-150.648 -303.032)" fill="#fff"/>
        <path id="Caminho_8062" data-name="Caminho 8062" d="M193.8,313.36a3.572,3.572,0,0,1-2.706-.963,3.848,3.848,0,0,1-.921-2.767,3.465,3.465,0,0,1,3.826-3.8,5.3,5.3,0,0,1,2.382.552l-.738,1.856a8.2,8.2,0,0,0-.841-.318,2.7,2.7,0,0,0-.8-.119,1.086,1.086,0,0,0-.944.475,2.314,2.314,0,0,0-.334,1.342q0,1.745,1.29,1.746a3.905,3.905,0,0,0,2.118-.642v2a4.125,4.125,0,0,1-2.33.642Zm1.265,1.49a1.412,1.412,0,0,1-.481,1.12,1.875,1.875,0,0,1-1.278.42,4,4,0,0,1-1.367-.186v-1.316a3.087,3.087,0,0,0,.944.174q.334,0,.334-.3a.456.456,0,0,0-.263-.375,2.235,2.235,0,0,0-.687-.26l.463-.893h1.3l-.058.186a1.853,1.853,0,0,1,.854.594,1.436,1.436,0,0,1,.238.838Z" transform="translate(-155.285 -303.031)" fill="#fff"/>
        <path id="Caminho_8063" data-name="Caminho 8063" d="M206.246,311.692l-.481-.963h-.051a2.861,2.861,0,0,1-1.033.86,3.422,3.422,0,0,1-1.362.231,2.133,2.133,0,0,1-1.618-.616,2.4,2.4,0,0,1-.591-1.733,1.971,1.971,0,0,1,.809-1.73,4.427,4.427,0,0,1,2.343-.639l1.214-.038v-.1a.789.789,0,0,0-.886-.9,5.289,5.289,0,0,0-2.022.539l-.725-1.656a6.97,6.97,0,0,1,3.21-.655,3.119,3.119,0,0,1,2.166.693,2.481,2.481,0,0,1,.767,1.939v4.77h-1.74Zm-.218-7.954a1.85,1.85,0,0,1-.581-.1c-.195-.065-.386-.135-.575-.212s-.372-.147-.548-.211a1.473,1.473,0,0,0-.5-.1q-.347,0-.463.629H202.2a3.179,3.179,0,0,1,.462-1.659,1.34,1.34,0,0,1,1.156-.536,1.6,1.6,0,0,1,.52.1q.276.1.559.212t.559.212a1.585,1.585,0,0,0,.52.1.339.339,0,0,0,.295-.161,1.252,1.252,0,0,0,.167-.468h1.169a3.145,3.145,0,0,1-.475,1.634,1.288,1.288,0,0,1-1.1.562Zm-1.643,6.31a1.13,1.13,0,0,0,.78-.288.96.96,0,0,0,.324-.752v-.565l-.578.026q-1.239.044-1.239.911,0,.668.712.668Z" transform="translate(-159.216 -301.491)" fill="#fff"/>
        <path id="Caminho_8064" data-name="Caminho 8064" d="M221.277,309.579a3.853,3.853,0,0,1-.96,2.783,3.553,3.553,0,0,1-2.687,1A3.482,3.482,0,0,1,215,312.34a4.42,4.42,0,0,1-.019-5.524,3.588,3.588,0,0,1,2.693-.985,3.834,3.834,0,0,1,1.894.456,3.11,3.11,0,0,1,1.268,1.306,4.219,4.219,0,0,1,.446,1.987Zm-4.712,0a3.221,3.221,0,0,0,.251,1.428.871.871,0,0,0,.841.491.846.846,0,0,0,.825-.491,3.338,3.338,0,0,0,.241-1.428,3.171,3.171,0,0,0-.244-1.406.967.967,0,0,0-1.663,0A3.106,3.106,0,0,0,216.565,309.579Z" transform="translate(-163.853 -303.031)" fill="#fff"/>
        <path id="Caminho_8065" data-name="Caminho 8065" d="M235,311.91a2.175,2.175,0,0,1-1.358-.443,2.814,2.814,0,0,1-.9-1.3,5.781,5.781,0,0,1-.318-2.009,4.716,4.716,0,0,1,.712-2.773,2.274,2.274,0,0,1,1.958-1,2.245,2.245,0,0,1,1.069.244,2.37,2.37,0,0,1,.837.821h.052a12.04,12.04,0,0,1-.122-1.708v-1.945h2.529v9.989h-1.894l-.539-.918h-.1a2.127,2.127,0,0,1-1.932,1.046Zm1.027-1.984a.939.939,0,0,0,.851-.379,2.285,2.285,0,0,0,.267-1.169v-.2a2.542,2.542,0,0,0-.276-1.371A.971.971,0,0,0,236,306.4a.847.847,0,0,0-.767.466,2.653,2.653,0,0,0-.273,1.326,2.463,2.463,0,0,0,.276,1.29.878.878,0,0,0,.789.443Z" transform="translate(-170.465 -301.581)" fill="#fff"/>
        <path id="Caminho_8066" data-name="Caminho 8066" d="M249.443,313.36a3.9,3.9,0,0,1-2.822-.966,3.639,3.639,0,0,1-1-2.751,3.962,3.962,0,0,1,.931-2.828,3.48,3.48,0,0,1,2.658-.985,3.526,3.526,0,0,1,2.539.857,3.257,3.257,0,0,1,.9,2.469v1.117h-4.487a1.245,1.245,0,0,0,.446.957,1.751,1.751,0,0,0,1.146.347,5.537,5.537,0,0,0,1.216-.125,6.1,6.1,0,0,0,1.2-.427v1.8a4.466,4.466,0,0,1-1.22.417,8.455,8.455,0,0,1-1.5.115Zm-.147-5.823a1.042,1.042,0,0,0-.741.28,1.307,1.307,0,0,0-.35.876h2.157a1.252,1.252,0,0,0-.3-.841.985.985,0,0,0-.767-.315Z" transform="translate(-175.206 -303.031)" fill="#fff"/>
        <path id="Caminho_8067" data-name="Caminho 8067" d="M268.515,305.829a3.662,3.662,0,0,1,.623.051l.142.026-.225,2.369a3.7,3.7,0,0,0-.854-.077,1.625,1.625,0,0,0-1.194.375,1.472,1.472,0,0,0-.373,1.082v3.576h-2.51v-7.273h1.868l.391,1.162h.122a2.5,2.5,0,0,1,.877-.934,2.1,2.1,0,0,1,1.133-.357Z" transform="translate(-181.855 -303.031)" fill="#fff"/>
        <path id="Caminho_8068" data-name="Caminho 8068" d="M273.672,302.579a1.06,1.06,0,0,1,.315-.841,1.995,1.995,0,0,1,2.035.006,1.054,1.054,0,0,1,.321.835q0,1.1-1.342,1.1T273.672,302.579Zm2.574,9.084h-2.51v-7.273h2.51Z" transform="translate(-185.286 -301.462)" fill="#fff"/>
        <path id="Caminho_8069" data-name="Caminho 8069" d="M285.985,311a2.067,2.067,0,0,1-.8,1.765,3.76,3.76,0,0,1-2.285.6,9.937,9.937,0,0,1-1.406-.086,6.018,6.018,0,0,1-1.22-.318v-2.01a7.519,7.519,0,0,0,1.281.424,5.385,5.385,0,0,0,1.242.167q.815,0,.815-.372a.423.423,0,0,0-.227-.343,10.51,10.51,0,0,0-1.326-.587,3.307,3.307,0,0,1-1.4-.934,2.128,2.128,0,0,1-.4-1.326,1.836,1.836,0,0,1,.783-1.579,3.739,3.739,0,0,1,2.215-.565,5.573,5.573,0,0,1,1.351.158,7.987,7.987,0,0,1,1.313.459l-.68,1.618a7.664,7.664,0,0,0-1.059-.383,3.538,3.538,0,0,0-.911-.157q-.617,0-.616.3a.376.376,0,0,0,.215.318,11.521,11.521,0,0,0,1.242.536,4.728,4.728,0,0,1,1.139.616,1.847,1.847,0,0,1,.552.709,2.492,2.492,0,0,1,.176.992Z" transform="translate(-187.654 -303.031)" fill="#fff"/>
        <path id="Caminho_8070" data-name="Caminho 8070" d="M294.5,313.36a3.572,3.572,0,0,1-2.706-.963,3.848,3.848,0,0,1-.921-2.767,3.465,3.465,0,0,1,3.826-3.8,5.3,5.3,0,0,1,2.382.552l-.738,1.856a8.2,8.2,0,0,0-.841-.318,2.7,2.7,0,0,0-.8-.119,1.086,1.086,0,0,0-.944.475,2.314,2.314,0,0,0-.334,1.342q0,1.745,1.29,1.746a3.905,3.905,0,0,0,2.118-.642v2a4.125,4.125,0,0,1-2.33.642Z" transform="translate(-191.467 -303.031)" fill="#fff"/>
        <path id="Caminho_8071" data-name="Caminho 8071" d="M309.2,309.579a3.853,3.853,0,0,1-.96,2.783,3.552,3.552,0,0,1-2.687,1,3.482,3.482,0,0,1-2.635-1.021,4.42,4.42,0,0,1-.019-5.524,3.588,3.588,0,0,1,2.693-.985,3.834,3.834,0,0,1,1.894.456,3.107,3.107,0,0,1,1.268,1.306,4.211,4.211,0,0,1,.447,1.987Zm-4.712,0a3.221,3.221,0,0,0,.251,1.428.871.871,0,0,0,.841.491.846.846,0,0,0,.825-.491,3.338,3.338,0,0,0,.241-1.428,3.17,3.17,0,0,0-.244-1.406.967.967,0,0,0-1.663,0A3.106,3.106,0,0,0,304.486,309.579Z" transform="translate(-195.44 -303.031)" fill="#fff"/>
        <path id="Caminho_8072" data-name="Caminho 8072" d="M324.169,313.36a3.9,3.9,0,0,1-2.821-.966,3.637,3.637,0,0,1-1-2.751,3.962,3.962,0,0,1,.931-2.828,3.482,3.482,0,0,1,2.658-.985,3.525,3.525,0,0,1,2.539.857,3.255,3.255,0,0,1,.9,2.469v1.117h-4.488a1.243,1.243,0,0,0,.446.957,1.749,1.749,0,0,0,1.146.347,5.547,5.547,0,0,0,1.217-.125,6.094,6.094,0,0,0,1.2-.427v1.8a4.462,4.462,0,0,1-1.219.417,8.458,8.458,0,0,1-1.5.115Zm-.147-5.823a1.042,1.042,0,0,0-.741.28,1.31,1.31,0,0,0-.35.876h2.157a1.246,1.246,0,0,0-.3-.841.985.985,0,0,0-.767-.315Z" transform="translate(-202.053 -303.031)" fill="#fff"/>
        <path id="Caminho_8073" data-name="Caminho 8073" d="M340.269,313.3l-2.773-7.273h2.619l1.233,4.3c0,.021.013.058.026.109s.026.113.039.183.024.146.035.226a1.618,1.618,0,0,1,.016.222h.044a2.582,2.582,0,0,1,.116-.726l1.29-4.313h2.613l-2.773,7.273H340.27Z" transform="translate(-208.216 -303.104)" fill="#fff"/>
        <path id="Caminho_8074" data-name="Caminho 8074" d="M356.557,313.3l-.315-.905H356.1a2.036,2.036,0,0,1-.876.767,3.054,3.054,0,0,1-1.32.267,2.463,2.463,0,0,1-1.868-.7,2.728,2.728,0,0,1-.668-1.968v-4.738h2.51V310a2.288,2.288,0,0,0,.2,1.079.7.7,0,0,0,.664.366.967.967,0,0,0,.925-.511,3.886,3.886,0,0,0,.276-1.724v-3.184h2.51V313.3h-1.894Z" transform="translate(-213.198 -303.103)" fill="#fff"/>
        <path id="Caminho_8075" data-name="Caminho 8075" d="M367.64,311.782h-2.51v-9.989h2.51Z" transform="translate(-218.144 -301.581)" fill="#fff"/>
        <path id="Caminho_8076" data-name="Caminho 8076" d="M376.353,313.233v-3.967a2.269,2.269,0,0,0-.209-1.094.712.712,0,0,0-.671-.369.971.971,0,0,0-.918.507,3.842,3.842,0,0,0-.282,1.74v3.184h-2.51V305.96h1.894l.315.9h.147a1.986,1.986,0,0,1,.889-.77,3.136,3.136,0,0,1,1.306-.257,2.477,2.477,0,0,1,1.878.7,2.732,2.732,0,0,1,.671,1.97v4.732h-2.51Z" transform="translate(-220.527 -303.032)" fill="#fff"/>
        <path id="Caminho_8077" data-name="Caminho 8077" d="M388.845,313.36a3.9,3.9,0,0,1-2.821-.966,3.637,3.637,0,0,1-1-2.751,3.962,3.962,0,0,1,.931-2.828,3.482,3.482,0,0,1,2.658-.985,3.525,3.525,0,0,1,2.539.857,3.255,3.255,0,0,1,.9,2.469v1.117h-4.488a1.243,1.243,0,0,0,.446.957,1.749,1.749,0,0,0,1.146.347,5.547,5.547,0,0,0,1.217-.125,6.094,6.094,0,0,0,1.2-.427v1.8a4.462,4.462,0,0,1-1.219.417,8.458,8.458,0,0,1-1.5.115Zm-.147-5.823a1.042,1.042,0,0,0-.741.28,1.31,1.31,0,0,0-.35.876h2.157a1.245,1.245,0,0,0-.3-.841.985.985,0,0,0-.767-.315Z" transform="translate(-225.29 -303.031)" fill="#fff"/>
        <path id="Caminho_8078" data-name="Caminho 8078" d="M402.586,305.829a3.662,3.662,0,0,1,.623.051l.142.026-.225,2.369a3.706,3.706,0,0,0-.854-.077,1.625,1.625,0,0,0-1.194.375,1.472,1.472,0,0,0-.372,1.082v3.576h-2.51v-7.273h1.868l.391,1.162h.122a2.5,2.5,0,0,1,.876-.934,2.1,2.1,0,0,1,1.133-.357Z" transform="translate(-230.024 -303.031)" fill="#fff"/>
        <path id="Caminho_8079" data-name="Caminho 8079" d="M412.347,313.233l-.481-.963h-.051a2.86,2.86,0,0,1-1.034.86,3.421,3.421,0,0,1-1.361.231,2.132,2.132,0,0,1-1.618-.616,2.4,2.4,0,0,1-.591-1.733,1.971,1.971,0,0,1,.809-1.73,4.427,4.427,0,0,1,2.343-.639l1.214-.038v-.1a.789.789,0,0,0-.886-.9,5.289,5.289,0,0,0-2.022.539l-.725-1.656a6.971,6.971,0,0,1,3.21-.655,3.122,3.122,0,0,1,2.167.693,2.481,2.481,0,0,1,.767,1.939v4.77h-1.74Zm-1.861-1.643a1.13,1.13,0,0,0,.78-.288.958.958,0,0,0,.325-.752v-.565l-.578.026q-1.239.044-1.239.911,0,.668.712.668Z" transform="translate(-233.263 -303.032)" fill="#fff"/>
        <path id="Caminho_8080" data-name="Caminho 8080" d="M425.051,304.379a2.184,2.184,0,0,1,1.884,1,5.815,5.815,0,0,1-.006,5.531,2.253,2.253,0,0,1-1.955,1,2.715,2.715,0,0,1-.719-.087,2.145,2.145,0,0,1-.562-.241,2.933,2.933,0,0,1-.574-.514h-.154l-.4.712h-1.958v-9.989h2.51v2.259q0,.4-.09,1.393h.09a2.139,2.139,0,0,1,1.932-1.065Zm-.918,1.971a.858.858,0,0,0-.77.366,2.114,2.114,0,0,0-.244,1.149v.354a2.511,2.511,0,0,0,.244,1.281.866.866,0,0,0,.8.388.741.741,0,0,0,.68-.452,2.939,2.939,0,0,0,.238-1.332Q425.076,306.35,424.133,306.35Z" transform="translate(-238.076 -301.581)" fill="#fff"/>
        <path id="Caminho_8081" data-name="Caminho 8081" d="M433.724,302.579a1.06,1.06,0,0,1,.315-.841,1.995,1.995,0,0,1,2.035.006,1.054,1.054,0,0,1,.321.835q0,1.1-1.342,1.1T433.724,302.579Zm2.574,9.084h-2.51v-7.273h2.51Z" transform="translate(-242.788 -301.462)" fill="#fff"/>
        <path id="Caminho_8082" data-name="Caminho 8082" d="M442.986,311.782h-2.51v-9.989h2.51Z" transform="translate(-245.214 -301.581)" fill="#fff"/>
        <path id="Caminho_8083" data-name="Caminho 8083" d="M447.029,302.579a1.06,1.06,0,0,1,.315-.841,1.995,1.995,0,0,1,2.035.006,1.054,1.054,0,0,1,.321.835q0,1.1-1.342,1.1T447.029,302.579Zm2.574,9.084h-2.51v-7.273h2.51Z" transform="translate(-247.569 -301.462)" fill="#fff"/>
        <path id="Caminho_8084" data-name="Caminho 8084" d="M455.865,311.91a2.174,2.174,0,0,1-1.358-.443,2.81,2.81,0,0,1-.9-1.3,5.8,5.8,0,0,1-.318-2.009,4.716,4.716,0,0,1,.712-2.773,2.273,2.273,0,0,1,1.958-1,2.246,2.246,0,0,1,1.069.244,2.372,2.372,0,0,1,.838.821h.051a12.04,12.04,0,0,1-.122-1.708v-1.945h2.529v9.989h-1.893l-.539-.918h-.1a2.127,2.127,0,0,1-1.932,1.046Zm1.027-1.984a.939.939,0,0,0,.851-.379,2.279,2.279,0,0,0,.266-1.169v-.2a2.543,2.543,0,0,0-.276-1.371.972.972,0,0,0-.867-.408.847.847,0,0,0-.767.466,2.646,2.646,0,0,0-.273,1.326,2.463,2.463,0,0,0,.276,1.29.878.878,0,0,0,.789.443Z" transform="translate(-249.818 -301.581)" fill="#fff"/>
        <path id="Caminho_8085" data-name="Caminho 8085" d="M471.5,313.233l-.481-.963h-.051a2.86,2.86,0,0,1-1.034.86,3.421,3.421,0,0,1-1.361.231,2.132,2.132,0,0,1-1.618-.616,2.4,2.4,0,0,1-.591-1.733,1.971,1.971,0,0,1,.809-1.73,4.427,4.427,0,0,1,2.343-.639l1.214-.038v-.1a.789.789,0,0,0-.886-.9,5.289,5.289,0,0,0-2.022.539l-.725-1.656a6.97,6.97,0,0,1,3.21-.655,3.122,3.122,0,0,1,2.167.693,2.481,2.481,0,0,1,.767,1.939v4.77H471.5Zm-1.861-1.643a1.13,1.13,0,0,0,.78-.288.958.958,0,0,0,.325-.752v-.565l-.578.026q-1.239.044-1.239.911,0,.668.712.668Z" transform="translate(-254.516 -303.032)" fill="#fff"/>
        <path id="Caminho_8086" data-name="Caminho 8086" d="M481.846,311.91a2.174,2.174,0,0,1-1.358-.443,2.81,2.81,0,0,1-.9-1.3,5.8,5.8,0,0,1-.318-2.009,4.716,4.716,0,0,1,.712-2.773,2.274,2.274,0,0,1,1.958-1,2.246,2.246,0,0,1,1.069.244,2.372,2.372,0,0,1,.838.821h.051a12.04,12.04,0,0,1-.122-1.708v-1.945h2.529v9.989h-1.893l-.539-.918h-.1a2.127,2.127,0,0,1-1.932,1.046Zm1.027-1.984a.939.939,0,0,0,.851-.379,2.279,2.279,0,0,0,.266-1.169v-.2a2.543,2.543,0,0,0-.276-1.371.972.972,0,0,0-.867-.408.847.847,0,0,0-.767.466,2.646,2.646,0,0,0-.273,1.326,2.463,2.463,0,0,0,.276,1.29.878.878,0,0,0,.789.443Z" transform="translate(-259.153 -301.581)" fill="#fff"/>
        <path id="Caminho_8087" data-name="Caminho 8087" d="M496.293,313.36a3.9,3.9,0,0,1-2.821-.966,3.637,3.637,0,0,1-1-2.751,3.962,3.962,0,0,1,.931-2.828,3.482,3.482,0,0,1,2.658-.985,3.525,3.525,0,0,1,2.539.857,3.255,3.255,0,0,1,.9,2.469v1.117H495a1.243,1.243,0,0,0,.446.957,1.749,1.749,0,0,0,1.146.347,5.547,5.547,0,0,0,1.217-.125,6.094,6.094,0,0,0,1.2-.427v1.8a4.461,4.461,0,0,1-1.219.417,8.457,8.457,0,0,1-1.5.115Zm-.147-5.823a1.042,1.042,0,0,0-.741.28,1.31,1.31,0,0,0-.35.876h2.157a1.246,1.246,0,0,0-.3-.841.985.985,0,0,0-.767-.315Z" transform="translate(-263.893 -303.031)" fill="#fff"/>
        <path id="Caminho_8088" data-name="Caminho 8088" d="M513.056,311.91a2.174,2.174,0,0,1-1.358-.443,2.81,2.81,0,0,1-.9-1.3,5.8,5.8,0,0,1-.318-2.009,4.716,4.716,0,0,1,.712-2.773,2.274,2.274,0,0,1,1.958-1,2.246,2.246,0,0,1,1.069.244,2.371,2.371,0,0,1,.838.821h.051a12.036,12.036,0,0,1-.122-1.708v-1.945h2.529v9.989h-1.893l-.539-.918h-.1a2.127,2.127,0,0,1-1.932,1.046Zm1.027-1.984a.939.939,0,0,0,.851-.379,2.279,2.279,0,0,0,.266-1.169v-.2a2.542,2.542,0,0,0-.276-1.371.971.971,0,0,0-.867-.408.847.847,0,0,0-.767.466,2.646,2.646,0,0,0-.273,1.326,2.462,2.462,0,0,0,.276,1.29.878.878,0,0,0,.789.443Z" transform="translate(-270.366 -301.581)" fill="#fff"/>
        <path id="Caminho_8089" data-name="Caminho 8089" d="M528.692,313.233l-.481-.963h-.051a2.861,2.861,0,0,1-1.033.86,3.421,3.421,0,0,1-1.361.231,2.133,2.133,0,0,1-1.618-.616,2.4,2.4,0,0,1-.591-1.733,1.971,1.971,0,0,1,.809-1.73,4.427,4.427,0,0,1,2.343-.639l1.214-.038v-.1a.789.789,0,0,0-.886-.9,5.289,5.289,0,0,0-2.022.539l-.725-1.656a6.971,6.971,0,0,1,3.21-.655,3.122,3.122,0,0,1,2.167.693,2.481,2.481,0,0,1,.767,1.939v4.77h-1.74Zm-1.861-1.643a1.129,1.129,0,0,0,.78-.288.958.958,0,0,0,.325-.752v-.565l-.578.026q-1.239.044-1.239.911,0,.668.713.668Z" transform="translate(-275.063 -303.032)" fill="#fff"/>
        <path id="Caminho_8090" data-name="Caminho 8090" d="M140.541,337.984a2.264,2.264,0,0,1-1.856-.841h-.115a9.25,9.25,0,0,1,.115.95v2.921h-2.51V330.583h2.041l.353.924h.115a2.2,2.2,0,0,1,1.932-1.053,2.175,2.175,0,0,1,1.894,1,4.8,4.8,0,0,1,.687,2.747,4.723,4.723,0,0,1-.716,2.77,2.257,2.257,0,0,1-1.942,1.011Zm-.841-5.56a.812.812,0,0,0-.774.395,2.583,2.583,0,0,0-.241,1.172v.2a2.741,2.741,0,0,0,.251,1.354.852.852,0,0,0,.789.417.735.735,0,0,0,.7-.414,3.143,3.143,0,0,0,.218-1.371,3.03,3.03,0,0,0-.218-1.345.757.757,0,0,0-.725-.408Z" transform="translate(-135.886 -311.878)" fill="#fff"/>
        <path id="Caminho_8091" data-name="Caminho 8091" d="M156.141,334.2a3.853,3.853,0,0,1-.96,2.783,3.553,3.553,0,0,1-2.687,1,3.481,3.481,0,0,1-2.635-1.021,4.42,4.42,0,0,1-.019-5.524,3.588,3.588,0,0,1,2.693-.985,3.834,3.834,0,0,1,1.894.456,3.11,3.11,0,0,1,1.268,1.306,4.219,4.219,0,0,1,.446,1.987Zm-4.712,0a3.221,3.221,0,0,0,.251,1.428.871.871,0,0,0,.841.491.846.846,0,0,0,.825-.491,3.338,3.338,0,0,0,.241-1.428,3.171,3.171,0,0,0-.244-1.406.967.967,0,0,0-1.663,0A3.106,3.106,0,0,0,151.429,334.2Z" transform="translate(-140.451 -311.878)" fill="#fff"/>
        <path id="Caminho_8092" data-name="Caminho 8092" d="M166.812,337.984a2.264,2.264,0,0,1-1.856-.841h-.115a9.25,9.25,0,0,1,.115.95v2.921h-2.51V330.583h2.041l.353.924h.115a2.2,2.2,0,0,1,1.932-1.053,2.175,2.175,0,0,1,1.894,1,4.8,4.8,0,0,1,.687,2.747,4.723,4.723,0,0,1-.716,2.77,2.257,2.257,0,0,1-1.942,1.011Zm-.841-5.56a.812.812,0,0,0-.774.395,2.583,2.583,0,0,0-.241,1.172v.2a2.741,2.741,0,0,0,.251,1.354.852.852,0,0,0,.789.417.735.735,0,0,0,.7-.414,3.143,3.143,0,0,0,.218-1.371,3.03,3.03,0,0,0-.218-1.345.757.757,0,0,0-.725-.408Z" transform="translate(-145.325 -311.878)" fill="#fff"/>
        <path id="Caminho_8093" data-name="Caminho 8093" d="M180.816,337.928l-.315-.905h-.147a2.034,2.034,0,0,1-.877.767,3.051,3.051,0,0,1-1.319.267,2.466,2.466,0,0,1-1.868-.7,2.728,2.728,0,0,1-.668-1.968v-4.738h2.51v3.973a2.279,2.279,0,0,0,.2,1.079.7.7,0,0,0,.664.366.967.967,0,0,0,.924-.511,3.886,3.886,0,0,0,.276-1.724v-3.184h2.51v7.273h-1.894Z" transform="translate(-150.058 -311.95)" fill="#fff"/>
        <path id="Caminho_8094" data-name="Caminho 8094" d="M191.9,336.406h-2.51v-9.989h2.51Z" transform="translate(-155.005 -310.428)" fill="#fff"/>
        <path id="Caminho_8095" data-name="Caminho 8095" d="M200.546,337.857l-.481-.963h-.051a2.86,2.86,0,0,1-1.033.86,3.422,3.422,0,0,1-1.362.231,2.133,2.133,0,0,1-1.618-.616,2.4,2.4,0,0,1-.591-1.733,1.971,1.971,0,0,1,.809-1.73,4.428,4.428,0,0,1,2.343-.639l1.214-.038v-.1a.789.789,0,0,0-.886-.9,5.289,5.289,0,0,0-2.022.539l-.725-1.656a6.97,6.97,0,0,1,3.21-.655,3.119,3.119,0,0,1,2.166.693,2.481,2.481,0,0,1,.767,1.939v4.77h-1.74Zm-1.861-1.643a1.13,1.13,0,0,0,.78-.288.96.96,0,0,0,.324-.752v-.565l-.578.026q-1.239.044-1.239.911,0,.668.712.668Z" transform="translate(-157.168 -311.878)" fill="#fff"/>
        <path id="Caminho_8096" data-name="Caminho 8096" d="M211.942,337.984a3.572,3.572,0,0,1-2.706-.963,3.848,3.848,0,0,1-.921-2.767,3.465,3.465,0,0,1,3.826-3.8,5.3,5.3,0,0,1,2.382.552l-.738,1.856a8.209,8.209,0,0,0-.841-.318,2.7,2.7,0,0,0-.8-.119,1.086,1.086,0,0,0-.944.475,2.314,2.314,0,0,0-.334,1.342q0,1.745,1.29,1.746a3.905,3.905,0,0,0,2.118-.642v2a4.125,4.125,0,0,1-2.33.642Zm1.265,1.49a1.412,1.412,0,0,1-.481,1.12,1.875,1.875,0,0,1-1.278.42,4,4,0,0,1-1.367-.186v-1.316a3.086,3.086,0,0,0,.944.174q.334,0,.334-.3a.456.456,0,0,0-.263-.375,2.234,2.234,0,0,0-.687-.26l.463-.893h1.3l-.058.186a1.853,1.853,0,0,1,.854.594,1.436,1.436,0,0,1,.238.838Z" transform="translate(-161.804 -311.878)" fill="#fff"/>
        <path id="Caminho_8097" data-name="Caminho 8097" d="M224.392,336.316l-.481-.963h-.051a2.861,2.861,0,0,1-1.033.86,3.422,3.422,0,0,1-1.362.231,2.134,2.134,0,0,1-1.618-.616,2.4,2.4,0,0,1-.591-1.733,1.971,1.971,0,0,1,.809-1.73,4.428,4.428,0,0,1,2.343-.639l1.214-.038v-.1a.789.789,0,0,0-.886-.9,5.29,5.29,0,0,0-2.022.539l-.725-1.656a6.97,6.97,0,0,1,3.21-.655,3.119,3.119,0,0,1,2.166.693,2.481,2.481,0,0,1,.767,1.939v4.77h-1.74Zm-.218-7.954a1.85,1.85,0,0,1-.581-.1c-.195-.065-.386-.135-.575-.212s-.372-.147-.548-.211a1.472,1.472,0,0,0-.5-.1q-.347,0-.463.629h-1.155a3.18,3.18,0,0,1,.462-1.659,1.34,1.34,0,0,1,1.156-.536,1.6,1.6,0,0,1,.52.1q.276.1.559.212t.559.212a1.584,1.584,0,0,0,.52.1.339.339,0,0,0,.295-.161,1.252,1.252,0,0,0,.167-.468h1.169a3.145,3.145,0,0,1-.475,1.634,1.288,1.288,0,0,1-1.1.562Zm-1.643,6.31a1.13,1.13,0,0,0,.78-.288.96.96,0,0,0,.324-.752v-.565l-.578.026q-1.239.044-1.239.911,0,.668.712.668Z" transform="translate(-165.735 -310.338)" fill="#fff"/>
        <path id="Caminho_8098" data-name="Caminho 8098" d="M239.423,334.2a3.853,3.853,0,0,1-.96,2.783,3.553,3.553,0,0,1-2.687,1,3.481,3.481,0,0,1-2.635-1.021,4.42,4.42,0,0,1-.019-5.524,3.588,3.588,0,0,1,2.693-.985,3.834,3.834,0,0,1,1.894.456,3.11,3.11,0,0,1,1.268,1.306,4.219,4.219,0,0,1,.446,1.987Zm-4.712,0a3.221,3.221,0,0,0,.251,1.428.871.871,0,0,0,.841.491.846.846,0,0,0,.825-.491,3.338,3.338,0,0,0,.241-1.428,3.171,3.171,0,0,0-.244-1.406.967.967,0,0,0-1.663,0A3.106,3.106,0,0,0,234.711,334.2Z" transform="translate(-170.372 -311.878)" fill="#fff"/>
        <path id="Caminho_8099" data-name="Caminho 8099" d="M245.237,339.653a1.176,1.176,0,0,1,.35-.912,1.455,1.455,0,0,1,1.017-.321,1.368,1.368,0,0,1,.976.321,1.194,1.194,0,0,1,.34.912,1.168,1.168,0,0,1-.35.9,1.365,1.365,0,0,1-.966.324,1.47,1.47,0,0,1-1-.32,1.143,1.143,0,0,1-.366-.905Z" transform="translate(-175.069 -314.74)" fill="#fff"/>
      </g>
    </g>
    <g id="Grupo_2997" data-name="Grupo 2997" transform="translate(0 237.617)">
      <circle id="Elipse_159" data-name="Elipse 159" cx="26.766" cy="26.766" r="26.766" fill="url(#linear-gradient-9)"/>
      <path id="Caminho_8100" data-name="Caminho 8100" d="M79.972,375.345a34.184,34.184,0,0,1,0,47.783h331.76V375.345Z" transform="translate(-28.732 -372.47)" fill="url(#linear-gradient-10)"/>
      <g id="Grupo_2996" data-name="Grupo 2996" transform="translate(73.334 20.609)">
        <path id="Caminho_8101" data-name="Caminho 8101" d="M121.267,407.281a3.143,3.143,0,0,1-.928,2.43,3.741,3.741,0,0,1-2.635.857h-.712v3.113h-2.536V404.3H117.7a3.971,3.971,0,0,1,2.671.777A2.771,2.771,0,0,1,121.267,407.281Zm-4.276,1.219h.463a1.261,1.261,0,0,0,.908-.321,1.165,1.165,0,0,0,.337-.886q0-.95-1.053-.95h-.655V408.5Z" transform="translate(-114.455 -403.48)" fill="#fff"/>
        <path id="Caminho_8102" data-name="Caminho 8102" d="M131.582,407.39a3.666,3.666,0,0,1,.623.051l.142.026-.225,2.369a3.7,3.7,0,0,0-.854-.077,1.625,1.625,0,0,0-1.194.375,1.472,1.472,0,0,0-.373,1.082v3.576h-2.51v-7.273h1.868l.391,1.162h.122a2.5,2.5,0,0,1,.876-.934,2.1,2.1,0,0,1,1.133-.357Z" transform="translate(-119.031 -404.592)" fill="#fff"/>
        <path id="Caminho_8103" data-name="Caminho 8103" d="M140.154,414.921a3.9,3.9,0,0,1-2.822-.966,3.639,3.639,0,0,1-1-2.751,3.962,3.962,0,0,1,.931-2.828,3.48,3.48,0,0,1,2.658-.985,3.526,3.526,0,0,1,2.539.857,3.257,3.257,0,0,1,.9,2.469v1.117h-4.487a1.245,1.245,0,0,0,.446.957,1.75,1.75,0,0,0,1.146.347,5.535,5.535,0,0,0,1.216-.125,6.1,6.1,0,0,0,1.2-.427v1.8a4.47,4.47,0,0,1-1.22.417,8.461,8.461,0,0,1-1.5.115Zm-.147-5.823a1.042,1.042,0,0,0-.741.28,1.307,1.307,0,0,0-.35.876h2.157a1.252,1.252,0,0,0-.3-.841.985.985,0,0,0-.767-.315Z" transform="translate(-122.313 -404.592)" fill="#fff"/>
        <path id="Caminho_8104" data-name="Caminho 8104" d="M155.064,412.56a2.067,2.067,0,0,1-.8,1.765,3.76,3.76,0,0,1-2.285.6,9.937,9.937,0,0,1-1.406-.086,6.017,6.017,0,0,1-1.22-.318v-2.01a7.523,7.523,0,0,0,1.281.424,5.386,5.386,0,0,0,1.242.167q.815,0,.815-.372a.423.423,0,0,0-.227-.343,10.511,10.511,0,0,0-1.326-.587,3.307,3.307,0,0,1-1.4-.934,2.128,2.128,0,0,1-.4-1.326,1.836,1.836,0,0,1,.783-1.579,3.739,3.739,0,0,1,2.215-.565,5.572,5.572,0,0,1,1.351.158,7.989,7.989,0,0,1,1.313.459l-.68,1.618a7.667,7.667,0,0,0-1.059-.383,3.538,3.538,0,0,0-.911-.157q-.617,0-.616.3a.376.376,0,0,0,.215.318,11.515,11.515,0,0,0,1.242.536,4.727,4.727,0,0,1,1.139.616,1.846,1.846,0,0,1,.552.709,2.491,2.491,0,0,1,.176.992Z" transform="translate(-126.99 -404.593)" fill="#fff"/>
        <path id="Caminho_8105" data-name="Caminho 8105" d="M166,412.56a2.067,2.067,0,0,1-.8,1.765,3.76,3.76,0,0,1-2.285.6,9.937,9.937,0,0,1-1.406-.086,6.017,6.017,0,0,1-1.22-.318v-2.01a7.523,7.523,0,0,0,1.281.424,5.387,5.387,0,0,0,1.242.167q.815,0,.815-.372a.423.423,0,0,0-.227-.343,10.51,10.51,0,0,0-1.326-.587,3.307,3.307,0,0,1-1.4-.934,2.128,2.128,0,0,1-.4-1.326,1.836,1.836,0,0,1,.783-1.579,3.739,3.739,0,0,1,2.215-.565,5.571,5.571,0,0,1,1.351.158,7.988,7.988,0,0,1,1.313.459l-.68,1.618a7.666,7.666,0,0,0-1.059-.383,3.538,3.538,0,0,0-.911-.157q-.617,0-.616.3a.376.376,0,0,0,.215.318,11.515,11.515,0,0,0,1.242.536,4.727,4.727,0,0,1,1.139.616,1.846,1.846,0,0,1,.552.709A2.491,2.491,0,0,1,166,412.56Z" transform="translate(-130.921 -404.593)" fill="#fff"/>
        <path id="Caminho_8106" data-name="Caminho 8106" d="M175.911,413.253l-.481-.963h-.051a2.861,2.861,0,0,1-1.034.861,3.422,3.422,0,0,1-1.362.231,2.134,2.134,0,0,1-1.618-.616,2.4,2.4,0,0,1-.591-1.733,1.971,1.971,0,0,1,.809-1.73,4.428,4.428,0,0,1,2.343-.639l1.214-.038v-.1a.789.789,0,0,0-.886-.9,5.29,5.29,0,0,0-2.022.539l-.725-1.656a6.97,6.97,0,0,1,3.21-.655,3.119,3.119,0,0,1,2.166.693,2.481,2.481,0,0,1,.767,1.939v4.77h-1.74Zm-.218-7.954a1.85,1.85,0,0,1-.581-.1c-.195-.065-.386-.135-.575-.212s-.372-.147-.548-.211a1.472,1.472,0,0,0-.5-.1q-.347,0-.463.629h-1.155a3.18,3.18,0,0,1,.462-1.659,1.34,1.34,0,0,1,1.156-.536,1.6,1.6,0,0,1,.52.1q.276.1.559.212t.559.212a1.586,1.586,0,0,0,.52.1.339.339,0,0,0,.295-.161,1.251,1.251,0,0,0,.167-.468h1.169a3.145,3.145,0,0,1-.475,1.634,1.288,1.288,0,0,1-1.1.562Zm-1.643,6.31a1.13,1.13,0,0,0,.78-.288.96.96,0,0,0,.324-.752V410l-.578.026q-1.239.044-1.239.911,0,.668.712.668Z" transform="translate(-134.689 -403.052)" fill="#fff"/>
        <path id="Caminho_8107" data-name="Caminho 8107" d="M190.942,411.141a3.853,3.853,0,0,1-.96,2.783,3.553,3.553,0,0,1-2.687,1,3.481,3.481,0,0,1-2.635-1.021,4.42,4.42,0,0,1-.019-5.524,3.588,3.588,0,0,1,2.693-.985,3.834,3.834,0,0,1,1.894.456,3.11,3.11,0,0,1,1.268,1.306,4.219,4.219,0,0,1,.446,1.987Zm-4.712,0a3.221,3.221,0,0,0,.251,1.428.871.871,0,0,0,.841.491.846.846,0,0,0,.825-.491,3.338,3.338,0,0,0,.241-1.428,3.171,3.171,0,0,0-.244-1.406.967.967,0,0,0-1.663,0A3.106,3.106,0,0,0,186.23,411.141Z" transform="translate(-139.326 -404.593)" fill="#fff"/>
        <path id="Caminho_8108" data-name="Caminho 8108" d="M207.1,414.794l-.481-.963h-.051a2.861,2.861,0,0,1-1.034.861,3.422,3.422,0,0,1-1.362.231,2.133,2.133,0,0,1-1.618-.616,2.4,2.4,0,0,1-.591-1.733,1.971,1.971,0,0,1,.809-1.73,4.427,4.427,0,0,1,2.343-.639l1.214-.038v-.1a.789.789,0,0,0-.886-.9,5.29,5.29,0,0,0-2.022.539l-.725-1.656a6.97,6.97,0,0,1,3.21-.655,3.119,3.119,0,0,1,2.166.693,2.481,2.481,0,0,1,.767,1.939v4.77H207.1Zm-1.861-1.643a1.13,1.13,0,0,0,.78-.288.96.96,0,0,0,.324-.752v-.565l-.578.026q-1.239.044-1.239.911,0,.668.712.668Z" transform="translate(-145.895 -404.593)" fill="#fff"/>
        <path id="Caminho_8109" data-name="Caminho 8109" d="M220.922,412.56a2.067,2.067,0,0,1-.8,1.765,3.76,3.76,0,0,1-2.285.6,9.937,9.937,0,0,1-1.406-.086,6.018,6.018,0,0,1-1.22-.318v-2.01a7.523,7.523,0,0,0,1.281.424,5.387,5.387,0,0,0,1.242.167q.815,0,.815-.372a.423.423,0,0,0-.227-.343A10.511,10.511,0,0,0,217,411.8a3.307,3.307,0,0,1-1.4-.934,2.128,2.128,0,0,1-.4-1.326,1.836,1.836,0,0,1,.783-1.579,3.739,3.739,0,0,1,2.215-.565,5.571,5.571,0,0,1,1.351.158,7.989,7.989,0,0,1,1.313.459l-.68,1.618a7.667,7.667,0,0,0-1.059-.383,3.538,3.538,0,0,0-.911-.157q-.617,0-.616.3a.376.376,0,0,0,.215.318,11.515,11.515,0,0,0,1.242.536,4.728,4.728,0,0,1,1.139.616,1.846,1.846,0,0,1,.552.709,2.491,2.491,0,0,1,.176.992Z" transform="translate(-150.651 -404.593)" fill="#fff"/>
        <path id="Caminho_8110" data-name="Caminho 8110" d="M231.863,412.56a2.067,2.067,0,0,1-.8,1.765,3.76,3.76,0,0,1-2.285.6,9.937,9.937,0,0,1-1.406-.086,6.017,6.017,0,0,1-1.22-.318v-2.01a7.523,7.523,0,0,0,1.281.424,5.386,5.386,0,0,0,1.242.167q.815,0,.815-.372a.423.423,0,0,0-.227-.343,10.511,10.511,0,0,0-1.326-.587,3.307,3.307,0,0,1-1.4-.934,2.128,2.128,0,0,1-.4-1.326,1.836,1.836,0,0,1,.783-1.579,3.739,3.739,0,0,1,2.215-.565,5.572,5.572,0,0,1,1.351.158,7.989,7.989,0,0,1,1.313.459l-.68,1.618a7.666,7.666,0,0,0-1.059-.383,3.538,3.538,0,0,0-.911-.157q-.617,0-.616.3a.376.376,0,0,0,.215.318,11.515,11.515,0,0,0,1.242.536,4.727,4.727,0,0,1,1.139.616,1.846,1.846,0,0,1,.552.709,2.491,2.491,0,0,1,.176.992Z" transform="translate(-154.582 -404.593)" fill="#fff"/>
        <path id="Caminho_8111" data-name="Caminho 8111" d="M237.164,404.14a1.06,1.06,0,0,1,.315-.841,1.995,1.995,0,0,1,2.035.006,1.054,1.054,0,0,1,.321.835q0,1.1-1.342,1.1T237.164,404.14Zm2.574,9.084h-2.51V405.95h2.51Z" transform="translate(-158.542 -403.023)" fill="#fff"/>
        <path id="Caminho_8112" data-name="Caminho 8112" d="M249.477,412.56a2.067,2.067,0,0,1-.8,1.765,3.76,3.76,0,0,1-2.285.6,9.937,9.937,0,0,1-1.406-.086,6.017,6.017,0,0,1-1.22-.318v-2.01a7.523,7.523,0,0,0,1.281.424,5.387,5.387,0,0,0,1.242.167q.815,0,.815-.372a.423.423,0,0,0-.227-.343,10.513,10.513,0,0,0-1.326-.587,3.307,3.307,0,0,1-1.4-.934,2.128,2.128,0,0,1-.4-1.326,1.836,1.836,0,0,1,.783-1.579,3.739,3.739,0,0,1,2.215-.565,5.571,5.571,0,0,1,1.351.158,7.989,7.989,0,0,1,1.313.459l-.68,1.618a7.668,7.668,0,0,0-1.059-.383,3.538,3.538,0,0,0-.911-.157q-.617,0-.616.3a.376.376,0,0,0,.215.318,11.513,11.513,0,0,0,1.242.536,4.728,4.728,0,0,1,1.139.616,1.846,1.846,0,0,1,.552.709,2.491,2.491,0,0,1,.176.992Z" transform="translate(-160.91 -404.593)" fill="#fff"/>
        <path id="Caminho_8113" data-name="Caminho 8113" d="M258.127,412.193a3.73,3.73,0,0,0,1.214-.251v1.829a4.9,4.9,0,0,1-.966.311,5.411,5.411,0,0,1-1.075.094,2.349,2.349,0,0,1-1.824-.62,2.776,2.776,0,0,1-.559-1.9v-3h-.88v-1.021l1.117-.789.648-1.527h1.643v1.457h1.784v1.881h-1.784v2.831q0,.706.68.707Z" transform="translate(-164.604 -403.847)" fill="#fff"/>
        <path id="Caminho_8114" data-name="Caminho 8114" d="M267.632,414.921a3.9,3.9,0,0,1-2.822-.966,3.639,3.639,0,0,1-1-2.751,3.962,3.962,0,0,1,.931-2.828,3.48,3.48,0,0,1,2.658-.985,3.527,3.527,0,0,1,2.539.857,3.257,3.257,0,0,1,.9,2.469v1.117h-4.487a1.245,1.245,0,0,0,.446.957,1.75,1.75,0,0,0,1.146.347,5.536,5.536,0,0,0,1.216-.125,6.1,6.1,0,0,0,1.2-.427v1.8a4.47,4.47,0,0,1-1.22.417,8.461,8.461,0,0,1-1.5.115Zm-.147-5.823a1.042,1.042,0,0,0-.741.28,1.307,1.307,0,0,0-.35.876h2.157a1.252,1.252,0,0,0-.3-.841.985.985,0,0,0-.767-.315Z" transform="translate(-168.113 -404.592)" fill="#fff"/>
        <path id="Caminho_8115" data-name="Caminho 8115" d="M281.572,414.794v-3.967a2.277,2.277,0,0,0-.209-1.094.713.713,0,0,0-.671-.369.971.971,0,0,0-.918.507,3.839,3.839,0,0,0-.283,1.74v3.184h-2.51v-7.273h1.894l.315.9h.147a1.982,1.982,0,0,1,.889-.77,3.133,3.133,0,0,1,1.306-.257,2.479,2.479,0,0,1,1.878.7,2.732,2.732,0,0,1,.671,1.97v4.732h-2.51Z" transform="translate(-172.847 -404.593)" fill="#fff"/>
        <path id="Caminho_8116" data-name="Caminho 8116" d="M293.864,414.921a3.572,3.572,0,0,1-2.706-.963,3.848,3.848,0,0,1-.921-2.767,3.465,3.465,0,0,1,3.826-3.8,5.3,5.3,0,0,1,2.382.552l-.738,1.856a8.2,8.2,0,0,0-.841-.318,2.7,2.7,0,0,0-.8-.119,1.086,1.086,0,0,0-.944.475,2.314,2.314,0,0,0-.334,1.342q0,1.745,1.29,1.746a3.905,3.905,0,0,0,2.118-.642v2a4.125,4.125,0,0,1-2.33.642Z" transform="translate(-177.609 -404.592)" fill="#fff"/>
        <path id="Caminho_8117" data-name="Caminho 8117" d="M301.71,404.14a1.06,1.06,0,0,1,.315-.841,1.995,1.995,0,0,1,2.035.006,1.054,1.054,0,0,1,.321.835q0,1.1-1.342,1.1T301.71,404.14Zm2.574,9.084h-2.51V405.95h2.51Z" transform="translate(-181.731 -403.023)" fill="#fff"/>
        <path id="Caminho_8118" data-name="Caminho 8118" d="M312.987,414.794l-.481-.963h-.051a2.861,2.861,0,0,1-1.034.861,3.421,3.421,0,0,1-1.361.231,2.132,2.132,0,0,1-1.618-.616,2.4,2.4,0,0,1-.591-1.733,1.971,1.971,0,0,1,.809-1.73A4.427,4.427,0,0,1,311,410.2l1.214-.038v-.1a.789.789,0,0,0-.886-.9,5.29,5.29,0,0,0-2.022.539l-.725-1.656a6.97,6.97,0,0,1,3.21-.655,3.122,3.122,0,0,1,2.167.693,2.481,2.481,0,0,1,.767,1.939v4.77h-1.74Zm-1.861-1.643a1.13,1.13,0,0,0,.78-.288.958.958,0,0,0,.325-.752v-.565l-.578.026q-1.239.044-1.239.911Q310.414,413.15,311.126,413.15Z" transform="translate(-183.938 -404.593)" fill="#fff"/>
        <path id="Caminho_8119" data-name="Caminho 8119" d="M323.758,413.343h-2.51v-9.989h2.51Z" transform="translate(-188.751 -403.142)" fill="#fff"/>
        <path id="Caminho_8120" data-name="Caminho 8120" d="M335.294,413.471a2.174,2.174,0,0,1-1.358-.443,2.809,2.809,0,0,1-.9-1.3,5.8,5.8,0,0,1-.318-2.009,4.716,4.716,0,0,1,.712-2.773,2.274,2.274,0,0,1,1.958-1,2.245,2.245,0,0,1,1.069.244,2.371,2.371,0,0,1,.838.821h.051a12.04,12.04,0,0,1-.122-1.708v-1.945h2.529v9.989h-1.893l-.539-.918h-.1a2.127,2.127,0,0,1-1.932,1.046Zm1.027-1.984a.939.939,0,0,0,.851-.379,2.28,2.28,0,0,0,.266-1.169v-.2a2.543,2.543,0,0,0-.276-1.371.971.971,0,0,0-.867-.408.847.847,0,0,0-.767.466,2.646,2.646,0,0,0-.273,1.326,2.463,2.463,0,0,0,.276,1.29.878.878,0,0,0,.789.443Z" transform="translate(-192.873 -403.142)" fill="#fff"/>
        <path id="Caminho_8121" data-name="Caminho 8121" d="M350.93,414.794l-.481-.963H350.4a2.861,2.861,0,0,1-1.034.861,3.421,3.421,0,0,1-1.361.231,2.132,2.132,0,0,1-1.618-.616,2.4,2.4,0,0,1-.591-1.733,1.971,1.971,0,0,1,.809-1.73,4.427,4.427,0,0,1,2.343-.639l1.214-.038v-.1a.789.789,0,0,0-.886-.9,5.29,5.29,0,0,0-2.022.539l-.725-1.656a6.97,6.97,0,0,1,3.21-.655,3.122,3.122,0,0,1,2.167.693,2.481,2.481,0,0,1,.767,1.939v4.77h-1.74Zm-1.861-1.643a1.13,1.13,0,0,0,.78-.288.958.958,0,0,0,.325-.752v-.565l-.578.026q-1.239.044-1.239.911Q348.357,413.15,349.069,413.15Z" transform="translate(-197.57 -404.593)" fill="#fff"/>
        <path id="Caminho_8122" data-name="Caminho 8122" d="M368.887,414.921a2.264,2.264,0,0,1-1.856-.841h-.116a9.341,9.341,0,0,1,.116.95v2.921h-2.51V407.52h2.042l.353.924h.116a2.2,2.2,0,0,1,1.932-1.053,2.175,2.175,0,0,1,1.894,1,4.8,4.8,0,0,1,.686,2.747,4.718,4.718,0,0,1-.716,2.77,2.255,2.255,0,0,1-1.941,1.011Zm-.841-5.56a.811.811,0,0,0-.774.395,2.593,2.593,0,0,0-.24,1.172v.2a2.742,2.742,0,0,0,.251,1.354.852.852,0,0,0,.789.417.735.735,0,0,0,.7-.414,3.134,3.134,0,0,0,.218-1.371,3.022,3.022,0,0,0-.218-1.345.757.757,0,0,0-.725-.408Z" transform="translate(-204.298 -404.592)" fill="#fff"/>
        <path id="Caminho_8123" data-name="Caminho 8123" d="M384.487,411.141a3.851,3.851,0,0,1-.96,2.783,3.552,3.552,0,0,1-2.686,1,3.48,3.48,0,0,1-2.635-1.021,4.42,4.42,0,0,1-.019-5.524,3.587,3.587,0,0,1,2.693-.985,3.836,3.836,0,0,1,1.894.456,3.114,3.114,0,0,1,1.268,1.306,4.211,4.211,0,0,1,.446,1.987Zm-4.712,0a3.221,3.221,0,0,0,.251,1.428.869.869,0,0,0,.841.491.845.845,0,0,0,.825-.491,3.338,3.338,0,0,0,.241-1.428,3.171,3.171,0,0,0-.244-1.406.967.967,0,0,0-1.663,0,3.1,3.1,0,0,0-.251,1.409Z" transform="translate(-208.863 -404.593)" fill="#fff"/>
        <path id="Caminho_8124" data-name="Caminho 8124" d="M395.157,414.921a2.264,2.264,0,0,1-1.856-.841h-.116a9.337,9.337,0,0,1,.116.95v2.921h-2.51V407.52h2.042l.353.924h.116a2.2,2.2,0,0,1,1.932-1.053,2.175,2.175,0,0,1,1.894,1,4.8,4.8,0,0,1,.686,2.747,4.718,4.718,0,0,1-.716,2.77,2.255,2.255,0,0,1-1.941,1.011Zm-.841-5.56a.811.811,0,0,0-.774.395,2.593,2.593,0,0,0-.24,1.172v.2a2.742,2.742,0,0,0,.251,1.354.852.852,0,0,0,.789.417.735.735,0,0,0,.7-.414,3.133,3.133,0,0,0,.219-1.371,3.021,3.021,0,0,0-.219-1.345.757.757,0,0,0-.725-.408Z" transform="translate(-213.736 -404.592)" fill="#fff"/>
        <path id="Caminho_8125" data-name="Caminho 8125" d="M409.161,414.865l-.315-.905H408.7a2.036,2.036,0,0,1-.876.767,3.054,3.054,0,0,1-1.32.267,2.463,2.463,0,0,1-1.868-.7,2.728,2.728,0,0,1-.668-1.968v-4.738h2.51v3.973a2.288,2.288,0,0,0,.2,1.079.7.7,0,0,0,.664.366.967.967,0,0,0,.925-.511,3.886,3.886,0,0,0,.276-1.724v-3.184h2.51v7.273h-1.894Z" transform="translate(-218.47 -404.664)" fill="#fff"/>
        <path id="Caminho_8126" data-name="Caminho 8126" d="M420.244,413.343h-2.51v-9.989h2.51Z" transform="translate(-223.416 -403.142)" fill="#fff"/>
        <path id="Caminho_8127" data-name="Caminho 8127" d="M428.891,414.794l-.481-.963h-.051a2.861,2.861,0,0,1-1.034.861,3.421,3.421,0,0,1-1.361.231,2.132,2.132,0,0,1-1.618-.616,2.4,2.4,0,0,1-.591-1.733,1.971,1.971,0,0,1,.809-1.73,4.427,4.427,0,0,1,2.343-.639l1.214-.038v-.1a.789.789,0,0,0-.886-.9,5.29,5.29,0,0,0-2.022.539l-.725-1.656a6.97,6.97,0,0,1,3.21-.655,3.122,3.122,0,0,1,2.167.693,2.481,2.481,0,0,1,.767,1.939v4.77h-1.74Zm-1.861-1.643a1.13,1.13,0,0,0,.78-.288.958.958,0,0,0,.325-.752v-.565l-.578.026q-1.239.044-1.239.911Q426.318,413.15,427.03,413.15Z" transform="translate(-225.58 -404.593)" fill="#fff"/>
        <path id="Caminho_8128" data-name="Caminho 8128" d="M440.288,414.921a3.573,3.573,0,0,1-2.706-.963,3.846,3.846,0,0,1-.921-2.767,3.466,3.466,0,0,1,3.826-3.8,5.3,5.3,0,0,1,2.382.552l-.738,1.856a8.2,8.2,0,0,0-.841-.318,2.7,2.7,0,0,0-.8-.119,1.086,1.086,0,0,0-.944.475,2.309,2.309,0,0,0-.334,1.342q0,1.745,1.29,1.746a3.907,3.907,0,0,0,2.119-.642v2a4.127,4.127,0,0,1-2.331.642Zm1.265,1.49a1.412,1.412,0,0,1-.481,1.12,1.875,1.875,0,0,1-1.278.42,4,4,0,0,1-1.367-.186v-1.316a3.086,3.086,0,0,0,.944.174c.223,0,.334-.1.334-.3a.458.458,0,0,0-.263-.375,2.235,2.235,0,0,0-.687-.26l.463-.893h1.3l-.058.186a1.85,1.85,0,0,1,.854.594A1.435,1.435,0,0,1,441.553,416.411Z" transform="translate(-230.216 -404.592)" fill="#fff"/>
        <path id="Caminho_8129" data-name="Caminho 8129" d="M452.738,413.253l-.481-.963h-.051a2.861,2.861,0,0,1-1.034.861,3.421,3.421,0,0,1-1.361.231,2.133,2.133,0,0,1-1.618-.616,2.4,2.4,0,0,1-.591-1.733,1.971,1.971,0,0,1,.809-1.73,4.428,4.428,0,0,1,2.343-.639l1.214-.038v-.1a.789.789,0,0,0-.886-.9,5.29,5.29,0,0,0-2.022.539l-.725-1.656a6.97,6.97,0,0,1,3.21-.655,3.122,3.122,0,0,1,2.167.693,2.481,2.481,0,0,1,.767,1.939v4.77h-1.74Zm-.219-7.954a1.846,1.846,0,0,1-.58-.1c-.2-.065-.387-.135-.574-.212s-.372-.147-.549-.211a1.47,1.47,0,0,0-.5-.1c-.231,0-.386.21-.463.629h-1.156a3.18,3.18,0,0,1,.463-1.659,1.34,1.34,0,0,1,1.156-.536,1.6,1.6,0,0,1,.52.1q.276.1.559.212c.188.077.374.147.558.212a1.586,1.586,0,0,0,.52.1.34.34,0,0,0,.3-.161,1.274,1.274,0,0,0,.167-.468H454.1a3.139,3.139,0,0,1-.475,1.634,1.288,1.288,0,0,1-1.1.562Zm-1.643,6.31a1.13,1.13,0,0,0,.78-.288.958.958,0,0,0,.325-.752V410l-.578.026q-1.239.044-1.239.911Q450.165,411.61,450.877,411.609Z" transform="translate(-234.147 -403.052)" fill="#fff"/>
        <path id="Caminho_8130" data-name="Caminho 8130" d="M467.769,411.141a3.851,3.851,0,0,1-.96,2.783,3.552,3.552,0,0,1-2.686,1,3.48,3.48,0,0,1-2.635-1.021,4.42,4.42,0,0,1-.019-5.524,3.587,3.587,0,0,1,2.693-.985,3.836,3.836,0,0,1,1.894.456,3.114,3.114,0,0,1,1.268,1.306,4.211,4.211,0,0,1,.446,1.987Zm-4.712,0a3.221,3.221,0,0,0,.251,1.428.869.869,0,0,0,.841.491.845.845,0,0,0,.825-.491,3.338,3.338,0,0,0,.241-1.428,3.17,3.17,0,0,0-.244-1.406.967.967,0,0,0-1.663,0,3.1,3.1,0,0,0-.251,1.409Z" transform="translate(-238.784 -404.593)" fill="#fff"/>
        <path id="Caminho_8131" data-name="Caminho 8131" d="M473.583,416.59a1.176,1.176,0,0,1,.35-.912,1.453,1.453,0,0,1,1.018-.321,1.366,1.366,0,0,1,.975.321,1.194,1.194,0,0,1,.34.912,1.168,1.168,0,0,1-.35.9,1.365,1.365,0,0,1-.966.324,1.468,1.468,0,0,1-1-.32A1.141,1.141,0,0,1,473.583,416.59Z" transform="translate(-243.481 -407.454)" fill="#fff"/>
      </g>
      <circle id="Elipse_160" data-name="Elipse 160" cx="8.074" cy="8.074" r="8.074" transform="translate(18.692 18.692)" fill="#fff"/>
    </g>
  </g>
</svg>
